<svg width="31" height="30" viewBox="0 0 31 30" fill="none" xmlns="http://www.w3.org/2000/svg">
<g clip-path="url(#clip0_1809_1905)">
<path d="M26.2703 25.3843H21.8657V18.5544C21.8657 16.9258 21.8363 14.8292 19.5748 14.8292C17.2807 14.8292 16.9297 16.6037 16.9297 18.4359V25.3839H12.5251V11.3389H16.7535V13.2583H16.8127C17.2359 12.5419 17.8474 11.9525 18.5821 11.553C19.3168 11.1535 20.1471 10.9587 20.9847 10.9895C25.449 10.9895 26.2721 13.897 26.2721 17.6795L26.2703 25.3843ZM7.55522 9.419C7.04968 9.41909 6.55545 9.27075 6.13506 8.99272C5.71466 8.7147 5.387 8.31949 5.19346 7.85706C4.99991 7.39464 4.94919 6.88577 5.04772 6.39481C5.14626 5.90385 5.38963 5.45285 5.74704 5.09883C6.10444 4.74482 6.55985 4.50369 7.05566 4.40595C7.55146 4.30821 8.0654 4.35824 8.53249 4.54971C8.99959 4.74118 9.39885 5.0655 9.67978 5.48165C9.96072 5.89781 10.1107 6.3871 10.1108 6.88766C10.1109 7.22002 10.0448 7.54914 9.91642 7.85622C9.78802 8.16331 9.59981 8.44234 9.3625 8.6774C9.12519 8.91246 8.84343 9.09893 8.53333 9.22617C8.22324 9.35342 7.89088 9.41894 7.55522 9.419ZM9.75752 25.3843H5.34832V11.3389H9.75752V25.3843ZM28.4662 0.307181H3.135C2.56006 0.300757 2.00603 0.520607 1.59471 0.918422C1.18339 1.31624 0.948423 1.85947 0.941406 2.42874V27.6145C0.948183 28.184 1.18301 28.7276 1.59432 29.1259C2.00562 29.5241 2.55977 29.7444 3.135 29.7383H28.4662C29.0425 29.7455 29.5982 29.5258 30.0112 29.1276C30.4241 28.7294 30.6605 28.1852 30.6685 27.6145V2.42693C30.6603 1.85652 30.4237 1.31267 30.0107 0.914867C29.5978 0.517063 29.0423 0.29784 28.4662 0.305363" fill="#525252"/>
</g>
<defs>
<clipPath id="clip0_1809_1905">
<rect width="30.4688" height="30" fill="white" transform="translate(0.53125)"/>
</clipPath>
</defs>
</svg>
