<svg width="53" height="40" viewBox="0 0 53 40" fill="none" xmlns="http://www.w3.org/2000/svg">
<g clip-path="url(#clip0_1809_1289)">
<path d="M16.3976 0.299159C12.682 1.03639 9.27236 2.79933 6.52578 5.40767C4.73079 7.11652 3.61827 8.59098 2.55917 10.6417C0.92578 13.8077 0.31543 16.3613 0.31543 19.9766C0.31543 23.592 0.92578 26.1462 2.55917 29.3115C3.61827 31.3623 4.73079 32.8367 6.52578 34.5456C10.2767 38.1249 14.8717 39.9419 20.1485 39.9419C23.6663 39.9419 26.3047 39.3302 29.2123 37.8731C30.666 37.1359 32.6226 35.8765 32.6226 35.6608C32.6226 35.5886 31.5275 34.4374 30.1999 33.1065L27.7765 30.6785L26.6994 31.2721C24.6894 32.3873 23.2356 32.7833 20.8483 32.8728C19.036 32.9449 18.4436 32.9088 17.1689 32.585C11.2997 31.1098 7.3151 26.02 7.3151 19.9766C7.3151 12.7459 13.0226 7.02637 20.238 7.02637C29.7325 7.02637 35.9248 16.7753 31.9942 25.5165L31.4914 26.6497L33.8967 29.0778C35.2069 30.4087 36.3735 31.4878 36.481 31.4878C36.8757 31.4878 38.4911 28.4661 39.1916 26.3973C39.8734 24.4007 40.1605 22.4581 40.1605 19.976C40.1605 16.3606 39.5502 13.8063 37.9168 10.6411C36.8577 8.59031 35.7451 7.11585 33.9502 5.40701C31.1682 2.74524 27.7585 1.00033 23.9528 0.28113C22.1946 -0.0607735 18.1024 -0.0427441 16.3976 0.299159ZM87.7218 18.8073V32.0274H92.5679V5.58731H87.7218V18.8073ZM162.638 5.85709C155.943 7.31418 151.169 13.8791 151.977 20.4621C152.39 23.7356 153.556 26.0921 155.907 28.43C158.151 30.6424 160.107 31.7035 163.105 32.3152C166.39 32.981 170.482 32.1175 173.21 30.193L173.712 29.833L174.699 30.7145C176.511 32.2791 176.297 32.2611 177.409 31.0384C179.186 29.0778 179.168 29.2581 177.804 28.0167L176.619 26.9556L177.391 25.5886C180.441 20.2284 179.564 13.9332 175.129 9.54457C173.174 7.58397 171.001 6.41469 168.345 5.85709C166.857 5.53322 164.092 5.53322 162.638 5.85709ZM167.933 10.4254C171.523 11.5406 174.232 15.2815 174.232 19.1132C174.232 20.2103 173.801 21.9372 173.281 22.9623L172.886 23.7175L171.109 22.1709L169.332 20.6244L168.543 21.5058C168.094 22.0093 167.501 22.6931 167.214 23.0704L166.694 23.7182L168.418 25.2113L170.121 26.7038L169.314 27.1179C168.219 27.6755 166.639 28.0714 165.527 28.0714C160.914 28.0714 156.822 23.7542 156.822 18.9162C156.822 17.8551 157.234 16.2003 157.809 15.031C158.347 13.9339 159.801 12.2431 160.896 11.4878C162.872 10.1376 165.653 9.7242 167.933 10.4254ZM46.4416 8.19499V10.4434H54.6981V32.0274H59.7238V10.4434H67.9802V5.94657H46.4416V8.19499ZM182.847 18.987V32.0274H200.976V27.7108H187.693V5.94724H182.847V18.987ZM140.13 9.7242V12.422H137.259V16.3793H140.112L140.167 22.5309L140.221 28.7005L140.705 29.6C141.746 31.5786 143.308 32.4781 145.695 32.4781C147.077 32.4781 147.346 32.424 148.441 31.8845C149.123 31.5426 149.715 31.1653 149.769 31.021C149.823 30.8768 149.68 30.3372 149.464 29.8157C149.231 29.3122 148.944 28.6284 148.818 28.3045L148.585 27.7469L147.903 28.0888C147.113 28.5028 146.395 28.5202 145.713 28.179C144.78 27.6755 144.726 27.3516 144.654 21.632L144.6 16.38H149.105V12.4227H144.618V7.02704H140.13V9.7242ZM75.0687 12.008C73.9562 12.0982 72.2867 12.404 71.2997 12.7272C70.5278 12.9609 68.3922 13.8244 68.1765 13.986C68.0864 14.0401 69.6123 17.4571 69.7198 17.4571C69.7558 17.4571 70.0784 17.3135 70.4557 17.1152C73.3271 15.6581 76.845 15.6227 78.4603 17.0611C78.9812 17.5285 79.645 19.0758 79.645 19.8671C79.645 20.4968 79.6089 20.5502 79.2503 20.4427C76.6834 19.7235 73.7224 19.5252 71.9275 19.9573C69.7198 20.4968 67.8353 21.9359 66.9558 23.7342C66.5251 24.5977 66.453 24.9576 66.453 26.2704C66.453 27.5472 66.5245 27.9613 66.9198 28.7886C67.8533 30.7312 69.6303 31.9906 72.035 32.404C74.4043 32.818 76.7375 32.2958 78.64 30.9289L79.645 30.2097V32.0267H84.3114V25.4437C84.3114 18.4467 84.24 17.6194 83.3785 15.9466C82.8757 14.9576 81.3144 13.4464 80.2553 12.9068C78.9098 12.2417 76.7742 11.8644 75.0687 12.008ZM77.2223 23.214C77.9221 23.3222 78.7475 23.4838 79.0707 23.5913C79.645 23.7709 79.645 23.789 79.645 24.9402C79.645 26.2711 79.3932 26.8828 78.4964 27.6561C76.4864 29.4371 72.6814 29.3649 71.4426 27.5305C70.7248 26.4875 70.9398 24.9583 71.9275 24.1489C73.1842 23.1239 74.674 22.8541 77.2223 23.214ZM103.966 12.0628C101.758 12.3145 99.7659 13.2681 98.2219 14.8327C96.8577 16.1997 96.0684 17.5666 95.6196 19.3649C94.0937 25.3542 97.4326 31.0023 103.284 32.3152C106.389 32.999 110.607 32.0274 112.868 30.0848L113.604 29.4551L112.205 28.0521L110.822 26.6491L110.355 26.9729C109.62 27.4945 108.166 28.1783 107.25 28.43C106.155 28.7179 103.966 28.5923 103.14 28.1783C101.668 27.4771 100.394 25.8758 99.9989 24.2391L99.8914 23.7536H115.004L114.932 23.0704C114.878 22.7105 114.789 21.8471 114.735 21.182C114.448 17.7643 112.384 14.2751 109.871 12.9977C108.291 12.1883 106.012 11.8284 103.966 12.0628ZM106.945 16.1095C108.471 16.6491 109.529 17.8544 110.086 19.7068L110.32 20.5162H105.133C102.261 20.5162 99.9281 20.4801 99.9281 20.4441C99.9281 20.1202 100.556 18.7352 100.987 18.1235C102.261 16.2531 104.863 15.3723 106.945 16.1095ZM126.814 12.0801C125.503 12.2778 124.068 12.9436 123.009 13.8791L122.183 14.6164V12.422H117.338V32.028H122.165L122.219 25.6067C122.273 19.3295 122.291 19.1492 122.668 18.412C123.422 17.027 125.001 16.1456 126.76 16.1456C128.376 16.1275 129.56 16.8474 130.314 18.2678C130.691 18.9696 130.709 19.2214 130.763 25.4985L130.817 32.028H135.466V25.1386C135.466 19.9947 135.395 18.034 135.215 17.3683C134.226 13.5913 130.852 11.4865 126.814 12.0801Z" fill="#B5B5B5"/>
<path d="M20.2684 28.1449C24.7324 28.1449 28.3512 24.5261 28.3512 20.0621C28.3512 15.5981 24.7324 11.9793 20.2684 11.9793C15.8043 11.9793 12.1855 15.5981 12.1855 20.0621C12.1855 24.5261 15.8043 28.1449 20.2684 28.1449Z" fill="#B5B5B5"/>
</g>
<defs>
<clipPath id="clip0_1809_1289">
<rect width="200.735" height="40" fill="white" transform="translate(0.288086)"/>
</clipPath>
</defs>
</svg>
