<svg width="345" height="316" viewBox="0 0 345 316" fill="none" xmlns="http://www.w3.org/2000/svg">
<rect x="0.539062" y="-28.4609" width="343.922" height="343.922" rx="171.961" stroke="url(#paint0_linear_2271_4080)" stroke-width="1.07812"/>
<rect x="43.6641" y="14.6641" width="257.672" height="257.672" rx="128.836" stroke="url(#paint1_linear_2271_4080)" stroke-width="1.07812"/>
<rect x="86.7891" y="57.7891" width="171.422" height="171.422" rx="85.7109" stroke="url(#paint2_linear_2271_4080)" stroke-width="1.07812"/>
<rect x="129.375" y="100.375" width="86.25" height="86.25" rx="43.125" fill="#42C3FF"/>
<path d="M155 163.909V155.966L172.46 135.072V134.857H155.572V123.909H189.419V132.711L173.533 152.746V152.961H190.063V163.909H155Z" fill="#080035"/>
<g clip-path="url(#clip0_2271_4080)">
<path d="M170.634 211.791C165.039 211.772 154.276 224.599 158.297 227.996L159.284 228.832C159.018 229.547 158.924 230.315 159.009 231.072C159.114 232.122 159.657 233.127 160.534 233.905C161.367 234.642 162.462 235.11 163.524 235.11C165.282 239.16 169.299 241.645 174.007 241.785C179.057 241.935 183.298 239.565 185.074 235.307C185.191 235.007 185.684 233.662 185.684 232.474C185.684 231.279 185.009 230.784 184.578 230.784C184.566 230.737 184.481 230.426 184.363 230.051C184.247 229.676 184.126 229.414 184.126 229.414C184.594 228.71 184.603 228.082 184.541 227.726C184.474 227.285 184.291 226.91 183.921 226.521C183.551 226.132 182.793 225.734 181.729 225.436L181.172 225.281C181.169 225.257 181.142 223.965 181.118 223.41C181.101 223.01 181.066 222.382 180.872 221.766C180.639 220.931 180.237 220.2 179.733 219.732C181.123 218.292 181.991 216.705 181.988 215.344C181.984 212.725 178.768 211.932 174.806 213.574L173.966 213.93C173.453 213.426 172.94 212.923 172.426 212.421C171.931 211.99 171.322 211.794 170.634 211.791ZM170.726 212.882C170.933 212.882 171.128 212.906 171.307 212.955C171.678 213.06 172.907 214.485 172.907 214.485C172.907 214.485 170.624 215.751 168.507 217.517C165.657 219.714 163.501 222.906 162.211 226.37C161.197 226.567 160.303 227.142 159.757 227.936C159.431 227.664 158.822 227.136 158.714 226.931C157.842 225.274 159.666 222.054 160.941 220.235C163.843 216.091 168.263 212.875 170.726 212.882ZM174.833 216.974C174.883 216.971 174.908 217.036 174.868 217.066C174.689 217.204 174.494 217.391 174.352 217.584C174.346 217.591 174.343 217.6 174.342 217.609C174.341 217.618 174.343 217.627 174.347 217.635C174.351 217.644 174.357 217.651 174.365 217.656C174.373 217.661 174.382 217.663 174.391 217.664C175.214 217.669 176.374 217.957 177.131 218.381C177.182 218.41 177.146 218.51 177.088 218.496C175.944 218.234 174.071 218.035 172.126 218.509C170.388 218.934 169.063 219.587 168.096 220.291C168.046 220.326 167.988 220.262 168.027 220.216C169.147 218.922 170.526 217.797 171.761 217.166C171.803 217.144 171.848 217.19 171.826 217.231C171.727 217.41 171.538 217.79 171.478 218.079C171.469 218.122 171.518 218.157 171.556 218.131C172.324 217.606 173.661 217.046 174.833 216.974ZM178.612 220.98L178.682 220.981C178.885 220.989 179.082 221.052 179.252 221.164C179.919 221.607 180.014 222.684 180.049 223.47C180.068 223.92 180.123 225.006 180.142 225.317C180.184 226.031 180.372 226.131 180.751 226.256C180.963 226.327 181.163 226.379 181.454 226.461C182.337 226.709 182.861 226.961 183.192 227.284C183.388 227.486 183.479 227.7 183.508 227.905C183.612 228.665 182.918 229.605 181.081 230.456C179.072 231.389 176.634 231.625 174.951 231.437L174.362 231.371C173.014 231.19 172.246 232.93 173.054 234.122C173.576 234.891 174.994 235.391 176.414 235.391C179.669 235.391 182.171 234.002 183.102 232.801C183.129 232.767 183.154 232.732 183.177 232.695C183.222 232.626 183.184 232.589 183.127 232.627C182.367 233.147 178.989 235.214 175.377 234.591C175.377 234.591 174.938 234.52 174.537 234.364C174.218 234.239 173.552 233.934 173.471 233.25C176.387 234.15 178.222 233.299 178.222 233.299C178.239 233.291 178.253 233.278 178.263 233.262C178.272 233.246 178.276 233.227 178.274 233.209C178.273 233.198 178.27 233.187 178.265 233.177C178.26 233.167 178.252 233.159 178.244 233.152C178.235 233.145 178.225 233.14 178.215 233.137C178.204 233.133 178.193 233.132 178.182 233.134C178.182 233.134 175.793 233.487 173.534 232.661C173.781 231.861 174.434 232.151 175.422 232.23C176.958 232.321 178.499 232.155 179.981 231.737C181.003 231.445 182.346 230.866 183.389 230.042C183.741 230.815 183.864 231.666 183.864 231.666C183.864 231.666 184.138 231.616 184.364 231.757C184.581 231.89 184.738 232.165 184.631 232.876C184.411 234.205 183.846 235.284 182.897 236.276C182.304 236.917 181.598 237.445 180.814 237.831C180.389 238.056 179.934 238.249 179.456 238.406C175.877 239.575 172.213 238.29 171.032 235.531C170.936 235.32 170.857 235.102 170.796 234.879C170.292 233.06 170.721 230.879 172.056 229.505C172.137 229.417 172.221 229.314 172.221 229.185C172.221 229.076 172.152 228.961 172.093 228.881C171.626 228.202 170.007 227.049 170.332 224.814C170.566 223.209 171.969 222.077 173.278 222.145C173.389 222.15 173.499 222.157 173.611 222.164C174.177 222.197 174.673 222.27 175.139 222.289C175.921 222.324 176.623 222.21 177.456 221.516C177.737 221.282 177.962 221.079 178.343 221.015C178.378 221.009 178.458 220.98 178.612 220.98ZM178.639 223.705C178.614 223.705 178.589 223.707 178.564 223.711C178.146 223.779 178.131 224.296 178.279 225.011C178.364 225.411 178.513 225.755 178.679 225.967C178.898 225.942 179.108 225.94 179.302 225.967C179.413 225.711 179.432 225.271 179.332 224.79C179.192 224.121 179.006 223.7 178.639 223.705ZM174.064 225.637C173.609 225.636 173.164 225.778 172.794 226.045C172.594 226.191 172.406 226.395 172.432 226.517C172.442 226.557 172.471 226.587 172.542 226.596C172.706 226.615 173.282 226.325 173.944 226.284C174.412 226.255 174.799 226.401 175.098 226.534C175.397 226.664 175.581 226.75 175.652 226.675C175.698 226.627 175.684 226.537 175.613 226.42C175.466 226.18 175.163 225.936 174.841 225.799C174.595 225.694 174.331 225.639 174.064 225.637ZM179.167 226.65C178.953 226.646 178.776 226.882 178.771 227.175C178.766 227.47 178.934 227.712 179.149 227.715C179.364 227.719 179.542 227.484 179.547 227.19C179.552 226.895 179.382 226.654 179.167 226.65ZM174.692 226.865C174.629 226.865 174.564 226.867 174.498 226.875C174.109 226.937 173.894 227.065 173.757 227.184C173.639 227.286 173.567 227.4 173.567 227.48C173.567 227.492 173.569 227.505 173.574 227.516C173.578 227.528 173.585 227.538 173.594 227.547C173.603 227.556 173.613 227.563 173.625 227.568C173.636 227.572 173.648 227.575 173.661 227.575C173.748 227.575 173.946 227.496 173.946 227.496C174.345 227.346 174.776 227.301 175.197 227.366C175.393 227.389 175.484 227.4 175.528 227.334C175.541 227.314 175.556 227.272 175.516 227.209C175.437 227.08 175.128 226.872 174.692 226.865ZM177.517 227.365C177.358 227.365 177.223 227.429 177.163 227.55C177.069 227.742 177.207 228.004 177.471 228.132C177.733 228.262 178.024 228.211 178.121 228.02C178.214 227.826 178.077 227.565 177.813 227.436C177.721 227.39 177.62 227.366 177.517 227.365ZM162.973 227.395C163.033 227.395 163.096 227.395 163.159 227.399C164.072 227.449 165.417 228.149 165.724 230.136C165.996 231.899 165.564 233.69 163.913 233.972C163.759 233.997 163.603 234.009 163.446 234.005C161.921 233.964 160.272 232.59 160.108 230.961C159.927 229.161 160.847 227.776 162.476 227.447C162.622 227.417 162.791 227.397 162.973 227.395ZM162.886 228.554C162.687 228.552 162.491 228.591 162.308 228.67C162.126 228.748 161.962 228.864 161.827 229.009C161.352 229.531 161.278 230.244 161.369 230.496C161.403 230.587 161.457 230.614 161.494 230.619C161.574 230.629 161.694 230.57 161.769 230.369C161.777 230.347 161.784 230.325 161.791 230.304C161.836 230.142 161.902 229.986 161.987 229.841C162.049 229.746 162.129 229.665 162.223 229.601C162.316 229.537 162.421 229.492 162.532 229.469C162.643 229.446 162.757 229.445 162.869 229.466C162.98 229.487 163.086 229.53 163.181 229.592C163.513 229.81 163.642 230.217 163.499 230.605C163.427 230.806 163.307 231.191 163.333 231.506C163.387 232.145 163.779 232.402 164.133 232.429C164.476 232.441 164.716 232.25 164.777 232.109C164.813 232.025 164.783 231.975 164.763 231.952C164.709 231.886 164.622 231.906 164.538 231.926C164.473 231.944 164.406 231.953 164.338 231.954C164.266 231.956 164.195 231.94 164.131 231.908C164.067 231.875 164.012 231.828 163.971 231.769C163.873 231.619 163.879 231.394 163.987 231.139C164.001 231.104 164.018 231.066 164.037 231.024C164.209 230.639 164.497 229.992 164.174 229.377C163.931 228.915 163.533 228.625 163.057 228.565C163 228.557 162.942 228.553 162.884 228.552L162.886 228.554Z" fill="#CCCCCC"/>
</g>
<g clip-path="url(#clip1_2271_4080)">
<rect width="29.6" height="30" transform="translate(6 48)" fill="#080035"/>
<path d="M33.6365 60.2593C34.3034 58.2222 34.0811 55.963 33.0067 54.1111C31.3767 51.2593 28.0796 49.8148 24.8566 50.4815C23.4488 48.8889 21.3742 48 19.2255 48C15.9284 48 13.0388 50.1111 12.0015 53.2222C9.88985 53.6667 8.07458 54.963 7.00024 56.8519C5.3702 59.7037 5.74066 63.2593 7.9264 65.7037C7.25956 67.7778 7.51889 70 8.59323 71.8519C10.2233 74.7037 13.5204 76.1852 16.7434 75.4815C18.1882 77.0741 20.2258 78 22.3745 78C25.6716 78 28.5612 75.8889 29.5985 72.7778C31.7101 72.3333 33.5254 71.037 34.5997 69.1481C36.2298 66.2963 35.8593 62.7037 33.6365 60.2593ZM22.3745 76.037C21.0408 76.037 19.7812 75.5926 18.781 74.7407C18.818 74.7037 18.9291 74.6667 18.9662 74.6296L24.9307 71.1852C25.227 71 25.4123 70.7037 25.4123 70.3333V61.9259L27.9314 63.3704C27.9684 63.3704 27.9684 63.4074 27.9684 63.4444V70.4074C28.0055 73.5185 25.4863 76.037 22.3745 76.037ZM10.2974 70.8889C9.63053 69.7407 9.40825 68.4074 9.63053 67.1111C9.66757 67.1481 9.74167 67.1852 9.81576 67.2222L15.7802 70.6667C16.0766 70.8519 16.447 70.8519 16.7434 70.6667L24.0415 66.4444V69.3704C24.0415 69.4074 24.0415 69.4444 24.0045 69.4444L17.9659 72.9259C15.2986 74.4815 11.8533 73.5556 10.2974 70.8889ZM8.74142 57.8519C9.40825 56.7037 10.4455 55.8519 11.6681 55.3704V62.4815C11.6681 62.8148 11.8533 63.1481 12.1497 63.3333L19.4478 67.5556L16.9286 69C16.8916 69 16.8546 69.037 16.8546 69L10.816 65.5185C8.07458 63.963 7.18547 60.5185 8.74142 57.8519ZM29.4873 62.6667L22.1892 58.4444L24.7084 57C24.7454 57 24.7825 56.963 24.7825 57L30.821 60.4815C33.5254 62.037 34.4145 65.4815 32.8586 68.1481C32.1917 69.2963 31.1544 70.1481 29.9319 70.5926V63.5185C29.969 63.1852 29.7837 62.8519 29.4873 62.6667ZM31.9694 58.8889C31.9324 58.8519 31.8583 58.8148 31.7842 58.7778L25.8198 55.3333C25.5234 55.1481 25.1529 55.1481 24.8566 55.3333L17.5584 59.5556V56.6296C17.5584 56.5926 17.5584 56.5556 17.5955 56.5556L23.634 53.0741C26.3384 51.5185 29.7467 52.4444 31.3026 55.1481C31.9695 56.2593 32.1917 57.5926 31.9694 58.8889ZM16.1877 64.0741L13.6686 62.6296C13.6315 62.6296 13.6315 62.5926 13.6315 62.5556V55.5926C13.6315 52.4815 16.1507 49.963 19.2626 49.963C20.5962 49.963 21.8558 50.4074 22.8561 51.2593C22.819 51.2963 22.7449 51.3333 22.6708 51.3704L16.7064 54.8148C16.41 55 16.2248 55.2963 16.2248 55.6667V64.0741H16.1877ZM17.5584 61.1111L20.8185 59.2222L24.0786 61.1111V64.8519L20.8185 66.7407L17.5584 64.8519V61.1111Z" fill="#CCCCCC"/>
</g>
<g clip-path="url(#clip2_2271_4080)">
<path d="M243.337 30.3422C243.337 29.2834 243.242 28.2654 243.065 27.2881H229.003V33.0638H237.039C236.693 34.9302 235.641 36.5115 234.059 37.5703V41.3166H238.885C241.708 38.7173 243.337 34.8894 243.337 30.3422Z" fill="#CCCCCC"/>
<path d="M229.003 44.9341C233.035 44.9341 236.415 43.5971 238.885 41.3167L234.059 37.5703C232.722 38.4662 231.012 38.9956 229.003 38.9956C225.114 38.9956 221.823 36.369 220.649 32.8398H215.66V36.7084C218.117 41.5882 223.166 44.9341 229.003 44.9341Z" fill="#CCCCCC"/>
<path d="M220.649 32.8398C220.35 31.9439 220.18 30.9869 220.18 30.0028C220.18 29.0187 220.35 28.0618 220.649 27.1659V23.2974H215.66C214.615 25.378 214.071 27.6744 214.072 30.0028C214.072 32.4122 214.649 34.6926 215.66 36.7083L220.649 32.8398Z" fill="#CCCCCC"/>
<path d="M229.003 21.0102C231.195 21.0102 233.164 21.7636 234.711 23.2431L238.994 18.9606C236.408 16.5512 233.028 15.0717 229.003 15.0717C223.166 15.0717 218.117 18.4176 215.66 23.2974L220.649 27.1659C221.823 23.6367 225.114 21.0102 229.003 21.0102Z" fill="#CCCCCC"/>
</g>
<g clip-path="url(#clip3_2271_4080)">
<path fill-rule="evenodd" clip-rule="evenodd" d="M328.463 205.048L311.827 206.294C310.481 206.39 310 207.3 310 208.355V226.566C310 227.38 310.288 228.099 311.01 229.01L314.904 234.09C315.529 234.904 316.154 235.096 317.356 235L336.684 233.85C338.319 233.754 338.8 232.987 338.8 231.693V211.182C338.8 210.511 338.56 210.32 337.742 209.744C337.694 209.697 337.646 209.697 337.598 209.649L332.309 205.959C331.059 205 330.53 204.904 328.463 205.048ZM317.789 210.847C316.202 210.943 315.866 210.99 314.952 210.224L312.692 208.451C312.452 208.211 312.548 207.923 313.173 207.875L329.184 206.725C330.53 206.629 331.203 207.061 331.732 207.492L334.473 209.457C334.617 209.505 334.906 209.84 334.521 209.84L317.981 210.847H317.789ZM315.962 231.502V214.105C315.962 213.339 316.202 213.003 316.875 212.955L335.867 211.853C336.492 211.805 336.781 212.189 336.781 212.955V230.208C336.781 230.974 336.636 231.597 335.627 231.645L317.452 232.7C316.443 232.796 315.962 232.412 315.962 231.502ZM333.896 215.064C333.992 215.591 333.896 216.118 333.367 216.166L332.502 216.358V229.201C331.732 229.633 331.059 229.824 330.482 229.824C329.569 229.824 329.328 229.537 328.607 228.674L322.837 219.665V228.339L324.664 228.77C324.664 228.77 324.664 229.824 323.222 229.824L319.183 230.064C319.087 229.824 319.183 229.249 319.568 229.153L320.626 228.866V217.364L319.183 217.221C319.087 216.693 319.376 215.927 320.193 215.879L324.52 215.591L330.482 224.697V216.645L328.944 216.454C328.847 215.831 329.28 215.351 329.857 215.304L333.896 215.064Z" fill="#CCCCCC"/>
</g>
<defs>
<linearGradient id="paint0_linear_2271_4080" x1="172.5" y1="-29" x2="172.5" y2="316" gradientUnits="userSpaceOnUse">
<stop stop-color="#40C2FF" stop-opacity="0.7"/>
<stop offset="0.804028" stop-color="#267599" stop-opacity="0"/>
</linearGradient>
<linearGradient id="paint1_linear_2271_4080" x1="172.5" y1="14.125" x2="172.5" y2="272.875" gradientUnits="userSpaceOnUse">
<stop stop-color="#267599" stop-opacity="0.3"/>
<stop offset="1" stop-color="#40C2FF" stop-opacity="0.7"/>
</linearGradient>
<linearGradient id="paint2_linear_2271_4080" x1="172.5" y1="57.25" x2="172.5" y2="229.75" gradientUnits="userSpaceOnUse">
<stop stop-color="#40C2FF" stop-opacity="0.7"/>
<stop offset="1" stop-color="#267599" stop-opacity="0.3"/>
</linearGradient>
<clipPath id="clip0_2271_4080">
<rect width="30" height="30" fill="white" transform="translate(156.551 211.791)"/>
</clipPath>
<clipPath id="clip1_2271_4080">
<rect width="29.6" height="30" fill="white" transform="translate(6 48)"/>
</clipPath>
<clipPath id="clip2_2271_4080">
<rect width="29.9341" height="30" fill="white" transform="translate(214 15)"/>
</clipPath>
<clipPath id="clip3_2271_4080">
<rect width="28.8" height="30" fill="white" transform="translate(310 205)"/>
</clipPath>
</defs>
</svg>
