<svg width="418" height="442" viewBox="0 0 418 442" fill="none" xmlns="http://www.w3.org/2000/svg">
<g clip-path="url(#clip0_1809_1522)">
<path d="M0 64C0 41.5979 0 30.3968 4.35974 21.8404C8.19467 14.3139 14.3139 8.19467 21.8404 4.35974C30.3968 0 41.5979 0 64 0H354C376.402 0 387.603 0 396.16 4.35974C403.686 8.19467 409.805 14.3139 413.64 21.8404C418 30.3968 418 41.5979 418 64V378C418 400.402 418 411.603 413.64 420.16C409.805 427.686 403.686 433.805 396.16 437.64C387.603 442 376.402 442 354 442H64C41.5979 442 30.3968 442 21.8404 437.64C14.3139 433.805 8.19467 427.686 4.35974 420.16C0 411.603 0 400.402 0 378V64Z" fill="#080035"/>
<mask id="mask0_1809_1522" style="mask-type:alpha" maskUnits="userSpaceOnUse" x="-72" y="-101" width="402" height="402">
<path d="M1.72656 -100V300" stroke="#B3B3B3" stroke-opacity="0.27"/>
<path d="M38.0908 -100V300" stroke="#B3B3B3" stroke-opacity="0.27"/>
<path d="M74.4541 -100V300" stroke="#B3B3B3" stroke-opacity="0.27"/>
<path d="M110.818 -100V300" stroke="#B3B3B3" stroke-opacity="0.27"/>
<path d="M147.182 -100V300" stroke="#B3B3B3" stroke-opacity="0.27"/>
<path d="M183.545 -100V300" stroke="#B3B3B3" stroke-opacity="0.27"/>
<path d="M219.909 -100V300" stroke="#B3B3B3" stroke-opacity="0.27"/>
<path d="M256.272 -100V300" stroke="#B3B3B3" stroke-opacity="0.27"/>
<path d="M292.637 -100V300" stroke="#B3B3B3" stroke-opacity="0.27"/>
<path d="M329 -100V300" stroke="#B3B3B3" stroke-opacity="0.27"/>
<path d="M-71 9.09082H329" stroke="#B3B3B3" stroke-opacity="0.27"/>
<path d="M-71 45.4546H329" stroke="#B3B3B3" stroke-opacity="0.27"/>
<path d="M-71 81.8181H329" stroke="#B3B3B3" stroke-opacity="0.27"/>
<path d="M-71 118.182H329" stroke="#B3B3B3" stroke-opacity="0.27"/>
<path d="M-71 154.545H329" stroke="#B3B3B3" stroke-opacity="0.27"/>
<path d="M-71 190.909H329" stroke="#B3B3B3" stroke-opacity="0.27"/>
<path d="M-71 227.273H329" stroke="#B3B3B3" stroke-opacity="0.27"/>
<path d="M-71 263.636H329" stroke="#B3B3B3" stroke-opacity="0.27"/>
<path d="M-71 300H329" stroke="#B3B3B3" stroke-opacity="0.27"/>
</mask>
<g mask="url(#mask0_1809_1522)">
<g filter="url(#filter0_f_1809_1522)">
<circle cx="135" cy="100" r="91" fill="#40C2FF"/>
</g>
</g>
<path d="M25.5938 330.246C24.1875 330.246 22.9609 330.031 21.9141 329.602C20.875 329.172 20.0625 328.531 19.4766 327.68C18.8984 326.828 18.5938 325.773 18.5625 324.516H22.125C22.1719 325.094 22.3438 325.582 22.6406 325.98C22.9375 326.371 23.3359 326.664 23.8359 326.859C24.3359 327.055 24.9102 327.152 25.5586 327.152C26.1836 327.152 26.7266 327.062 27.1875 326.883C27.6562 326.703 28.0156 326.453 28.2656 326.133C28.5234 325.805 28.6523 325.426 28.6523 324.996C28.6523 324.605 28.5352 324.277 28.3008 324.012C28.0742 323.746 27.7383 323.52 27.293 323.332C26.8555 323.145 26.3203 322.977 25.6875 322.828L23.7773 322.359C22.3086 322.008 21.1484 321.449 20.2969 320.684C19.4453 319.91 19.0195 318.879 19.0195 317.59C19.0195 316.535 19.3047 315.613 19.875 314.824C20.4531 314.027 21.2383 313.41 22.2305 312.973C23.2305 312.527 24.3672 312.305 25.6406 312.305C26.9375 312.305 28.0664 312.527 29.0273 312.973C29.9961 313.418 30.75 314.035 31.2891 314.824C31.8359 315.613 32.1172 316.523 32.1328 317.555H28.582C28.5195 316.875 28.2266 316.344 27.7031 315.961C27.1875 315.578 26.4883 315.387 25.6055 315.387C25.0117 315.387 24.5039 315.473 24.082 315.645C23.668 315.809 23.3516 316.039 23.1328 316.336C22.9141 316.633 22.8047 316.973 22.8047 317.355C22.8047 317.762 22.9297 318.105 23.1797 318.387C23.4297 318.66 23.7617 318.887 24.1758 319.066C24.5977 319.238 25.0586 319.383 25.5586 319.5L27.1172 319.887C27.875 320.059 28.5742 320.289 29.2148 320.578C29.8555 320.859 30.4102 321.207 30.8789 321.621C31.3555 322.035 31.7227 322.523 31.9805 323.086C32.2383 323.641 32.3672 324.281 32.3672 325.008C32.3672 326.078 32.0977 327.008 31.5586 327.797C31.0273 328.578 30.2578 329.184 29.25 329.613C28.2422 330.035 27.0234 330.246 25.5938 330.246ZM39.4809 330.258C38.1372 330.258 36.977 329.984 36.0005 329.438C35.0239 328.891 34.2739 328.113 33.7505 327.105C33.2348 326.09 32.977 324.891 32.977 323.508C32.977 322.164 33.2348 320.984 33.7505 319.969C34.2739 318.953 35.0083 318.16 35.9536 317.59C36.9067 317.02 38.0239 316.734 39.3052 316.734C40.1723 316.734 40.9809 316.875 41.7309 317.156C42.4809 317.43 43.1372 317.844 43.6997 318.398C44.2622 318.945 44.6997 319.637 45.0122 320.473C45.3247 321.301 45.4809 322.273 45.4809 323.391V324.375H34.4184V322.137H43.7231L42.0356 322.723C42.0356 322.059 41.9341 321.48 41.7309 320.988C41.5278 320.496 41.2231 320.117 40.8169 319.852C40.4184 319.578 39.9223 319.441 39.3286 319.441C38.7348 319.441 38.2309 319.578 37.8169 319.852C37.4106 320.125 37.0981 320.496 36.8794 320.965C36.6606 321.434 36.5513 321.973 36.5513 322.582V324.164C36.5513 324.875 36.6763 325.484 36.9263 325.992C37.1763 326.492 37.5239 326.879 37.9692 327.152C38.4223 327.418 38.9419 327.551 39.5278 327.551C39.9341 327.551 40.3013 327.492 40.6294 327.375C40.9575 327.258 41.2388 327.086 41.4731 326.859C41.7153 326.633 41.895 326.359 42.0122 326.039L45.3638 326.262C45.1997 327.066 44.8559 327.77 44.3325 328.371C43.8169 328.965 43.1489 329.43 42.3286 329.766C41.5083 330.094 40.5591 330.258 39.4809 330.258ZM50.2861 330.246C49.458 330.246 48.7119 330.102 48.0478 329.812C47.3916 329.516 46.8759 329.078 46.5009 328.5C46.1259 327.922 45.9384 327.203 45.9384 326.344C45.9384 325.609 46.0713 325 46.3369 324.516C46.6025 324.023 46.9658 323.625 47.4267 323.32C47.8877 323.016 48.4111 322.785 48.997 322.629C49.583 322.473 50.2041 322.363 50.8603 322.301C51.6181 322.23 52.2275 322.16 52.6884 322.09C53.1494 322.02 53.4853 321.914 53.6963 321.773C53.915 321.625 54.0244 321.414 54.0244 321.141V321.082C54.0244 320.543 53.8525 320.125 53.5088 319.828C53.1728 319.531 52.6963 319.383 52.0791 319.383C51.4306 319.383 50.9111 319.527 50.5205 319.816C50.1377 320.098 49.8838 320.457 49.7588 320.895L46.3955 320.625C46.5673 319.828 46.9033 319.141 47.4033 318.562C47.9033 317.977 48.5478 317.527 49.3369 317.215C50.1338 316.895 51.0556 316.734 52.1025 316.734C52.8291 316.734 53.5244 316.82 54.1884 316.992C54.8525 317.164 55.4423 317.43 55.958 317.789C56.4814 318.141 56.8955 318.598 57.2002 319.16C57.5048 319.723 57.6572 320.391 57.6572 321.164V330H54.2002V328.172H54.1064C53.8955 328.586 53.6142 328.949 53.2627 329.262C52.9111 329.566 52.4892 329.809 51.997 329.988C51.5048 330.16 50.9345 330.246 50.2861 330.246ZM51.3291 327.738C51.8603 327.738 52.3291 327.633 52.7353 327.422C53.1494 327.203 53.4697 326.914 53.6963 326.555C53.9306 326.188 54.0478 325.777 54.0478 325.324V323.93C53.9384 324 53.7822 324.066 53.5791 324.129C53.3838 324.191 53.165 324.246 52.9228 324.293C52.6806 324.34 52.4384 324.383 52.1963 324.422C51.9541 324.453 51.7353 324.484 51.54 324.516C51.1103 324.578 50.7353 324.68 50.415 324.82C50.0947 324.953 49.8447 325.137 49.665 325.371C49.4931 325.598 49.4072 325.883 49.4072 326.227C49.4072 326.719 49.5869 327.094 49.9463 327.352C50.3056 327.609 50.7666 327.738 51.3291 327.738ZM59.2983 330V316.898H62.7319V319.23H62.8959C63.1694 318.457 63.6264 317.848 64.267 317.402C64.9077 316.957 65.6694 316.734 66.5522 316.734C67.4506 316.734 68.2123 316.961 68.8373 317.414C69.4702 317.859 69.892 318.465 70.103 319.23H70.2436C70.5092 318.473 70.9936 317.867 71.6967 317.414C72.3998 316.961 73.228 316.734 74.1811 316.734C75.3998 316.734 76.392 317.121 77.1577 317.895C77.9311 318.668 78.3178 319.766 78.3178 321.188V330H74.685V321.914C74.685 321.18 74.4897 320.633 74.0991 320.273C73.7163 319.914 73.2358 319.734 72.6577 319.734C72.0014 319.734 71.4858 319.945 71.1108 320.367C70.7436 320.781 70.56 321.328 70.56 322.008V330H67.0444V321.82C67.0444 321.188 66.8608 320.684 66.4936 320.309C66.1264 319.926 65.6459 319.734 65.0522 319.734C64.6459 319.734 64.2827 319.836 63.9623 320.039C63.642 320.242 63.3881 320.523 63.2006 320.883C63.0131 321.234 62.9194 321.656 62.9194 322.148V330H59.2983ZM83.6034 312.539V330H79.9823V312.539H83.6034ZM91.2328 330.258C89.8891 330.258 88.7289 329.984 87.7523 329.438C86.7758 328.891 86.0258 328.113 85.5023 327.105C84.9867 326.09 84.7289 324.891 84.7289 323.508C84.7289 322.164 84.9867 320.984 85.5023 319.969C86.0258 318.953 86.7602 318.16 87.7055 317.59C88.6586 317.02 89.7758 316.734 91.057 316.734C91.9242 316.734 92.7328 316.875 93.4828 317.156C94.2328 317.43 94.8891 317.844 95.4516 318.398C96.0141 318.945 96.4516 319.637 96.7641 320.473C97.0766 321.301 97.2328 322.273 97.2328 323.391V324.375H86.1703V322.137H95.475L93.7875 322.723C93.7875 322.059 93.6859 321.48 93.4828 320.988C93.2797 320.496 92.975 320.117 92.5687 319.852C92.1703 319.578 91.6742 319.441 91.0805 319.441C90.4867 319.441 89.9828 319.578 89.5687 319.852C89.1625 320.125 88.85 320.496 88.6312 320.965C88.4125 321.434 88.3031 321.973 88.3031 322.582V324.164C88.3031 324.875 88.4281 325.484 88.6781 325.992C88.9281 326.492 89.2758 326.879 89.7211 327.152C90.1742 327.418 90.6937 327.551 91.2797 327.551C91.6859 327.551 92.0531 327.492 92.3812 327.375C92.7094 327.258 92.9906 327.086 93.225 326.859C93.4672 326.633 93.6469 326.359 93.7641 326.039L97.1156 326.262C96.9516 327.066 96.6078 327.77 96.0844 328.371C95.5687 328.965 94.9008 329.43 94.0805 329.766C93.2602 330.094 92.3109 330.258 91.2328 330.258ZM109.186 320.637L105.87 320.836C105.784 320.422 105.554 320.066 105.179 319.77C104.804 319.465 104.3 319.312 103.667 319.312C103.104 319.312 102.632 319.43 102.249 319.664C101.874 319.898 101.686 320.211 101.686 320.602C101.686 320.914 101.808 321.184 102.05 321.41C102.3 321.629 102.725 321.801 103.327 321.926L105.706 322.395C106.979 322.652 107.929 323.07 108.554 323.648C109.179 324.227 109.491 324.988 109.491 325.934C109.491 326.801 109.241 327.559 108.741 328.207C108.241 328.848 107.554 329.352 106.679 329.719C105.804 330.078 104.8 330.258 103.667 330.258C101.933 330.258 100.55 329.895 99.5184 329.168C98.495 328.441 97.8973 327.457 97.7255 326.215L101.276 326.027C101.393 326.559 101.659 326.961 102.073 327.234C102.487 327.508 103.018 327.645 103.667 327.645C104.3 327.645 104.811 327.52 105.202 327.27C105.6 327.02 105.8 326.703 105.8 326.32C105.8 325.672 105.237 325.234 104.112 325.008L101.85 324.539C100.577 324.281 99.6278 323.84 99.0028 323.215C98.3778 322.59 98.0653 321.789 98.0653 320.812C98.0653 319.969 98.2958 319.242 98.7567 318.633C99.2177 318.023 99.8622 317.555 100.69 317.227C101.526 316.898 102.503 316.734 103.62 316.734C105.276 316.734 106.577 317.086 107.522 317.789C108.475 318.484 109.03 319.434 109.186 320.637ZM121.41 320.637L118.093 320.836C118.007 320.422 117.777 320.066 117.402 319.77C117.027 319.465 116.523 319.312 115.89 319.312C115.327 319.312 114.855 319.43 114.472 319.664C114.097 319.898 113.91 320.211 113.91 320.602C113.91 320.914 114.031 321.184 114.273 321.41C114.523 321.629 114.949 321.801 115.55 321.926L117.929 322.395C119.202 322.652 120.152 323.07 120.777 323.648C121.402 324.227 121.714 324.988 121.714 325.934C121.714 326.801 121.464 327.559 120.964 328.207C120.464 328.848 119.777 329.352 118.902 329.719C118.027 330.078 117.023 330.258 115.89 330.258C114.156 330.258 112.773 329.895 111.742 329.168C110.718 328.441 110.12 327.457 109.949 326.215L113.499 326.027C113.617 326.559 113.882 326.961 114.296 327.234C114.71 327.508 115.242 327.645 115.89 327.645C116.523 327.645 117.035 327.52 117.425 327.27C117.824 327.02 118.023 326.703 118.023 326.32C118.023 325.672 117.46 325.234 116.335 325.008L114.074 324.539C112.8 324.281 111.851 323.84 111.226 323.215C110.601 322.59 110.288 321.789 110.288 320.812C110.288 319.969 110.519 319.242 110.98 318.633C111.441 318.023 112.085 317.555 112.913 317.227C113.749 316.898 114.726 316.734 115.843 316.734C117.499 316.734 118.8 317.086 119.745 317.789C120.699 318.484 121.253 319.434 121.41 320.637ZM130.797 312.539V330H127.118V312.539H130.797ZM136.13 322.43V330H132.509V316.898H136.071V319.23H136.2C136.497 318.457 136.97 317.848 137.618 317.402C138.266 316.957 139.079 316.734 140.055 316.734C140.962 316.734 141.751 316.934 142.423 317.332C143.102 317.73 143.63 318.297 144.005 319.031C144.38 319.766 144.567 320.645 144.567 321.668V330H140.946V322.312C140.946 321.516 140.739 320.891 140.325 320.438C139.911 319.977 139.341 319.746 138.614 319.746C138.13 319.746 137.7 319.855 137.325 320.074C136.95 320.285 136.657 320.59 136.446 320.988C136.235 321.387 136.13 321.867 136.13 322.43ZM153.181 316.898V319.641H145.294V316.898H153.181ZM147.087 313.781H150.708V325.969C150.708 326.406 150.806 326.73 151.001 326.941C151.197 327.145 151.509 327.246 151.939 327.246C152.079 327.246 152.236 327.234 152.408 327.211C152.579 327.188 152.728 327.16 152.853 327.129L153.427 329.848C153.029 329.965 152.642 330.051 152.267 330.105C151.9 330.16 151.536 330.188 151.177 330.188C149.872 330.188 148.865 329.863 148.154 329.215C147.443 328.559 147.087 327.637 147.087 326.449V313.781ZM160.107 330.258C158.763 330.258 157.603 329.984 156.627 329.438C155.65 328.891 154.9 328.113 154.377 327.105C153.861 326.09 153.603 324.891 153.603 323.508C153.603 322.164 153.861 320.984 154.377 319.969C154.9 318.953 155.635 318.16 156.58 317.59C157.533 317.02 158.65 316.734 159.931 316.734C160.799 316.734 161.607 316.875 162.357 317.156C163.107 317.43 163.763 317.844 164.326 318.398C164.888 318.945 165.326 319.637 165.638 320.473C165.951 321.301 166.107 322.273 166.107 323.391V324.375H155.045V322.137H164.349L162.662 322.723C162.662 322.059 162.56 321.48 162.357 320.988C162.154 320.496 161.849 320.117 161.443 319.852C161.045 319.578 160.549 319.441 159.955 319.441C159.361 319.441 158.857 319.578 158.443 319.852C158.037 320.125 157.724 320.496 157.506 320.965C157.287 321.434 157.178 321.973 157.178 322.582V324.164C157.178 324.875 157.303 325.484 157.553 325.992C157.803 326.492 158.15 326.879 158.595 327.152C159.049 327.418 159.568 327.551 160.154 327.551C160.56 327.551 160.928 327.492 161.256 327.375C161.584 327.258 161.865 327.086 162.099 326.859C162.342 326.633 162.521 326.359 162.638 326.039L165.99 326.262C165.826 327.066 165.482 327.77 164.959 328.371C164.443 328.965 163.775 329.43 162.955 329.766C162.135 330.094 161.185 330.258 160.107 330.258ZM173.045 335.18C171.28 335.18 169.897 334.828 168.897 334.125C167.897 333.43 167.287 332.562 167.069 331.523L170.42 331.078C170.522 331.344 170.682 331.59 170.901 331.816C171.119 332.043 171.412 332.223 171.78 332.355C172.147 332.496 172.596 332.566 173.127 332.566C173.916 332.566 174.569 332.375 175.084 331.992C175.6 331.617 175.858 330.98 175.858 330.082V327.68H175.705C175.549 328.039 175.311 328.383 174.99 328.711C174.67 329.039 174.26 329.305 173.76 329.508C173.26 329.711 172.662 329.812 171.967 329.812C170.983 329.812 170.088 329.586 169.283 329.133C168.487 328.672 167.846 327.969 167.362 327.023C166.885 326.078 166.647 324.883 166.647 323.438C166.647 321.945 166.889 320.703 167.373 319.711C167.865 318.719 168.514 317.977 169.319 317.484C170.123 316.984 171.006 316.734 171.967 316.734C172.701 316.734 173.315 316.859 173.807 317.109C174.307 317.352 174.713 317.656 175.026 318.023C175.338 318.391 175.572 318.754 175.729 319.113H175.869V316.898H179.444V330.141C179.444 331.25 179.17 332.18 178.623 332.93C178.076 333.68 177.322 334.242 176.362 334.617C175.401 334.992 174.295 335.18 173.045 335.18ZM173.115 327.082C173.99 327.082 174.666 326.758 175.143 326.109C175.627 325.461 175.869 324.562 175.869 323.414C175.869 322.648 175.76 321.984 175.541 321.422C175.33 320.852 175.022 320.41 174.615 320.098C174.209 319.777 173.709 319.617 173.115 319.617C172.522 319.617 172.018 319.781 171.604 320.109C171.197 320.43 170.889 320.875 170.678 321.445C170.467 322.016 170.362 322.672 170.362 323.414C170.362 324.164 170.467 324.816 170.678 325.371C170.889 325.918 171.197 326.34 171.604 326.637C172.018 326.934 172.522 327.082 173.115 327.082ZM181.096 330V316.898H184.6V319.195H184.741C184.983 318.383 185.385 317.77 185.948 317.355C186.51 316.934 187.155 316.723 187.882 316.723C188.069 316.723 188.264 316.734 188.467 316.758C188.678 316.773 188.866 316.805 189.03 316.852V320.062C188.858 320.008 188.62 319.965 188.315 319.934C188.018 319.895 187.741 319.875 187.483 319.875C186.96 319.875 186.487 319.992 186.065 320.227C185.643 320.453 185.311 320.773 185.069 321.188C184.835 321.594 184.717 322.062 184.717 322.594V330H181.096ZM192.991 330.246C192.163 330.246 191.417 330.102 190.753 329.812C190.097 329.516 189.581 329.078 189.206 328.5C188.831 327.922 188.644 327.203 188.644 326.344C188.644 325.609 188.777 325 189.042 324.516C189.308 324.023 189.671 323.625 190.132 323.32C190.593 323.016 191.116 322.785 191.702 322.629C192.288 322.473 192.909 322.363 193.566 322.301C194.323 322.23 194.933 322.16 195.394 322.09C195.855 322.02 196.191 321.914 196.402 321.773C196.62 321.625 196.73 321.414 196.73 321.141V321.082C196.73 320.543 196.558 320.125 196.214 319.828C195.878 319.531 195.402 319.383 194.784 319.383C194.136 319.383 193.616 319.527 193.226 319.816C192.843 320.098 192.589 320.457 192.464 320.895L189.101 320.625C189.273 319.828 189.609 319.141 190.109 318.562C190.609 317.977 191.253 317.527 192.042 317.215C192.839 316.895 193.761 316.734 194.808 316.734C195.534 316.734 196.23 316.82 196.894 316.992C197.558 317.164 198.148 317.43 198.663 317.789C199.187 318.141 199.601 318.598 199.905 319.16C200.21 319.723 200.363 320.391 200.363 321.164V330H196.905V328.172H196.812C196.601 328.586 196.32 328.949 195.968 329.262C195.616 329.566 195.195 329.809 194.702 329.988C194.21 330.16 193.64 330.246 192.991 330.246ZM194.034 327.738C194.566 327.738 195.034 327.633 195.441 327.422C195.855 327.203 196.175 326.914 196.402 326.555C196.636 326.188 196.753 325.777 196.753 325.324V323.93C196.644 324 196.488 324.066 196.284 324.129C196.089 324.191 195.87 324.246 195.628 324.293C195.386 324.34 195.144 324.383 194.902 324.422C194.659 324.453 194.441 324.484 194.245 324.516C193.816 324.578 193.441 324.68 193.12 324.82C192.8 324.953 192.55 325.137 192.37 325.371C192.198 325.598 192.113 325.883 192.113 326.227C192.113 326.719 192.292 327.094 192.652 327.352C193.011 327.609 193.472 327.738 194.034 327.738ZM208.953 316.898V319.641H201.066V316.898H208.953ZM202.859 313.781H206.48V325.969C206.48 326.406 206.578 326.73 206.773 326.941C206.968 327.145 207.281 327.246 207.711 327.246C207.851 327.246 208.008 327.234 208.179 327.211C208.351 327.188 208.5 327.16 208.625 327.129L209.199 329.848C208.8 329.965 208.414 330.051 208.039 330.105C207.672 330.16 207.308 330.188 206.949 330.188C205.644 330.188 204.636 329.863 203.925 329.215C203.215 328.559 202.859 327.637 202.859 326.449V313.781ZM210.055 330V316.898H213.676V330H210.055ZM211.86 315.223C211.32 315.223 210.86 315.043 210.477 314.684C210.094 314.324 209.902 313.891 209.902 313.383C209.902 312.875 210.094 312.445 210.477 312.094C210.86 311.734 211.32 311.555 211.86 311.555C212.406 311.555 212.871 311.734 213.254 312.094C213.637 312.445 213.828 312.875 213.828 313.383C213.828 313.891 213.637 314.324 213.254 314.684C212.871 315.043 212.406 315.223 211.86 315.223ZM221.235 330.258C219.915 330.258 218.77 329.977 217.801 329.414C216.84 328.844 216.098 328.055 215.575 327.047C215.059 326.031 214.801 324.852 214.801 323.508C214.801 322.148 215.059 320.965 215.575 319.957C216.098 318.941 216.84 318.152 217.801 317.59C218.77 317.02 219.915 316.734 221.235 316.734C222.563 316.734 223.708 317.02 224.669 317.59C225.637 318.152 226.38 318.941 226.895 319.957C227.419 320.965 227.68 322.148 227.68 323.508C227.68 324.852 227.419 326.031 226.895 327.047C226.38 328.055 225.637 328.844 224.669 329.414C223.708 329.977 222.563 330.258 221.235 330.258ZM221.258 327.422C221.86 327.422 222.364 327.254 222.77 326.918C223.176 326.574 223.481 326.105 223.684 325.512C223.895 324.918 224.001 324.242 224.001 323.484C224.001 322.719 223.895 322.043 223.684 321.457C223.481 320.871 223.176 320.41 222.77 320.074C222.364 319.738 221.86 319.57 221.258 319.57C220.649 319.57 220.137 319.738 219.723 320.074C219.317 320.41 219.008 320.871 218.798 321.457C218.594 322.043 218.493 322.719 218.493 323.484C218.493 324.242 218.594 324.918 218.798 325.512C219.008 326.105 219.317 326.574 219.723 326.918C220.137 327.254 220.649 327.422 221.258 327.422ZM232.427 322.43V330H228.806V316.898H232.368V319.23H232.497C232.794 318.457 233.267 317.848 233.915 317.402C234.564 316.957 235.376 316.734 236.353 316.734C237.259 316.734 238.048 316.934 238.72 317.332C239.4 317.73 239.927 318.297 240.302 319.031C240.677 319.766 240.864 320.645 240.864 321.668V330H237.243V322.312C237.243 321.516 237.036 320.891 236.622 320.438C236.208 319.977 235.638 319.746 234.911 319.746C234.427 319.746 233.997 319.855 233.622 320.074C233.247 320.285 232.954 320.59 232.743 320.988C232.532 321.387 232.427 321.867 232.427 322.43ZM253.404 320.637L250.087 320.836C250.002 320.422 249.771 320.066 249.396 319.77C249.021 319.465 248.517 319.312 247.884 319.312C247.322 319.312 246.849 319.43 246.466 319.664C246.091 319.898 245.904 320.211 245.904 320.602C245.904 320.914 246.025 321.184 246.267 321.41C246.517 321.629 246.943 321.801 247.545 321.926L249.923 322.395C251.197 322.652 252.146 323.07 252.771 323.648C253.396 324.227 253.709 324.988 253.709 325.934C253.709 326.801 253.459 327.559 252.959 328.207C252.459 328.848 251.771 329.352 250.896 329.719C250.021 330.078 249.017 330.258 247.884 330.258C246.15 330.258 244.767 329.895 243.736 329.168C242.712 328.441 242.115 327.457 241.943 326.215L245.494 326.027C245.611 326.559 245.877 326.961 246.291 327.234C246.705 327.508 247.236 327.645 247.884 327.645C248.517 327.645 249.029 327.52 249.42 327.27C249.818 327.02 250.017 326.703 250.017 326.32C250.017 325.672 249.455 325.234 248.33 325.008L246.068 324.539C244.795 324.281 243.845 323.84 243.22 323.215C242.595 322.59 242.283 321.789 242.283 320.812C242.283 319.969 242.513 319.242 242.974 318.633C243.435 318.023 244.08 317.555 244.908 317.227C245.744 316.898 246.72 316.734 247.837 316.734C249.494 316.734 250.795 317.086 251.74 317.789C252.693 318.484 253.248 319.434 253.404 320.637Z" fill="#EFEFEF"/>
<path d="M24.5215 371.176C23.3965 371.176 22.3887 370.906 21.498 370.367C20.6074 369.828 19.9072 369.058 19.3975 368.056C18.8877 367.048 18.6328 365.85 18.6328 364.461C18.6328 363.061 18.8877 361.859 19.3975 360.857C19.9131 359.85 20.6133 359.076 21.498 358.537C22.3887 357.998 23.3965 357.729 24.5215 357.729C25.2129 357.729 25.8604 357.828 26.4639 358.027C27.0732 358.227 27.6182 358.517 28.0986 358.897C28.5791 359.278 28.9746 359.744 29.2852 360.295C29.6016 360.846 29.8125 361.47 29.918 362.167H27.9316C27.8555 361.739 27.7119 361.364 27.501 361.042C27.2959 360.714 27.041 360.438 26.7363 360.216C26.4375 359.987 26.1006 359.817 25.7256 359.706C25.3564 359.589 24.9639 359.53 24.5479 359.53C23.7979 359.53 23.1211 359.721 22.5176 360.102C21.9199 360.477 21.4482 361.033 21.1025 361.771C20.7627 362.504 20.5928 363.4 20.5928 364.461C20.5928 365.527 20.7656 366.427 21.1113 367.159C21.457 367.886 21.9287 368.437 22.5264 368.812C23.124 369.187 23.7949 369.374 24.5391 369.374C24.9551 369.374 25.3477 369.318 25.7168 369.207C26.0859 369.096 26.4229 368.929 26.7275 368.706C27.0322 368.483 27.2871 368.214 27.4922 367.897C27.7031 367.575 27.8496 367.203 27.9316 366.781H29.918C29.8184 367.432 29.6162 368.026 29.3115 368.565C29.0068 369.099 28.6172 369.562 28.1426 369.954C27.668 370.341 27.126 370.643 26.5166 370.859C25.9072 371.07 25.2422 371.176 24.5215 371.176ZM35.1566 371.202C34.2367 371.202 33.431 370.991 32.7396 370.569C32.0541 370.147 31.5209 369.556 31.14 368.794C30.765 368.032 30.5775 367.147 30.5775 366.14C30.5775 365.12 30.765 364.229 31.14 363.468C31.5209 362.7 32.0541 362.105 32.7396 361.684C33.431 361.262 34.2367 361.051 35.1566 361.051C36.0824 361.051 36.888 361.262 37.5736 361.684C38.2591 362.105 38.7923 362.7 39.1732 363.468C39.5541 364.229 39.7445 365.12 39.7445 366.14C39.7445 367.147 39.5541 368.032 39.1732 368.794C38.7923 369.556 38.2591 370.147 37.5736 370.569C36.888 370.991 36.0824 371.202 35.1566 371.202ZM35.1566 369.594C35.7601 369.594 36.2582 369.436 36.6507 369.119C37.0433 368.803 37.3334 368.384 37.5209 367.862C37.7142 367.335 37.8109 366.761 37.8109 366.14C37.8109 365.507 37.7142 364.927 37.5209 364.399C37.3334 363.872 37.0433 363.45 36.6507 363.134C36.2582 362.817 35.7601 362.659 35.1566 362.659C34.5589 362.659 34.0638 362.817 33.6713 363.134C33.2845 363.45 32.9945 363.872 32.8011 364.399C32.6078 364.927 32.5111 365.507 32.5111 366.14C32.5111 366.761 32.6078 367.335 32.8011 367.862C32.9945 368.384 33.2845 368.803 33.6713 369.119C34.0638 369.436 34.5589 369.594 35.1566 369.594ZM42.6628 365.173V371H40.7644V361.174H42.6101V362.791H42.7419C42.9646 362.258 43.3132 361.836 43.7878 361.525C44.2624 361.209 44.8718 361.051 45.6159 361.051C46.2839 361.051 46.8669 361.191 47.365 361.473C47.8689 361.748 48.2585 362.161 48.5339 362.712C48.8152 363.263 48.9558 363.945 48.9558 364.76V371H47.0573V364.988C47.0573 364.279 46.8698 363.723 46.4948 363.318C46.1198 362.908 45.6101 362.703 44.9655 362.703C44.5261 362.703 44.1306 362.803 43.779 363.002C43.4333 363.195 43.1609 363.474 42.9616 363.837C42.7624 364.2 42.6628 364.646 42.6628 365.173ZM52.3223 365.173V371H50.4239V361.174H52.2696V362.791H52.4014C52.6241 362.258 52.9727 361.836 53.4473 361.525C53.922 361.209 54.5313 361.051 55.2755 361.051C55.9434 361.051 56.5264 361.191 57.0245 361.473C57.5284 361.748 57.918 362.161 58.1934 362.712C58.4747 363.263 58.6153 363.945 58.6153 364.76V371H56.7169V364.988C56.7169 364.279 56.5294 363.723 56.1544 363.318C55.7794 362.908 55.2696 362.703 54.6251 362.703C54.1856 362.703 53.7901 362.803 53.4386 363.002C53.0929 363.195 52.8204 363.474 52.6212 363.837C52.422 364.2 52.3223 364.646 52.3223 365.173ZM64.311 371.202C63.35 371.202 62.518 370.994 61.8149 370.578C61.1118 370.162 60.5698 369.576 60.1889 368.82C59.8139 368.059 59.6264 367.171 59.6264 366.157C59.6264 365.149 59.811 364.262 60.1801 363.494C60.5551 362.727 61.0795 362.129 61.7534 361.701C62.433 361.268 63.2299 361.051 64.144 361.051C64.7006 361.051 65.2397 361.142 65.7612 361.323C66.2827 361.505 66.7514 361.792 67.1674 362.185C67.5834 362.577 67.9116 363.087 68.1518 363.714C68.3979 364.341 68.5209 365.097 68.5209 365.981V366.667H60.7075V365.234H67.5366L66.6489 365.709C66.6489 365.105 66.5551 364.572 66.3676 364.109C66.1801 363.646 65.8989 363.286 65.5239 363.028C65.1547 362.765 64.6948 362.633 64.144 362.633C63.5932 362.633 63.1215 362.765 62.7289 363.028C62.3422 363.292 62.0463 363.641 61.8413 364.074C61.6362 364.508 61.5336 364.982 61.5336 365.498V366.474C61.5336 367.147 61.6508 367.719 61.8852 368.188C62.1196 368.656 62.4448 369.014 62.8608 369.26C63.2827 369.506 63.7719 369.629 64.3286 369.629C64.6918 369.629 65.02 369.576 65.3129 369.471C65.6118 369.365 65.8696 369.207 66.0864 368.996C66.3032 368.785 66.4672 368.524 66.5786 368.214L68.3891 368.557C68.2426 369.084 67.9848 369.547 67.6157 369.945C67.2465 370.344 66.7807 370.654 66.2182 370.877C65.6616 371.094 65.0258 371.202 64.311 371.202ZM73.6189 371.202C72.6756 371.202 71.8611 370.985 71.1756 370.552C70.49 370.118 69.9627 369.521 69.5936 368.759C69.2244 367.997 69.0398 367.124 69.0398 366.14C69.0398 365.138 69.2273 364.256 69.6023 363.494C69.9832 362.727 70.5135 362.129 71.1932 361.701C71.8787 361.268 72.6814 361.051 73.6014 361.051C74.3514 361.051 75.0164 361.188 75.5965 361.464C76.1824 361.733 76.6541 362.117 77.0115 362.615C77.3748 363.113 77.5887 363.693 77.6531 364.355H75.7898C75.7254 364.045 75.5994 363.761 75.4119 363.503C75.2303 363.245 74.99 363.04 74.6912 362.888C74.3924 362.735 74.0379 362.659 73.6277 362.659C73.0945 362.659 72.6287 362.8 72.2303 363.081C71.8377 363.356 71.5301 363.752 71.3074 364.268C71.0848 364.783 70.9734 365.393 70.9734 366.096C70.9734 366.805 71.0818 367.423 71.2986 367.95C71.5154 368.478 71.823 368.885 72.2215 369.172C72.6258 369.453 73.0945 369.594 73.6277 369.594C74.1785 369.594 74.6473 369.441 75.034 369.137C75.4266 368.832 75.6785 368.416 75.7898 367.889H77.6531C77.5887 368.527 77.3836 369.096 77.0379 369.594C76.6922 370.092 76.2293 370.484 75.6492 370.771C75.0691 371.059 74.3924 371.202 73.6189 371.202ZM83.217 361.174V362.712H77.8556V361.174H83.217ZM79.2882 358.836H81.1955V368.117C81.1955 368.568 81.2892 368.899 81.4767 369.11C81.6642 369.315 81.966 369.418 82.382 369.418C82.4816 369.418 82.5871 369.412 82.6984 369.4C82.8156 369.389 82.9328 369.371 83.05 369.348L83.4103 370.93C83.217 370.994 83.006 371.044 82.7775 371.079C82.549 371.114 82.3205 371.132 82.092 371.132C81.2423 371.132 80.5627 370.895 80.0529 370.42C79.5431 369.939 79.2882 369.301 79.2882 368.504V358.836ZM90.7235 371.211C90.1024 371.211 89.5399 371.097 89.036 370.868C88.5321 370.634 88.1337 370.294 87.8407 369.849C87.5477 369.403 87.4013 368.861 87.4013 368.223C87.4013 367.666 87.5067 367.212 87.7177 366.86C87.9345 366.503 88.2245 366.219 88.5878 366.008C88.9511 365.797 89.3554 365.639 89.8007 365.533C90.246 365.428 90.703 365.346 91.1718 365.287C91.7636 365.223 92.2411 365.167 92.6044 365.12C92.9677 365.073 93.2313 365 93.3954 364.9C93.5653 364.795 93.6503 364.628 93.6503 364.399V364.355C93.6503 363.799 93.4921 363.368 93.1757 363.063C92.8651 362.759 92.4022 362.606 91.787 362.606C91.1483 362.606 90.6415 362.747 90.2665 363.028C89.8973 363.304 89.6425 363.617 89.5018 363.969L87.7001 363.556C87.9169 362.958 88.2304 362.478 88.6405 362.114C89.0565 361.745 89.5311 361.476 90.0643 361.306C90.6034 361.136 91.1659 361.051 91.7518 361.051C92.1444 361.051 92.5604 361.098 92.9999 361.191C93.4393 361.279 93.8524 361.446 94.2391 361.692C94.6317 361.933 94.9511 362.278 95.1972 362.729C95.4432 363.181 95.5663 363.764 95.5663 364.479V371H93.6942V369.655H93.6239C93.5067 369.896 93.3222 370.136 93.0702 370.376C92.8241 370.616 92.5077 370.815 92.121 370.974C91.7343 371.132 91.2684 371.211 90.7235 371.211ZM91.1366 369.682C91.6698 369.682 92.1239 369.579 92.4989 369.374C92.8739 369.163 93.161 368.888 93.3602 368.548C93.5595 368.208 93.6591 367.848 93.6591 367.467V366.192C93.5888 366.257 93.4569 366.318 93.2636 366.377C93.0702 366.436 92.8505 366.485 92.6044 366.526C92.3583 366.567 92.118 366.605 91.8837 366.641C91.6493 366.67 91.453 366.693 91.2948 366.711C90.9257 366.764 90.5888 366.846 90.2841 366.957C89.9794 367.062 89.7333 367.221 89.5458 367.432C89.3641 367.637 89.2733 367.909 89.2733 368.249C89.2733 368.724 89.4491 369.081 89.8007 369.321C90.1522 369.562 90.5975 369.682 91.1366 369.682ZM97.0432 374.674V361.174H98.8889V362.773H99.0471C99.1643 362.568 99.3254 362.331 99.5305 362.062C99.7414 361.792 100.034 361.558 100.409 361.358C100.784 361.153 101.274 361.051 101.877 361.051C102.668 361.051 103.371 361.25 103.987 361.648C104.608 362.047 105.097 362.624 105.454 363.38C105.812 364.136 105.99 365.047 105.99 366.113C105.99 367.168 105.815 368.076 105.463 368.838C105.112 369.594 104.625 370.177 104.004 370.587C103.389 370.991 102.683 371.193 101.886 371.193C101.294 371.193 100.808 371.094 100.427 370.895C100.052 370.689 99.7561 370.452 99.5393 370.183C99.3284 369.913 99.1643 369.676 99.0471 369.471H98.9416V374.674H97.0432ZM101.473 369.567C102.041 369.567 102.516 369.415 102.897 369.11C103.278 368.806 103.565 368.393 103.758 367.871C103.957 367.344 104.057 366.752 104.057 366.096C104.057 365.445 103.96 364.862 103.767 364.347C103.573 363.831 103.286 363.424 102.906 363.125C102.525 362.826 102.047 362.677 101.473 362.677C100.916 362.677 100.448 362.82 100.067 363.107C99.6858 363.389 99.3957 363.787 99.1965 364.303C99.0032 364.812 98.9065 365.41 98.9065 366.096C98.9065 366.781 99.0061 367.385 99.2053 367.906C99.4045 368.428 99.6946 368.835 100.075 369.128C100.462 369.421 100.928 369.567 101.473 369.567ZM107.019 374.674V361.174H108.865V362.773H109.023C109.14 362.568 109.301 362.331 109.506 362.062C109.717 361.792 110.01 361.558 110.385 361.358C110.76 361.153 111.25 361.051 111.853 361.051C112.644 361.051 113.347 361.25 113.963 361.648C114.584 362.047 115.073 362.624 115.43 363.38C115.788 364.136 115.966 365.047 115.966 366.113C115.966 367.168 115.791 368.076 115.439 368.838C115.088 369.594 114.601 370.177 113.98 370.587C113.365 370.991 112.659 371.193 111.862 371.193C111.27 371.193 110.784 371.094 110.403 370.895C110.028 370.689 109.732 370.452 109.515 370.183C109.304 369.913 109.14 369.676 109.023 369.471H108.918V374.674H107.019ZM111.449 369.567C112.017 369.567 112.492 369.415 112.873 369.11C113.254 368.806 113.541 368.393 113.734 367.871C113.933 367.344 114.033 366.752 114.033 366.096C114.033 365.445 113.936 364.862 113.743 364.347C113.549 363.831 113.262 363.424 112.881 363.125C112.501 362.826 112.023 362.677 111.449 362.677C110.892 362.677 110.423 362.82 110.043 363.107C109.662 363.389 109.372 363.787 109.172 364.303C108.979 364.812 108.882 365.41 108.882 366.096C108.882 366.781 108.982 367.385 109.181 367.906C109.38 368.428 109.671 368.835 110.051 369.128C110.438 369.421 110.904 369.567 111.449 369.567ZM124.343 363.582L122.611 363.881C122.5 363.553 122.292 363.251 121.987 362.976C121.688 362.7 121.24 362.562 120.643 362.562C120.103 362.562 119.652 362.686 119.289 362.932C118.932 363.172 118.753 363.479 118.753 363.854C118.753 364.183 118.873 364.449 119.113 364.654C119.359 364.859 119.749 365.023 120.282 365.146L121.855 365.498C122.752 365.703 123.423 366.025 123.868 366.465C124.313 366.904 124.536 367.467 124.536 368.152C124.536 368.744 124.366 369.271 124.026 369.734C123.686 370.191 123.215 370.552 122.611 370.815C122.008 371.073 121.311 371.202 120.519 371.202C119.418 371.202 118.521 370.965 117.83 370.49C117.139 370.016 116.714 369.348 116.556 368.486L118.393 368.205C118.51 368.686 118.747 369.049 119.104 369.295C119.468 369.541 119.936 369.664 120.511 369.664C121.132 369.664 121.63 369.532 122.005 369.269C122.386 369.005 122.576 368.686 122.576 368.311C122.576 367.689 122.113 367.271 121.187 367.054L119.526 366.685C118.606 366.474 117.927 366.143 117.487 365.691C117.054 365.234 116.837 364.66 116.837 363.969C116.837 363.389 116.998 362.879 117.32 362.439C117.648 362 118.097 361.66 118.665 361.42C119.239 361.174 119.893 361.051 120.625 361.051C121.691 361.051 122.526 361.282 123.13 361.745C123.739 362.208 124.144 362.82 124.343 363.582ZM133.387 371.202C132.426 371.202 131.594 370.994 130.891 370.578C130.188 370.162 129.646 369.576 129.265 368.82C128.89 368.059 128.703 367.171 128.703 366.157C128.703 365.149 128.887 364.262 129.257 363.494C129.632 362.727 130.156 362.129 130.83 361.701C131.509 361.268 132.306 361.051 133.22 361.051C133.777 361.051 134.316 361.142 134.838 361.323C135.359 361.505 135.828 361.792 136.244 362.185C136.66 362.577 136.988 363.087 137.228 363.714C137.474 364.341 137.597 365.097 137.597 365.981V366.667H129.784V365.234H136.613L135.725 365.709C135.725 365.105 135.632 364.572 135.444 364.109C135.257 363.646 134.975 363.286 134.6 363.028C134.231 362.765 133.771 362.633 133.22 362.633C132.67 362.633 132.198 362.765 131.805 363.028C131.419 363.292 131.123 363.641 130.918 364.074C130.713 364.508 130.61 364.982 130.61 365.498V366.474C130.61 367.147 130.727 367.719 130.962 368.188C131.196 368.656 131.521 369.014 131.937 369.26C132.359 369.506 132.848 369.629 133.405 369.629C133.768 369.629 134.096 369.576 134.389 369.471C134.688 369.365 134.946 369.207 135.163 368.996C135.38 368.785 135.544 368.524 135.655 368.214L137.466 368.557C137.319 369.084 137.061 369.547 136.692 369.945C136.323 370.344 135.857 370.654 135.295 370.877C134.738 371.094 134.102 371.202 133.387 371.202ZM141.421 371.211C140.8 371.211 140.237 371.097 139.733 370.868C139.23 370.634 138.831 370.294 138.538 369.849C138.245 369.403 138.099 368.861 138.099 368.223C138.099 367.666 138.204 367.212 138.415 366.86C138.632 366.503 138.922 366.219 139.285 366.008C139.648 365.797 140.053 365.639 140.498 365.533C140.943 365.428 141.4 365.346 141.869 365.287C142.461 365.223 142.939 365.167 143.302 365.12C143.665 365.073 143.929 365 144.093 364.9C144.263 364.795 144.348 364.628 144.348 364.399V364.355C144.348 363.799 144.189 363.368 143.873 363.063C143.563 362.759 143.1 362.606 142.484 362.606C141.846 362.606 141.339 362.747 140.964 363.028C140.595 363.304 140.34 363.617 140.199 363.969L138.397 363.556C138.614 362.958 138.928 362.478 139.338 362.114C139.754 361.745 140.229 361.476 140.762 361.306C141.301 361.136 141.863 361.051 142.449 361.051C142.842 361.051 143.258 361.098 143.697 361.191C144.137 361.279 144.55 361.446 144.937 361.692C145.329 361.933 145.648 362.278 145.895 362.729C146.141 363.181 146.264 363.764 146.264 364.479V371H144.392V369.655H144.321C144.204 369.896 144.02 370.136 143.768 370.376C143.522 370.616 143.205 370.815 142.818 370.974C142.432 371.132 141.966 371.211 141.421 371.211ZM141.834 369.682C142.367 369.682 142.821 369.579 143.196 369.374C143.571 369.163 143.858 368.888 144.058 368.548C144.257 368.208 144.356 367.848 144.356 367.467V366.192C144.286 366.257 144.154 366.318 143.961 366.377C143.768 366.436 143.548 366.485 143.302 366.526C143.056 366.567 142.815 366.605 142.581 366.641C142.347 366.67 142.15 366.693 141.992 366.711C141.623 366.764 141.286 366.846 140.981 366.957C140.677 367.062 140.431 367.221 140.243 367.432C140.062 367.637 139.971 367.909 139.971 368.249C139.971 368.724 140.147 369.081 140.498 369.321C140.85 369.562 141.295 369.682 141.834 369.682ZM155.088 363.582L153.357 363.881C153.246 363.553 153.038 363.251 152.733 362.976C152.434 362.7 151.986 362.562 151.388 362.562C150.849 362.562 150.398 362.686 150.035 362.932C149.677 363.172 149.498 363.479 149.498 363.854C149.498 364.183 149.619 364.449 149.859 364.654C150.105 364.859 150.495 365.023 151.028 365.146L152.601 365.498C153.497 365.703 154.168 366.025 154.614 366.465C155.059 366.904 155.282 367.467 155.282 368.152C155.282 368.744 155.112 369.271 154.772 369.734C154.432 370.191 153.96 370.552 153.357 370.815C152.753 371.073 152.056 371.202 151.265 371.202C150.163 371.202 149.267 370.965 148.576 370.49C147.884 370.016 147.459 369.348 147.301 368.486L149.138 368.205C149.255 368.686 149.493 369.049 149.85 369.295C150.213 369.541 150.682 369.664 151.256 369.664C151.877 369.664 152.375 369.532 152.75 369.269C153.131 369.005 153.322 368.686 153.322 368.311C153.322 367.689 152.859 367.271 151.933 367.054L150.272 366.685C149.352 366.474 148.672 366.143 148.233 365.691C147.799 365.234 147.582 364.66 147.582 363.969C147.582 363.389 147.744 362.879 148.066 362.439C148.394 362 148.842 361.66 149.411 361.42C149.985 361.174 150.638 361.051 151.371 361.051C152.437 361.051 153.272 361.282 153.875 361.745C154.485 362.208 154.889 362.82 155.088 363.582ZM156.258 371V361.174H158.156V371H156.258ZM157.216 359.662C156.882 359.662 156.597 359.551 156.363 359.328C156.129 359.105 156.011 358.839 156.011 358.528C156.011 358.212 156.129 357.942 156.363 357.72C156.597 357.497 156.882 357.386 157.216 357.386C157.544 357.386 157.825 357.497 158.059 357.72C158.3 357.942 158.42 358.212 158.42 358.528C158.42 358.839 158.3 359.105 158.059 359.328C157.825 359.551 157.544 359.662 157.216 359.662ZM161.523 357.904V371H159.624V357.904H161.523ZM164.186 374.674C163.899 374.68 163.638 374.659 163.404 374.612C163.175 374.571 162.999 374.521 162.876 374.463L163.342 372.907L163.474 372.942C163.96 373.065 164.371 373.057 164.705 372.916C165.044 372.781 165.329 372.403 165.557 371.782L165.794 371.132L162.208 361.174H164.256L166.735 368.803H166.84L169.328 361.174H171.375L167.333 372.301C167.145 372.816 166.908 373.25 166.621 373.602C166.333 373.959 165.988 374.226 165.583 374.401C165.185 374.583 164.719 374.674 164.186 374.674ZM180.288 361.174V362.712H174.927V361.174H180.288ZM176.36 358.836H178.267V368.117C178.267 368.568 178.361 368.899 178.548 369.11C178.736 369.315 179.037 369.418 179.453 369.418C179.553 369.418 179.658 369.412 179.77 369.4C179.887 369.389 180.004 369.371 180.121 369.348L180.482 370.93C180.288 370.994 180.077 371.044 179.849 371.079C179.62 371.114 179.392 371.132 179.163 371.132C178.314 371.132 177.634 370.895 177.124 370.42C176.614 369.939 176.36 369.301 176.36 368.504V358.836ZM185.316 371.202C184.396 371.202 183.59 370.991 182.899 370.569C182.213 370.147 181.68 369.556 181.299 368.794C180.924 368.032 180.737 367.147 180.737 366.14C180.737 365.12 180.924 364.229 181.299 363.468C181.68 362.7 182.213 362.105 182.899 361.684C183.59 361.262 184.396 361.051 185.316 361.051C186.242 361.051 187.047 361.262 187.733 361.684C188.419 362.105 188.952 362.7 189.333 363.468C189.713 364.229 189.904 365.12 189.904 366.14C189.904 367.147 189.713 368.032 189.333 368.794C188.952 369.556 188.419 370.147 187.733 370.569C187.047 370.991 186.242 371.202 185.316 371.202ZM185.316 369.594C185.919 369.594 186.418 369.436 186.81 369.119C187.203 368.803 187.493 368.384 187.68 367.862C187.874 367.335 187.97 366.761 187.97 366.14C187.97 365.507 187.874 364.927 187.68 364.399C187.493 363.872 187.203 363.45 186.81 363.134C186.418 362.817 185.919 362.659 185.316 362.659C184.718 362.659 184.223 362.817 183.831 363.134C183.444 363.45 183.154 363.872 182.961 364.399C182.767 364.927 182.67 365.507 182.67 366.14C182.67 366.761 182.767 367.335 182.961 367.862C183.154 368.384 183.444 368.803 183.831 369.119C184.223 369.436 184.718 369.594 185.316 369.594ZM201.919 363.582L200.188 363.881C200.076 363.553 199.868 363.251 199.564 362.976C199.265 362.7 198.817 362.562 198.219 362.562C197.68 362.562 197.229 362.686 196.866 362.932C196.508 363.172 196.329 363.479 196.329 363.854C196.329 364.183 196.449 364.449 196.69 364.654C196.936 364.859 197.325 365.023 197.859 365.146L199.432 365.498C200.328 365.703 200.999 366.025 201.445 366.465C201.89 366.904 202.113 367.467 202.113 368.152C202.113 368.744 201.943 369.271 201.603 369.734C201.263 370.191 200.791 370.552 200.188 370.815C199.584 371.073 198.887 371.202 198.096 371.202C196.994 371.202 196.098 370.965 195.407 370.49C194.715 370.016 194.29 369.348 194.132 368.486L195.969 368.205C196.086 368.686 196.324 369.049 196.681 369.295C197.044 369.541 197.513 369.664 198.087 369.664C198.708 369.664 199.206 369.532 199.581 369.269C199.962 369.005 200.153 368.686 200.153 368.311C200.153 367.689 199.69 367.271 198.764 367.054L197.103 366.685C196.183 366.474 195.503 366.143 195.064 365.691C194.63 365.234 194.413 364.66 194.413 363.969C194.413 363.389 194.574 362.879 194.897 362.439C195.225 362 195.673 361.66 196.241 361.42C196.816 361.174 197.469 361.051 198.201 361.051C199.268 361.051 200.103 361.282 200.706 361.745C201.316 362.208 201.72 362.82 201.919 363.582ZM207.659 361.174V362.712H202.298V361.174H207.659ZM203.73 358.836H205.637V368.117C205.637 368.568 205.731 368.899 205.919 369.11C206.106 369.315 206.408 369.418 206.824 369.418C206.923 369.418 207.029 369.412 207.14 369.4C207.257 369.389 207.375 369.371 207.492 369.348L207.852 370.93C207.659 370.994 207.448 371.044 207.219 371.079C206.991 371.114 206.762 371.132 206.534 371.132C205.684 371.132 205.005 370.895 204.495 370.42C203.985 369.939 203.73 369.301 203.73 368.504V358.836ZM208.67 371V361.174H210.507V362.747H210.612C210.794 362.22 211.11 361.804 211.562 361.499C212.019 361.188 212.534 361.033 213.108 361.033C213.226 361.033 213.363 361.039 213.521 361.051C213.686 361.057 213.817 361.065 213.917 361.077V362.905C213.841 362.882 213.703 362.858 213.504 362.835C213.311 362.812 213.114 362.8 212.915 362.8C212.464 362.8 212.06 362.896 211.702 363.09C211.351 363.277 211.072 363.538 210.867 363.872C210.668 364.2 210.568 364.581 210.568 365.015V371H208.67ZM218.356 371.202C217.395 371.202 216.563 370.994 215.86 370.578C215.157 370.162 214.615 369.576 214.234 368.82C213.859 368.059 213.671 367.171 213.671 366.157C213.671 365.149 213.856 364.262 214.225 363.494C214.6 362.727 215.124 362.129 215.798 361.701C216.478 361.268 217.275 361.051 218.189 361.051C218.745 361.051 219.285 361.142 219.806 361.323C220.327 361.505 220.796 361.792 221.212 362.185C221.628 362.577 221.956 363.087 222.197 363.714C222.443 364.341 222.566 365.097 222.566 365.981V366.667H214.752V365.234H221.581L220.694 365.709C220.694 365.105 220.6 364.572 220.412 364.109C220.225 363.646 219.944 363.286 219.569 363.028C219.2 362.765 218.74 362.633 218.189 362.633C217.638 362.633 217.166 362.765 216.774 363.028C216.387 363.292 216.091 363.641 215.886 364.074C215.681 364.508 215.578 364.982 215.578 365.498V366.474C215.578 367.147 215.696 367.719 215.93 368.188C216.164 368.656 216.49 369.014 216.906 369.26C217.327 369.506 217.817 369.629 218.373 369.629C218.737 369.629 219.065 369.576 219.358 369.471C219.657 369.365 219.914 369.207 220.131 368.996C220.348 368.785 220.512 368.524 220.623 368.214L222.434 368.557C222.287 369.084 222.03 369.547 221.661 369.945C221.291 370.344 220.826 370.654 220.263 370.877C219.706 371.094 219.071 371.202 218.356 371.202ZM226.389 371.211C225.768 371.211 225.206 371.097 224.702 370.868C224.198 370.634 223.8 370.294 223.507 369.849C223.214 369.403 223.067 368.861 223.067 368.223C223.067 367.666 223.173 367.212 223.384 366.86C223.6 366.503 223.89 366.219 224.254 366.008C224.617 365.797 225.021 365.639 225.467 365.533C225.912 365.428 226.369 365.346 226.838 365.287C227.429 365.223 227.907 365.167 228.27 365.12C228.634 365.073 228.897 365 229.061 364.9C229.231 364.795 229.316 364.628 229.316 364.399V364.355C229.316 363.799 229.158 363.368 228.842 363.063C228.531 362.759 228.068 362.606 227.453 362.606C226.814 362.606 226.307 362.747 225.932 363.028C225.563 363.304 225.308 363.617 225.168 363.969L223.366 363.556C223.583 362.958 223.896 362.478 224.306 362.114C224.722 361.745 225.197 361.476 225.73 361.306C226.269 361.136 226.832 361.051 227.418 361.051C227.81 361.051 228.226 361.098 228.666 361.191C229.105 361.279 229.518 361.446 229.905 361.692C230.298 361.933 230.617 362.278 230.863 362.729C231.109 363.181 231.232 363.764 231.232 364.479V371H229.36V369.655H229.29C229.173 369.896 228.988 370.136 228.736 370.376C228.49 370.616 228.174 370.815 227.787 370.974C227.4 371.132 226.934 371.211 226.389 371.211ZM226.802 369.682C227.336 369.682 227.79 369.579 228.165 369.374C228.54 369.163 228.827 368.888 229.026 368.548C229.225 368.208 229.325 367.848 229.325 367.467V366.192C229.255 366.257 229.123 366.318 228.929 366.377C228.736 366.436 228.516 366.485 228.27 366.526C228.024 366.567 227.784 366.605 227.55 366.641C227.315 366.67 227.119 366.693 226.961 366.711C226.592 366.764 226.255 366.846 225.95 366.957C225.645 367.062 225.399 367.221 225.212 367.432C225.03 367.637 224.939 367.909 224.939 368.249C224.939 368.724 225.115 369.081 225.467 369.321C225.818 369.562 226.263 369.682 226.802 369.682ZM232.709 371V361.174H234.528V362.791H234.66C234.865 362.246 235.199 361.821 235.662 361.517C236.131 361.206 236.688 361.051 237.332 361.051C237.988 361.051 238.536 361.206 238.976 361.517C239.421 361.821 239.752 362.246 239.969 362.791H240.074C240.309 362.258 240.681 361.836 241.191 361.525C241.7 361.209 242.307 361.051 243.01 361.051C243.9 361.051 244.63 361.332 245.198 361.895C245.767 362.451 246.051 363.292 246.051 364.417V371H244.135V364.593C244.135 363.925 243.953 363.444 243.59 363.151C243.227 362.853 242.793 362.703 242.289 362.703C241.668 362.703 241.185 362.896 240.839 363.283C240.499 363.664 240.329 364.147 240.329 364.733V371H238.413V364.47C238.413 363.937 238.249 363.509 237.921 363.187C237.593 362.864 237.162 362.703 236.629 362.703C236.266 362.703 235.929 362.8 235.618 362.993C235.314 363.181 235.067 363.444 234.88 363.784C234.698 364.118 234.607 364.505 234.607 364.944V371H232.709ZM249.417 357.904V371H247.519V357.904H249.417ZM250.886 371V361.174H252.784V371H250.886ZM251.844 359.662C251.51 359.662 251.225 359.551 250.991 359.328C250.757 359.105 250.639 358.839 250.639 358.528C250.639 358.212 250.757 357.942 250.991 357.72C251.225 357.497 251.51 357.386 251.844 357.386C252.172 357.386 252.453 357.497 252.687 357.72C252.928 357.942 253.048 358.212 253.048 358.528C253.048 358.839 252.928 359.105 252.687 359.328C252.453 359.551 252.172 359.662 251.844 359.662ZM256.151 365.173V371H254.252V361.174H256.098V362.791H256.23C256.452 362.258 256.801 361.836 257.276 361.525C257.75 361.209 258.36 361.051 259.104 361.051C259.772 361.051 260.355 361.191 260.853 361.473C261.357 361.748 261.746 362.161 262.022 362.712C262.303 363.263 262.444 363.945 262.444 364.76V371H260.545V364.988C260.545 364.279 260.358 363.723 259.983 363.318C259.608 362.908 259.098 362.703 258.453 362.703C258.014 362.703 257.618 362.803 257.267 363.002C256.921 363.195 256.649 363.474 256.449 363.837C256.25 364.2 256.151 364.646 256.151 365.173ZM268.139 371.202C267.178 371.202 266.346 370.994 265.643 370.578C264.94 370.162 264.398 369.576 264.017 368.82C263.642 368.059 263.455 367.171 263.455 366.157C263.455 365.149 263.639 364.262 264.008 363.494C264.383 362.727 264.908 362.129 265.582 361.701C266.261 361.268 267.058 361.051 267.972 361.051C268.529 361.051 269.068 361.142 269.589 361.323C270.111 361.505 270.58 361.792 270.996 362.185C271.412 362.577 271.74 363.087 271.98 363.714C272.226 364.341 272.349 365.097 272.349 365.981V366.667H264.536V365.234H271.365L270.477 365.709C270.477 365.105 270.383 364.572 270.196 364.109C270.008 363.646 269.727 363.286 269.352 363.028C268.983 362.765 268.523 362.633 267.972 362.633C267.421 362.633 266.95 362.765 266.557 363.028C266.17 363.292 265.875 363.641 265.669 364.074C265.464 364.508 265.362 364.982 265.362 365.498V366.474C265.362 367.147 265.479 367.719 265.713 368.188C265.948 368.656 266.273 369.014 266.689 369.26C267.111 369.506 267.6 369.629 268.157 369.629C268.52 369.629 268.848 369.576 269.141 369.471C269.44 369.365 269.698 369.207 269.915 368.996C270.131 368.785 270.295 368.524 270.407 368.214L272.217 368.557C272.071 369.084 271.813 369.547 271.444 369.945C271.075 370.344 270.609 370.654 270.046 370.877C269.49 371.094 268.854 371.202 268.139 371.202ZM280.629 371.193C279.832 371.193 279.123 370.991 278.502 370.587C277.881 370.177 277.395 369.594 277.043 368.838C276.692 368.076 276.516 367.168 276.516 366.113C276.516 365.047 276.695 364.136 277.052 363.38C277.409 362.624 277.899 362.047 278.52 361.648C279.141 361.25 279.844 361.051 280.629 361.051C281.244 361.051 281.737 361.153 282.106 361.358C282.481 361.558 282.771 361.792 282.976 362.062C283.187 362.331 283.348 362.568 283.459 362.773H283.573V357.904H285.472V371H283.617V369.471H283.459C283.348 369.676 283.184 369.913 282.967 370.183C282.75 370.452 282.454 370.689 282.079 370.895C281.71 371.094 281.227 371.193 280.629 371.193ZM281.042 369.567C281.593 369.567 282.059 369.421 282.44 369.128C282.821 368.835 283.108 368.428 283.301 367.906C283.5 367.385 283.6 366.781 283.6 366.096C283.6 365.41 283.503 364.812 283.31 364.303C283.116 363.787 282.829 363.389 282.448 363.107C282.068 362.82 281.599 362.677 281.042 362.677C280.468 362.677 279.99 362.826 279.61 363.125C279.229 363.424 278.942 363.831 278.748 364.347C278.555 364.862 278.458 365.445 278.458 366.096C278.458 366.752 278.555 367.344 278.748 367.871C278.942 368.393 279.229 368.806 279.61 369.11C279.996 369.415 280.474 369.567 281.042 369.567ZM289.796 371.211C289.175 371.211 288.613 371.097 288.109 370.868C287.605 370.634 287.207 370.294 286.914 369.849C286.621 369.403 286.474 368.861 286.474 368.223C286.474 367.666 286.58 367.212 286.791 366.86C287.007 366.503 287.297 366.219 287.661 366.008C288.024 365.797 288.428 365.639 288.874 365.533C289.319 365.428 289.776 365.346 290.245 365.287C290.837 365.223 291.314 365.167 291.677 365.12C292.041 365.073 292.304 365 292.468 364.9C292.638 364.795 292.723 364.628 292.723 364.399V364.355C292.723 363.799 292.565 363.368 292.249 363.063C291.938 362.759 291.475 362.606 290.86 362.606C290.221 362.606 289.714 362.747 289.339 363.028C288.97 363.304 288.715 363.617 288.575 363.969L286.773 363.556C286.99 362.958 287.303 362.478 287.713 362.114C288.129 361.745 288.604 361.476 289.137 361.306C289.676 361.136 290.239 361.051 290.825 361.051C291.217 361.051 291.633 361.098 292.073 361.191C292.512 361.279 292.925 361.446 293.312 361.692C293.705 361.933 294.024 362.278 294.27 362.729C294.516 363.181 294.639 363.764 294.639 364.479V371H292.767V369.655H292.697C292.58 369.896 292.395 370.136 292.143 370.376C291.897 370.616 291.581 370.815 291.194 370.974C290.807 371.132 290.341 371.211 289.796 371.211ZM290.21 369.682C290.743 369.682 291.197 369.579 291.572 369.374C291.947 369.163 292.234 368.888 292.433 368.548C292.632 368.208 292.732 367.848 292.732 367.467V366.192C292.662 366.257 292.53 366.318 292.337 366.377C292.143 366.436 291.923 366.485 291.677 366.526C291.431 366.567 291.191 366.605 290.957 366.641C290.722 366.67 290.526 366.693 290.368 366.711C289.999 366.764 289.662 366.846 289.357 366.957C289.052 367.062 288.806 367.221 288.619 367.432C288.437 367.637 288.346 367.909 288.346 368.249C288.346 368.724 288.522 369.081 288.874 369.321C289.225 369.562 289.671 369.682 290.21 369.682ZM296.116 371V361.174H298.015V371H296.116ZM297.074 359.662C296.74 359.662 296.456 359.551 296.222 359.328C295.987 359.105 295.87 358.839 295.87 358.528C295.87 358.212 295.987 357.942 296.222 357.72C296.456 357.497 296.74 357.386 297.074 357.386C297.402 357.386 297.684 357.497 297.918 357.72C298.158 357.942 298.278 358.212 298.278 358.528C298.278 358.839 298.158 359.105 297.918 359.328C297.684 359.551 297.402 359.662 297.074 359.662ZM301.381 357.904V371H299.483V357.904H301.381ZM304.045 374.674C303.758 374.68 303.497 374.659 303.262 374.612C303.034 374.571 302.858 374.521 302.735 374.463L303.201 372.907L303.333 372.942C303.819 373.065 304.229 373.057 304.563 372.916C304.903 372.781 305.187 372.403 305.416 371.782L305.653 371.132L302.067 361.174H304.115L306.593 368.803H306.699L309.186 361.174H311.234L307.191 372.301C307.004 372.816 306.766 373.25 306.479 373.602C306.192 373.959 305.846 374.226 305.442 374.401C305.044 374.583 304.578 374.674 304.045 374.674ZM320.147 361.174V362.712H314.786V361.174H320.147ZM316.218 358.836H318.125V368.117C318.125 368.568 318.219 368.899 318.407 369.11C318.594 369.315 318.896 369.418 319.312 369.418C319.412 369.418 319.517 369.412 319.628 369.4C319.746 369.389 319.863 369.371 319.98 369.348L320.34 370.93C320.147 370.994 319.936 371.044 319.707 371.079C319.479 371.114 319.25 371.132 319.022 371.132C318.172 371.132 317.493 370.895 316.983 370.42C316.473 369.939 316.218 369.301 316.218 368.504V358.836ZM324.006 371.211C323.385 371.211 322.822 371.097 322.318 370.868C321.814 370.634 321.416 370.294 321.123 369.849C320.83 369.403 320.683 368.861 320.683 368.223C320.683 367.666 320.789 367.212 321 366.86C321.217 366.503 321.507 366.219 321.87 366.008C322.233 365.797 322.637 365.639 323.083 365.533C323.528 365.428 323.985 365.346 324.454 365.287C325.046 365.223 325.523 365.167 325.886 365.12C326.25 365.073 326.513 365 326.677 364.9C326.847 364.795 326.932 364.628 326.932 364.399V364.355C326.932 363.799 326.774 363.368 326.458 363.063C326.147 362.759 325.684 362.606 325.069 362.606C324.43 362.606 323.924 362.747 323.549 363.028C323.179 363.304 322.925 363.617 322.784 363.969L320.982 363.556C321.199 362.958 321.512 362.478 321.923 362.114C322.339 361.745 322.813 361.476 323.346 361.306C323.885 361.136 324.448 361.051 325.034 361.051C325.427 361.051 325.843 361.098 326.282 361.191C326.721 361.279 327.135 361.446 327.521 361.692C327.914 361.933 328.233 362.278 328.479 362.729C328.725 363.181 328.848 363.764 328.848 364.479V371H326.976V369.655H326.906C326.789 369.896 326.604 370.136 326.352 370.376C326.106 370.616 325.79 370.815 325.403 370.974C325.016 371.132 324.551 371.211 324.006 371.211ZM324.419 369.682C324.952 369.682 325.406 369.579 325.781 369.374C326.156 369.163 326.443 368.888 326.642 368.548C326.842 368.208 326.941 367.848 326.941 367.467V366.192C326.871 366.257 326.739 366.318 326.546 366.377C326.352 366.436 326.133 366.485 325.886 366.526C325.64 366.567 325.4 366.605 325.166 366.641C324.931 366.67 324.735 366.693 324.577 366.711C324.208 366.764 323.871 366.846 323.566 366.957C323.261 367.062 323.015 367.221 322.828 367.432C322.646 367.637 322.555 367.909 322.555 368.249C322.555 368.724 322.731 369.081 323.083 369.321C323.434 369.562 323.88 369.682 324.419 369.682ZM337.673 363.582L335.942 363.881C335.83 363.553 335.622 363.251 335.318 362.976C335.019 362.7 334.57 362.562 333.973 362.562C333.434 362.562 332.983 362.686 332.619 362.932C332.262 363.172 332.083 363.479 332.083 363.854C332.083 364.183 332.203 364.449 332.443 364.654C332.69 364.859 333.079 365.023 333.612 365.146L335.186 365.498C336.082 365.703 336.753 366.025 337.198 366.465C337.644 366.904 337.866 367.467 337.866 368.152C337.866 368.744 337.696 369.271 337.357 369.734C337.017 370.191 336.545 370.552 335.942 370.815C335.338 371.073 334.641 371.202 333.85 371.202C332.748 371.202 331.852 370.965 331.16 370.49C330.469 370.016 330.044 369.348 329.886 368.486L331.723 368.205C331.84 368.686 332.077 369.049 332.435 369.295C332.798 369.541 333.267 369.664 333.841 369.664C334.462 369.664 334.96 369.532 335.335 369.269C335.716 369.005 335.906 368.686 335.906 368.311C335.906 367.689 335.443 367.271 334.518 367.054L332.857 366.685C331.937 366.474 331.257 366.143 330.818 365.691C330.384 365.234 330.167 364.66 330.167 363.969C330.167 363.389 330.328 362.879 330.651 362.439C330.979 362 331.427 361.66 331.995 361.42C332.569 361.174 333.223 361.051 333.955 361.051C335.022 361.051 335.857 361.282 336.46 361.745C337.069 362.208 337.474 362.82 337.673 363.582ZM340.6 367.669L340.574 365.34H340.916L344.828 361.174H347.113L342.657 365.92H342.34L340.6 367.669ZM338.842 371V357.904H340.741V371H338.842ZM345.03 371L341.514 366.342L342.832 364.997L347.385 371H345.03ZM355.094 363.582L353.362 363.881C353.251 363.553 353.043 363.251 352.738 362.976C352.439 362.7 351.991 362.562 351.393 362.562C350.854 362.562 350.403 362.686 350.04 362.932C349.682 363.172 349.504 363.479 349.504 363.854C349.504 364.183 349.624 364.449 349.864 364.654C350.11 364.859 350.5 365.023 351.033 365.146L352.606 365.498C353.503 365.703 354.174 366.025 354.619 366.465C355.064 366.904 355.287 367.467 355.287 368.152C355.287 368.744 355.117 369.271 354.777 369.734C354.437 370.191 353.966 370.552 353.362 370.815C352.759 371.073 352.061 371.202 351.27 371.202C350.169 371.202 349.272 370.965 348.581 370.49C347.889 370.016 347.465 369.348 347.306 368.486L349.143 368.205C349.261 368.686 349.498 369.049 349.855 369.295C350.219 369.541 350.687 369.664 351.262 369.664C351.883 369.664 352.381 369.532 352.756 369.269C353.137 369.005 353.327 368.686 353.327 368.311C353.327 367.689 352.864 367.271 351.938 367.054L350.277 366.685C349.357 366.474 348.678 366.143 348.238 365.691C347.805 365.234 347.588 364.66 347.588 363.969C347.588 363.389 347.749 362.879 348.071 362.439C348.399 362 348.848 361.66 349.416 361.42C349.99 361.174 350.643 361.051 351.376 361.051C352.442 361.051 353.277 361.282 353.881 361.745C354.49 362.208 354.894 362.82 355.094 363.582ZM362.758 371.211C362.137 371.211 361.575 371.097 361.071 370.868C360.567 370.634 360.169 370.294 359.876 369.849C359.583 369.403 359.436 368.861 359.436 368.223C359.436 367.666 359.542 367.212 359.753 366.86C359.969 366.503 360.259 366.219 360.623 366.008C360.986 365.797 361.39 365.639 361.836 365.533C362.281 365.428 362.738 365.346 363.207 365.287C363.798 365.223 364.276 365.167 364.639 365.12C365.003 365.073 365.266 365 365.43 364.9C365.6 364.795 365.685 364.628 365.685 364.399V364.355C365.685 363.799 365.527 363.368 365.211 363.063C364.9 362.759 364.437 362.606 363.822 362.606C363.183 362.606 362.676 362.747 362.301 363.028C361.932 363.304 361.677 363.617 361.537 363.969L359.735 363.556C359.952 362.958 360.265 362.478 360.675 362.114C361.091 361.745 361.566 361.476 362.099 361.306C362.638 361.136 363.201 361.051 363.787 361.051C364.179 361.051 364.595 361.098 365.035 361.191C365.474 361.279 365.887 361.446 366.274 361.692C366.667 361.933 366.986 362.278 367.232 362.729C367.478 363.181 367.601 363.764 367.601 364.479V371H365.729V369.655H365.659C365.542 369.896 365.357 370.136 365.105 370.376C364.859 370.616 364.543 370.815 364.156 370.974C363.769 371.132 363.303 371.211 362.758 371.211ZM363.171 369.682C363.705 369.682 364.159 369.579 364.534 369.374C364.909 369.163 365.196 368.888 365.395 368.548C365.594 368.208 365.694 367.848 365.694 367.467V366.192C365.624 366.257 365.492 366.318 365.298 366.377C365.105 366.436 364.885 366.485 364.639 366.526C364.393 366.567 364.153 366.605 363.919 366.641C363.684 366.67 363.488 366.693 363.33 366.711C362.961 366.764 362.624 366.846 362.319 366.957C362.014 367.062 361.768 367.221 361.581 367.432C361.399 367.637 361.308 367.909 361.308 368.249C361.308 368.724 361.484 369.081 361.836 369.321C362.187 369.562 362.632 369.682 363.171 369.682ZM370.976 365.173V371H369.078V361.174H370.924V362.791H371.056C371.278 362.258 371.627 361.836 372.101 361.525C372.576 361.209 373.185 361.051 373.93 361.051C374.598 361.051 375.181 361.191 375.679 361.473C376.183 361.748 376.572 362.161 376.848 362.712C377.129 363.263 377.269 363.945 377.269 364.76V371H375.371V364.988C375.371 364.279 375.184 363.723 374.809 363.318C374.434 362.908 373.924 362.703 373.279 362.703C372.84 362.703 372.444 362.803 372.093 363.002C371.747 363.195 371.475 363.474 371.275 363.837C371.076 364.2 370.976 364.646 370.976 365.173ZM382.394 371.193C381.597 371.193 380.888 370.991 380.267 370.587C379.646 370.177 379.159 369.594 378.808 368.838C378.456 368.076 378.281 367.168 378.281 366.113C378.281 365.047 378.459 364.136 378.817 363.38C379.174 362.624 379.663 362.047 380.284 361.648C380.906 361.25 381.609 361.051 382.394 361.051C383.009 361.051 383.501 361.153 383.87 361.358C384.245 361.558 384.535 361.792 384.741 362.062C384.951 362.331 385.113 362.568 385.224 362.773H385.338V357.904H387.237V371H385.382V369.471H385.224C385.113 369.676 384.949 369.913 384.732 370.183C384.515 370.452 384.219 370.689 383.844 370.895C383.475 371.094 382.991 371.193 382.394 371.193ZM382.807 369.567C383.358 369.567 383.824 369.421 384.204 369.128C384.585 368.835 384.872 368.428 385.066 367.906C385.265 367.385 385.365 366.781 385.365 366.096C385.365 365.41 385.268 364.812 385.074 364.303C384.881 363.787 384.594 363.389 384.213 363.107C383.832 362.82 383.364 362.677 382.807 362.677C382.233 362.677 381.755 362.826 381.374 363.125C380.993 363.424 380.706 363.831 380.513 364.347C380.32 364.862 380.223 365.445 380.223 366.096C380.223 366.752 380.32 367.344 380.513 367.871C380.706 368.393 380.993 368.806 381.374 369.11C381.761 369.415 382.239 369.567 382.807 369.567ZM23.0361 396.202C22.0928 396.202 21.2783 395.985 20.5928 395.552C19.9072 395.118 19.3799 394.521 19.0107 393.759C18.6416 392.997 18.457 392.124 18.457 391.14C18.457 390.138 18.6445 389.256 19.0195 388.494C19.4004 387.727 19.9307 387.129 20.6104 386.701C21.2959 386.268 22.0986 386.051 23.0186 386.051C23.7686 386.051 24.4336 386.188 25.0137 386.464C25.5996 386.733 26.0713 387.117 26.4287 387.615C26.792 388.113 27.0059 388.693 27.0703 389.355H25.207C25.1426 389.045 25.0166 388.761 24.8291 388.503C24.6475 388.245 24.4072 388.04 24.1084 387.888C23.8096 387.735 23.4551 387.659 23.0449 387.659C22.5117 387.659 22.0459 387.8 21.6475 388.081C21.2549 388.356 20.9473 388.752 20.7246 389.268C20.502 389.783 20.3906 390.393 20.3906 391.096C20.3906 391.805 20.499 392.423 20.7158 392.95C20.9326 393.478 21.2402 393.885 21.6387 394.172C22.043 394.453 22.5117 394.594 23.0449 394.594C23.5957 394.594 24.0645 394.441 24.4512 394.137C24.8438 393.832 25.0957 393.416 25.207 392.889H27.0703C27.0059 393.527 26.8008 394.096 26.4551 394.594C26.1094 395.092 25.6465 395.484 25.0664 395.771C24.4863 396.059 23.8096 396.202 23.0361 396.202ZM32.1859 396.202C31.266 396.202 30.4603 395.991 29.7689 395.569C29.0834 395.147 28.5502 394.556 28.1693 393.794C27.7943 393.032 27.6068 392.147 27.6068 391.14C27.6068 390.12 27.7943 389.229 28.1693 388.468C28.5502 387.7 29.0834 387.105 29.7689 386.684C30.4603 386.262 31.266 386.051 32.1859 386.051C33.1117 386.051 33.9173 386.262 34.6029 386.684C35.2884 387.105 35.8216 387.7 36.2025 388.468C36.5834 389.229 36.7738 390.12 36.7738 391.14C36.7738 392.147 36.5834 393.032 36.2025 393.794C35.8216 394.556 35.2884 395.147 34.6029 395.569C33.9173 395.991 33.1117 396.202 32.1859 396.202ZM32.1859 394.594C32.7894 394.594 33.2875 394.436 33.68 394.119C34.0726 393.803 34.3627 393.384 34.5502 392.862C34.7435 392.335 34.8402 391.761 34.8402 391.14C34.8402 390.507 34.7435 389.927 34.5502 389.399C34.3627 388.872 34.0726 388.45 33.68 388.134C33.2875 387.817 32.7894 387.659 32.1859 387.659C31.5882 387.659 31.0931 387.817 30.7005 388.134C30.3138 388.45 30.0238 388.872 29.8304 389.399C29.6371 389.927 29.5404 390.507 29.5404 391.14C29.5404 391.761 29.6371 392.335 29.8304 392.862C30.0238 393.384 30.3138 393.803 30.7005 394.119C31.0931 394.436 31.5882 394.594 32.1859 394.594ZM37.7937 396V386.174H39.613V387.791H39.7448C39.9499 387.246 40.2839 386.821 40.7468 386.517C41.2155 386.206 41.7722 386.051 42.4167 386.051C43.073 386.051 43.6208 386.206 44.0603 386.517C44.5056 386.821 44.8366 387.246 45.0534 387.791H45.1589C45.3933 387.258 45.7654 386.836 46.2751 386.525C46.7849 386.209 47.3913 386.051 48.0945 386.051C48.9851 386.051 49.7146 386.332 50.2829 386.895C50.8513 387.451 51.1355 388.292 51.1355 389.417V396H49.2195V389.593C49.2195 388.925 49.0378 388.444 48.6745 388.151C48.3113 387.853 47.8777 387.703 47.3738 387.703C46.7527 387.703 46.2693 387.896 45.9236 388.283C45.5837 388.664 45.4138 389.147 45.4138 389.733V396H43.4978V389.47C43.4978 388.937 43.3337 388.509 43.0056 388.187C42.6775 387.864 42.2468 387.703 41.7136 387.703C41.3503 387.703 41.0134 387.8 40.7029 387.993C40.3982 388.181 40.1521 388.444 39.9646 388.784C39.7829 389.118 39.6921 389.505 39.6921 389.944V396H37.7937ZM52.6036 396V386.174H54.4229V387.791H54.5548C54.7598 387.246 55.0938 386.821 55.5567 386.517C56.0255 386.206 56.5821 386.051 57.2266 386.051C57.8829 386.051 58.4307 386.206 58.8702 386.517C59.3155 386.821 59.6466 387.246 59.8634 387.791H59.9688C60.2032 387.258 60.5753 386.836 61.085 386.525C61.5948 386.209 62.2012 386.051 62.9044 386.051C63.795 386.051 64.5245 386.332 65.0928 386.895C65.6612 387.451 65.9454 388.292 65.9454 389.417V396H64.0294V389.593C64.0294 388.925 63.8477 388.444 63.4845 388.151C63.1212 387.853 62.6876 387.703 62.1837 387.703C61.5626 387.703 61.0792 387.896 60.7335 388.283C60.3936 388.664 60.2237 389.147 60.2237 389.733V396H58.3077V389.47C58.3077 388.937 58.1436 388.509 57.8155 388.187C57.4874 387.864 57.0567 387.703 56.5235 387.703C56.1602 387.703 55.8233 387.8 55.5128 387.993C55.2081 388.181 54.962 388.444 54.7745 388.784C54.5928 389.118 54.502 389.505 54.502 389.944V396H52.6036ZM73.6362 391.939V386.174H75.5346V396H73.6713V394.295H73.5659C73.3315 394.816 72.9682 395.253 72.476 395.604C71.9838 395.956 71.3686 396.129 70.6303 396.123C69.9975 396.123 69.4379 395.985 68.9516 395.71C68.4711 395.435 68.0932 395.021 67.8178 394.471C67.5483 393.92 67.4135 393.237 67.4135 392.423V386.174H69.312V392.203C69.312 392.865 69.4995 393.396 69.8745 393.794C70.2495 394.192 70.7329 394.389 71.3246 394.383C71.6821 394.383 72.0366 394.295 72.3881 394.119C72.7455 393.943 73.0414 393.674 73.2758 393.311C73.5161 392.947 73.6362 392.49 73.6362 391.939ZM78.9012 390.173V396H77.0027V386.174H78.8484V387.791H78.9803C79.2029 387.258 79.5516 386.836 80.0262 386.525C80.5008 386.209 81.1102 386.051 81.8543 386.051C82.5223 386.051 83.1053 386.191 83.6033 386.473C84.1072 386.748 84.4969 387.161 84.7723 387.712C85.0535 388.263 85.1941 388.945 85.1941 389.76V396H83.2957V389.988C83.2957 389.279 83.1082 388.723 82.7332 388.318C82.3582 387.908 81.8484 387.703 81.2039 387.703C80.7645 387.703 80.3689 387.803 80.0174 388.002C79.6717 388.195 79.3992 388.474 79.2 388.837C79.0008 389.2 78.9012 389.646 78.9012 390.173ZM86.6623 396V386.174H88.5607V396H86.6623ZM87.6203 384.662C87.2863 384.662 87.0021 384.551 86.7677 384.328C86.5334 384.105 86.4162 383.839 86.4162 383.528C86.4162 383.212 86.5334 382.942 86.7677 382.72C87.0021 382.497 87.2863 382.386 87.6203 382.386C87.9484 382.386 88.2296 382.497 88.464 382.72C88.7043 382.942 88.8244 383.212 88.8244 383.528C88.8244 383.839 88.7043 384.105 88.464 384.328C88.2296 384.551 87.9484 384.662 87.6203 384.662ZM94.1509 396.202C93.2075 396.202 92.3931 395.985 91.7075 395.552C91.022 395.118 90.4947 394.521 90.1255 393.759C89.7564 392.997 89.5718 392.124 89.5718 391.14C89.5718 390.138 89.7593 389.256 90.1343 388.494C90.5152 387.727 91.0454 387.129 91.7251 386.701C92.4107 386.268 93.2134 386.051 94.1333 386.051C94.8833 386.051 95.5484 386.188 96.1284 386.464C96.7144 386.733 97.1861 387.117 97.5435 387.615C97.9068 388.113 98.1206 388.693 98.1851 389.355H96.3218C96.2573 389.045 96.1314 388.761 95.9439 388.503C95.7622 388.245 95.522 388.04 95.2232 387.888C94.9243 387.735 94.5698 387.659 94.1597 387.659C93.6265 387.659 93.1607 387.8 92.7622 388.081C92.3697 388.356 92.062 388.752 91.8394 389.268C91.6167 389.783 91.5054 390.393 91.5054 391.096C91.5054 391.805 91.6138 392.423 91.8306 392.95C92.0474 393.478 92.355 393.885 92.7534 394.172C93.1577 394.453 93.6265 394.594 94.1597 394.594C94.7105 394.594 95.1792 394.441 95.5659 394.137C95.9585 393.832 96.2105 393.416 96.3218 392.889H98.1851C98.1206 393.527 97.9156 394.096 97.5698 394.594C97.2241 395.092 96.7613 395.484 96.1812 395.771C95.6011 396.059 94.9243 396.202 94.1509 396.202ZM102.026 396.211C101.405 396.211 100.843 396.097 100.339 395.868C99.8348 395.634 99.4364 395.294 99.1434 394.849C98.8505 394.403 98.704 393.861 98.704 393.223C98.704 392.666 98.8095 392.212 99.0204 391.86C99.2372 391.503 99.5272 391.219 99.8905 391.008C100.254 390.797 100.658 390.639 101.103 390.533C101.549 390.428 102.006 390.346 102.474 390.287C103.066 390.223 103.544 390.167 103.907 390.12C104.27 390.073 104.534 390 104.698 389.9C104.868 389.795 104.953 389.628 104.953 389.399V389.355C104.953 388.799 104.795 388.368 104.478 388.063C104.168 387.759 103.705 387.606 103.09 387.606C102.451 387.606 101.944 387.747 101.569 388.028C101.2 388.304 100.945 388.617 100.805 388.969L99.0028 388.556C99.2196 387.958 99.5331 387.478 99.9432 387.114C100.359 386.745 100.834 386.476 101.367 386.306C101.906 386.136 102.469 386.051 103.055 386.051C103.447 386.051 103.863 386.098 104.303 386.191C104.742 386.279 105.155 386.446 105.542 386.692C105.934 386.933 106.254 387.278 106.5 387.729C106.746 388.181 106.869 388.764 106.869 389.479V396H104.997V394.655H104.927C104.809 394.896 104.625 395.136 104.373 395.376C104.127 395.616 103.81 395.815 103.424 395.974C103.037 396.132 102.571 396.211 102.026 396.211ZM102.439 394.682C102.973 394.682 103.427 394.579 103.802 394.374C104.177 394.163 104.464 393.888 104.663 393.548C104.862 393.208 104.962 392.848 104.962 392.467V391.192C104.891 391.257 104.76 391.318 104.566 391.377C104.373 391.436 104.153 391.485 103.907 391.526C103.661 391.567 103.421 391.605 103.186 391.641C102.952 391.67 102.756 391.693 102.598 391.711C102.228 391.764 101.891 391.846 101.587 391.957C101.282 392.062 101.036 392.221 100.849 392.432C100.667 392.637 100.576 392.909 100.576 393.249C100.576 393.724 100.752 394.081 101.103 394.321C101.455 394.562 101.9 394.682 102.439 394.682ZM112.916 386.174V387.712H107.555V386.174H112.916ZM108.988 383.836H110.895V393.117C110.895 393.568 110.989 393.899 111.176 394.11C111.364 394.315 111.665 394.418 112.081 394.418C112.181 394.418 112.286 394.412 112.398 394.4C112.515 394.389 112.632 394.371 112.749 394.348L113.11 395.93C112.916 395.994 112.705 396.044 112.477 396.079C112.248 396.114 112.02 396.132 111.791 396.132C110.942 396.132 110.262 395.895 109.752 395.42C109.242 394.939 108.988 394.301 108.988 393.504V383.836ZM113.927 396V386.174H115.826V396H113.927ZM114.885 384.662C114.551 384.662 114.267 384.551 114.033 384.328C113.798 384.105 113.681 383.839 113.681 383.528C113.681 383.212 113.798 382.942 114.033 382.72C114.267 382.497 114.551 382.386 114.885 382.386C115.213 382.386 115.495 382.497 115.729 382.72C115.969 382.942 116.089 383.212 116.089 383.528C116.089 383.839 115.969 384.105 115.729 384.328C115.495 384.551 115.213 384.662 114.885 384.662ZM121.416 396.202C120.496 396.202 119.69 395.991 118.999 395.569C118.313 395.147 117.78 394.556 117.399 393.794C117.024 393.032 116.837 392.147 116.837 391.14C116.837 390.12 117.024 389.229 117.399 388.468C117.78 387.7 118.313 387.105 118.999 386.684C119.69 386.262 120.496 386.051 121.416 386.051C122.342 386.051 123.147 386.262 123.833 386.684C124.519 387.105 125.052 387.7 125.433 388.468C125.813 389.229 126.004 390.12 126.004 391.14C126.004 392.147 125.813 393.032 125.433 393.794C125.052 394.556 124.519 395.147 123.833 395.569C123.147 395.991 122.342 396.202 121.416 396.202ZM121.416 394.594C122.019 394.594 122.518 394.436 122.91 394.119C123.303 393.803 123.593 393.384 123.78 392.862C123.974 392.335 124.07 391.761 124.07 391.14C124.07 390.507 123.974 389.927 123.78 389.399C123.593 388.872 123.303 388.45 122.91 388.134C122.518 387.817 122.019 387.659 121.416 387.659C120.818 387.659 120.323 387.817 119.931 388.134C119.544 388.45 119.254 388.872 119.061 389.399C118.867 389.927 118.77 390.507 118.77 391.14C118.77 391.761 118.867 392.335 119.061 392.862C119.254 393.384 119.544 393.803 119.931 394.119C120.323 394.436 120.818 394.594 121.416 394.594ZM128.922 390.173V396H127.024V386.174H128.869V387.791H129.001C129.224 387.258 129.573 386.836 130.047 386.525C130.522 386.209 131.131 386.051 131.875 386.051C132.543 386.051 133.126 386.191 133.624 386.473C134.128 386.748 134.518 387.161 134.793 387.712C135.075 388.263 135.215 388.945 135.215 389.76V396H133.317V389.988C133.317 389.279 133.129 388.723 132.754 388.318C132.379 387.908 131.869 387.703 131.225 387.703C130.785 387.703 130.39 387.803 130.038 388.002C129.693 388.195 129.42 388.474 129.221 388.837C129.022 389.2 128.922 389.646 128.922 390.173ZM138.107 396.123C137.75 396.123 137.445 396 137.193 395.754C136.947 395.508 136.824 395.206 136.824 394.849C136.824 394.491 136.947 394.189 137.193 393.943C137.445 393.697 137.75 393.574 138.107 393.574C138.465 393.574 138.766 393.697 139.012 393.943C139.264 394.189 139.39 394.491 139.39 394.849C139.39 395.206 139.264 395.508 139.012 395.754C138.766 396 138.465 396.123 138.107 396.123Z" fill="#AAAAAA"/>
<rect x="37.5391" y="-28.4609" width="343.922" height="343.922" rx="171.961" stroke="url(#paint0_linear_1809_1522)" stroke-width="1.07812"/>
<rect x="80.6641" y="14.6641" width="257.672" height="257.672" rx="128.836" stroke="url(#paint1_linear_1809_1522)" stroke-width="1.07812"/>
<rect x="123.789" y="57.7891" width="171.422" height="171.422" rx="85.7109" stroke="url(#paint2_linear_1809_1522)" stroke-width="1.07812"/>
<rect x="166.375" y="100.375" width="86.25" height="86.25" rx="43.125" fill="#42C3FF"/>
<path d="M192 163.909V155.966L209.46 135.072V134.857H192.572V123.909H226.419V132.711L210.533 152.746V152.961H227.063V163.909H192Z" fill="#080035"/>
<g clip-path="url(#clip1_1809_1522)">
<path d="M207.634 211.791C202.039 211.772 191.276 224.599 195.297 227.996L196.284 228.832C196.018 229.547 195.924 230.315 196.009 231.072C196.114 232.122 196.657 233.127 197.534 233.905C198.367 234.642 199.462 235.11 200.524 235.11C202.282 239.16 206.299 241.645 211.007 241.785C216.057 241.935 220.298 239.565 222.074 235.307C222.191 235.007 222.684 233.662 222.684 232.474C222.684 231.279 222.009 230.784 221.578 230.784C221.566 230.737 221.481 230.426 221.363 230.051C221.247 229.676 221.126 229.414 221.126 229.414C221.594 228.71 221.603 228.082 221.541 227.726C221.474 227.285 221.291 226.91 220.921 226.521C220.551 226.132 219.793 225.734 218.729 225.436L218.172 225.281C218.169 225.257 218.142 223.965 218.118 223.41C218.101 223.01 218.066 222.382 217.872 221.766C217.639 220.931 217.237 220.2 216.733 219.732C218.123 218.292 218.991 216.705 218.988 215.344C218.984 212.725 215.768 211.932 211.806 213.574L210.966 213.93C210.453 213.426 209.94 212.923 209.426 212.421C208.931 211.99 208.322 211.794 207.634 211.791ZM207.726 212.882C207.933 212.882 208.128 212.906 208.307 212.955C208.678 213.06 209.907 214.485 209.907 214.485C209.907 214.485 207.624 215.751 205.507 217.517C202.657 219.714 200.501 222.906 199.211 226.37C198.197 226.567 197.303 227.142 196.757 227.936C196.431 227.664 195.822 227.136 195.714 226.931C194.842 225.274 196.666 222.054 197.941 220.235C200.843 216.091 205.263 212.875 207.726 212.882ZM211.833 216.974C211.883 216.971 211.908 217.036 211.868 217.066C211.689 217.204 211.494 217.391 211.352 217.584C211.346 217.591 211.343 217.6 211.342 217.609C211.341 217.618 211.343 217.627 211.347 217.635C211.351 217.644 211.357 217.651 211.365 217.656C211.373 217.661 211.382 217.663 211.391 217.664C212.214 217.669 213.374 217.957 214.131 218.381C214.182 218.41 214.146 218.51 214.088 218.496C212.944 218.234 211.071 218.035 209.126 218.509C207.388 218.934 206.063 219.587 205.096 220.291C205.046 220.326 204.988 220.262 205.027 220.216C206.147 218.922 207.526 217.797 208.761 217.166C208.803 217.144 208.848 217.19 208.826 217.231C208.727 217.41 208.538 217.79 208.478 218.079C208.469 218.122 208.518 218.157 208.556 218.131C209.324 217.606 210.661 217.046 211.833 216.974ZM215.612 220.98L215.682 220.981C215.885 220.989 216.082 221.052 216.252 221.164C216.919 221.607 217.014 222.684 217.049 223.47C217.068 223.92 217.123 225.006 217.142 225.317C217.184 226.031 217.372 226.131 217.751 226.256C217.963 226.327 218.163 226.379 218.454 226.461C219.337 226.709 219.861 226.961 220.192 227.284C220.388 227.486 220.479 227.7 220.508 227.905C220.612 228.665 219.918 229.605 218.081 230.456C216.072 231.389 213.634 231.625 211.951 231.437L211.362 231.371C210.014 231.19 209.246 232.93 210.054 234.122C210.576 234.891 211.994 235.391 213.414 235.391C216.669 235.391 219.171 234.002 220.102 232.801C220.129 232.767 220.154 232.732 220.177 232.695C220.222 232.626 220.184 232.589 220.127 232.627C219.367 233.147 215.989 235.214 212.377 234.591C212.377 234.591 211.938 234.52 211.537 234.364C211.218 234.239 210.552 233.934 210.471 233.25C213.387 234.15 215.222 233.299 215.222 233.299C215.239 233.291 215.253 233.278 215.263 233.262C215.272 233.246 215.276 233.227 215.274 233.209C215.273 233.198 215.27 233.187 215.265 233.177C215.26 233.167 215.252 233.159 215.244 233.152C215.235 233.145 215.225 233.14 215.215 233.137C215.204 233.133 215.193 233.132 215.182 233.134C215.182 233.134 212.793 233.487 210.534 232.661C210.781 231.861 211.434 232.151 212.422 232.23C213.958 232.321 215.499 232.155 216.981 231.737C218.003 231.445 219.346 230.866 220.389 230.042C220.741 230.815 220.864 231.666 220.864 231.666C220.864 231.666 221.138 231.616 221.364 231.757C221.581 231.89 221.738 232.165 221.631 232.876C221.411 234.205 220.846 235.284 219.897 236.276C219.304 236.917 218.598 237.445 217.814 237.831C217.389 238.056 216.934 238.249 216.456 238.406C212.877 239.575 209.213 238.29 208.032 235.531C207.936 235.32 207.857 235.102 207.796 234.879C207.292 233.06 207.721 230.879 209.056 229.505C209.137 229.417 209.221 229.314 209.221 229.185C209.221 229.076 209.152 228.961 209.093 228.881C208.626 228.202 207.007 227.049 207.332 224.814C207.566 223.209 208.969 222.077 210.278 222.145C210.389 222.15 210.499 222.157 210.611 222.164C211.177 222.197 211.673 222.27 212.139 222.289C212.921 222.324 213.623 222.21 214.456 221.516C214.737 221.282 214.962 221.079 215.343 221.015C215.378 221.009 215.458 220.98 215.612 220.98ZM215.639 223.705C215.614 223.705 215.589 223.707 215.564 223.711C215.146 223.779 215.131 224.296 215.279 225.011C215.364 225.411 215.513 225.755 215.679 225.967C215.898 225.942 216.108 225.94 216.302 225.967C216.413 225.711 216.432 225.271 216.332 224.79C216.192 224.121 216.006 223.7 215.639 223.705ZM211.064 225.637C210.609 225.636 210.164 225.778 209.794 226.045C209.594 226.191 209.406 226.395 209.432 226.517C209.442 226.557 209.471 226.587 209.542 226.596C209.706 226.615 210.282 226.325 210.944 226.284C211.412 226.255 211.799 226.401 212.098 226.534C212.397 226.664 212.581 226.75 212.652 226.675C212.698 226.627 212.684 226.537 212.613 226.42C212.466 226.18 212.163 225.936 211.841 225.799C211.595 225.694 211.331 225.639 211.064 225.637ZM216.167 226.65C215.953 226.646 215.776 226.882 215.771 227.175C215.766 227.47 215.934 227.712 216.149 227.715C216.364 227.719 216.542 227.484 216.547 227.19C216.552 226.895 216.382 226.654 216.167 226.65ZM211.692 226.865C211.629 226.865 211.564 226.867 211.498 226.875C211.109 226.937 210.894 227.065 210.757 227.184C210.639 227.286 210.567 227.4 210.567 227.48C210.567 227.492 210.569 227.505 210.574 227.516C210.578 227.528 210.585 227.538 210.594 227.547C210.603 227.556 210.613 227.563 210.625 227.568C210.636 227.572 210.648 227.575 210.661 227.575C210.748 227.575 210.946 227.496 210.946 227.496C211.345 227.346 211.776 227.301 212.197 227.366C212.393 227.389 212.484 227.4 212.528 227.334C212.541 227.314 212.556 227.272 212.516 227.209C212.437 227.08 212.128 226.872 211.692 226.865ZM214.517 227.365C214.358 227.365 214.223 227.429 214.163 227.55C214.069 227.742 214.207 228.004 214.471 228.132C214.733 228.262 215.024 228.211 215.121 228.02C215.214 227.826 215.077 227.565 214.813 227.436C214.721 227.39 214.62 227.366 214.517 227.365ZM199.973 227.395C200.033 227.395 200.096 227.395 200.159 227.399C201.072 227.449 202.417 228.149 202.724 230.136C202.996 231.899 202.564 233.69 200.913 233.972C200.759 233.997 200.603 234.009 200.446 234.005C198.921 233.964 197.272 232.59 197.108 230.961C196.927 229.161 197.847 227.776 199.476 227.447C199.622 227.417 199.791 227.397 199.973 227.395ZM199.886 228.554C199.687 228.552 199.491 228.591 199.308 228.67C199.126 228.748 198.962 228.864 198.827 229.009C198.352 229.531 198.278 230.244 198.369 230.496C198.403 230.587 198.457 230.614 198.494 230.619C198.574 230.629 198.694 230.57 198.769 230.369C198.777 230.347 198.784 230.325 198.791 230.304C198.836 230.142 198.902 229.986 198.987 229.841C199.049 229.746 199.129 229.665 199.223 229.601C199.316 229.537 199.421 229.492 199.532 229.469C199.643 229.446 199.757 229.445 199.869 229.466C199.98 229.487 200.086 229.53 200.181 229.592C200.513 229.81 200.642 230.217 200.499 230.605C200.427 230.806 200.307 231.191 200.333 231.506C200.387 232.145 200.779 232.402 201.133 232.429C201.476 232.441 201.716 232.25 201.777 232.109C201.813 232.025 201.783 231.975 201.763 231.952C201.709 231.886 201.622 231.906 201.538 231.926C201.473 231.944 201.406 231.953 201.338 231.954C201.266 231.956 201.195 231.94 201.131 231.908C201.067 231.875 201.012 231.828 200.971 231.769C200.873 231.619 200.879 231.394 200.987 231.139C201.001 231.104 201.018 231.066 201.037 231.024C201.209 230.639 201.497 229.992 201.174 229.377C200.931 228.915 200.533 228.625 200.057 228.565C200 228.557 199.942 228.553 199.884 228.552L199.886 228.554Z" fill="#CCCCCC"/>
</g>
<g clip-path="url(#clip2_1809_1522)">
<rect width="29.6" height="30" transform="translate(43 48)" fill="#080035"/>
<path d="M70.6365 60.2593C71.3034 58.2222 71.0811 55.963 70.0067 54.1111C68.3767 51.2593 65.0796 49.8148 61.8566 50.4815C60.4488 48.8889 58.3742 48 56.2255 48C52.9284 48 50.0388 50.1111 49.0015 53.2222C46.8899 53.6667 45.0746 54.963 44.0002 56.8519C42.3702 59.7037 42.7407 63.2593 44.9264 65.7037C44.2596 67.7778 44.5189 70 45.5932 71.8519C47.2233 74.7037 50.5204 76.1852 53.7434 75.4815C55.1882 77.0741 57.2258 78 59.3745 78C62.6716 78 65.5612 75.8889 66.5985 72.7778C68.7101 72.3333 70.5254 71.037 71.5997 69.1481C73.2298 66.2963 72.8593 62.7037 70.6365 60.2593ZM59.3745 76.037C58.0408 76.037 56.7812 75.5926 55.781 74.7407C55.818 74.7037 55.9291 74.6667 55.9662 74.6296L61.9307 71.1852C62.227 71 62.4123 70.7037 62.4123 70.3333V61.9259L64.9314 63.3704C64.9684 63.3704 64.9684 63.4074 64.9684 63.4444V70.4074C65.0055 73.5185 62.4863 76.037 59.3745 76.037ZM47.2974 70.8889C46.6305 69.7407 46.4082 68.4074 46.6305 67.1111C46.6676 67.1481 46.7417 67.1852 46.8158 67.2222L52.7802 70.6667C53.0766 70.8519 53.447 70.8519 53.7434 70.6667L61.0415 66.4444V69.3704C61.0415 69.4074 61.0415 69.4444 61.0045 69.4444L54.9659 72.9259C52.2986 74.4815 48.8533 73.5556 47.2974 70.8889ZM45.7414 57.8519C46.4082 56.7037 47.4455 55.8519 48.6681 55.3704V62.4815C48.6681 62.8148 48.8533 63.1481 49.1497 63.3333L56.4478 67.5556L53.9286 69C53.8916 69 53.8546 69.037 53.8546 69L47.816 65.5185C45.0746 63.963 44.1855 60.5185 45.7414 57.8519ZM66.4873 62.6667L59.1892 58.4444L61.7084 57C61.7454 57 61.7825 56.963 61.7825 57L67.821 60.4815C70.5254 62.037 71.4145 65.4815 69.8586 68.1481C69.1917 69.2963 68.1544 70.1481 66.9319 70.5926V63.5185C66.969 63.1852 66.7837 62.8519 66.4873 62.6667ZM68.9694 58.8889C68.9324 58.8519 68.8583 58.8148 68.7842 58.7778L62.8198 55.3333C62.5234 55.1481 62.1529 55.1481 61.8566 55.3333L54.5584 59.5556V56.6296C54.5584 56.5926 54.5584 56.5556 54.5955 56.5556L60.634 53.0741C63.3384 51.5185 66.7467 52.4444 68.3026 55.1481C68.9695 56.2593 69.1917 57.5926 68.9694 58.8889ZM53.1877 64.0741L50.6686 62.6296C50.6315 62.6296 50.6315 62.5926 50.6315 62.5556V55.5926C50.6315 52.4815 53.1507 49.963 56.2626 49.963C57.5962 49.963 58.8558 50.4074 59.8561 51.2593C59.819 51.2963 59.7449 51.3333 59.6708 51.3704L53.7064 54.8148C53.41 55 53.2248 55.2963 53.2248 55.6667V64.0741H53.1877ZM54.5584 61.1111L57.8185 59.2222L61.0786 61.1111V64.8519L57.8185 66.7407L54.5584 64.8519V61.1111Z" fill="#CCCCCC"/>
</g>
<g clip-path="url(#clip3_1809_1522)">
<path d="M280.337 30.3422C280.337 29.2834 280.242 28.2654 280.065 27.2881H266.003V33.0638H274.039C273.693 34.9302 272.641 36.5115 271.059 37.5703V41.3166H275.885C278.708 38.7173 280.337 34.8894 280.337 30.3422Z" fill="#CCCCCC"/>
<path d="M266.003 44.9341C270.035 44.9341 273.415 43.5971 275.885 41.3167L271.059 37.5703C269.722 38.4662 268.012 38.9956 266.003 38.9956C262.114 38.9956 258.823 36.369 257.649 32.8398H252.66V36.7084C255.117 41.5882 260.166 44.9341 266.003 44.9341Z" fill="#CCCCCC"/>
<path d="M257.649 32.8398C257.35 31.9439 257.18 30.9869 257.18 30.0028C257.18 29.0187 257.35 28.0618 257.649 27.1659V23.2974H252.66C251.615 25.378 251.071 27.6744 251.072 30.0028C251.072 32.4122 251.649 34.6926 252.66 36.7083L257.649 32.8398Z" fill="#CCCCCC"/>
<path d="M266.003 21.0102C268.195 21.0102 270.164 21.7636 271.711 23.2431L275.994 18.9606C273.408 16.5512 270.028 15.0717 266.003 15.0717C260.166 15.0717 255.117 18.4176 252.66 23.2974L257.649 27.1659C258.823 23.6367 262.114 21.0102 266.003 21.0102Z" fill="#CCCCCC"/>
</g>
<g clip-path="url(#clip4_1809_1522)">
<path fill-rule="evenodd" clip-rule="evenodd" d="M365.463 205.048L348.827 206.294C347.481 206.39 347 207.3 347 208.355V226.566C347 227.38 347.288 228.099 348.01 229.01L351.904 234.09C352.529 234.904 353.154 235.096 354.356 235L373.684 233.85C375.319 233.754 375.8 232.987 375.8 231.693V211.182C375.8 210.511 375.56 210.32 374.742 209.744C374.694 209.697 374.646 209.697 374.598 209.649L369.309 205.959C368.059 205 367.53 204.904 365.463 205.048ZM354.789 210.847C353.202 210.943 352.866 210.99 351.952 210.224L349.692 208.451C349.452 208.211 349.548 207.923 350.173 207.875L366.184 206.725C367.53 206.629 368.203 207.061 368.732 207.492L371.473 209.457C371.617 209.505 371.906 209.84 371.521 209.84L354.981 210.847H354.789ZM352.962 231.502V214.105C352.962 213.339 353.202 213.003 353.875 212.955L372.867 211.853C373.492 211.805 373.781 212.189 373.781 212.955V230.208C373.781 230.974 373.636 231.597 372.627 231.645L354.452 232.7C353.443 232.796 352.962 232.412 352.962 231.502ZM370.896 215.064C370.992 215.591 370.896 216.118 370.367 216.166L369.502 216.358V229.201C368.732 229.633 368.059 229.824 367.482 229.824C366.569 229.824 366.328 229.537 365.607 228.674L359.837 219.665V228.339L361.664 228.77C361.664 228.77 361.664 229.824 360.222 229.824L356.183 230.064C356.087 229.824 356.183 229.249 356.568 229.153L357.626 228.866V217.364L356.183 217.221C356.087 216.693 356.376 215.927 357.193 215.879L361.52 215.591L367.482 224.697V216.645L365.944 216.454C365.847 215.831 366.28 215.351 366.857 215.304L370.896 215.064Z" fill="#CCCCCC"/>
</g>
</g>
<defs>
<filter id="filter0_f_1809_1522" x="-106" y="-141" width="482" height="482" filterUnits="userSpaceOnUse" color-interpolation-filters="sRGB">
<feFlood flood-opacity="0" result="BackgroundImageFix"/>
<feBlend mode="normal" in="SourceGraphic" in2="BackgroundImageFix" result="shape"/>
<feGaussianBlur stdDeviation="75" result="effect1_foregroundBlur_1809_1522"/>
</filter>
<linearGradient id="paint0_linear_1809_1522" x1="209.5" y1="-29" x2="209.5" y2="316" gradientUnits="userSpaceOnUse">
<stop stop-color="#40C2FF" stop-opacity="0.7"/>
<stop offset="0.804028" stop-color="#267599" stop-opacity="0"/>
</linearGradient>
<linearGradient id="paint1_linear_1809_1522" x1="209.5" y1="14.125" x2="209.5" y2="272.875" gradientUnits="userSpaceOnUse">
<stop stop-color="#267599" stop-opacity="0.3"/>
<stop offset="1" stop-color="#40C2FF" stop-opacity="0.7"/>
</linearGradient>
<linearGradient id="paint2_linear_1809_1522" x1="209.5" y1="57.25" x2="209.5" y2="229.75" gradientUnits="userSpaceOnUse">
<stop stop-color="#40C2FF" stop-opacity="0.7"/>
<stop offset="1" stop-color="#267599" stop-opacity="0.3"/>
</linearGradient>
<clipPath id="clip0_1809_1522">
<path d="M0 64C0 41.5979 0 30.3968 4.35974 21.8404C8.19467 14.3139 14.3139 8.19467 21.8404 4.35974C30.3968 0 41.5979 0 64 0H354C376.402 0 387.603 0 396.16 4.35974C403.686 8.19467 409.805 14.3139 413.64 21.8404C418 30.3968 418 41.5979 418 64V378C418 400.402 418 411.603 413.64 420.16C409.805 427.686 403.686 433.805 396.16 437.64C387.603 442 376.402 442 354 442H64C41.5979 442 30.3968 442 21.8404 437.64C14.3139 433.805 8.19467 427.686 4.35974 420.16C0 411.603 0 400.402 0 378V64Z" fill="white"/>
</clipPath>
<clipPath id="clip1_1809_1522">
<rect width="30" height="30" fill="white" transform="translate(193.551 211.791)"/>
</clipPath>
<clipPath id="clip2_1809_1522">
<rect width="29.6" height="30" fill="white" transform="translate(43 48)"/>
</clipPath>
<clipPath id="clip3_1809_1522">
<rect width="29.9341" height="30" fill="white" transform="translate(251 15)"/>
</clipPath>
<clipPath id="clip4_1809_1522">
<rect width="28.8" height="30" fill="white" transform="translate(347 205)"/>
</clipPath>
</defs>
</svg>
