<svg width="360" height="254" viewBox="0 0 360 254" fill="none" xmlns="http://www.w3.org/2000/svg">
<path d="M269.627 5.97696C278.278 5.2201 285.933 11.6434 286.69 20.2943C287.447 28.9453 281.024 36.6002 272.373 37.3571C263.722 38.114 256.067 31.6907 255.31 23.0397C254.553 14.3888 260.976 6.73382 269.627 5.97696ZM271.392 26.1499C269.771 26.2917 267.391 26.6909 265.353 27.5272C263.352 28.3485 261.481 29.6786 261.262 31.7877L261.236 32.0389L261.422 32.2089C262.784 33.4502 264.374 34.4143 266.102 35.0482L266.45 35.1697C268.195 35.7593 270.038 36.0036 271.875 35.89L272.242 35.8628C274.2 35.6923 276.102 35.1172 277.827 34.1743C279.552 33.2314 281.062 31.941 282.263 30.3846L282.417 30.1849L282.347 29.9419C281.765 27.9035 279.691 26.9189 277.578 26.4576C275.426 25.988 273.013 26.0081 271.392 26.1499ZM270.349 12.4386C268.731 12.5802 267.235 13.3588 266.191 14.6032C265.147 15.8476 264.64 17.4559 264.782 19.0741C264.881 20.2056 265.292 21.2854 265.968 22.1945L266.106 22.3745C266.817 23.2602 267.76 23.9295 268.827 24.3099L269.042 24.3822C270.125 24.7236 271.28 24.7569 272.378 24.4804L272.598 24.4201C273.688 24.1022 274.667 23.4884 275.427 22.6482L275.575 22.4774C276.305 21.6075 276.778 20.553 276.943 19.4325L276.971 19.2075C277.095 18.0785 276.902 16.9387 276.417 15.9152L276.317 15.7122C275.792 14.7049 274.998 13.8647 274.026 13.2835L273.83 13.1703C272.768 12.5876 271.556 12.333 270.349 12.4386Z" fill="#CCCCCC" stroke="#080035"/>
<path d="M290.04 20.644C298.691 21.4009 305.114 29.0558 304.357 37.7068C303.601 46.3577 295.946 52.781 287.295 52.0241C278.644 51.2673 272.22 43.6123 272.977 34.9614C273.734 26.3104 281.389 19.8871 290.04 20.644ZM288.275 40.8169C286.654 40.6751 284.241 40.6549 282.089 41.1247C279.976 41.586 277.902 42.571 277.32 44.61L277.251 44.8529L277.405 45.0526C278.53 46.5116 279.928 47.7371 281.52 48.6613L281.841 48.8414C283.458 49.7252 285.23 50.2858 287.059 50.4929L287.425 50.5298C289.384 50.702 291.357 50.4659 293.219 49.8368C295.081 49.2077 296.793 48.1992 298.245 46.8749L298.432 46.705L298.405 46.4537C298.186 44.3452 296.315 43.0154 294.314 42.1942C292.276 41.358 289.896 40.9587 288.275 40.8169ZM289.629 27.1329C288.011 26.9913 286.403 27.4983 285.158 28.5425C283.914 29.5867 283.135 31.0825 282.994 32.7007C282.895 33.8322 283.113 34.9671 283.62 35.9798L283.725 36.1811C284.272 37.1767 285.083 37.9995 286.068 38.5593L286.267 38.6679C287.275 39.1922 288.407 39.4256 289.536 39.3441L289.763 39.3227C290.892 39.199 291.962 38.7645 292.856 38.069L293.033 37.9266C293.902 37.1967 294.551 36.2404 294.908 35.1655L294.975 34.9489C295.293 33.8585 295.301 32.7025 295.001 31.6103L294.937 31.393C294.596 30.3098 293.96 29.3446 293.103 28.6034L292.93 28.4578C291.985 27.6995 290.836 27.2385 289.629 27.1329Z" fill="#CCCCCC" stroke="#080035"/>
<path d="M263.294 27.644C271.945 26.8871 279.6 33.3103 280.357 41.9613C281.114 50.6123 274.691 58.2672 266.04 59.0241C257.389 59.7809 249.734 53.3577 248.977 44.7067C248.22 36.0558 254.643 28.4008 263.294 27.644ZM265.059 47.8169C263.438 47.9587 261.058 48.3579 259.02 49.1941C257.019 50.0155 255.148 51.3456 254.929 53.4546L254.903 53.7059L255.089 53.8759C256.451 55.1172 258.041 56.0813 259.769 56.7152L260.117 56.8367C261.862 57.4263 263.705 57.6706 265.542 57.557L265.909 57.5298C267.867 57.3593 269.769 56.7842 271.494 55.8413C273.219 54.8984 274.729 53.608 275.93 52.0516L276.084 51.8519L276.014 51.6089C275.432 49.5705 273.358 48.5859 271.245 48.1246C269.093 47.655 266.68 47.6751 265.059 47.8169ZM264.016 34.1056C262.398 34.2472 260.902 35.0258 259.858 36.2702C258.814 37.5146 258.307 39.1229 258.449 40.7411C258.548 41.8726 258.959 42.9524 259.635 43.8615L259.773 44.0415C260.484 44.9271 261.427 45.5965 262.494 45.9769L262.709 46.0492C263.792 46.3906 264.947 46.4239 266.045 46.1474L266.265 46.0871C267.355 45.7692 268.334 45.1554 269.094 44.3152L269.242 44.1444C269.972 43.2745 270.445 42.22 270.61 41.0995L270.638 40.8745C270.762 39.7455 270.569 38.6057 270.084 37.5822L269.984 37.3792C269.459 36.3719 268.665 35.5317 267.693 34.9505L267.497 34.8373C266.435 34.2546 265.223 34 264.016 34.1056Z" fill="#CCCCCC" stroke="#080035"/>
<path d="M318.627 100.977C327.278 100.22 334.933 106.643 335.69 115.294C336.447 123.945 330.024 131.6 321.373 132.357C312.722 133.114 305.067 126.691 304.31 118.04C303.553 109.389 309.976 101.734 318.627 100.977ZM320.392 121.15C318.771 121.292 316.391 121.691 314.353 122.527C312.352 123.349 310.481 124.679 310.262 126.788L310.236 127.039L310.422 127.209C311.784 128.45 313.374 129.414 315.102 130.048L315.45 130.17C317.195 130.759 319.038 131.004 320.875 130.89L321.242 130.863C323.2 130.692 325.102 130.117 326.827 129.174C328.552 128.231 330.062 126.941 331.263 125.385L331.417 125.185L331.347 124.942C330.765 122.903 328.691 121.919 326.578 121.458C324.426 120.988 322.013 121.008 320.392 121.15ZM319.349 107.439C317.731 107.58 316.235 108.359 315.191 109.603C314.147 110.848 313.64 112.456 313.782 114.074C313.881 115.206 314.292 116.285 314.968 117.194L315.106 117.375C315.817 118.26 316.76 118.93 317.827 119.31L318.042 119.382C319.125 119.724 320.28 119.757 321.378 119.48L321.598 119.42C322.688 119.102 323.667 118.488 324.427 117.648L324.575 117.477C325.305 116.608 325.778 115.553 325.943 114.433L325.971 114.208C326.095 113.079 325.902 111.939 325.417 110.915L325.317 110.712C324.792 109.705 323.998 108.865 323.026 108.284L322.83 108.17C321.768 107.588 320.556 107.333 319.349 107.439Z" fill="#CCCCCC" stroke="#080035"/>
<path d="M339.04 115.644C347.691 116.401 354.114 124.056 353.357 132.707C352.601 141.358 344.946 147.781 336.295 147.024C327.644 146.267 321.22 138.612 321.977 129.961C322.734 121.31 330.389 114.887 339.04 115.644ZM337.275 135.817C335.654 135.675 333.241 135.655 331.089 136.125C328.976 136.586 326.902 137.571 326.32 139.61L326.251 139.853L326.405 140.053C327.53 141.512 328.928 142.737 330.52 143.661L330.841 143.841C332.458 144.725 334.23 145.286 336.059 145.493L336.425 145.53C338.384 145.702 340.357 145.466 342.219 144.837C344.081 144.208 345.793 143.199 347.245 141.875L347.432 141.705L347.405 141.454C347.186 139.345 345.315 138.015 343.314 137.194C341.276 136.358 338.896 135.959 337.275 135.817ZM338.629 122.133C337.011 121.991 335.403 122.498 334.158 123.543C332.914 124.587 332.135 126.082 331.994 127.701C331.895 128.832 332.113 129.967 332.62 130.98L332.725 131.181C333.272 132.177 334.083 133 335.068 133.559L335.267 133.668C336.275 134.192 337.407 134.426 338.536 134.344L338.763 134.323C339.892 134.199 340.962 133.765 341.856 133.069L342.033 132.927C342.902 132.197 343.551 131.24 343.908 130.166L343.975 129.949C344.293 128.858 344.301 127.702 344.001 126.61L343.937 126.393C343.596 125.31 342.96 124.345 342.103 123.603L341.93 123.458C340.985 122.7 339.836 122.238 338.629 122.133Z" fill="#CCCCCC" stroke="#080035"/>
<path d="M312.294 122.644C320.945 121.887 328.6 128.31 329.357 136.961C330.114 145.612 323.691 153.267 315.04 154.024C306.389 154.781 298.734 148.358 297.977 139.707C297.22 131.056 303.643 123.401 312.294 122.644ZM314.059 142.817C312.438 142.959 310.058 143.358 308.02 144.194C306.019 145.015 304.148 146.346 303.929 148.455L303.903 148.706L304.089 148.876C305.451 150.117 307.041 151.081 308.769 151.715L309.117 151.837C310.862 152.426 312.705 152.671 314.542 152.557L314.909 152.53C316.867 152.359 318.769 151.784 320.494 150.841C322.219 149.898 323.729 148.608 324.93 147.052L325.084 146.852L325.014 146.609C324.432 144.57 322.358 143.586 320.245 143.125C318.093 142.655 315.68 142.675 314.059 142.817ZM313.016 129.106C311.398 129.247 309.902 130.026 308.858 131.27C307.814 132.515 307.307 134.123 307.449 135.741C307.548 136.873 307.959 137.952 308.635 138.861L308.773 139.042C309.484 139.927 310.427 140.597 311.494 140.977L311.709 141.049C312.792 141.391 313.947 141.424 315.045 141.147L315.265 141.087C316.355 140.769 317.334 140.155 318.094 139.315L318.242 139.144C318.972 138.275 319.445 137.22 319.61 136.1L319.638 135.875C319.762 134.746 319.569 133.606 319.084 132.582L318.984 132.379C318.459 131.372 317.665 130.532 316.693 129.95L316.497 129.837C315.435 129.255 314.223 129 313.016 129.106Z" fill="#CCCCCC" stroke="#080035"/>
<path d="M261.627 194.977C270.278 194.22 277.933 200.643 278.69 209.294C279.447 217.945 273.024 225.6 264.373 226.357C255.722 227.114 248.067 220.691 247.31 212.04C246.553 203.389 252.976 195.734 261.627 194.977ZM263.392 215.15C261.771 215.292 259.391 215.691 257.353 216.527C255.352 217.349 253.481 218.679 253.262 220.788L253.236 221.039L253.422 221.209C254.784 222.45 256.374 223.414 258.102 224.048L258.45 224.17C260.195 224.759 262.038 225.004 263.875 224.89L264.242 224.863C266.2 224.692 268.102 224.117 269.827 223.174C271.552 222.231 273.062 220.941 274.263 219.385L274.417 219.185L274.347 218.942C273.765 216.903 271.691 215.919 269.578 215.458C267.426 214.988 265.013 215.008 263.392 215.15ZM262.349 201.439C260.731 201.58 259.235 202.359 258.191 203.603C257.147 204.848 256.64 206.456 256.782 208.074C256.881 209.206 257.292 210.285 257.968 211.194L258.106 211.375C258.817 212.26 259.76 212.93 260.827 213.31L261.042 213.382C262.125 213.724 263.28 213.757 264.378 213.48L264.598 213.42C265.688 213.102 266.667 212.488 267.427 211.648L267.575 211.477C268.305 210.608 268.778 209.553 268.943 208.433L268.971 208.208C269.095 207.079 268.902 205.939 268.417 204.915L268.317 204.712C267.792 203.705 266.998 202.865 266.026 202.284L265.83 202.17C264.768 201.588 263.556 201.333 262.349 201.439Z" fill="#CCCCCC" stroke="#080035"/>
<path d="M282.04 209.644C290.691 210.401 297.114 218.056 296.357 226.707C295.601 235.358 287.946 241.781 279.295 241.024C270.644 240.267 264.22 232.612 264.977 223.961C265.734 215.31 273.389 208.887 282.04 209.644ZM280.275 229.817C278.654 229.675 276.241 229.655 274.089 230.125C271.976 230.586 269.902 231.571 269.32 233.61L269.251 233.853L269.405 234.053C270.53 235.512 271.928 236.737 273.52 237.661L273.841 237.841C275.458 238.725 277.23 239.286 279.059 239.493L279.425 239.53C281.384 239.702 283.357 239.466 285.219 238.837C287.081 238.208 288.793 237.199 290.245 235.875L290.432 235.705L290.405 235.454C290.186 233.345 288.315 232.015 286.314 231.194C284.276 230.358 281.896 229.959 280.275 229.817ZM281.629 216.133C280.011 215.991 278.403 216.498 277.158 217.543C275.914 218.587 275.135 220.082 274.994 221.701C274.895 222.832 275.113 223.967 275.62 224.98L275.725 225.181C276.272 226.177 277.083 227 278.068 227.559L278.267 227.668C279.275 228.192 280.407 228.426 281.536 228.344L281.763 228.323C282.892 228.199 283.962 227.765 284.856 227.069L285.033 226.927C285.902 226.197 286.551 225.24 286.908 224.166L286.975 223.949C287.293 222.858 287.301 221.702 287.001 220.61L286.937 220.393C286.596 219.31 285.96 218.345 285.103 217.603L284.93 217.458C283.985 216.7 282.836 216.238 281.629 216.133Z" fill="#CCCCCC" stroke="#080035"/>
<path d="M255.294 216.644C263.945 215.887 271.6 222.31 272.357 230.961C273.114 239.612 266.691 247.267 258.04 248.024C249.389 248.781 241.734 242.358 240.977 233.707C240.22 225.056 246.643 217.401 255.294 216.644ZM257.059 236.817C255.438 236.959 253.058 237.358 251.02 238.194C249.019 239.015 247.148 240.346 246.929 242.455L246.903 242.706L247.089 242.876C248.451 244.117 250.041 245.081 251.769 245.715L252.117 245.837C253.862 246.426 255.705 246.671 257.542 246.557L257.909 246.53C259.867 246.359 261.769 245.784 263.494 244.841C265.219 243.898 266.729 242.608 267.93 241.052L268.084 240.852L268.014 240.609C267.432 238.57 265.358 237.586 263.245 237.125C261.093 236.655 258.68 236.675 257.059 236.817ZM256.016 223.106C254.398 223.247 252.902 224.026 251.858 225.27C250.814 226.515 250.307 228.123 250.449 229.741C250.548 230.873 250.959 231.952 251.635 232.861L251.773 233.042C252.484 233.927 253.427 234.597 254.494 234.977L254.709 235.049C255.792 235.391 256.947 235.424 258.045 235.147L258.265 235.087C259.355 234.769 260.334 234.155 261.094 233.315L261.242 233.144C261.972 232.275 262.445 231.22 262.61 230.1L262.638 229.875C262.762 228.746 262.569 227.606 262.084 226.582L261.984 226.379C261.459 225.372 260.665 224.532 259.693 223.95L259.497 223.837C258.435 223.255 257.223 223 256.016 223.106Z" fill="#CCCCCC" stroke="#080035"/>
<g filter="url(#filter0_f_2271_4079)">
<path d="M132 107H116C114.939 107 113.922 107.421 113.172 108.172C112.421 108.922 112 109.939 112 111V143C112 145.2 113.8 147 116 147H140C142.2 147 144 145.2 144 143V119L132 107ZM133 140.8L128 138L123 141L124.4 135.4L120 131.6L125.8 131.2L128 125.8L130.2 131L136 131.4L131.6 135.2L133 140.8ZM130 121V110L141 121H130Z" fill="#40C2FF"/>
</g>
<path d="M132 107H116C114.939 107 113.922 107.421 113.172 108.172C112.421 108.922 112 109.939 112 111V143C112 145.2 113.8 147 116 147H140C142.2 147 144 145.2 144 143V119L132 107ZM133 140.8L128 138L123 141L124.4 135.4L120 131.6L125.8 131.2L128 125.8L130.2 131L136 131.4L131.6 135.2L133 140.8ZM130 121V110L141 121H130Z" fill="#40C2FF"/>
<path d="M155 126.5C154.724 126.5 154.5 126.724 154.5 127C154.5 127.276 154.724 127.5 155 127.5V126.5ZM240.354 32.8542C240.549 32.6589 240.549 32.3423 240.354 32.1471L237.172 28.9651C236.976 28.7698 236.66 28.7698 236.464 28.9651C236.269 29.1603 236.269 29.4769 236.464 29.6722L239.293 32.5006L236.464 35.329C236.269 35.5243 236.269 35.8409 236.464 36.0361C236.66 36.2314 236.976 36.2314 237.172 36.0361L240.354 32.8542ZM155 127V127.5H173.5V127V126.5H155V127ZM197.5 103H198V56.5006H197.5H197V103H197.5ZM221.5 32.5006V33.0006H240V32.5006V32.0006H221.5V32.5006ZM197.5 56.5006H198C198 43.5219 208.521 33.0006 221.5 33.0006V32.5006V32.0006C207.969 32.0006 197 42.9696 197 56.5006H197.5ZM173.5 127V127.5C187.031 127.5 198 116.531 198 103H197.5H197C197 115.979 186.479 126.5 173.5 126.5V127Z" fill="#B3B3B3"/>
<path d="M155 126.5C154.724 126.5 154.5 126.724 154.5 127C154.5 127.276 154.724 127.5 155 127.5V126.5ZM232.354 221.854C232.549 221.659 232.549 221.342 232.354 221.147L229.172 217.965C228.976 217.77 228.66 217.77 228.464 217.965C228.269 218.16 228.269 218.477 228.464 218.672L231.293 221.501L228.464 224.329C228.269 224.524 228.269 224.841 228.464 225.036C228.66 225.231 228.976 225.231 229.172 225.036L232.354 221.854ZM155 127V127.5H169.5V127V126.5H155V127ZM193.5 151H193V197.501H193.5H194V151H193.5ZM217.5 221.501V222.001H232V221.501V221.001H217.5V221.501ZM193.5 197.501H193C193 211.031 203.969 222.001 217.5 222.001V221.501V221.001C204.521 221.001 194 210.479 194 197.501H193.5ZM169.5 127V127.5C182.479 127.5 193 138.021 193 151H193.5H194C194 137.469 183.031 126.5 169.5 126.5V127Z" fill="#B3B3B3"/>
<path d="M155 126.5C154.724 126.5 154.5 126.724 154.5 127C154.5 127.276 154.724 127.5 155 127.5V126.5ZM289.354 127.354C289.549 127.158 289.549 126.842 289.354 126.646L286.172 123.464C285.976 123.269 285.66 123.269 285.464 123.464C285.269 123.66 285.269 123.976 285.464 124.172L288.293 127L285.464 129.828C285.269 130.024 285.269 130.34 285.464 130.536C285.66 130.731 285.976 130.731 286.172 130.536L289.354 127.354ZM155 127V127.5H289V127V126.5H155V127Z" fill="#B3B3B3"/>
<path d="M124.317 101.959C120.094 90.2923 112.464 80.2745 102.488 73.2961C92.5117 66.3178 80.6829 62.725 68.6433 63.0164C56.6036 63.3078 44.9502 67.469 35.3002 74.9224C25.6503 82.3758 18.4824 92.7519 14.7913 104.611L15.73 104.923C19.3583 93.2661 26.4043 83.0665 35.8902 75.7398C45.3761 68.4132 56.8314 64.3227 68.6663 64.0363C80.5013 63.7498 92.129 67.2815 101.936 74.1412C111.742 81.0009 119.242 90.8484 123.393 102.317L124.317 101.959Z" fill="#D9D9D9"/>
<path d="M124.317 154.041C120.094 165.708 112.464 175.726 102.488 182.704C92.5117 189.682 80.6829 193.275 68.6433 192.984C56.6036 192.692 44.9502 188.531 35.3002 181.078C25.6503 173.624 18.4824 163.248 14.7913 151.389L15.73 151.077C19.3583 162.734 26.4043 172.933 35.8902 180.26C45.3761 187.587 56.8314 191.677 68.6663 191.964C80.5013 192.25 92.129 188.719 101.936 181.859C111.742 174.999 119.242 165.152 123.393 153.683L124.317 154.041Z" fill="#D9D9D9"/>
<path d="M0.974609 143V136.646L14.9424 119.93V119.758H1.43257V111H28.5095V118.041L15.8011 134.07V134.242H29.0247V143H0.974609Z" fill="#EFEFEF"/>
<defs>
<filter id="filter0_f_2271_4079" x="108" y="103" width="40" height="48" filterUnits="userSpaceOnUse" color-interpolation-filters="sRGB">
<feFlood flood-opacity="0" result="BackgroundImageFix"/>
<feBlend mode="normal" in="SourceGraphic" in2="BackgroundImageFix" result="shape"/>
<feGaussianBlur stdDeviation="2" result="effect1_foregroundBlur_2271_4079"/>
</filter>
</defs>
</svg>
