<svg width="418" height="442" viewBox="0 0 418 442" fill="none" xmlns="http://www.w3.org/2000/svg">
<g clip-path="url(#clip0_1809_1457)">
<path d="M0 64C0 41.5979 0 30.3968 4.35974 21.8404C8.19467 14.3139 14.3139 8.19467 21.8404 4.35974C30.3968 0 41.5979 0 64 0H354C376.402 0 387.603 0 396.16 4.35974C403.686 8.19467 409.805 14.3139 413.64 21.8404C418 30.3968 418 41.5979 418 64V378C418 400.402 418 411.603 413.64 420.16C409.805 427.686 403.686 433.805 396.16 437.64C387.603 442 376.402 442 354 442H64C41.5979 442 30.3968 442 21.8404 437.64C14.3139 433.805 8.19467 427.686 4.35974 420.16C0 411.603 0 400.402 0 378V64Z" fill="#080035"/>
<mask id="mask0_1809_1457" style="mask-type:alpha" maskUnits="userSpaceOnUse" x="-72" y="-101" width="402" height="402">
<path d="M1.72656 -100V300" stroke="#B3B3B3" stroke-opacity="0.27"/>
<path d="M38.0908 -100V300" stroke="#B3B3B3" stroke-opacity="0.27"/>
<path d="M74.4541 -100V300" stroke="#B3B3B3" stroke-opacity="0.27"/>
<path d="M110.818 -100V300" stroke="#B3B3B3" stroke-opacity="0.27"/>
<path d="M147.182 -100V300" stroke="#B3B3B3" stroke-opacity="0.27"/>
<path d="M183.545 -100V300" stroke="#B3B3B3" stroke-opacity="0.27"/>
<path d="M219.909 -100V300" stroke="#B3B3B3" stroke-opacity="0.27"/>
<path d="M256.272 -100V300" stroke="#B3B3B3" stroke-opacity="0.27"/>
<path d="M292.637 -100V300" stroke="#B3B3B3" stroke-opacity="0.27"/>
<path d="M329 -100V300" stroke="#B3B3B3" stroke-opacity="0.27"/>
<path d="M-71 9.09082H329" stroke="#B3B3B3" stroke-opacity="0.27"/>
<path d="M-71 45.4546H329" stroke="#B3B3B3" stroke-opacity="0.27"/>
<path d="M-71 81.8181H329" stroke="#B3B3B3" stroke-opacity="0.27"/>
<path d="M-71 118.182H329" stroke="#B3B3B3" stroke-opacity="0.27"/>
<path d="M-71 154.545H329" stroke="#B3B3B3" stroke-opacity="0.27"/>
<path d="M-71 190.909H329" stroke="#B3B3B3" stroke-opacity="0.27"/>
<path d="M-71 227.273H329" stroke="#B3B3B3" stroke-opacity="0.27"/>
<path d="M-71 263.636H329" stroke="#B3B3B3" stroke-opacity="0.27"/>
<path d="M-71 300H329" stroke="#B3B3B3" stroke-opacity="0.27"/>
</mask>
<g mask="url(#mask0_1809_1457)">
<g filter="url(#filter0_f_1809_1457)">
<circle cx="135" cy="100" r="91" fill="#40C2FF"/>
</g>
</g>
<path d="M25.5938 330.246C24.1875 330.246 22.9609 330.031 21.9141 329.602C20.875 329.172 20.0625 328.531 19.4766 327.68C18.8984 326.828 18.5938 325.773 18.5625 324.516H22.125C22.1719 325.094 22.3438 325.582 22.6406 325.98C22.9375 326.371 23.3359 326.664 23.8359 326.859C24.3359 327.055 24.9102 327.152 25.5586 327.152C26.1836 327.152 26.7266 327.062 27.1875 326.883C27.6562 326.703 28.0156 326.453 28.2656 326.133C28.5234 325.805 28.6523 325.426 28.6523 324.996C28.6523 324.605 28.5352 324.277 28.3008 324.012C28.0742 323.746 27.7383 323.52 27.293 323.332C26.8555 323.145 26.3203 322.977 25.6875 322.828L23.7773 322.359C22.3086 322.008 21.1484 321.449 20.2969 320.684C19.4453 319.91 19.0195 318.879 19.0195 317.59C19.0195 316.535 19.3047 315.613 19.875 314.824C20.4531 314.027 21.2383 313.41 22.2305 312.973C23.2305 312.527 24.3672 312.305 25.6406 312.305C26.9375 312.305 28.0664 312.527 29.0273 312.973C29.9961 313.418 30.75 314.035 31.2891 314.824C31.8359 315.613 32.1172 316.523 32.1328 317.555H28.582C28.5195 316.875 28.2266 316.344 27.7031 315.961C27.1875 315.578 26.4883 315.387 25.6055 315.387C25.0117 315.387 24.5039 315.473 24.082 315.645C23.668 315.809 23.3516 316.039 23.1328 316.336C22.9141 316.633 22.8047 316.973 22.8047 317.355C22.8047 317.762 22.9297 318.105 23.1797 318.387C23.4297 318.66 23.7617 318.887 24.1758 319.066C24.5977 319.238 25.0586 319.383 25.5586 319.5L27.1172 319.887C27.875 320.059 28.5742 320.289 29.2148 320.578C29.8555 320.859 30.4102 321.207 30.8789 321.621C31.3555 322.035 31.7227 322.523 31.9805 323.086C32.2383 323.641 32.3672 324.281 32.3672 325.008C32.3672 326.078 32.0977 327.008 31.5586 327.797C31.0273 328.578 30.2578 329.184 29.25 329.613C28.2422 330.035 27.0234 330.246 25.5938 330.246ZM33.5161 330V316.898H36.9497V319.23H37.1138C37.3872 318.457 37.8442 317.848 38.4848 317.402C39.1255 316.957 39.8872 316.734 40.77 316.734C41.6684 316.734 42.4302 316.961 43.0552 317.414C43.688 317.859 44.1098 318.465 44.3208 319.23H44.4614C44.727 318.473 45.2114 317.867 45.9145 317.414C46.6177 316.961 47.4458 316.734 48.3989 316.734C49.6177 316.734 50.6098 317.121 51.3755 317.895C52.1489 318.668 52.5356 319.766 52.5356 321.188V330H48.9028V321.914C48.9028 321.18 48.7075 320.633 48.3169 320.273C47.9341 319.914 47.4536 319.734 46.8755 319.734C46.2192 319.734 45.7036 319.945 45.3286 320.367C44.9614 320.781 44.7778 321.328 44.7778 322.008V330H41.2622V321.82C41.2622 321.188 41.0786 320.684 40.7114 320.309C40.3442 319.926 39.8638 319.734 39.27 319.734C38.8638 319.734 38.5005 319.836 38.1802 320.039C37.8598 320.242 37.6059 320.523 37.4184 320.883C37.2309 321.234 37.1372 321.656 37.1372 322.148V330H33.5161ZM57.9267 330.246C57.0986 330.246 56.3525 330.102 55.6884 329.812C55.0322 329.516 54.5166 329.078 54.1416 328.5C53.7666 327.922 53.5791 327.203 53.5791 326.344C53.5791 325.609 53.7119 325 53.9775 324.516C54.2431 324.023 54.6064 323.625 55.0673 323.32C55.5283 323.016 56.0517 322.785 56.6377 322.629C57.2236 322.473 57.8447 322.363 58.5009 322.301C59.2588 322.23 59.8681 322.16 60.3291 322.09C60.79 322.02 61.1259 321.914 61.3369 321.773C61.5556 321.625 61.665 321.414 61.665 321.141V321.082C61.665 320.543 61.4931 320.125 61.1494 319.828C60.8134 319.531 60.3369 319.383 59.7197 319.383C59.0713 319.383 58.5517 319.527 58.1611 319.816C57.7783 320.098 57.5244 320.457 57.3994 320.895L54.0361 320.625C54.208 319.828 54.5439 319.141 55.0439 318.562C55.5439 317.977 56.1884 317.527 56.9775 317.215C57.7744 316.895 58.6963 316.734 59.7431 316.734C60.4697 316.734 61.165 316.82 61.8291 316.992C62.4931 317.164 63.083 317.43 63.5986 317.789C64.122 318.141 64.5361 318.598 64.8408 319.16C65.1455 319.723 65.2978 320.391 65.2978 321.164V330H61.8408V328.172H61.747C61.5361 328.586 61.2548 328.949 60.9033 329.262C60.5517 329.566 60.1298 329.809 59.6377 329.988C59.1455 330.16 58.5752 330.246 57.9267 330.246ZM58.9697 327.738C59.5009 327.738 59.9697 327.633 60.3759 327.422C60.79 327.203 61.1103 326.914 61.3369 326.555C61.5713 326.188 61.6884 325.777 61.6884 325.324V323.93C61.5791 324 61.4228 324.066 61.2197 324.129C61.0244 324.191 60.8056 324.246 60.5634 324.293C60.3213 324.34 60.0791 324.383 59.8369 324.422C59.5947 324.453 59.3759 324.484 59.1806 324.516C58.7509 324.578 58.3759 324.68 58.0556 324.82C57.7353 324.953 57.4853 325.137 57.3056 325.371C57.1338 325.598 57.0478 325.883 57.0478 326.227C57.0478 326.719 57.2275 327.094 57.5869 327.352C57.9463 327.609 58.4072 327.738 58.9697 327.738ZM66.9389 330V316.898H70.4428V319.195H70.5834C70.8256 318.383 71.228 317.77 71.7905 317.355C72.353 316.934 72.9975 316.723 73.7241 316.723C73.9116 316.723 74.1069 316.734 74.31 316.758C74.5209 316.773 74.7084 316.805 74.8725 316.852V320.062C74.7006 320.008 74.4623 319.965 74.1577 319.934C73.8608 319.895 73.5834 319.875 73.3256 319.875C72.8022 319.875 72.3295 319.992 71.9077 320.227C71.4858 320.453 71.1538 320.773 70.9116 321.188C70.6772 321.594 70.56 322.062 70.56 322.594V330H66.9389ZM83.0878 316.898V319.641H75.2011V316.898H83.0878ZM76.9941 313.781H80.6152V325.969C80.6152 326.406 80.7128 326.73 80.9081 326.941C81.1034 327.145 81.4159 327.246 81.8456 327.246C81.9863 327.246 82.1425 327.234 82.3144 327.211C82.4863 327.188 82.6347 327.16 82.7597 327.129L83.3339 329.848C82.9355 329.965 82.5488 330.051 82.1738 330.105C81.8066 330.16 81.4433 330.188 81.0839 330.188C79.7792 330.188 78.7714 329.863 78.0605 329.215C77.3495 328.559 76.9941 327.637 76.9941 326.449V313.781ZM88.5497 330V312.539H92.2294V326.953H99.7177V330H88.5497ZM106.82 330.258C105.476 330.258 104.316 329.984 103.339 329.438C102.363 328.891 101.613 328.113 101.089 327.105C100.574 326.09 100.316 324.891 100.316 323.508C100.316 322.164 100.574 320.984 101.089 319.969C101.613 318.953 102.347 318.16 103.292 317.59C104.245 317.02 105.363 316.734 106.644 316.734C107.511 316.734 108.32 316.875 109.07 317.156C109.82 317.43 110.476 317.844 111.038 318.398C111.601 318.945 112.038 319.637 112.351 320.473C112.663 321.301 112.82 322.273 112.82 323.391V324.375H101.757V322.137H111.062L109.374 322.723C109.374 322.059 109.273 321.48 109.07 320.988C108.867 320.496 108.562 320.117 108.156 319.852C107.757 319.578 107.261 319.441 106.667 319.441C106.074 319.441 105.57 319.578 105.156 319.852C104.749 320.125 104.437 320.496 104.218 320.965C103.999 321.434 103.89 321.973 103.89 322.582V324.164C103.89 324.875 104.015 325.484 104.265 325.992C104.515 326.492 104.863 326.879 105.308 327.152C105.761 327.418 106.281 327.551 106.867 327.551C107.273 327.551 107.64 327.492 107.968 327.375C108.296 327.258 108.577 327.086 108.812 326.859C109.054 326.633 109.234 326.359 109.351 326.039L112.702 326.262C112.538 327.066 112.195 327.77 111.671 328.371C111.156 328.965 110.488 329.43 109.667 329.766C108.847 330.094 107.898 330.258 106.82 330.258ZM117.625 330.246C116.797 330.246 116.051 330.102 115.387 329.812C114.73 329.516 114.215 329.078 113.84 328.5C113.465 327.922 113.277 327.203 113.277 326.344C113.277 325.609 113.41 325 113.676 324.516C113.941 324.023 114.305 323.625 114.765 323.32C115.226 323.016 115.75 322.785 116.336 322.629C116.922 322.473 117.543 322.363 118.199 322.301C118.957 322.23 119.566 322.16 120.027 322.09C120.488 322.02 120.824 321.914 121.035 321.773C121.254 321.625 121.363 321.414 121.363 321.141V321.082C121.363 320.543 121.191 320.125 120.848 319.828C120.512 319.531 120.035 319.383 119.418 319.383C118.769 319.383 118.25 319.527 117.859 319.816C117.476 320.098 117.223 320.457 117.098 320.895L113.734 320.625C113.906 319.828 114.242 319.141 114.742 318.562C115.242 317.977 115.887 317.527 116.676 317.215C117.473 316.895 118.394 316.734 119.441 316.734C120.168 316.734 120.863 316.82 121.527 316.992C122.191 317.164 122.781 317.43 123.297 317.789C123.82 318.141 124.234 318.598 124.539 319.16C124.844 319.723 124.996 320.391 124.996 321.164V330H121.539V328.172H121.445C121.234 328.586 120.953 328.949 120.601 329.262C120.25 329.566 119.828 329.809 119.336 329.988C118.844 330.16 118.273 330.246 117.625 330.246ZM118.668 327.738C119.199 327.738 119.668 327.633 120.074 327.422C120.488 327.203 120.808 326.914 121.035 326.555C121.269 326.188 121.387 325.777 121.387 325.324V323.93C121.277 324 121.121 324.066 120.918 324.129C120.723 324.191 120.504 324.246 120.262 324.293C120.019 324.34 119.777 324.383 119.535 324.422C119.293 324.453 119.074 324.484 118.879 324.516C118.449 324.578 118.074 324.68 117.754 324.82C117.433 324.953 117.183 325.137 117.004 325.371C116.832 325.598 116.746 325.883 116.746 326.227C116.746 326.719 116.926 327.094 117.285 327.352C117.644 327.609 118.105 327.738 118.668 327.738ZM131.418 330.211C130.418 330.211 129.516 329.953 128.711 329.438C127.907 328.922 127.27 328.164 126.801 327.164C126.332 326.156 126.098 324.926 126.098 323.473C126.098 321.973 126.34 320.723 126.825 319.723C127.309 318.723 127.953 317.977 128.758 317.484C129.563 316.984 130.442 316.734 131.395 316.734C132.129 316.734 132.743 316.859 133.235 317.109C133.727 317.352 134.125 317.656 134.43 318.023C134.735 318.391 134.965 318.754 135.121 319.113H135.227V312.539H138.86V330H135.285V327.902H135.121C134.957 328.262 134.719 328.621 134.407 328.98C134.094 329.332 133.692 329.625 133.2 329.859C132.715 330.094 132.121 330.211 131.418 330.211ZM132.555 327.328C133.141 327.328 133.637 327.168 134.043 326.848C134.457 326.52 134.77 326.066 134.981 325.488C135.2 324.91 135.309 324.234 135.309 323.461C135.309 322.68 135.203 322.004 134.993 321.434C134.782 320.855 134.469 320.41 134.055 320.098C133.641 319.777 133.141 319.617 132.555 319.617C131.961 319.617 131.461 319.781 131.055 320.109C130.649 320.438 130.34 320.891 130.129 321.469C129.918 322.039 129.813 322.703 129.813 323.461C129.813 324.219 129.918 324.891 130.129 325.477C130.34 326.055 130.649 326.508 131.055 326.836C131.469 327.164 131.969 327.328 132.555 327.328ZM151.329 330.246C149.923 330.246 148.697 330.031 147.65 329.602C146.611 329.172 145.798 328.531 145.212 327.68C144.634 326.828 144.329 325.773 144.298 324.516H147.861C147.908 325.094 148.079 325.582 148.376 325.98C148.673 326.371 149.072 326.664 149.572 326.859C150.072 327.055 150.646 327.152 151.294 327.152C151.919 327.152 152.462 327.062 152.923 326.883C153.392 326.703 153.751 326.453 154.001 326.133C154.259 325.805 154.388 325.426 154.388 324.996C154.388 324.605 154.271 324.277 154.036 324.012C153.81 323.746 153.474 323.52 153.029 323.332C152.591 323.145 152.056 322.977 151.423 322.828L149.513 322.359C148.044 322.008 146.884 321.449 146.033 320.684C145.181 319.91 144.755 318.879 144.755 317.59C144.755 316.535 145.04 315.613 145.611 314.824C146.189 314.027 146.974 313.41 147.966 312.973C148.966 312.527 150.103 312.305 151.376 312.305C152.673 312.305 153.802 312.527 154.763 312.973C155.732 313.418 156.486 314.035 157.025 314.824C157.572 315.613 157.853 316.523 157.868 317.555H154.318C154.255 316.875 153.962 316.344 153.439 315.961C152.923 315.578 152.224 315.387 151.341 315.387C150.747 315.387 150.24 315.473 149.818 315.645C149.404 315.809 149.087 316.039 148.868 316.336C148.65 316.633 148.54 316.973 148.54 317.355C148.54 317.762 148.665 318.105 148.915 318.387C149.165 318.66 149.497 318.887 149.911 319.066C150.333 319.238 150.794 319.383 151.294 319.5L152.853 319.887C153.611 320.059 154.31 320.289 154.95 320.578C155.591 320.859 156.146 321.207 156.615 321.621C157.091 322.035 157.458 322.523 157.716 323.086C157.974 323.641 158.103 324.281 158.103 325.008C158.103 326.078 157.833 327.008 157.294 327.797C156.763 328.578 155.993 329.184 154.986 329.613C153.978 330.035 152.759 330.246 151.329 330.246ZM165.146 330.258C163.81 330.258 162.662 329.973 161.701 329.402C160.74 328.824 160.002 328.031 159.486 327.023C158.97 326.008 158.713 324.836 158.713 323.508C158.713 322.164 158.97 320.984 159.486 319.969C160.01 318.953 160.752 318.16 161.713 317.59C162.674 317.02 163.818 316.734 165.146 316.734C166.287 316.734 167.283 316.941 168.135 317.355C168.994 317.77 169.674 318.352 170.174 319.102C170.674 319.852 170.947 320.734 170.994 321.75H167.572C167.51 321.312 167.377 320.93 167.174 320.602C166.97 320.273 166.701 320.02 166.365 319.84C166.029 319.66 165.638 319.57 165.193 319.57C164.631 319.57 164.138 319.723 163.717 320.027C163.303 320.324 162.978 320.766 162.744 321.352C162.517 321.93 162.404 322.633 162.404 323.461C162.404 324.289 162.517 325 162.744 325.594C162.978 326.188 163.303 326.641 163.717 326.953C164.138 327.266 164.631 327.422 165.193 327.422C165.818 327.422 166.345 327.227 166.775 326.836C167.205 326.438 167.47 325.891 167.572 325.195H170.994C170.939 326.195 170.67 327.078 170.185 327.844C169.701 328.602 169.033 329.195 168.181 329.625C167.33 330.047 166.318 330.258 165.146 330.258ZM177.979 330.258C176.658 330.258 175.514 329.977 174.545 329.414C173.584 328.844 172.842 328.055 172.319 327.047C171.803 326.031 171.545 324.852 171.545 323.508C171.545 322.148 171.803 320.965 172.319 319.957C172.842 318.941 173.584 318.152 174.545 317.59C175.514 317.02 176.658 316.734 177.979 316.734C179.307 316.734 180.451 317.02 181.412 317.59C182.381 318.152 183.123 318.941 183.639 319.957C184.162 320.965 184.424 322.148 184.424 323.508C184.424 324.852 184.162 326.031 183.639 327.047C183.123 328.055 182.381 328.844 181.412 329.414C180.451 329.977 179.307 330.258 177.979 330.258ZM178.002 327.422C178.604 327.422 179.108 327.254 179.514 326.918C179.92 326.574 180.225 326.105 180.428 325.512C180.639 324.918 180.744 324.242 180.744 323.484C180.744 322.719 180.639 322.043 180.428 321.457C180.225 320.871 179.92 320.41 179.514 320.074C179.108 319.738 178.604 319.57 178.002 319.57C177.393 319.57 176.881 319.738 176.467 320.074C176.061 320.41 175.752 320.871 175.541 321.457C175.338 322.043 175.237 322.719 175.237 323.484C175.237 324.242 175.338 324.918 175.541 325.512C175.752 326.105 176.061 326.574 176.467 326.918C176.881 327.254 177.393 327.422 178.002 327.422ZM185.55 330V316.898H189.053V319.195H189.194C189.436 318.383 189.839 317.77 190.401 317.355C190.964 316.934 191.608 316.723 192.335 316.723C192.522 316.723 192.717 316.734 192.921 316.758C193.132 316.773 193.319 316.805 193.483 316.852V320.062C193.311 320.008 193.073 319.965 192.768 319.934C192.471 319.895 192.194 319.875 191.936 319.875C191.413 319.875 190.94 319.992 190.518 320.227C190.096 320.453 189.764 320.773 189.522 321.188C189.288 321.594 189.171 322.062 189.171 322.594V330H185.55ZM194.093 330V316.898H197.714V330H194.093ZM195.898 315.223C195.359 315.223 194.898 315.043 194.515 314.684C194.132 314.324 193.941 313.891 193.941 313.383C193.941 312.875 194.132 312.445 194.515 312.094C194.898 311.734 195.359 311.555 195.898 311.555C196.445 311.555 196.909 311.734 197.292 312.094C197.675 312.445 197.866 312.875 197.866 313.383C197.866 313.891 197.675 314.324 197.292 314.684C196.909 315.043 196.445 315.223 195.898 315.223ZM203 322.43V330H199.379V316.898H202.941V319.23H203.07C203.367 318.457 203.84 317.848 204.488 317.402C205.136 316.957 205.949 316.734 206.925 316.734C207.832 316.734 208.621 316.934 209.293 317.332C209.972 317.73 210.5 318.297 210.875 319.031C211.25 319.766 211.437 320.645 211.437 321.668V330H207.816V322.312C207.816 321.516 207.609 320.891 207.195 320.438C206.781 319.977 206.211 319.746 205.484 319.746C205 319.746 204.57 319.855 204.195 320.074C203.82 320.285 203.527 320.59 203.316 320.988C203.105 321.387 203 321.867 203 322.43ZM218.961 335.18C217.195 335.18 215.813 334.828 214.813 334.125C213.813 333.43 213.203 332.562 212.985 331.523L216.336 331.078C216.438 331.344 216.598 331.59 216.817 331.816C217.035 332.043 217.328 332.223 217.695 332.355C218.063 332.496 218.512 332.566 219.043 332.566C219.832 332.566 220.485 332.375 221 331.992C221.516 331.617 221.774 330.98 221.774 330.082V327.68H221.621C221.465 328.039 221.227 328.383 220.906 328.711C220.586 329.039 220.176 329.305 219.676 329.508C219.176 329.711 218.578 329.812 217.883 329.812C216.899 329.812 216.004 329.586 215.199 329.133C214.402 328.672 213.762 327.969 213.277 327.023C212.801 326.078 212.563 324.883 212.563 323.438C212.563 321.945 212.805 320.703 213.289 319.711C213.781 318.719 214.43 317.977 215.235 317.484C216.039 316.984 216.922 316.734 217.883 316.734C218.617 316.734 219.231 316.859 219.723 317.109C220.223 317.352 220.629 317.656 220.942 318.023C221.254 318.391 221.488 318.754 221.645 319.113H221.785V316.898H225.36V330.141C225.36 331.25 225.086 332.18 224.539 332.93C223.992 333.68 223.238 334.242 222.277 334.617C221.317 334.992 220.211 335.18 218.961 335.18ZM219.031 327.082C219.906 327.082 220.582 326.758 221.059 326.109C221.543 325.461 221.785 324.562 221.785 323.414C221.785 322.648 221.676 321.984 221.457 321.422C221.246 320.852 220.938 320.41 220.531 320.098C220.125 319.777 219.625 319.617 219.031 319.617C218.438 319.617 217.934 319.781 217.52 320.109C217.113 320.43 216.805 320.875 216.594 321.445C216.383 322.016 216.277 322.672 216.277 323.414C216.277 324.164 216.383 324.816 216.594 325.371C216.805 325.918 217.113 326.34 217.52 326.637C217.934 326.934 218.438 327.082 219.031 327.082Z" fill="#EFEFEF"/>
<path d="M19.0547 371V357.904H23.7305C24.7441 357.904 25.585 358.092 26.2529 358.467C26.9209 358.836 27.4219 359.343 27.7559 359.987C28.0898 360.626 28.2568 361.347 28.2568 362.149C28.2568 362.952 28.0898 363.676 27.7559 364.32C27.4219 364.959 26.918 365.466 26.2441 365.841C25.5762 366.21 24.7324 366.395 23.7129 366.395H20.5137V364.725H23.5283C24.1787 364.725 24.7031 364.613 25.1016 364.391C25.5059 364.168 25.7988 363.863 25.9805 363.477C26.168 363.084 26.2617 362.642 26.2617 362.149C26.2617 361.651 26.168 361.212 25.9805 360.831C25.7988 360.444 25.5059 360.143 25.1016 359.926C24.6973 359.709 24.1699 359.601 23.5195 359.601H21.0322V371H19.0547ZM29.2943 371V361.174H31.1312V362.747H31.2367C31.4183 362.22 31.7347 361.804 32.1859 361.499C32.6429 361.188 33.1586 361.033 33.7328 361.033C33.85 361.033 33.9877 361.039 34.1459 361.051C34.3099 361.057 34.4418 361.065 34.5414 361.077V362.905C34.4652 362.882 34.3275 362.858 34.1283 362.835C33.9349 362.812 33.7386 362.8 33.5394 362.8C33.0882 362.8 32.6839 362.896 32.3265 363.09C31.975 363.277 31.6966 363.538 31.4916 363.872C31.2923 364.2 31.1927 364.581 31.1927 365.015V371H29.2943ZM35.1042 371V361.174H37.0027V371H35.1042ZM36.0622 359.662C35.7282 359.662 35.4441 359.551 35.2097 359.328C34.9753 359.105 34.8581 358.839 34.8581 358.528C34.8581 358.212 34.9753 357.942 35.2097 357.72C35.4441 357.497 35.7282 357.386 36.0622 357.386C36.3904 357.386 36.6716 357.497 36.906 357.72C37.1462 357.942 37.2663 358.212 37.2663 358.528C37.2663 358.839 37.1462 359.105 36.906 359.328C36.6716 359.551 36.3904 359.662 36.0622 359.662ZM42.5929 371.202C41.6729 371.202 40.8673 370.991 40.1759 370.569C39.4903 370.147 38.9571 369.556 38.5763 368.794C38.2013 368.032 38.0138 367.147 38.0138 366.14C38.0138 365.12 38.2013 364.229 38.5763 363.468C38.9571 362.7 39.4903 362.105 40.1759 361.684C40.8673 361.262 41.6729 361.051 42.5929 361.051C43.5186 361.051 44.3243 361.262 45.0098 361.684C45.6954 362.105 46.2286 362.7 46.6095 363.468C46.9903 364.229 47.1807 365.12 47.1807 366.14C47.1807 367.147 46.9903 368.032 46.6095 368.794C46.2286 369.556 45.6954 370.147 45.0098 370.569C44.3243 370.991 43.5186 371.202 42.5929 371.202ZM42.5929 369.594C43.1964 369.594 43.6944 369.436 44.087 369.119C44.4796 368.803 44.7696 368.384 44.9571 367.862C45.1505 367.335 45.2471 366.761 45.2471 366.14C45.2471 365.507 45.1505 364.927 44.9571 364.399C44.7696 363.872 44.4796 363.45 44.087 363.134C43.6944 362.817 43.1964 362.659 42.5929 362.659C41.9952 362.659 41.5001 362.817 41.1075 363.134C40.7208 363.45 40.4307 363.872 40.2374 364.399C40.044 364.927 39.9473 365.507 39.9473 366.14C39.9473 366.761 40.044 367.335 40.2374 367.862C40.4307 368.384 40.7208 368.803 41.1075 369.119C41.5001 369.436 41.9952 369.594 42.5929 369.594ZM48.2006 371V361.174H50.0375V362.747H50.143C50.3246 362.22 50.6411 361.804 51.0922 361.499C51.5493 361.188 52.0649 361.033 52.6391 361.033C52.7563 361.033 52.894 361.039 53.0522 361.051C53.2162 361.057 53.3481 361.065 53.4477 361.077V362.905C53.3715 362.882 53.2338 362.858 53.0346 362.835C52.8412 362.812 52.645 362.8 52.4457 362.8C51.9946 362.8 51.5903 362.896 51.2329 363.09C50.8813 363.277 50.603 363.538 50.3979 363.872C50.1987 364.2 50.0991 364.581 50.0991 365.015V371H48.2006ZM54.0105 371V361.174H55.909V371H54.0105ZM54.9686 359.662C54.6346 359.662 54.3504 359.551 54.116 359.328C53.8816 359.105 53.7645 358.839 53.7645 358.528C53.7645 358.212 53.8816 357.942 54.116 357.72C54.3504 357.497 54.6346 357.386 54.9686 357.386C55.2967 357.386 55.5779 357.497 55.8123 357.72C56.0525 357.942 56.1727 358.212 56.1727 358.528C56.1727 358.839 56.0525 359.105 55.8123 359.328C55.5779 359.551 55.2967 359.662 54.9686 359.662ZM61.9474 361.174V362.712H56.5861V361.174H61.9474ZM58.0187 358.836H59.9259V368.117C59.9259 368.568 60.0197 368.899 60.2072 369.11C60.3947 369.315 60.6964 369.418 61.1125 369.418C61.2121 369.418 61.3175 369.412 61.4289 369.4C61.5461 369.389 61.6632 369.371 61.7804 369.348L62.1408 370.93C61.9474 370.994 61.7365 371.044 61.508 371.079C61.2795 371.114 61.0509 371.132 60.8224 371.132C59.9728 371.132 59.2931 370.895 58.7834 370.42C58.2736 369.939 58.0187 369.301 58.0187 368.504V358.836ZM62.9585 371V361.174H64.857V371H62.9585ZM63.9165 359.662C63.5825 359.662 63.2984 359.551 63.064 359.328C62.8296 359.105 62.7124 358.839 62.7124 358.528C62.7124 358.212 62.8296 357.942 63.064 357.72C63.2984 357.497 63.5825 357.386 63.9165 357.386C64.2446 357.386 64.5259 357.497 64.7603 357.72C65.0005 357.942 65.1206 358.212 65.1206 358.528C65.1206 358.839 65.0005 359.105 64.7603 359.328C64.5259 359.551 64.2446 359.662 63.9165 359.662ZM66.1141 371V369.699L71.4315 362.932V362.835H66.2899V361.174H73.8134V362.58L68.6981 369.242V369.339H73.9891V371H66.1141ZM79.0871 371.202C78.1262 371.202 77.2942 370.994 76.5911 370.578C75.8879 370.162 75.3459 369.576 74.9651 368.82C74.5901 368.059 74.4026 367.171 74.4026 366.157C74.4026 365.149 74.5871 364.262 74.9563 363.494C75.3313 362.727 75.8557 362.129 76.5295 361.701C77.2092 361.268 78.0061 361.051 78.9202 361.051C79.4768 361.051 80.0159 361.142 80.5373 361.323C81.0588 361.505 81.5276 361.792 81.9436 362.185C82.3596 362.577 82.6877 363.087 82.928 363.714C83.1741 364.341 83.2971 365.097 83.2971 365.981V366.667H75.4836V365.234H82.3127L81.425 365.709C81.425 365.105 81.3313 364.572 81.1438 364.109C80.9563 363.646 80.675 363.286 80.3 363.028C79.9309 362.765 79.4709 362.633 78.9202 362.633C78.3694 362.633 77.8977 362.765 77.5051 363.028C77.1184 363.292 76.8225 363.641 76.6174 364.074C76.4123 364.508 76.3098 364.982 76.3098 365.498V366.474C76.3098 367.147 76.427 367.719 76.6614 368.188C76.8957 368.656 77.2209 369.014 77.637 369.26C78.0588 369.506 78.5481 369.629 79.1047 369.629C79.468 369.629 79.7961 369.576 80.0891 369.471C80.3879 369.365 80.6457 369.207 80.8625 368.996C81.0793 368.785 81.2434 368.524 81.3547 368.214L83.1653 368.557C83.0188 369.084 82.761 369.547 82.3918 369.945C82.0227 370.344 81.5569 370.654 80.9944 370.877C80.4377 371.094 79.802 371.202 79.0871 371.202ZM89.8193 357.904V371H87.9209V357.904H89.8193ZM95.515 371.202C94.554 371.202 93.722 370.994 93.0189 370.578C92.3157 370.162 91.7738 369.576 91.3929 368.82C91.0179 368.059 90.8304 367.171 90.8304 366.157C90.8304 365.149 91.015 364.262 91.3841 363.494C91.7591 362.727 92.2835 362.129 92.9573 361.701C93.637 361.268 94.4339 361.051 95.348 361.051C95.9046 361.051 96.4437 361.142 96.9652 361.323C97.4866 361.505 97.9554 361.792 98.3714 362.185C98.7874 362.577 99.1155 363.087 99.3558 363.714C99.6019 364.341 99.7249 365.097 99.7249 365.981V366.667H91.9114V365.234H98.7405L97.8529 365.709C97.8529 365.105 97.7591 364.572 97.5716 364.109C97.3841 363.646 97.1029 363.286 96.7279 363.028C96.3587 362.765 95.8988 362.633 95.348 362.633C94.7972 362.633 94.3255 362.765 93.9329 363.028C93.5462 363.292 93.2503 363.641 93.0452 364.074C92.8402 364.508 92.7376 364.982 92.7376 365.498V366.474C92.7376 367.147 92.8548 367.719 93.0892 368.188C93.3236 368.656 93.6488 369.014 94.0648 369.26C94.4866 369.506 94.9759 369.629 95.5325 369.629C95.8958 369.629 96.2239 369.576 96.5169 369.471C96.8157 369.365 97.0736 369.207 97.2904 368.996C97.5071 368.785 97.6712 368.524 97.7825 368.214L99.5931 368.557C99.4466 369.084 99.1888 369.547 98.8196 369.945C98.4505 370.344 97.9847 370.654 97.4222 370.877C96.8655 371.094 96.2298 371.202 95.515 371.202ZM103.549 371.211C102.927 371.211 102.365 371.097 101.861 370.868C101.357 370.634 100.959 370.294 100.666 369.849C100.373 369.403 100.226 368.861 100.226 368.223C100.226 367.666 100.332 367.212 100.543 366.86C100.759 366.503 101.049 366.219 101.413 366.008C101.776 365.797 102.18 365.639 102.626 365.533C103.071 365.428 103.528 365.346 103.997 365.287C104.589 365.223 105.066 365.167 105.429 365.12C105.793 365.073 106.056 365 106.22 364.9C106.39 364.795 106.475 364.628 106.475 364.399V364.355C106.475 363.799 106.317 363.368 106.001 363.063C105.69 362.759 105.227 362.606 104.612 362.606C103.973 362.606 103.466 362.747 103.091 363.028C102.722 363.304 102.467 363.617 102.327 363.969L100.525 363.556C100.742 362.958 101.055 362.478 101.466 362.114C101.882 361.745 102.356 361.476 102.889 361.306C103.428 361.136 103.991 361.051 104.577 361.051C104.969 361.051 105.385 361.098 105.825 361.191C106.264 361.279 106.677 361.446 107.064 361.692C107.457 361.933 107.776 362.278 108.022 362.729C108.268 363.181 108.391 363.764 108.391 364.479V371H106.519V369.655H106.449C106.332 369.896 106.147 370.136 105.895 370.376C105.649 370.616 105.333 370.815 104.946 370.974C104.559 371.132 104.093 371.211 103.549 371.211ZM103.962 369.682C104.495 369.682 104.949 369.579 105.324 369.374C105.699 369.163 105.986 368.888 106.185 368.548C106.384 368.208 106.484 367.848 106.484 367.467V366.192C106.414 366.257 106.282 366.318 106.089 366.377C105.895 366.436 105.675 366.485 105.429 366.526C105.183 366.567 104.943 366.605 104.709 366.641C104.474 366.67 104.278 366.693 104.12 366.711C103.751 366.764 103.414 366.846 103.109 366.957C102.804 367.062 102.558 367.221 102.371 367.432C102.189 367.637 102.098 367.909 102.098 368.249C102.098 368.724 102.274 369.081 102.626 369.321C102.977 369.562 103.423 369.682 103.962 369.682ZM113.524 371.193C112.728 371.193 112.019 370.991 111.397 370.587C110.776 370.177 110.29 369.594 109.939 368.838C109.587 368.076 109.411 367.168 109.411 366.113C109.411 365.047 109.59 364.136 109.947 363.38C110.305 362.624 110.794 362.047 111.415 361.648C112.036 361.25 112.739 361.051 113.524 361.051C114.14 361.051 114.632 361.153 115.001 361.358C115.376 361.558 115.666 361.792 115.871 362.062C116.082 362.331 116.243 362.568 116.355 362.773H116.469V357.904H118.367V371H116.513V369.471H116.355C116.243 369.676 116.079 369.913 115.862 370.183C115.646 370.452 115.35 370.689 114.975 370.895C114.606 371.094 114.122 371.193 113.524 371.193ZM113.938 369.567C114.488 369.567 114.954 369.421 115.335 369.128C115.716 368.835 116.003 368.428 116.196 367.906C116.396 367.385 116.495 366.781 116.495 366.096C116.495 365.41 116.398 364.812 116.205 364.303C116.012 363.787 115.725 363.389 115.344 363.107C114.963 362.82 114.494 362.677 113.938 362.677C113.363 362.677 112.886 362.826 112.505 363.125C112.124 363.424 111.837 363.831 111.644 364.347C111.45 364.862 111.354 365.445 111.354 366.096C111.354 366.752 111.45 367.344 111.644 367.871C111.837 368.393 112.124 368.806 112.505 369.11C112.892 369.415 113.369 369.567 113.938 369.567ZM127.192 363.582L125.46 363.881C125.349 363.553 125.141 363.251 124.836 362.976C124.537 362.7 124.089 362.562 123.492 362.562C122.953 362.562 122.501 362.686 122.138 362.932C121.781 363.172 121.602 363.479 121.602 363.854C121.602 364.183 121.722 364.449 121.962 364.654C122.208 364.859 122.598 365.023 123.131 365.146L124.704 365.498C125.601 365.703 126.272 366.025 126.717 366.465C127.162 366.904 127.385 367.467 127.385 368.152C127.385 368.744 127.215 369.271 126.875 369.734C126.536 370.191 126.064 370.552 125.46 370.815C124.857 371.073 124.16 371.202 123.369 371.202C122.267 371.202 121.371 370.965 120.679 370.49C119.988 370.016 119.563 369.348 119.405 368.486L121.242 368.205C121.359 368.686 121.596 369.049 121.954 369.295C122.317 369.541 122.786 369.664 123.36 369.664C123.981 369.664 124.479 369.532 124.854 369.269C125.235 369.005 125.425 368.686 125.425 368.311C125.425 367.689 124.962 367.271 124.037 367.054L122.375 366.685C121.455 366.474 120.776 366.143 120.336 365.691C119.903 365.234 119.686 364.66 119.686 363.969C119.686 363.389 119.847 362.879 120.169 362.439C120.497 362 120.946 361.66 121.514 361.42C122.088 361.174 122.742 361.051 123.474 361.051C124.54 361.051 125.375 361.282 125.979 361.745C126.588 362.208 126.993 362.82 127.192 363.582ZM134.857 371.211C134.235 371.211 133.673 371.097 133.169 370.868C132.665 370.634 132.267 370.294 131.974 369.849C131.681 369.403 131.534 368.861 131.534 368.223C131.534 367.666 131.64 367.212 131.851 366.86C132.067 366.503 132.358 366.219 132.721 366.008C133.084 365.797 133.488 365.639 133.934 365.533C134.379 365.428 134.836 365.346 135.305 365.287C135.897 365.223 136.374 365.167 136.737 365.12C137.101 365.073 137.364 365 137.528 364.9C137.698 364.795 137.783 364.628 137.783 364.399V364.355C137.783 363.799 137.625 363.368 137.309 363.063C136.998 362.759 136.535 362.606 135.92 362.606C135.281 362.606 134.775 362.747 134.4 363.028C134.03 363.304 133.776 363.617 133.635 363.969L131.833 363.556C132.05 362.958 132.363 362.478 132.774 362.114C133.19 361.745 133.664 361.476 134.197 361.306C134.736 361.136 135.299 361.051 135.885 361.051C136.277 361.051 136.693 361.098 137.133 361.191C137.572 361.279 137.985 361.446 138.372 361.692C138.765 361.933 139.084 362.278 139.33 362.729C139.576 363.181 139.699 363.764 139.699 364.479V371H137.827V369.655H137.757C137.64 369.896 137.455 370.136 137.203 370.376C136.957 370.616 136.641 370.815 136.254 370.974C135.867 371.132 135.401 371.211 134.857 371.211ZM135.27 369.682C135.803 369.682 136.257 369.579 136.632 369.374C137.007 369.163 137.294 368.888 137.493 368.548C137.692 368.208 137.792 367.848 137.792 367.467V366.192C137.722 366.257 137.59 366.318 137.397 366.377C137.203 366.436 136.984 366.485 136.737 366.526C136.491 366.567 136.251 366.605 136.017 366.641C135.782 366.67 135.586 366.693 135.428 366.711C135.059 366.764 134.722 366.846 134.417 366.957C134.112 367.062 133.866 367.221 133.679 367.432C133.497 367.637 133.406 367.909 133.406 368.249C133.406 368.724 133.582 369.081 133.934 369.321C134.285 369.562 134.731 369.682 135.27 369.682ZM143.075 365.173V371H141.176V361.174H143.022V362.791H143.154C143.376 362.258 143.725 361.836 144.2 361.525C144.674 361.209 145.284 361.051 146.028 361.051C146.696 361.051 147.279 361.191 147.777 361.473C148.281 361.748 148.67 362.161 148.946 362.712C149.227 363.263 149.368 363.945 149.368 364.76V371H147.469V364.988C147.469 364.279 147.282 363.723 146.907 363.318C146.532 362.908 146.022 362.703 145.377 362.703C144.938 362.703 144.542 362.803 144.191 363.002C143.845 363.195 143.573 363.474 143.374 363.837C143.174 364.2 143.075 364.646 143.075 365.173ZM154.492 371.193C153.695 371.193 152.986 370.991 152.365 370.587C151.744 370.177 151.258 369.594 150.906 368.838C150.555 368.076 150.379 367.168 150.379 366.113C150.379 365.047 150.557 364.136 150.915 363.38C151.272 362.624 151.762 362.047 152.383 361.648C153.004 361.25 153.707 361.051 154.492 361.051C155.107 361.051 155.599 361.153 155.969 361.358C156.344 361.558 156.634 361.792 156.839 362.062C157.05 362.331 157.211 362.568 157.322 362.773H157.436V357.904H159.335V371H157.48V369.471H157.322C157.211 369.676 157.047 369.913 156.83 370.183C156.613 370.452 156.317 370.689 155.942 370.895C155.573 371.094 155.09 371.193 154.492 371.193ZM154.905 369.567C155.456 369.567 155.922 369.421 156.303 369.128C156.683 368.835 156.971 368.428 157.164 367.906C157.363 367.385 157.463 366.781 157.463 366.096C157.463 365.41 157.366 364.812 157.173 364.303C156.979 363.787 156.692 363.389 156.311 363.107C155.931 362.82 155.462 362.677 154.905 362.677C154.331 362.677 153.853 362.826 153.473 363.125C153.092 363.424 152.805 363.831 152.611 364.347C152.418 364.862 152.321 365.445 152.321 366.096C152.321 366.752 152.418 367.344 152.611 367.871C152.805 368.393 153.092 368.806 153.473 369.11C153.859 369.415 154.337 369.567 154.905 369.567ZM169.03 361.174V362.712H163.669V361.174H169.03ZM165.101 358.836H167.008V368.117C167.008 368.568 167.102 368.899 167.29 369.11C167.477 369.315 167.779 369.418 168.195 369.418C168.294 369.418 168.4 369.412 168.511 369.4C168.628 369.389 168.746 369.371 168.863 369.348L169.223 370.93C169.03 370.994 168.819 371.044 168.59 371.079C168.362 371.114 168.133 371.132 167.905 371.132C167.055 371.132 166.376 370.895 165.866 370.42C165.356 369.939 165.101 369.301 165.101 368.504V358.836ZM170.041 371V361.174H171.878V362.747H171.983C172.165 362.22 172.481 361.804 172.933 361.499C173.39 361.188 173.905 361.033 174.479 361.033C174.597 361.033 174.734 361.039 174.893 361.051C175.057 361.057 175.188 361.065 175.288 361.077V362.905C175.212 362.882 175.074 362.858 174.875 362.835C174.682 362.812 174.485 362.8 174.286 362.8C173.835 362.8 173.431 362.896 173.073 363.09C172.722 363.277 172.443 363.538 172.238 363.872C172.039 364.2 171.939 364.581 171.939 365.015V371H170.041ZM178.611 371.211C177.99 371.211 177.427 371.097 176.923 370.868C176.419 370.634 176.021 370.294 175.728 369.849C175.435 369.403 175.288 368.861 175.288 368.223C175.288 367.666 175.394 367.212 175.605 366.86C175.822 366.503 176.112 366.219 176.475 366.008C176.838 365.797 177.242 365.639 177.688 365.533C178.133 365.428 178.59 365.346 179.059 365.287C179.651 365.223 180.128 365.167 180.491 365.12C180.855 365.073 181.118 365 181.283 364.9C181.452 364.795 181.537 364.628 181.537 364.399V364.355C181.537 363.799 181.379 363.368 181.063 363.063C180.752 362.759 180.289 362.606 179.674 362.606C179.035 362.606 178.529 362.747 178.154 363.028C177.784 363.304 177.53 363.617 177.389 363.969L175.587 363.556C175.804 362.958 176.117 362.478 176.528 362.114C176.944 361.745 177.418 361.476 177.951 361.306C178.491 361.136 179.053 361.051 179.639 361.051C180.032 361.051 180.448 361.098 180.887 361.191C181.326 361.279 181.74 361.446 182.126 361.692C182.519 361.933 182.838 362.278 183.084 362.729C183.33 363.181 183.453 363.764 183.453 364.479V371H181.581V369.655H181.511C181.394 369.896 181.209 370.136 180.957 370.376C180.711 370.616 180.395 370.815 180.008 370.974C179.621 371.132 179.156 371.211 178.611 371.211ZM179.024 369.682C179.557 369.682 180.011 369.579 180.386 369.374C180.761 369.163 181.048 368.888 181.247 368.548C181.447 368.208 181.546 367.848 181.546 367.467V366.192C181.476 366.257 181.344 366.318 181.151 366.377C180.957 366.436 180.738 366.485 180.491 366.526C180.245 366.567 180.005 366.605 179.771 366.641C179.536 366.67 179.34 366.693 179.182 366.711C178.813 366.764 178.476 366.846 178.171 366.957C177.866 367.062 177.62 367.221 177.433 367.432C177.251 367.637 177.16 367.909 177.16 368.249C177.16 368.724 177.336 369.081 177.688 369.321C178.039 369.562 178.485 369.682 179.024 369.682ZM189.052 371.202C188.109 371.202 187.295 370.985 186.609 370.552C185.923 370.118 185.396 369.521 185.027 368.759C184.658 367.997 184.473 367.124 184.473 366.14C184.473 365.138 184.661 364.256 185.036 363.494C185.417 362.727 185.947 362.129 186.627 361.701C187.312 361.268 188.115 361.051 189.035 361.051C189.785 361.051 190.45 361.188 191.03 361.464C191.616 361.733 192.088 362.117 192.445 362.615C192.808 363.113 193.022 363.693 193.087 364.355H191.223C191.159 364.045 191.033 363.761 190.845 363.503C190.664 363.245 190.423 363.04 190.125 362.888C189.826 362.735 189.471 362.659 189.061 362.659C188.528 362.659 188.062 362.8 187.664 363.081C187.271 363.356 186.964 363.752 186.741 364.268C186.518 364.783 186.407 365.393 186.407 366.096C186.407 366.805 186.515 367.423 186.732 367.95C186.949 368.478 187.256 368.885 187.655 369.172C188.059 369.453 188.528 369.594 189.061 369.594C189.612 369.594 190.081 369.441 190.467 369.137C190.86 368.832 191.112 368.416 191.223 367.889H193.087C193.022 368.527 192.817 369.096 192.471 369.594C192.126 370.092 191.663 370.484 191.083 370.771C190.503 371.059 189.826 371.202 189.052 371.202ZM195.838 367.669L195.812 365.34H196.154L200.065 361.174H202.351L197.895 365.92H197.578L195.838 367.669ZM194.08 371V357.904H195.979V371H194.08ZM200.268 371L196.752 366.342L198.07 364.997L202.623 371H200.268ZM210.288 371.193C209.491 371.193 208.782 370.991 208.161 370.587C207.54 370.177 207.053 369.594 206.702 368.838C206.35 368.076 206.175 367.168 206.175 366.113C206.175 365.047 206.353 364.136 206.711 363.38C207.068 362.624 207.557 362.047 208.178 361.648C208.8 361.25 209.503 361.051 210.288 361.051C210.903 361.051 211.395 361.153 211.764 361.358C212.139 361.558 212.429 361.792 212.634 362.062C212.845 362.331 213.007 362.568 213.118 362.773H213.232V357.904H215.131V371H213.276V369.471H213.118C213.007 369.676 212.842 369.913 212.626 370.183C212.409 370.452 212.113 370.689 211.738 370.895C211.369 371.094 210.885 371.193 210.288 371.193ZM210.701 369.567C211.252 369.567 211.717 369.421 212.098 369.128C212.479 368.835 212.766 368.428 212.96 367.906C213.159 367.385 213.259 366.781 213.259 366.096C213.259 365.41 213.162 364.812 212.968 364.303C212.775 363.787 212.488 363.389 212.107 363.107C211.726 362.82 211.258 362.677 210.701 362.677C210.127 362.677 209.649 362.826 209.268 363.125C208.887 363.424 208.6 363.831 208.407 364.347C208.214 364.862 208.117 365.445 208.117 366.096C208.117 366.752 208.214 367.344 208.407 367.871C208.6 368.393 208.887 368.806 209.268 369.11C209.655 369.415 210.133 369.567 210.701 369.567ZM220.835 371.202C219.874 371.202 219.042 370.994 218.339 370.578C217.636 370.162 217.094 369.576 216.713 368.82C216.338 368.059 216.15 367.171 216.15 366.157C216.15 365.149 216.335 364.262 216.704 363.494C217.079 362.727 217.604 362.129 218.277 361.701C218.957 361.268 219.754 361.051 220.668 361.051C221.225 361.051 221.764 361.142 222.285 361.323C222.807 361.505 223.275 361.792 223.691 362.185C224.107 362.577 224.436 363.087 224.676 363.714C224.922 364.341 225.045 365.097 225.045 365.981V366.667H217.232V365.234H224.061L223.173 365.709C223.173 365.105 223.079 364.572 222.892 364.109C222.704 363.646 222.423 363.286 222.048 363.028C221.679 362.765 221.219 362.633 220.668 362.633C220.117 362.633 219.646 362.765 219.253 363.028C218.866 363.292 218.57 363.641 218.365 364.074C218.16 364.508 218.058 364.982 218.058 365.498V366.474C218.058 367.147 218.175 367.719 218.409 368.188C218.644 368.656 218.969 369.014 219.385 369.26C219.807 369.506 220.296 369.629 220.853 369.629C221.216 369.629 221.544 369.576 221.837 369.471C222.136 369.365 222.394 369.207 222.61 368.996C222.827 368.785 222.991 368.524 223.103 368.214L224.913 368.557C224.767 369.084 224.509 369.547 224.14 369.945C223.771 370.344 223.305 370.654 222.742 370.877C222.186 371.094 221.55 371.202 220.835 371.202ZM228.869 371.211C228.247 371.211 227.685 371.097 227.181 370.868C226.677 370.634 226.279 370.294 225.986 369.849C225.693 369.403 225.546 368.861 225.546 368.223C225.546 367.666 225.652 367.212 225.863 366.86C226.08 366.503 226.37 366.219 226.733 366.008C227.096 365.797 227.5 365.639 227.946 365.533C228.391 365.428 228.848 365.346 229.317 365.287C229.909 365.223 230.386 365.167 230.749 365.12C231.113 365.073 231.376 365 231.54 364.9C231.71 364.795 231.795 364.628 231.795 364.399V364.355C231.795 363.799 231.637 363.368 231.321 363.063C231.01 362.759 230.547 362.606 229.932 362.606C229.293 362.606 228.787 362.747 228.412 363.028C228.042 363.304 227.788 363.617 227.647 363.969L225.845 363.556C226.062 362.958 226.375 362.478 226.786 362.114C227.202 361.745 227.676 361.476 228.209 361.306C228.748 361.136 229.311 361.051 229.897 361.051C230.289 361.051 230.706 361.098 231.145 361.191C231.584 361.279 231.997 361.446 232.384 361.692C232.777 361.933 233.096 362.278 233.342 362.729C233.588 363.181 233.711 363.764 233.711 364.479V371H231.839V369.655H231.769C231.652 369.896 231.467 370.136 231.215 370.376C230.969 370.616 230.653 370.815 230.266 370.974C229.879 371.132 229.414 371.211 228.869 371.211ZM229.282 369.682C229.815 369.682 230.269 369.579 230.644 369.374C231.019 369.163 231.306 368.888 231.505 368.548C231.705 368.208 231.804 367.848 231.804 367.467V366.192C231.734 366.257 231.602 366.318 231.409 366.377C231.215 366.436 230.996 366.485 230.749 366.526C230.503 366.567 230.263 366.605 230.029 366.641C229.794 366.67 229.598 366.693 229.44 366.711C229.071 366.764 228.734 366.846 228.429 366.957C228.124 367.062 227.878 367.221 227.691 367.432C227.509 367.637 227.418 367.909 227.418 368.249C227.418 368.724 227.594 369.081 227.946 369.321C228.297 369.562 228.743 369.682 229.282 369.682ZM237.087 357.904V371H235.188V357.904H237.087ZM242.203 374.674V361.174H244.048V362.773H244.207C244.324 362.568 244.485 362.331 244.69 362.062C244.901 361.792 245.194 361.558 245.569 361.358C245.944 361.153 246.433 361.051 247.037 361.051C247.828 361.051 248.531 361.25 249.146 361.648C249.767 362.047 250.256 362.624 250.614 363.38C250.971 364.136 251.15 365.047 251.15 366.113C251.15 367.168 250.974 368.076 250.623 368.838C250.271 369.594 249.785 370.177 249.164 370.587C248.548 370.991 247.842 371.193 247.045 371.193C246.454 371.193 245.967 371.094 245.586 370.895C245.211 370.689 244.916 370.452 244.699 370.183C244.488 369.913 244.324 369.676 244.207 369.471H244.101V374.674H242.203ZM246.632 369.567C247.201 369.567 247.675 369.415 248.056 369.11C248.437 368.806 248.724 368.393 248.917 367.871C249.117 367.344 249.216 366.752 249.216 366.096C249.216 365.445 249.12 364.862 248.926 364.347C248.733 363.831 248.446 363.424 248.065 363.125C247.684 362.826 247.207 362.677 246.632 362.677C246.076 362.677 245.607 362.82 245.226 363.107C244.845 363.389 244.555 363.787 244.356 364.303C244.163 364.812 244.066 365.41 244.066 366.096C244.066 366.781 244.166 367.385 244.365 367.906C244.564 368.428 244.854 368.835 245.235 369.128C245.622 369.421 246.087 369.567 246.632 369.567ZM252.179 371V361.174H254.016V362.747H254.121C254.303 362.22 254.619 361.804 255.07 361.499C255.527 361.188 256.043 361.033 256.617 361.033C256.734 361.033 256.872 361.039 257.03 361.051C257.194 361.057 257.326 361.065 257.426 361.077V362.905C257.349 362.882 257.212 362.858 257.013 362.835C256.819 362.812 256.623 362.8 256.424 362.8C255.973 362.8 255.568 362.896 255.211 363.09C254.859 363.277 254.581 363.538 254.376 363.872C254.177 364.2 254.077 364.581 254.077 365.015V371H252.179ZM261.759 371.202C260.839 371.202 260.033 370.991 259.342 370.569C258.656 370.147 258.123 369.556 257.742 368.794C257.367 368.032 257.18 367.147 257.18 366.14C257.18 365.12 257.367 364.229 257.742 363.468C258.123 362.7 258.656 362.105 259.342 361.684C260.033 361.262 260.839 361.051 261.759 361.051C262.685 361.051 263.49 361.262 264.176 361.684C264.862 362.105 265.395 362.7 265.776 363.468C266.156 364.229 266.347 365.12 266.347 366.14C266.347 367.147 266.156 368.032 265.776 368.794C265.395 369.556 264.862 370.147 264.176 370.569C263.49 370.991 262.685 371.202 261.759 371.202ZM261.759 369.594C262.363 369.594 262.861 369.436 263.253 369.119C263.646 368.803 263.936 368.384 264.123 367.862C264.317 367.335 264.413 366.761 264.413 366.14C264.413 365.507 264.317 364.927 264.123 364.399C263.936 363.872 263.646 363.45 263.253 363.134C262.861 362.817 262.363 362.659 261.759 362.659C261.161 362.659 260.666 362.817 260.274 363.134C259.887 363.45 259.597 363.872 259.404 364.399C259.21 364.927 259.114 365.507 259.114 366.14C259.114 366.761 259.21 367.335 259.404 367.862C259.597 368.384 259.887 368.803 260.274 369.119C260.666 369.436 261.161 369.594 261.759 369.594ZM271.462 374.885C270.291 374.885 269.368 374.665 268.694 374.226C268.02 373.786 267.554 373.265 267.296 372.661L268.931 371.984C269.048 372.172 269.204 372.371 269.397 372.582C269.596 372.793 269.863 372.972 270.197 373.118C270.531 373.265 270.962 373.338 271.489 373.338C272.21 373.338 272.807 373.162 273.282 372.811C273.756 372.465 273.994 371.908 273.994 371.141V369.216H273.862C273.756 369.421 273.595 369.652 273.379 369.91C273.162 370.162 272.866 370.382 272.491 370.569C272.116 370.757 271.627 370.851 271.023 370.851C270.25 370.851 269.552 370.669 268.931 370.306C268.316 369.937 267.824 369.397 267.455 368.688C267.091 367.974 266.91 367.095 266.91 366.052C266.91 365.009 267.088 364.115 267.446 363.371C267.809 362.621 268.301 362.047 268.922 361.648C269.544 361.25 270.25 361.051 271.041 361.051C271.65 361.051 272.142 361.153 272.517 361.358C272.898 361.558 273.194 361.792 273.405 362.062C273.616 362.331 273.78 362.568 273.897 362.773H274.038V361.174H275.892V371.22C275.892 372.063 275.696 372.755 275.303 373.294C274.917 373.833 274.389 374.231 273.721 374.489C273.053 374.753 272.3 374.885 271.462 374.885ZM271.445 369.26C272.271 369.26 272.904 368.976 273.343 368.407C273.789 367.833 274.011 367.039 274.011 366.025C274.011 365.363 273.915 364.783 273.721 364.285C273.528 363.781 273.241 363.389 272.86 363.107C272.479 362.82 272.007 362.677 271.445 362.677C270.871 362.677 270.39 362.826 270.004 363.125C269.623 363.418 269.336 363.819 269.142 364.329C268.949 364.833 268.852 365.398 268.852 366.025C268.852 366.664 268.949 367.229 269.142 367.722C269.336 368.208 269.626 368.586 270.012 368.855C270.405 369.125 270.882 369.26 271.445 369.26ZM277.36 371V361.174H279.197V362.747H279.303C279.484 362.22 279.801 361.804 280.252 361.499C280.709 361.188 281.225 361.033 281.799 361.033C281.916 361.033 282.054 361.039 282.212 361.051C282.376 361.057 282.508 361.065 282.607 361.077V362.905C282.531 362.882 282.394 362.858 282.194 362.835C282.001 362.812 281.805 362.8 281.605 362.8C281.154 362.8 280.75 362.896 280.393 363.09C280.041 363.277 279.763 363.538 279.558 363.872C279.358 364.2 279.259 364.581 279.259 365.015V371H277.36ZM287.046 371.202C286.085 371.202 285.253 370.994 284.55 370.578C283.847 370.162 283.305 369.576 282.924 368.82C282.549 368.059 282.362 367.171 282.362 366.157C282.362 365.149 282.546 364.262 282.915 363.494C283.29 362.727 283.815 362.129 284.489 361.701C285.168 361.268 285.965 361.051 286.879 361.051C287.436 361.051 287.975 361.142 288.496 361.323C289.018 361.505 289.487 361.792 289.903 362.185C290.319 362.577 290.647 363.087 290.887 363.714C291.133 364.341 291.256 365.097 291.256 365.981V366.667H283.443V365.234H290.272L289.384 365.709C289.384 365.105 289.29 364.572 289.103 364.109C288.915 363.646 288.634 363.286 288.259 363.028C287.89 362.765 287.43 362.633 286.879 362.633C286.328 362.633 285.857 362.765 285.464 363.028C285.077 363.292 284.782 363.641 284.576 364.074C284.371 364.508 284.269 364.982 284.269 365.498V366.474C284.269 367.147 284.386 367.719 284.62 368.188C284.855 368.656 285.18 369.014 285.596 369.26C286.018 369.506 286.507 369.629 287.064 369.629C287.427 369.629 287.755 369.576 288.048 369.471C288.347 369.365 288.605 369.207 288.822 368.996C289.038 368.785 289.202 368.524 289.314 368.214L291.124 368.557C290.978 369.084 290.72 369.547 290.351 369.945C289.982 370.344 289.516 370.654 288.953 370.877C288.397 371.094 287.761 371.202 287.046 371.202ZM299.58 363.582L297.848 363.881C297.737 363.553 297.529 363.251 297.224 362.976C296.925 362.7 296.477 362.562 295.88 362.562C295.341 362.562 294.889 362.686 294.526 362.932C294.169 363.172 293.99 363.479 293.99 363.854C293.99 364.183 294.11 364.449 294.35 364.654C294.596 364.859 294.986 365.023 295.519 365.146L297.092 365.498C297.989 365.703 298.66 366.025 299.105 366.465C299.55 366.904 299.773 367.467 299.773 368.152C299.773 368.744 299.603 369.271 299.263 369.734C298.924 370.191 298.452 370.552 297.848 370.815C297.245 371.073 296.548 371.202 295.757 371.202C294.655 371.202 293.758 370.965 293.067 370.49C292.376 370.016 291.951 369.348 291.793 368.486L293.63 368.205C293.747 368.686 293.984 369.049 294.341 369.295C294.705 369.541 295.174 369.664 295.748 369.664C296.369 369.664 296.867 369.532 297.242 369.269C297.623 369.005 297.813 368.686 297.813 368.311C297.813 367.689 297.35 367.271 296.424 367.054L294.763 366.685C293.843 366.474 293.164 366.143 292.724 365.691C292.291 365.234 292.074 364.66 292.074 363.969C292.074 363.389 292.235 362.879 292.557 362.439C292.885 362 293.334 361.66 293.902 361.42C294.476 361.174 295.13 361.051 295.862 361.051C296.928 361.051 297.763 361.282 298.367 361.745C298.976 362.208 299.381 362.82 299.58 363.582ZM308.097 363.582L306.365 363.881C306.254 363.553 306.046 363.251 305.741 362.976C305.442 362.7 304.994 362.562 304.397 362.562C303.857 362.562 303.406 362.686 303.043 362.932C302.686 363.172 302.507 363.479 302.507 363.854C302.507 364.183 302.627 364.449 302.867 364.654C303.113 364.859 303.503 365.023 304.036 365.146L305.609 365.498C306.506 365.703 307.177 366.025 307.622 366.465C308.067 366.904 308.29 367.467 308.29 368.152C308.29 368.744 308.12 369.271 307.78 369.734C307.44 370.191 306.969 370.552 306.365 370.815C305.762 371.073 305.064 371.202 304.273 371.202C303.172 371.202 302.275 370.965 301.584 370.49C300.893 370.016 300.468 369.348 300.31 368.486L302.147 368.205C302.264 368.686 302.501 369.049 302.858 369.295C303.222 369.541 303.69 369.664 304.265 369.664C304.886 369.664 305.384 369.532 305.759 369.269C306.14 369.005 306.33 368.686 306.33 368.311C306.33 367.689 305.867 367.271 304.941 367.054L303.28 366.685C302.36 366.474 301.681 366.143 301.241 365.691C300.808 365.234 300.591 364.66 300.591 363.969C300.591 363.389 300.752 362.879 301.074 362.439C301.402 362 301.851 361.66 302.419 361.42C302.993 361.174 303.647 361.051 304.379 361.051C305.445 361.051 306.28 361.282 306.884 361.745C307.493 362.208 307.897 362.82 308.097 363.582ZM315.032 371L312.149 361.174H314.118L316.043 368.39H316.148L318.073 361.174H320.051L321.958 368.363H322.054L323.97 361.174H325.939L323.056 371H321.114L319.11 363.916H318.978L316.974 371H315.032ZM326.651 371V361.174H328.55V371H326.651ZM327.609 359.662C327.276 359.662 326.991 359.551 326.757 359.328C326.523 359.105 326.405 358.839 326.405 358.528C326.405 358.212 326.523 357.942 326.757 357.72C326.991 357.497 327.276 357.386 327.609 357.386C327.938 357.386 328.219 357.497 328.453 357.72C328.693 357.942 328.814 358.212 328.814 358.528C328.814 358.839 328.693 359.105 328.453 359.328C328.219 359.551 327.938 359.662 327.609 359.662ZM334.588 361.174V362.712H329.227V361.174H334.588ZM330.66 358.836H332.567V368.117C332.567 368.568 332.661 368.899 332.848 369.11C333.036 369.315 333.337 369.418 333.753 369.418C333.853 369.418 333.958 369.412 334.07 369.4C334.187 369.389 334.304 369.371 334.421 369.348L334.782 370.93C334.588 370.994 334.377 371.044 334.149 371.079C333.92 371.114 333.692 371.132 333.463 371.132C332.614 371.132 331.934 370.895 331.424 370.42C330.915 369.939 330.66 369.301 330.66 368.504V358.836ZM337.709 365.173V371H335.81V357.904H337.682V362.791H337.814C338.043 362.258 338.391 361.836 338.86 361.525C339.335 361.209 339.953 361.051 340.715 361.051C341.389 361.051 341.977 361.188 342.481 361.464C342.985 361.739 343.378 362.152 343.659 362.703C343.946 363.254 344.09 363.939 344.09 364.76V371H342.174V364.988C342.174 364.262 341.986 363.699 341.611 363.301C341.242 362.902 340.726 362.703 340.064 362.703C339.607 362.703 339.203 362.803 338.851 363.002C338.5 363.195 338.222 363.474 338.016 363.837C337.811 364.2 337.709 364.646 337.709 365.173ZM357.59 361.174L354.04 371H351.983L348.423 361.174H350.471L352.967 368.75H353.073L355.551 361.174H357.59ZM358.285 371V361.174H360.184V371H358.285ZM359.243 359.662C358.909 359.662 358.625 359.551 358.391 359.328C358.156 359.105 358.039 358.839 358.039 358.528C358.039 358.212 358.156 357.942 358.391 357.72C358.625 357.497 358.909 357.386 359.243 357.386C359.571 357.386 359.852 357.497 360.087 357.72C360.327 357.942 360.447 358.212 360.447 358.528C360.447 358.839 360.327 359.105 360.087 359.328C359.852 359.551 359.571 359.662 359.243 359.662ZM368.999 363.582L367.268 363.881C367.157 363.553 366.949 363.251 366.644 362.976C366.345 362.7 365.897 362.562 365.299 362.562C364.76 362.562 364.309 362.686 363.946 362.932C363.588 363.172 363.409 363.479 363.409 363.854C363.409 364.183 363.53 364.449 363.77 364.654C364.016 364.859 364.406 365.023 364.939 365.146L366.512 365.498C367.408 365.703 368.079 366.025 368.525 366.465C368.97 366.904 369.193 367.467 369.193 368.152C369.193 368.744 369.023 369.271 368.683 369.734C368.343 370.191 367.871 370.552 367.268 370.815C366.664 371.073 365.967 371.202 365.176 371.202C364.074 371.202 363.178 370.965 362.487 370.49C361.795 370.016 361.37 369.348 361.212 368.486L363.049 368.205C363.166 368.686 363.404 369.049 363.761 369.295C364.124 369.541 364.593 369.664 365.167 369.664C365.788 369.664 366.286 369.532 366.661 369.269C367.042 369.005 367.233 368.686 367.233 368.311C367.233 367.689 366.77 367.271 365.844 367.054L364.183 366.685C363.263 366.474 362.583 366.143 362.144 365.691C361.71 365.234 361.493 364.66 361.493 363.969C361.493 363.389 361.655 362.879 361.977 362.439C362.305 362 362.753 361.66 363.322 361.42C363.896 361.174 364.549 361.051 365.282 361.051C366.348 361.051 367.183 361.282 367.786 361.745C368.396 362.208 368.8 362.82 368.999 363.582ZM376.391 366.939V361.174H378.29V371H376.426V369.295H376.321C376.087 369.816 375.723 370.253 375.231 370.604C374.739 370.956 374.124 371.129 373.385 371.123C372.753 371.123 372.193 370.985 371.707 370.71C371.226 370.435 370.848 370.021 370.573 369.471C370.303 368.92 370.169 368.237 370.169 367.423V361.174H372.067V367.203C372.067 367.865 372.255 368.396 372.63 368.794C373.005 369.192 373.488 369.389 374.08 369.383C374.437 369.383 374.792 369.295 375.143 369.119C375.501 368.943 375.797 368.674 376.031 368.311C376.271 367.947 376.391 367.49 376.391 366.939ZM382.605 371.211C381.984 371.211 381.422 371.097 380.918 370.868C380.414 370.634 380.016 370.294 379.723 369.849C379.43 369.403 379.283 368.861 379.283 368.223C379.283 367.666 379.389 367.212 379.6 366.86C379.816 366.503 380.106 366.219 380.47 366.008C380.833 365.797 381.237 365.639 381.683 365.533C382.128 365.428 382.585 365.346 383.054 365.287C383.646 365.223 384.123 365.167 384.486 365.12C384.85 365.073 385.113 365 385.277 364.9C385.447 364.795 385.532 364.628 385.532 364.399V364.355C385.532 363.799 385.374 363.368 385.058 363.063C384.747 362.759 384.284 362.606 383.669 362.606C383.03 362.606 382.523 362.747 382.148 363.028C381.779 363.304 381.524 363.617 381.384 363.969L379.582 363.556C379.799 362.958 380.112 362.478 380.522 362.114C380.938 361.745 381.413 361.476 381.946 361.306C382.485 361.136 383.048 361.051 383.634 361.051C384.026 361.051 384.442 361.098 384.882 361.191C385.321 361.279 385.734 361.446 386.121 361.692C386.514 361.933 386.833 362.278 387.079 362.729C387.325 363.181 387.448 363.764 387.448 364.479V371H385.576V369.655H385.506C385.389 369.896 385.204 370.136 384.952 370.376C384.706 370.616 384.39 370.815 384.003 370.974C383.616 371.132 383.15 371.211 382.605 371.211ZM383.019 369.682C383.552 369.682 384.006 369.579 384.381 369.374C384.756 369.163 385.043 368.888 385.242 368.548C385.441 368.208 385.541 367.848 385.541 367.467V366.192C385.471 366.257 385.339 366.318 385.146 366.377C384.952 366.436 384.732 366.485 384.486 366.526C384.24 366.567 384 366.605 383.766 366.641C383.531 366.67 383.335 366.693 383.177 366.711C382.808 366.764 382.471 366.846 382.166 366.957C381.861 367.062 381.615 367.221 381.428 367.432C381.246 367.637 381.155 367.909 381.155 368.249C381.155 368.724 381.331 369.081 381.683 369.321C382.034 369.562 382.479 369.682 383.019 369.682ZM390.824 357.904V371H388.925V357.904H390.824ZM18.9141 399.674V386.174H20.7598V387.773H20.918C21.0352 387.568 21.1963 387.331 21.4014 387.062C21.6123 386.792 21.9053 386.558 22.2803 386.358C22.6553 386.153 23.1445 386.051 23.748 386.051C24.5391 386.051 25.2422 386.25 25.8574 386.648C26.4785 387.047 26.9678 387.624 27.3252 388.38C27.6826 389.136 27.8613 390.047 27.8613 391.113C27.8613 392.168 27.6855 393.076 27.334 393.838C26.9824 394.594 26.4961 395.177 25.875 395.587C25.2598 395.991 24.5537 396.193 23.7568 396.193C23.165 396.193 22.6787 396.094 22.2979 395.895C21.9229 395.689 21.627 395.452 21.4102 395.183C21.1992 394.913 21.0352 394.676 20.918 394.471H20.8125V399.674H18.9141ZM23.3438 394.567C23.9121 394.567 24.3867 394.415 24.7676 394.11C25.1484 393.806 25.4355 393.393 25.6289 392.871C25.8281 392.344 25.9277 391.752 25.9277 391.096C25.9277 390.445 25.8311 389.862 25.6377 389.347C25.4443 388.831 25.1572 388.424 24.7764 388.125C24.3955 387.826 23.918 387.677 23.3438 387.677C22.7871 387.677 22.3184 387.82 21.9375 388.107C21.5566 388.389 21.2666 388.787 21.0674 389.303C20.874 389.812 20.7773 390.41 20.7773 391.096C20.7773 391.781 20.877 392.385 21.0762 392.906C21.2754 393.428 21.5654 393.835 21.9463 394.128C22.333 394.421 22.7988 394.567 23.3438 394.567ZM28.89 396V386.174H30.7884V396H28.89ZM29.848 384.662C29.514 384.662 29.2298 384.551 28.9955 384.328C28.7611 384.105 28.6439 383.839 28.6439 383.528C28.6439 383.212 28.7611 382.942 28.9955 382.72C29.2298 382.497 29.514 382.386 29.848 382.386C30.1761 382.386 30.4574 382.497 30.6918 382.72C30.932 382.942 31.0521 383.212 31.0521 383.528C31.0521 383.839 30.932 384.105 30.6918 384.328C30.4574 384.551 30.1761 384.662 29.848 384.662ZM32.2566 399.674V386.174H34.1023V387.773H34.2605C34.3777 387.568 34.5388 387.331 34.7439 387.062C34.9548 386.792 35.2478 386.558 35.6228 386.358C35.9978 386.153 36.487 386.051 37.0905 386.051C37.8816 386.051 38.5847 386.25 39.1999 386.648C39.821 387.047 40.3103 387.624 40.6677 388.38C41.0251 389.136 41.2038 390.047 41.2038 391.113C41.2038 392.168 41.028 393.076 40.6765 393.838C40.3249 394.594 39.8386 395.177 39.2175 395.587C38.6023 395.991 37.8962 396.193 37.0993 396.193C36.5075 396.193 36.0212 396.094 35.6404 395.895C35.2654 395.689 34.9695 395.452 34.7527 395.183C34.5417 394.913 34.3777 394.676 34.2605 394.471H34.155V399.674H32.2566ZM36.6862 394.567C37.2546 394.567 37.7292 394.415 38.1101 394.11C38.4909 393.806 38.778 393.393 38.9714 392.871C39.1706 392.344 39.2702 391.752 39.2702 391.096C39.2702 390.445 39.1736 389.862 38.9802 389.347C38.7868 388.831 38.4997 388.424 38.1189 388.125C37.738 387.826 37.2605 387.677 36.6862 387.677C36.1296 387.677 35.6609 387.82 35.28 388.107C34.8991 388.389 34.6091 388.787 34.4099 389.303C34.2165 389.812 34.1198 390.41 34.1198 391.096C34.1198 391.781 34.2195 392.385 34.4187 392.906C34.6179 393.428 34.9079 393.835 35.2888 394.128C35.6755 394.421 36.1413 394.567 36.6862 394.567ZM46.46 396.202C45.4991 396.202 44.6671 395.994 43.9639 395.578C43.2608 395.162 42.7188 394.576 42.338 393.82C41.963 393.059 41.7755 392.171 41.7755 391.157C41.7755 390.149 41.96 389.262 42.3292 388.494C42.7042 387.727 43.2286 387.129 43.9024 386.701C44.5821 386.268 45.379 386.051 46.293 386.051C46.8497 386.051 47.3888 386.142 47.9102 386.323C48.4317 386.505 48.9005 386.792 49.3165 387.185C49.7325 387.577 50.0606 388.087 50.3009 388.714C50.547 389.341 50.67 390.097 50.67 390.981V391.667H42.8565V390.234H49.6856L48.7979 390.709C48.7979 390.105 48.7042 389.572 48.5167 389.109C48.3292 388.646 48.0479 388.286 47.6729 388.028C47.3038 387.765 46.8438 387.633 46.293 387.633C45.7423 387.633 45.2706 387.765 44.878 388.028C44.4913 388.292 44.1954 388.641 43.9903 389.074C43.7852 389.508 43.6827 389.982 43.6827 390.498V391.474C43.6827 392.147 43.7999 392.719 44.0343 393.188C44.2686 393.656 44.5938 394.014 45.0098 394.26C45.4317 394.506 45.921 394.629 46.4776 394.629C46.8409 394.629 47.169 394.576 47.462 394.471C47.7608 394.365 48.0186 394.207 48.2354 393.996C48.4522 393.785 48.6163 393.524 48.7276 393.214L50.5382 393.557C50.3917 394.084 50.1339 394.547 49.7647 394.945C49.3956 395.344 48.9298 395.654 48.3673 395.877C47.8106 396.094 47.1749 396.202 46.46 396.202ZM53.5444 382.904V396H51.6459V382.904H53.5444ZM55.0125 396V386.174H56.9109V396H55.0125ZM55.9705 384.662C55.6365 384.662 55.3523 384.551 55.118 384.328C54.8836 384.105 54.7664 383.839 54.7664 383.528C54.7664 383.212 54.8836 382.942 55.118 382.72C55.3523 382.497 55.6365 382.386 55.9705 382.386C56.2986 382.386 56.5799 382.497 56.8143 382.72C57.0545 382.942 57.1746 383.212 57.1746 383.528C57.1746 383.839 57.0545 384.105 56.8143 384.328C56.5799 384.551 56.2986 384.662 55.9705 384.662ZM60.2775 390.173V396H58.3791V386.174H60.2248V387.791H60.3566C60.5793 387.258 60.9279 386.836 61.4025 386.525C61.8771 386.209 62.4865 386.051 63.2306 386.051C63.8986 386.051 64.4816 386.191 64.9796 386.473C65.4836 386.748 65.8732 387.161 66.1486 387.712C66.4298 388.263 66.5705 388.945 66.5705 389.76V396H64.672V389.988C64.672 389.279 64.4845 388.723 64.1095 388.318C63.7345 387.908 63.2248 387.703 62.5802 387.703C62.1408 387.703 61.7453 387.803 61.3937 388.002C61.048 388.195 60.7755 388.474 60.5763 388.837C60.3771 389.2 60.2775 389.646 60.2775 390.173ZM72.2661 396.202C71.3052 396.202 70.4732 395.994 69.77 395.578C69.0669 395.162 68.5249 394.576 68.1441 393.82C67.7691 393.059 67.5816 392.171 67.5816 391.157C67.5816 390.149 67.7661 389.262 68.1353 388.494C68.5103 387.727 69.0347 387.129 69.7085 386.701C70.3882 386.268 71.1851 386.051 72.0991 386.051C72.6558 386.051 73.1948 386.142 73.7163 386.323C74.2378 386.505 74.7066 386.792 75.1226 387.185C75.5386 387.577 75.8667 388.087 76.107 388.714C76.353 389.341 76.4761 390.097 76.4761 390.981V391.667H68.6626V390.234H75.4917L74.604 390.709C74.604 390.105 74.5103 389.572 74.3228 389.109C74.1353 388.646 73.854 388.286 73.479 388.028C73.1099 387.765 72.6499 387.633 72.0991 387.633C71.5484 387.633 71.0767 387.765 70.6841 388.028C70.2974 388.292 70.0015 388.641 69.7964 389.074C69.5913 389.508 69.4888 389.982 69.4888 390.498V391.474C69.4888 392.147 69.606 392.719 69.8404 393.188C70.0747 393.656 70.3999 394.014 70.8159 394.26C71.2378 394.506 71.7271 394.629 72.2837 394.629C72.647 394.629 72.9751 394.576 73.2681 394.471C73.5669 394.365 73.8247 394.207 74.0415 393.996C74.2583 393.785 74.4224 393.524 74.5337 393.214L76.3443 393.557C76.1978 394.084 75.94 394.547 75.5708 394.945C75.2017 395.344 74.7359 395.654 74.1734 395.877C73.6167 396.094 72.981 396.202 72.2661 396.202ZM84.7997 388.582L83.0682 388.881C82.9569 388.553 82.7489 388.251 82.4442 387.976C82.1454 387.7 81.6971 387.562 81.0995 387.562C80.5604 387.562 80.1093 387.686 79.746 387.932C79.3886 388.172 79.2098 388.479 79.2098 388.854C79.2098 389.183 79.33 389.449 79.5702 389.654C79.8163 389.859 80.2059 390.023 80.7391 390.146L82.3124 390.498C83.2089 390.703 83.8798 391.025 84.3251 391.465C84.7704 391.904 84.993 392.467 84.993 393.152C84.993 393.744 84.8231 394.271 84.4833 394.734C84.1434 395.191 83.6718 395.552 83.0682 395.815C82.4647 396.073 81.7675 396.202 80.9764 396.202C79.8749 396.202 78.9784 395.965 78.287 395.49C77.5956 395.016 77.1708 394.348 77.0126 393.486L78.8495 393.205C78.9667 393.686 79.204 394.049 79.5614 394.295C79.9247 394.541 80.3934 394.664 80.9677 394.664C81.5887 394.664 82.0868 394.532 82.4618 394.269C82.8427 394.005 83.0331 393.686 83.0331 393.311C83.0331 392.689 82.5702 392.271 81.6444 392.054L79.9833 391.685C79.0634 391.474 78.3837 391.143 77.9442 390.691C77.5106 390.234 77.2938 389.66 77.2938 388.969C77.2938 388.389 77.455 387.879 77.7772 387.439C78.1054 387 78.5536 386.66 79.122 386.42C79.6962 386.174 80.3495 386.051 81.0819 386.051C82.1483 386.051 82.9833 386.282 83.5868 386.745C84.1962 387.208 84.6005 387.82 84.7997 388.582ZM87.3928 396.123C87.0354 396.123 86.7307 396 86.4788 395.754C86.2327 395.508 86.1096 395.206 86.1096 394.849C86.1096 394.491 86.2327 394.189 86.4788 393.943C86.7307 393.697 87.0354 393.574 87.3928 393.574C87.7502 393.574 88.052 393.697 88.2981 393.943C88.55 394.189 88.676 394.491 88.676 394.849C88.676 395.206 88.55 395.508 88.2981 395.754C88.052 396 87.7502 396.123 87.3928 396.123Z" fill="#AAAAAA"/>
<path d="M306.627 18.977C315.278 18.2201 322.933 24.6434 323.69 33.2943C324.447 41.9453 318.024 49.6002 309.373 50.3571C300.722 51.114 293.067 44.6907 292.31 36.0397C291.553 27.3888 297.976 19.7338 306.627 18.977ZM308.392 39.1499C306.771 39.2917 304.391 39.6909 302.353 40.5272C300.352 41.3485 298.481 42.6786 298.262 44.7877L298.236 45.0389L298.422 45.2089C299.784 46.4502 301.374 47.4143 303.102 48.0482L303.45 48.1697C305.195 48.7593 307.038 49.0036 308.875 48.89L309.242 48.8628C311.2 48.6923 313.102 48.1172 314.827 47.1743C316.552 46.2314 318.062 44.941 319.263 43.3846L319.417 43.1849L319.347 42.9419C318.765 40.9035 316.691 39.9189 314.578 39.4576C312.426 38.988 310.013 39.0081 308.392 39.1499ZM307.349 25.4386C305.731 25.5802 304.235 26.3588 303.191 27.6032C302.147 28.8476 301.64 30.4559 301.782 32.0741C301.881 33.2056 302.292 34.2854 302.968 35.1945L303.106 35.3745C303.817 36.2602 304.76 36.9295 305.827 37.3099L306.042 37.3822C307.125 37.7236 308.28 37.7569 309.378 37.4804L309.598 37.4201C310.688 37.1022 311.667 36.4884 312.427 35.6482L312.575 35.4774C313.305 34.6075 313.778 33.553 313.943 32.4325L313.971 32.2075C314.095 31.0785 313.902 29.9387 313.417 28.9152L313.317 28.7122C312.792 27.7049 311.998 26.8647 311.026 26.2835L310.83 26.1703C309.768 25.5876 308.556 25.333 307.349 25.4386Z" fill="#CCCCCC" stroke="#080035"/>
<path d="M327.04 33.644C335.691 34.4009 342.114 42.0558 341.357 50.7068C340.601 59.3577 332.946 65.781 324.295 65.0241C315.644 64.2673 309.22 56.6123 309.977 47.9614C310.734 39.3104 318.389 32.8871 327.04 33.644ZM325.275 53.8169C323.654 53.6751 321.241 53.6549 319.089 54.1247C316.976 54.586 314.902 55.571 314.32 57.61L314.251 57.8529L314.405 58.0526C315.53 59.5116 316.928 60.7371 318.52 61.6613L318.841 61.8414C320.458 62.7252 322.23 63.2858 324.059 63.4929L324.425 63.5298C326.384 63.702 328.357 63.4659 330.219 62.8368C332.081 62.2077 333.793 61.1992 335.245 59.8749L335.432 59.705L335.405 59.4537C335.186 57.3452 333.315 56.0154 331.314 55.1942C329.276 54.358 326.896 53.9587 325.275 53.8169ZM326.629 40.1329C325.011 39.9913 323.403 40.4983 322.158 41.5425C320.914 42.5867 320.135 44.0825 319.994 45.7007C319.895 46.8322 320.113 47.9671 320.62 48.9798L320.725 49.1811C321.272 50.1767 322.083 50.9995 323.068 51.5593L323.267 51.6679C324.275 52.1922 325.407 52.4256 326.536 52.3441L326.763 52.3227C327.892 52.199 328.962 51.7645 329.856 51.069L330.033 50.9266C330.902 50.1967 331.551 49.2404 331.908 48.1655L331.975 47.9489C332.293 46.8585 332.301 45.7025 332.001 44.6103L331.937 44.393C331.596 43.3098 330.96 42.3446 330.103 41.6034L329.93 41.4578C328.985 40.6995 327.836 40.2385 326.629 40.1329Z" fill="#CCCCCC" stroke="#080035"/>
<path d="M300.294 40.644C308.945 39.8871 316.6 46.3103 317.357 54.9613C318.114 63.6123 311.691 71.2672 303.04 72.0241C294.389 72.7809 286.734 66.3577 285.977 57.7067C285.22 49.0558 291.643 41.4008 300.294 40.644ZM302.059 60.8169C300.438 60.9587 298.058 61.3579 296.02 62.1941C294.019 63.0155 292.148 64.3456 291.929 66.4546L291.903 66.7059L292.089 66.8759C293.451 68.1172 295.041 69.0813 296.769 69.7152L297.117 69.8367C298.862 70.4263 300.705 70.6706 302.542 70.557L302.909 70.5298C304.867 70.3593 306.769 69.7842 308.494 68.8413C310.219 67.8984 311.729 66.608 312.93 65.0516L313.084 64.8519L313.014 64.6089C312.432 62.5705 310.358 61.5859 308.245 61.1246C306.093 60.655 303.68 60.6751 302.059 60.8169ZM301.016 47.1056C299.398 47.2472 297.902 48.0258 296.858 49.2702C295.814 50.5146 295.307 52.1229 295.449 53.7411C295.548 54.8726 295.959 55.9524 296.635 56.8615L296.773 57.0415C297.484 57.9271 298.427 58.5965 299.494 58.9769L299.709 59.0492C300.792 59.3906 301.947 59.4239 303.045 59.1474L303.265 59.0871C304.355 58.7692 305.334 58.1554 306.094 57.3152L306.242 57.1444C306.972 56.2745 307.445 55.22 307.61 54.0995L307.638 53.8745C307.762 52.7455 307.569 51.6057 307.084 50.5822L306.984 50.3792C306.459 49.3719 305.665 48.5317 304.693 47.9505L304.497 47.8373C303.435 47.2546 302.223 47 301.016 47.1056Z" fill="#CCCCCC" stroke="#080035"/>
<path d="M355.627 113.977C364.278 113.22 371.933 119.643 372.69 128.294C373.447 136.945 367.024 144.6 358.373 145.357C349.722 146.114 342.067 139.691 341.31 131.04C340.553 122.389 346.976 114.734 355.627 113.977ZM357.392 134.15C355.771 134.292 353.391 134.691 351.353 135.527C349.352 136.349 347.481 137.679 347.262 139.788L347.236 140.039L347.422 140.209C348.784 141.45 350.374 142.414 352.102 143.048L352.45 143.17C354.195 143.759 356.038 144.004 357.875 143.89L358.242 143.863C360.2 143.692 362.102 143.117 363.827 142.174C365.552 141.231 367.062 139.941 368.263 138.385L368.417 138.185L368.347 137.942C367.765 135.903 365.691 134.919 363.578 134.458C361.426 133.988 359.013 134.008 357.392 134.15ZM356.349 120.439C354.731 120.58 353.235 121.359 352.191 122.603C351.147 123.848 350.64 125.456 350.782 127.074C350.881 128.206 351.292 129.285 351.968 130.194L352.106 130.375C352.817 131.26 353.76 131.93 354.827 132.31L355.042 132.382C356.125 132.724 357.28 132.757 358.378 132.48L358.598 132.42C359.688 132.102 360.667 131.488 361.427 130.648L361.575 130.477C362.305 129.608 362.778 128.553 362.943 127.433L362.971 127.208C363.095 126.079 362.902 124.939 362.417 123.915L362.317 123.712C361.792 122.705 360.998 121.865 360.026 121.284L359.83 121.17C358.768 120.588 357.556 120.333 356.349 120.439Z" fill="#CCCCCC" stroke="#080035"/>
<path d="M376.04 128.644C384.691 129.401 391.114 137.056 390.357 145.707C389.601 154.358 381.946 160.781 373.295 160.024C364.644 159.267 358.22 151.612 358.977 142.961C359.734 134.31 367.389 127.887 376.04 128.644ZM374.275 148.817C372.654 148.675 370.241 148.655 368.089 149.125C365.976 149.586 363.902 150.571 363.32 152.61L363.251 152.853L363.405 153.053C364.53 154.512 365.928 155.737 367.52 156.661L367.841 156.841C369.458 157.725 371.23 158.286 373.059 158.493L373.425 158.53C375.384 158.702 377.357 158.466 379.219 157.837C381.081 157.208 382.793 156.199 384.245 154.875L384.432 154.705L384.405 154.454C384.186 152.345 382.315 151.015 380.314 150.194C378.276 149.358 375.896 148.959 374.275 148.817ZM375.629 135.133C374.011 134.991 372.403 135.498 371.158 136.543C369.914 137.587 369.135 139.082 368.994 140.701C368.895 141.832 369.113 142.967 369.62 143.98L369.725 144.181C370.272 145.177 371.083 146 372.068 146.559L372.267 146.668C373.275 147.192 374.407 147.426 375.536 147.344L375.763 147.323C376.892 147.199 377.962 146.765 378.856 146.069L379.033 145.927C379.902 145.197 380.551 144.24 380.908 143.166L380.975 142.949C381.293 141.858 381.301 140.702 381.001 139.61L380.937 139.393C380.596 138.31 379.96 137.345 379.103 136.603L378.93 136.458C377.985 135.7 376.836 135.238 375.629 135.133Z" fill="#CCCCCC" stroke="#080035"/>
<path d="M349.294 135.644C357.945 134.887 365.6 141.31 366.357 149.961C367.114 158.612 360.691 166.267 352.04 167.024C343.389 167.781 335.734 161.358 334.977 152.707C334.22 144.056 340.643 136.401 349.294 135.644ZM351.059 155.817C349.438 155.959 347.058 156.358 345.02 157.194C343.019 158.015 341.148 159.346 340.929 161.455L340.903 161.706L341.089 161.876C342.451 163.117 344.041 164.081 345.769 164.715L346.117 164.837C347.862 165.426 349.705 165.671 351.542 165.557L351.909 165.53C353.867 165.359 355.769 164.784 357.494 163.841C359.219 162.898 360.729 161.608 361.93 160.052L362.084 159.852L362.014 159.609C361.432 157.57 359.358 156.586 357.245 156.125C355.093 155.655 352.68 155.675 351.059 155.817ZM350.016 142.106C348.398 142.247 346.902 143.026 345.858 144.27C344.814 145.515 344.307 147.123 344.449 148.741C344.548 149.873 344.959 150.952 345.635 151.861L345.773 152.042C346.484 152.927 347.427 153.597 348.494 153.977L348.709 154.049C349.792 154.391 350.947 154.424 352.045 154.147L352.265 154.087C353.355 153.769 354.334 153.155 355.094 152.315L355.242 152.144C355.972 151.275 356.445 150.22 356.61 149.1L356.638 148.875C356.762 147.746 356.569 146.606 356.084 145.582L355.984 145.379C355.459 144.372 354.665 143.532 353.693 142.95L353.497 142.837C352.435 142.255 351.223 142 350.016 142.106Z" fill="#CCCCCC" stroke="#080035"/>
<path d="M298.627 207.977C307.278 207.22 314.933 213.643 315.69 222.294C316.447 230.945 310.024 238.6 301.373 239.357C292.722 240.114 285.067 233.691 284.31 225.04C283.553 216.389 289.976 208.734 298.627 207.977ZM300.392 228.15C298.771 228.292 296.391 228.691 294.353 229.527C292.352 230.349 290.481 231.679 290.262 233.788L290.236 234.039L290.422 234.209C291.784 235.45 293.374 236.414 295.102 237.048L295.45 237.17C297.195 237.759 299.038 238.004 300.875 237.89L301.242 237.863C303.2 237.692 305.102 237.117 306.827 236.174C308.552 235.231 310.062 233.941 311.263 232.385L311.417 232.185L311.347 231.942C310.765 229.903 308.691 228.919 306.578 228.458C304.426 227.988 302.013 228.008 300.392 228.15ZM299.349 214.439C297.731 214.58 296.235 215.359 295.191 216.603C294.147 217.848 293.64 219.456 293.782 221.074C293.881 222.206 294.292 223.285 294.968 224.194L295.106 224.375C295.817 225.26 296.76 225.93 297.827 226.31L298.042 226.382C299.125 226.724 300.28 226.757 301.378 226.48L301.598 226.42C302.688 226.102 303.667 225.488 304.427 224.648L304.575 224.477C305.305 223.608 305.778 222.553 305.943 221.433L305.971 221.208C306.095 220.079 305.902 218.939 305.417 217.915L305.317 217.712C304.792 216.705 303.998 215.865 303.026 215.284L302.83 215.17C301.768 214.588 300.556 214.333 299.349 214.439Z" fill="#CCCCCC" stroke="#080035"/>
<path d="M319.04 222.644C327.691 223.401 334.114 231.056 333.357 239.707C332.601 248.358 324.946 254.781 316.295 254.024C307.644 253.267 301.22 245.612 301.977 236.961C302.734 228.31 310.389 221.887 319.04 222.644ZM317.275 242.817C315.654 242.675 313.241 242.655 311.089 243.125C308.976 243.586 306.902 244.571 306.32 246.61L306.251 246.853L306.405 247.053C307.53 248.512 308.928 249.737 310.52 250.661L310.841 250.841C312.458 251.725 314.23 252.286 316.059 252.493L316.425 252.53C318.384 252.702 320.357 252.466 322.219 251.837C324.081 251.208 325.793 250.199 327.245 248.875L327.432 248.705L327.405 248.454C327.186 246.345 325.315 245.015 323.314 244.194C321.276 243.358 318.896 242.959 317.275 242.817ZM318.629 229.133C317.011 228.991 315.403 229.498 314.158 230.543C312.914 231.587 312.135 233.082 311.994 234.701C311.895 235.832 312.113 236.967 312.62 237.98L312.725 238.181C313.272 239.177 314.083 240 315.068 240.559L315.267 240.668C316.275 241.192 317.407 241.426 318.536 241.344L318.763 241.323C319.892 241.199 320.962 240.765 321.856 240.069L322.033 239.927C322.902 239.197 323.551 238.24 323.908 237.166L323.975 236.949C324.293 235.858 324.301 234.702 324.001 233.61L323.937 233.393C323.596 232.31 322.96 231.345 322.103 230.603L321.93 230.458C320.985 229.7 319.836 229.238 318.629 229.133Z" fill="#CCCCCC" stroke="#080035"/>
<path d="M292.294 229.644C300.945 228.887 308.6 235.31 309.357 243.961C310.114 252.612 303.691 260.267 295.04 261.024C286.389 261.781 278.734 255.358 277.977 246.707C277.22 238.056 283.643 230.401 292.294 229.644ZM294.059 249.817C292.438 249.959 290.058 250.358 288.02 251.194C286.019 252.015 284.148 253.346 283.929 255.455L283.903 255.706L284.089 255.876C285.451 257.117 287.041 258.081 288.769 258.715L289.117 258.837C290.862 259.426 292.705 259.671 294.542 259.557L294.909 259.53C296.867 259.359 298.769 258.784 300.494 257.841C302.219 256.898 303.729 255.608 304.93 254.052L305.084 253.852L305.014 253.609C304.432 251.57 302.358 250.586 300.245 250.125C298.093 249.655 295.68 249.675 294.059 249.817ZM293.016 236.106C291.398 236.247 289.902 237.026 288.858 238.27C287.814 239.515 287.307 241.123 287.449 242.741C287.548 243.873 287.959 244.952 288.635 245.861L288.773 246.042C289.484 246.927 290.427 247.597 291.494 247.977L291.709 248.049C292.792 248.391 293.947 248.424 295.045 248.147L295.265 248.087C296.355 247.769 297.334 247.155 298.094 246.315L298.242 246.144C298.972 245.275 299.445 244.22 299.61 243.1L299.638 242.875C299.762 241.746 299.569 240.606 299.084 239.582L298.984 239.379C298.459 238.372 297.665 237.532 296.693 236.95L296.497 236.837C295.435 236.255 294.223 236 293.016 236.106Z" fill="#CCCCCC" stroke="#080035"/>
<g filter="url(#filter1_f_1809_1457)">
<path d="M169 120H153C151.939 120 150.922 120.421 150.172 121.172C149.421 121.922 149 122.939 149 124V156C149 158.2 150.8 160 153 160H177C179.2 160 181 158.2 181 156V132L169 120ZM170 153.8L165 151L160 154L161.4 148.4L157 144.6L162.8 144.2L165 138.8L167.2 144L173 144.4L168.6 148.2L170 153.8ZM167 134V123L178 134H167Z" fill="#40C2FF"/>
</g>
<path d="M169 120H153C151.939 120 150.922 120.421 150.172 121.172C149.421 121.922 149 122.939 149 124V156C149 158.2 150.8 160 153 160H177C179.2 160 181 158.2 181 156V132L169 120ZM170 153.8L165 151L160 154L161.4 148.4L157 144.6L162.8 144.2L165 138.8L167.2 144L173 144.4L168.6 148.2L170 153.8ZM167 134V123L178 134H167Z" fill="#40C2FF"/>
<path d="M192 139.5C191.724 139.5 191.5 139.724 191.5 140C191.5 140.276 191.724 140.5 192 140.5V139.5ZM277.354 45.8542C277.549 45.6589 277.549 45.3423 277.354 45.1471L274.172 41.9651C273.976 41.7698 273.66 41.7698 273.464 41.9651C273.269 42.1603 273.269 42.4769 273.464 42.6722L276.293 45.5006L273.464 48.329C273.269 48.5243 273.269 48.8409 273.464 49.0361C273.66 49.2314 273.976 49.2314 274.172 49.0361L277.354 45.8542ZM192 140.5H210.5V139.5H192V140.5ZM235 116V69.5006H234V116H235ZM258.5 46.0006H277V45.0006H258.5V46.0006ZM235 69.5006C235 56.5219 245.521 46.0006 258.5 46.0006V45.0006C244.969 45.0006 234 55.9696 234 69.5006H235ZM210.5 140.5C224.031 140.5 235 129.531 235 116H234C234 128.979 223.479 139.5 210.5 139.5V140.5Z" fill="#B3B3B3"/>
<path d="M192 139.5C191.724 139.5 191.5 139.724 191.5 140C191.5 140.276 191.724 140.5 192 140.5V139.5ZM269.354 234.854C269.549 234.659 269.549 234.342 269.354 234.147L266.172 230.965C265.976 230.77 265.66 230.77 265.464 230.965C265.269 231.16 265.269 231.477 265.464 231.672L268.293 234.501L265.464 237.329C265.269 237.524 265.269 237.841 265.464 238.036C265.66 238.231 265.976 238.231 266.172 238.036L269.354 234.854ZM192 140.5H206.5V139.5H192V140.5ZM230 164V210.501H231V164H230ZM254.5 235.001H269V234.001H254.5V235.001ZM230 210.501C230 224.031 240.969 235.001 254.5 235.001V234.001C241.521 234.001 231 223.479 231 210.501H230ZM206.5 140.5C219.479 140.5 230 151.021 230 164H231C231 150.469 220.031 139.5 206.5 139.5V140.5Z" fill="#B3B3B3"/>
<path d="M192 139.5C191.724 139.5 191.5 139.724 191.5 140C191.5 140.276 191.724 140.5 192 140.5V139.5ZM326.354 140.354C326.549 140.158 326.549 139.842 326.354 139.646L323.172 136.464C322.976 136.269 322.66 136.269 322.464 136.464C322.269 136.66 322.269 136.976 322.464 137.172L325.293 140L322.464 142.828C322.269 143.024 322.269 143.34 322.464 143.536C322.66 143.731 322.976 143.731 323.172 143.536L326.354 140.354ZM192 140.5H326V139.5H192V140.5Z" fill="#B3B3B3"/>
<path d="M161.317 114.959C157.094 103.292 149.464 93.2745 139.488 86.2961C129.512 79.3178 117.683 75.725 105.643 76.0164C93.6036 76.3078 81.9502 80.469 72.3002 87.9224C62.6503 95.3758 55.4824 105.752 51.7913 117.611L52.73 117.923C56.3583 106.266 63.4043 96.0665 72.8902 88.7398C82.3761 81.4132 93.8314 77.3227 105.666 77.0363C117.501 76.7498 129.129 80.2815 138.936 87.1412C148.742 94.0009 156.242 103.848 160.393 115.317L161.317 114.959Z" fill="#D9D9D9"/>
<path d="M161.317 167.041C157.094 178.708 149.464 188.726 139.488 195.704C129.512 202.682 117.683 206.275 105.643 205.984C93.6036 205.692 81.9502 201.531 72.3002 194.078C62.6503 186.624 55.4824 176.248 51.7913 164.389L52.73 164.077C56.3583 175.734 63.4043 185.933 72.8902 193.26C82.3761 200.587 93.8314 204.677 105.666 204.964C117.501 205.25 129.129 201.719 138.936 194.859C148.742 187.999 156.242 178.152 160.393 166.683L161.317 167.041Z" fill="#D9D9D9"/>
<path d="M37.9746 156V149.646L51.9424 132.93V132.758H38.4326V124H65.5095V131.041L52.8011 147.07V147.242H66.0247V156H37.9746Z" fill="#EFEFEF"/>
</g>
<defs>
<filter id="filter0_f_1809_1457" x="-106" y="-141" width="482" height="482" filterUnits="userSpaceOnUse" color-interpolation-filters="sRGB">
<feFlood flood-opacity="0" result="BackgroundImageFix"/>
<feBlend mode="normal" in="SourceGraphic" in2="BackgroundImageFix" result="shape"/>
<feGaussianBlur stdDeviation="75" result="effect1_foregroundBlur_1809_1457"/>
</filter>
<filter id="filter1_f_1809_1457" x="145" y="116" width="40" height="48" filterUnits="userSpaceOnUse" color-interpolation-filters="sRGB">
<feFlood flood-opacity="0" result="BackgroundImageFix"/>
<feBlend mode="normal" in="SourceGraphic" in2="BackgroundImageFix" result="shape"/>
<feGaussianBlur stdDeviation="2" result="effect1_foregroundBlur_1809_1457"/>
</filter>
<clipPath id="clip0_1809_1457">
<path d="M0 64C0 41.5979 0 30.3968 4.35974 21.8404C8.19467 14.3139 14.3139 8.19467 21.8404 4.35974C30.3968 0 41.5979 0 64 0H354C376.402 0 387.603 0 396.16 4.35974C403.686 8.19467 409.805 14.3139 413.64 21.8404C418 30.3968 418 41.5979 418 64V378C418 400.402 418 411.603 413.64 420.16C409.805 427.686 403.686 433.805 396.16 437.64C387.603 442 376.402 442 354 442H64C41.5979 442 30.3968 442 21.8404 437.64C14.3139 433.805 8.19467 427.686 4.35974 420.16C0 411.603 0 400.402 0 378V64Z" fill="white"/>
</clipPath>
</defs>
</svg>
