<svg width="371" height="301" viewBox="0 0 371 301" fill="none" xmlns="http://www.w3.org/2000/svg">
<mask id="mask0_2271_4076" style="mask-type:alpha" maskUnits="userSpaceOnUse" x="-72" y="-101" width="402" height="402">
<path d="M1.72656 -100V300" stroke="#B3B3B3" stroke-opacity="0.27"/>
<path d="M38.0908 -100V300" stroke="#B3B3B3" stroke-opacity="0.27"/>
<path d="M74.4541 -100V300" stroke="#B3B3B3" stroke-opacity="0.27"/>
<path d="M110.818 -100V300" stroke="#B3B3B3" stroke-opacity="0.27"/>
<path d="M147.182 -100V300" stroke="#B3B3B3" stroke-opacity="0.27"/>
<path d="M183.545 -100V300" stroke="#B3B3B3" stroke-opacity="0.27"/>
<path d="M219.909 -100V300" stroke="#B3B3B3" stroke-opacity="0.27"/>
<path d="M256.272 -100V300" stroke="#B3B3B3" stroke-opacity="0.27"/>
<path d="M292.637 -100V300" stroke="#B3B3B3" stroke-opacity="0.27"/>
<path d="M329 -100V300" stroke="#B3B3B3" stroke-opacity="0.27"/>
<path d="M-71 9.09082H329" stroke="#B3B3B3" stroke-opacity="0.27"/>
<path d="M-71 45.4546H329" stroke="#B3B3B3" stroke-opacity="0.27"/>
<path d="M-71 81.8181H329" stroke="#B3B3B3" stroke-opacity="0.27"/>
<path d="M-71 118.182H329" stroke="#B3B3B3" stroke-opacity="0.27"/>
<path d="M-71 154.545H329" stroke="#B3B3B3" stroke-opacity="0.27"/>
<path d="M-71 190.909H329" stroke="#B3B3B3" stroke-opacity="0.27"/>
<path d="M-71 227.273H329" stroke="#B3B3B3" stroke-opacity="0.27"/>
<path d="M-71 263.636H329" stroke="#B3B3B3" stroke-opacity="0.27"/>
<path d="M-71 300H329" stroke="#B3B3B3" stroke-opacity="0.27"/>
</mask>
<g mask="url(#mask0_2271_4076)">
<g filter="url(#filter0_f_2271_4076)">
<circle cx="135" cy="100" r="91" fill="#40C2FF"/>
</g>
</g>
<g filter="url(#filter1_f_2271_4076)">
<path d="M126.497 146.736L136.265 226.672C136.539 229.004 137.661 231.154 139.417 232.712C141.173 234.271 143.44 235.129 145.788 235.125H271.227C273.575 235.129 275.842 234.271 277.598 232.712C279.354 231.154 280.476 229.004 280.75 226.672L290.505 146.736C290.572 146.161 290.517 145.578 290.343 145.026C290.169 144.474 289.88 143.964 289.496 143.532C289.111 143.099 288.639 142.753 288.11 142.516C287.582 142.279 287.009 142.156 286.43 142.156H130.571C129.992 142.156 129.419 142.279 128.891 142.516C128.363 142.753 127.891 143.099 127.506 143.532C127.121 143.964 126.832 144.474 126.658 145.026C126.484 145.578 126.429 146.161 126.497 146.736ZM279.594 124.383C279.594 121.845 278.586 119.41 276.791 117.616C274.997 115.821 272.562 114.812 270.024 114.812H204.686L188.28 103.875H146.977C144.439 103.875 142.005 104.883 140.21 106.678C138.415 108.473 137.407 110.907 137.407 113.445V131.219H279.594V124.383Z" fill="black"/>
<path d="M126.497 146.736L136.265 226.672C136.539 229.004 137.661 231.154 139.417 232.712C141.173 234.271 143.44 235.129 145.788 235.125H271.227C273.575 235.129 275.842 234.271 277.598 232.712C279.354 231.154 280.476 229.004 280.75 226.672L290.505 146.736C290.572 146.161 290.517 145.578 290.343 145.026C290.169 144.474 289.88 143.964 289.496 143.532C289.111 143.099 288.639 142.753 288.11 142.516C287.582 142.279 287.009 142.156 286.43 142.156H130.571C129.992 142.156 129.419 142.279 128.891 142.516C128.363 142.753 127.891 143.099 127.506 143.532C127.121 143.964 126.832 144.474 126.658 145.026C126.484 145.578 126.429 146.161 126.497 146.736ZM279.594 124.383C279.594 121.845 278.586 119.41 276.791 117.616C274.997 115.821 272.562 114.812 270.024 114.812H204.686L188.28 103.875H146.977C144.439 103.875 142.005 104.883 140.21 106.678C138.415 108.473 137.407 110.907 137.407 113.445V131.219H279.594V124.383Z" fill="url(#paint0_linear_2271_4076)"/>
</g>
<path d="M126.497 146.736L136.265 226.672C136.539 229.004 137.661 231.154 139.417 232.712C141.173 234.271 143.44 235.129 145.788 235.125H271.227C273.575 235.129 275.842 234.271 277.598 232.712C279.354 231.154 280.476 229.004 280.75 226.672L290.505 146.736C290.572 146.161 290.517 145.578 290.343 145.026C290.169 144.474 289.88 143.964 289.496 143.532C289.111 143.099 288.639 142.753 288.11 142.516C287.582 142.279 287.009 142.156 286.43 142.156H130.571C129.992 142.156 129.419 142.279 128.891 142.516C128.363 142.753 127.891 143.099 127.506 143.532C127.121 143.964 126.832 144.474 126.658 145.026C126.484 145.578 126.429 146.161 126.497 146.736ZM279.594 124.383C279.594 121.845 278.586 119.41 276.791 117.616C274.997 115.821 272.562 114.812 270.024 114.812H204.686L188.28 103.875H146.977C144.439 103.875 142.005 104.883 140.21 106.678C138.415 108.473 137.407 110.907 137.407 113.445V131.219H279.594V124.383Z" fill="black"/>
<path d="M126.497 146.736L136.265 226.672C136.539 229.004 137.661 231.154 139.417 232.712C141.173 234.271 143.44 235.129 145.788 235.125H271.227C273.575 235.129 275.842 234.271 277.598 232.712C279.354 231.154 280.476 229.004 280.75 226.672L290.505 146.736C290.572 146.161 290.517 145.578 290.343 145.026C290.169 144.474 289.88 143.964 289.496 143.532C289.111 143.099 288.639 142.753 288.11 142.516C287.582 142.279 287.009 142.156 286.43 142.156H130.571C129.992 142.156 129.419 142.279 128.891 142.516C128.363 142.753 127.891 143.099 127.506 143.532C127.121 143.964 126.832 144.474 126.658 145.026C126.484 145.578 126.429 146.161 126.497 146.736ZM279.594 124.383C279.594 121.845 278.586 119.41 276.791 117.616C274.997 115.821 272.562 114.812 270.024 114.812H204.686L188.28 103.875H146.977C144.439 103.875 142.005 104.883 140.21 106.678C138.415 108.473 137.407 110.907 137.407 113.445V131.219H279.594V124.383Z" fill="url(#paint1_linear_2271_4076)"/>
<g filter="url(#filter2_f_2271_4076)">
<path d="M177.576 43.5708H169.373C168.627 43.5708 167.912 43.2745 167.384 42.747C166.857 42.2196 166.561 41.5042 166.561 40.7583V32.5552C166.561 32.493 166.536 32.4334 166.492 32.3894C166.448 32.3455 166.388 32.3208 166.326 32.3208H160.936C159.941 32.3208 158.987 32.7159 158.284 33.4192C157.581 34.1224 157.186 35.0762 157.186 36.0708V54.8208C157.186 55.8154 157.581 56.7692 158.284 57.4725C158.987 58.1757 159.941 58.5708 160.936 58.5708H174.061C175.055 58.5708 176.009 58.1757 176.712 57.4725C177.415 56.7692 177.811 55.8154 177.811 54.8208V43.8052C177.811 43.743 177.786 43.6834 177.742 43.6394C177.698 43.5955 177.638 43.5708 177.576 43.5708Z" fill="black"/>
<path d="M177.576 43.5708H169.373C168.627 43.5708 167.912 43.2745 167.384 42.747C166.857 42.2196 166.561 41.5042 166.561 40.7583V32.5552C166.561 32.493 166.536 32.4334 166.492 32.3894C166.448 32.3455 166.388 32.3208 166.326 32.3208H160.936C159.941 32.3208 158.987 32.7159 158.284 33.4192C157.581 34.1224 157.186 35.0762 157.186 36.0708V54.8208C157.186 55.8154 157.581 56.7692 158.284 57.4725C158.987 58.1757 159.941 58.5708 160.936 58.5708H174.061C175.055 58.5708 176.009 58.1757 176.712 57.4725C177.415 56.7692 177.811 55.8154 177.811 54.8208V43.8052C177.811 43.743 177.786 43.6834 177.742 43.6394C177.698 43.5955 177.638 43.5708 177.576 43.5708Z" fill="url(#paint2_linear_2271_4076)"/>
<path d="M177.062 41.496L168.635 33.0696C168.619 33.0533 168.598 33.0422 168.575 33.0377C168.553 33.0333 168.529 33.0356 168.508 33.0444C168.487 33.0532 168.468 33.0682 168.455 33.0874C168.443 33.1066 168.436 33.1291 168.436 33.1522V40.7583C168.436 41.0069 168.534 41.2454 168.71 41.4212C168.886 41.597 169.124 41.6958 169.373 41.6958H176.979C177.002 41.6957 177.025 41.6888 177.044 41.6759C177.063 41.663 177.078 41.6447 177.087 41.6234C177.096 41.602 177.098 41.5785 177.094 41.5559C177.089 41.5332 177.078 41.5124 177.062 41.496Z" fill="black"/>
<path d="M177.062 41.496L168.635 33.0696C168.619 33.0533 168.598 33.0422 168.575 33.0377C168.553 33.0333 168.529 33.0356 168.508 33.0444C168.487 33.0532 168.468 33.0682 168.455 33.0874C168.443 33.1066 168.436 33.1291 168.436 33.1522V40.7583C168.436 41.0069 168.534 41.2454 168.71 41.4212C168.886 41.597 169.124 41.6958 169.373 41.6958H176.979C177.002 41.6957 177.025 41.6888 177.044 41.6759C177.063 41.663 177.078 41.6447 177.087 41.6234C177.096 41.602 177.098 41.5785 177.094 41.5559C177.089 41.5332 177.078 41.5124 177.062 41.496Z" fill="url(#paint3_linear_2271_4076)"/>
</g>
<path d="M177.576 43.5708H169.373C168.627 43.5708 167.912 43.2745 167.384 42.747C166.857 42.2196 166.561 41.5042 166.561 40.7583V32.5552C166.561 32.493 166.536 32.4334 166.492 32.3894C166.448 32.3455 166.388 32.3208 166.326 32.3208H160.936C159.941 32.3208 158.987 32.7159 158.284 33.4192C157.581 34.1224 157.186 35.0762 157.186 36.0708V54.8208C157.186 55.8154 157.581 56.7692 158.284 57.4725C158.987 58.1757 159.941 58.5708 160.936 58.5708H174.061C175.055 58.5708 176.009 58.1757 176.712 57.4725C177.415 56.7692 177.811 55.8154 177.811 54.8208V43.8052C177.811 43.743 177.786 43.6834 177.742 43.6394C177.698 43.5955 177.638 43.5708 177.576 43.5708Z" fill="black"/>
<path d="M177.576 43.5708H169.373C168.627 43.5708 167.912 43.2745 167.384 42.747C166.857 42.2196 166.561 41.5042 166.561 40.7583V32.5552C166.561 32.493 166.536 32.4334 166.492 32.3894C166.448 32.3455 166.388 32.3208 166.326 32.3208H160.936C159.941 32.3208 158.987 32.7159 158.284 33.4192C157.581 34.1224 157.186 35.0762 157.186 36.0708V54.8208C157.186 55.8154 157.581 56.7692 158.284 57.4725C158.987 58.1757 159.941 58.5708 160.936 58.5708H174.061C175.055 58.5708 176.009 58.1757 176.712 57.4725C177.415 56.7692 177.811 55.8154 177.811 54.8208V43.8052C177.811 43.743 177.786 43.6834 177.742 43.6394C177.698 43.5955 177.638 43.5708 177.576 43.5708Z" fill="url(#paint4_linear_2271_4076)"/>
<path d="M177.062 41.496L168.635 33.0696C168.619 33.0533 168.598 33.0422 168.575 33.0377C168.553 33.0333 168.529 33.0356 168.508 33.0444C168.487 33.0532 168.468 33.0682 168.455 33.0874C168.443 33.1066 168.436 33.1291 168.436 33.1522V40.7583C168.436 41.0069 168.534 41.2454 168.71 41.4212C168.886 41.597 169.124 41.6958 169.373 41.6958H176.979C177.002 41.6957 177.025 41.6888 177.044 41.6759C177.063 41.663 177.078 41.6447 177.087 41.6234C177.096 41.602 177.098 41.5785 177.094 41.5559C177.089 41.5332 177.078 41.5124 177.062 41.496Z" fill="black"/>
<path d="M177.062 41.496L168.635 33.0696C168.619 33.0533 168.598 33.0422 168.575 33.0377C168.553 33.0333 168.529 33.0356 168.508 33.0444C168.487 33.0532 168.468 33.0682 168.455 33.0874C168.443 33.1066 168.436 33.1291 168.436 33.1522V40.7583C168.436 41.0069 168.534 41.2454 168.71 41.4212C168.886 41.597 169.124 41.6958 169.373 41.6958H176.979C177.002 41.6957 177.025 41.6888 177.044 41.6759C177.063 41.663 177.078 41.6447 177.087 41.6234C177.096 41.602 177.098 41.5785 177.094 41.5559C177.089 41.5332 177.078 41.5124 177.062 41.496Z" fill="url(#paint5_linear_2271_4076)"/>
<g filter="url(#filter3_f_2271_4076)">
<path d="M334.106 74.7453C333.064 73.6198 331.608 73 330.001 73C328.385 73 326.924 73.6161 325.886 74.7346C324.837 75.8655 324.326 77.4025 324.446 79.0621C324.684 82.3364 327.176 84.9999 330.001 84.9999C332.825 84.9999 335.313 82.3369 335.554 79.0632C335.676 77.4185 335.162 75.8848 334.106 74.7453ZM339.429 96.9999H320.572C320.325 97.0031 320.081 96.9512 319.856 96.8481C319.632 96.7449 319.434 96.5931 319.276 96.4036C318.927 95.9874 318.787 95.419 318.891 94.8442C319.343 92.336 320.754 90.229 322.972 88.7499C324.942 87.4369 327.438 86.7142 330.001 86.7142C332.563 86.7142 335.059 87.4374 337.029 88.7499C339.247 90.2285 340.658 92.3354 341.11 94.8436C341.214 95.4184 341.074 95.9868 340.725 96.4031C340.567 96.5927 340.369 96.7446 340.145 96.8478C339.92 96.9511 339.676 97.003 339.429 96.9999Z" fill="black"/>
<path d="M334.106 74.7453C333.064 73.6198 331.608 73 330.001 73C328.385 73 326.924 73.6161 325.886 74.7346C324.837 75.8655 324.326 77.4025 324.446 79.0621C324.684 82.3364 327.176 84.9999 330.001 84.9999C332.825 84.9999 335.313 82.3369 335.554 79.0632C335.676 77.4185 335.162 75.8848 334.106 74.7453ZM339.429 96.9999H320.572C320.325 97.0031 320.081 96.9512 319.856 96.8481C319.632 96.7449 319.434 96.5931 319.276 96.4036C318.927 95.9874 318.787 95.419 318.891 94.8442C319.343 92.336 320.754 90.229 322.972 88.7499C324.942 87.4369 327.438 86.7142 330.001 86.7142C332.563 86.7142 335.059 87.4374 337.029 88.7499C339.247 90.2285 340.658 92.3354 341.11 94.8436C341.214 95.4184 341.074 95.9868 340.725 96.4031C340.567 96.5927 340.369 96.7446 340.145 96.8478C339.92 96.9511 339.676 97.003 339.429 96.9999Z" fill="url(#paint6_linear_2271_4076)"/>
</g>
<path d="M334.106 74.7453C333.064 73.6198 331.608 73 330.001 73C328.385 73 326.924 73.6161 325.886 74.7346C324.837 75.8655 324.326 77.4025 324.446 79.0621C324.684 82.3364 327.176 84.9999 330.001 84.9999C332.825 84.9999 335.313 82.3369 335.554 79.0632C335.676 77.4185 335.162 75.8848 334.106 74.7453ZM339.429 96.9999H320.572C320.325 97.0031 320.081 96.9512 319.856 96.8481C319.632 96.7449 319.434 96.5931 319.276 96.4036C318.927 95.9874 318.787 95.419 318.891 94.8442C319.343 92.336 320.754 90.229 322.972 88.7499C324.942 87.4369 327.438 86.7142 330.001 86.7142C332.563 86.7142 335.059 87.4374 337.029 88.7499C339.247 90.2285 340.658 92.3354 341.11 94.8436C341.214 95.4184 341.074 95.9868 340.725 96.4031C340.567 96.5927 340.369 96.7446 340.145 96.8478C339.92 96.9511 339.676 97.003 339.429 96.9999Z" fill="black"/>
<path d="M334.106 74.7453C333.064 73.6198 331.608 73 330.001 73C328.385 73 326.924 73.6161 325.886 74.7346C324.837 75.8655 324.326 77.4025 324.446 79.0621C324.684 82.3364 327.176 84.9999 330.001 84.9999C332.825 84.9999 335.313 82.3369 335.554 79.0632C335.676 77.4185 335.162 75.8848 334.106 74.7453ZM339.429 96.9999H320.572C320.325 97.0031 320.081 96.9512 319.856 96.8481C319.632 96.7449 319.434 96.5931 319.276 96.4036C318.927 95.9874 318.787 95.419 318.891 94.8442C319.343 92.336 320.754 90.229 322.972 88.7499C324.942 87.4369 327.438 86.7142 330.001 86.7142C332.563 86.7142 335.059 87.4374 337.029 88.7499C339.247 90.2285 340.658 92.3354 341.11 94.8436C341.214 95.4184 341.074 95.9868 340.725 96.4031C340.567 96.5927 340.369 96.7446 340.145 96.8478C339.92 96.9511 339.676 97.003 339.429 96.9999Z" fill="url(#paint7_linear_2271_4076)"/>
<g filter="url(#filter4_f_2271_4076)">
<path d="M365.128 215.791C364.444 215.292 363.604 214.926 362.718 214.729C362.572 214.697 362.439 214.624 362.334 214.52C362.228 214.416 362.155 214.285 362.123 214.142C361.742 212.473 360.922 211.042 359.717 209.957C358.316 208.694 356.463 208 354.5 208C352.774 208 351.18 208.532 349.892 209.539C349.019 210.223 348.317 211.094 347.838 212.085C347.786 212.193 347.71 212.288 347.614 212.362C347.518 212.436 347.406 212.487 347.286 212.511C345.98 212.77 344.801 213.321 343.9 214.102C342.657 215.182 342 216.619 342 218.259C342 219.917 342.708 221.429 343.992 222.522C345.218 223.564 346.87 224.138 348.641 224.138H353.719V216.771L351.927 218.534C351.852 218.607 351.763 218.665 351.665 218.704C351.567 218.742 351.462 218.761 351.356 218.758C351.25 218.756 351.146 218.732 351.05 218.689C350.954 218.646 350.867 218.584 350.796 218.507C350.513 218.201 350.541 217.724 350.838 217.431L353.948 214.373C354.094 214.229 354.293 214.148 354.5 214.148C354.707 214.148 354.906 214.229 355.052 214.373L358.162 217.43C358.469 217.732 358.486 218.228 358.181 218.531C358.109 218.603 358.023 218.66 357.928 218.699C357.833 218.738 357.731 218.758 357.628 218.758C357.525 218.759 357.423 218.739 357.328 218.7C357.233 218.662 357.147 218.605 357.074 218.534L355.281 216.771V224.138H361.336C362.866 224.138 364.261 223.715 365.264 222.948C366.4 222.079 367 220.835 367 219.354C367 217.916 366.353 216.683 365.128 215.791ZM353.719 227.232C353.719 227.435 353.801 227.631 353.948 227.775C354.094 227.919 354.293 228 354.5 228C354.707 228 354.906 227.919 355.052 227.775C355.199 227.631 355.281 227.435 355.281 227.232V224.138H353.719V227.232Z" fill="black"/>
<path d="M365.128 215.791C364.444 215.292 363.604 214.926 362.718 214.729C362.572 214.697 362.439 214.624 362.334 214.52C362.228 214.416 362.155 214.285 362.123 214.142C361.742 212.473 360.922 211.042 359.717 209.957C358.316 208.694 356.463 208 354.5 208C352.774 208 351.18 208.532 349.892 209.539C349.019 210.223 348.317 211.094 347.838 212.085C347.786 212.193 347.71 212.288 347.614 212.362C347.518 212.436 347.406 212.487 347.286 212.511C345.98 212.77 344.801 213.321 343.9 214.102C342.657 215.182 342 216.619 342 218.259C342 219.917 342.708 221.429 343.992 222.522C345.218 223.564 346.87 224.138 348.641 224.138H353.719V216.771L351.927 218.534C351.852 218.607 351.763 218.665 351.665 218.704C351.567 218.742 351.462 218.761 351.356 218.758C351.25 218.756 351.146 218.732 351.05 218.689C350.954 218.646 350.867 218.584 350.796 218.507C350.513 218.201 350.541 217.724 350.838 217.431L353.948 214.373C354.094 214.229 354.293 214.148 354.5 214.148C354.707 214.148 354.906 214.229 355.052 214.373L358.162 217.43C358.469 217.732 358.486 218.228 358.181 218.531C358.109 218.603 358.023 218.66 357.928 218.699C357.833 218.738 357.731 218.758 357.628 218.758C357.525 218.759 357.423 218.739 357.328 218.7C357.233 218.662 357.147 218.605 357.074 218.534L355.281 216.771V224.138H361.336C362.866 224.138 364.261 223.715 365.264 222.948C366.4 222.079 367 220.835 367 219.354C367 217.916 366.353 216.683 365.128 215.791ZM353.719 227.232C353.719 227.435 353.801 227.631 353.948 227.775C354.094 227.919 354.293 228 354.5 228C354.707 228 354.906 227.919 355.052 227.775C355.199 227.631 355.281 227.435 355.281 227.232V224.138H353.719V227.232Z" fill="url(#paint8_linear_2271_4076)"/>
</g>
<path d="M364.954 215.791C364.282 215.292 363.456 214.926 362.584 214.729C362.44 214.697 362.309 214.624 362.206 214.52C362.102 214.416 362.03 214.285 361.998 214.142C361.623 212.473 360.817 211.042 359.632 209.957C358.254 208.694 356.432 208 354.5 208C352.803 208 351.234 208.532 349.968 209.539C349.11 210.223 348.419 211.094 347.948 212.085C347.897 212.193 347.821 212.288 347.727 212.362C347.632 212.436 347.522 212.487 347.405 212.511C346.12 212.77 344.96 213.321 344.074 214.102C342.852 215.182 342.205 216.619 342.205 218.259C342.205 219.917 342.901 221.429 344.164 222.522C345.371 223.564 346.995 224.138 348.737 224.138H353.732V216.771L351.97 218.534C351.896 218.607 351.808 218.665 351.712 218.704C351.615 218.742 351.512 218.761 351.408 218.758C351.304 218.756 351.201 218.732 351.107 218.689C351.012 218.646 350.927 218.584 350.857 218.507C350.579 218.201 350.606 217.724 350.898 217.431L353.957 214.373C354.101 214.229 354.297 214.148 354.5 214.148C354.704 214.148 354.899 214.229 355.044 214.373L358.102 217.43C358.404 217.732 358.421 218.228 358.121 218.531C358.05 218.603 357.965 218.66 357.872 218.699C357.779 218.738 357.678 218.758 357.577 218.758C357.476 218.759 357.376 218.739 357.282 218.7C357.189 218.662 357.104 218.605 357.032 218.534L355.269 216.771V224.138H361.224C362.73 224.138 364.102 223.715 365.088 222.948C366.205 222.079 366.796 220.835 366.796 219.354C366.796 217.916 366.159 216.683 364.954 215.791ZM353.732 227.232C353.732 227.435 353.813 227.631 353.957 227.775C354.101 227.919 354.297 228 354.5 228C354.704 228 354.9 227.919 355.044 227.775C355.188 227.631 355.269 227.435 355.269 227.232V224.138H353.732V227.232Z" fill="black"/>
<path d="M364.954 215.791C364.282 215.292 363.456 214.926 362.584 214.729C362.44 214.697 362.309 214.624 362.206 214.52C362.102 214.416 362.03 214.285 361.998 214.142C361.623 212.473 360.817 211.042 359.632 209.957C358.254 208.694 356.432 208 354.5 208C352.803 208 351.234 208.532 349.968 209.539C349.11 210.223 348.419 211.094 347.948 212.085C347.897 212.193 347.821 212.288 347.727 212.362C347.632 212.436 347.522 212.487 347.405 212.511C346.12 212.77 344.96 213.321 344.074 214.102C342.852 215.182 342.205 216.619 342.205 218.259C342.205 219.917 342.901 221.429 344.164 222.522C345.371 223.564 346.995 224.138 348.737 224.138H353.732V216.771L351.97 218.534C351.896 218.607 351.808 218.665 351.712 218.704C351.615 218.742 351.512 218.761 351.408 218.758C351.304 218.756 351.201 218.732 351.107 218.689C351.012 218.646 350.927 218.584 350.857 218.507C350.579 218.201 350.606 217.724 350.898 217.431L353.957 214.373C354.101 214.229 354.297 214.148 354.5 214.148C354.704 214.148 354.899 214.229 355.044 214.373L358.102 217.43C358.404 217.732 358.421 218.228 358.121 218.531C358.05 218.603 357.965 218.66 357.872 218.699C357.779 218.738 357.678 218.758 357.577 218.758C357.476 218.759 357.376 218.739 357.282 218.7C357.189 218.662 357.104 218.605 357.032 218.534L355.269 216.771V224.138H361.224C362.73 224.138 364.102 223.715 365.088 222.948C366.205 222.079 366.796 220.835 366.796 219.354C366.796 217.916 366.159 216.683 364.954 215.791ZM353.732 227.232C353.732 227.435 353.813 227.631 353.957 227.775C354.101 227.919 354.297 228 354.5 228C354.704 228 354.9 227.919 355.044 227.775C355.188 227.631 355.269 227.435 355.269 227.232V224.138H353.732V227.232Z" fill="url(#paint9_linear_2271_4076)"/>
<g filter="url(#filter5_f_2271_4076)">
<path d="M70.3125 165.625H67.5V164.688C67.4992 163.942 67.2027 163.227 66.6754 162.7C66.1481 162.172 65.4332 161.876 64.6875 161.875H55.3125C54.5668 161.876 53.8519 162.172 53.3246 162.7C52.7973 163.227 52.5008 163.942 52.5 164.688V165.625H49.6875C48.6933 165.626 47.7401 166.022 47.037 166.725C46.334 167.428 45.9386 168.381 45.9375 169.375V184.375C45.9375 185.37 46.3326 186.323 47.0358 187.027C47.7391 187.73 48.6929 188.125 49.6875 188.125H70.3125C71.3071 188.125 72.2609 187.73 72.9641 187.027C73.6674 186.323 74.0625 185.37 74.0625 184.375V169.375C74.0614 168.381 73.666 167.428 72.963 166.725C72.2599 166.022 71.3067 165.626 70.3125 165.625ZM64.6875 177.812H60.9375V181.562C60.9375 181.811 60.8387 182.05 60.6629 182.225C60.4871 182.401 60.2486 182.5 60 182.5C59.7514 182.5 59.5129 182.401 59.3371 182.225C59.1613 182.05 59.0625 181.811 59.0625 181.562V177.812H55.3125C55.0639 177.812 54.8254 177.714 54.6496 177.538C54.4738 177.362 54.375 177.124 54.375 176.875C54.375 176.626 54.4738 176.388 54.6496 176.212C54.8254 176.036 55.0639 175.938 55.3125 175.938H59.0625V172.188C59.0625 171.939 59.1613 171.7 59.3371 171.525C59.5129 171.349 59.7514 171.25 60 171.25C60.2486 171.25 60.4871 171.349 60.6629 171.525C60.8387 171.7 60.9375 171.939 60.9375 172.188V175.938H64.6875C64.9361 175.938 65.1746 176.036 65.3504 176.212C65.5262 176.388 65.625 176.626 65.625 176.875C65.625 177.124 65.5262 177.362 65.3504 177.538C65.1746 177.714 64.9361 177.812 64.6875 177.812ZM65.625 165.625H54.375V164.688C54.375 164.439 54.4738 164.2 54.6496 164.025C54.8254 163.849 55.0639 163.75 55.3125 163.75H64.6875C64.9361 163.75 65.1746 163.849 65.3504 164.025C65.5262 164.2 65.625 164.439 65.625 164.688V165.625Z" fill="black"/>
<path d="M70.3125 165.625H67.5V164.688C67.4992 163.942 67.2027 163.227 66.6754 162.7C66.1481 162.172 65.4332 161.876 64.6875 161.875H55.3125C54.5668 161.876 53.8519 162.172 53.3246 162.7C52.7973 163.227 52.5008 163.942 52.5 164.688V165.625H49.6875C48.6933 165.626 47.7401 166.022 47.037 166.725C46.334 167.428 45.9386 168.381 45.9375 169.375V184.375C45.9375 185.37 46.3326 186.323 47.0358 187.027C47.7391 187.73 48.6929 188.125 49.6875 188.125H70.3125C71.3071 188.125 72.2609 187.73 72.9641 187.027C73.6674 186.323 74.0625 185.37 74.0625 184.375V169.375C74.0614 168.381 73.666 167.428 72.963 166.725C72.2599 166.022 71.3067 165.626 70.3125 165.625ZM64.6875 177.812H60.9375V181.562C60.9375 181.811 60.8387 182.05 60.6629 182.225C60.4871 182.401 60.2486 182.5 60 182.5C59.7514 182.5 59.5129 182.401 59.3371 182.225C59.1613 182.05 59.0625 181.811 59.0625 181.562V177.812H55.3125C55.0639 177.812 54.8254 177.714 54.6496 177.538C54.4738 177.362 54.375 177.124 54.375 176.875C54.375 176.626 54.4738 176.388 54.6496 176.212C54.8254 176.036 55.0639 175.938 55.3125 175.938H59.0625V172.188C59.0625 171.939 59.1613 171.7 59.3371 171.525C59.5129 171.349 59.7514 171.25 60 171.25C60.2486 171.25 60.4871 171.349 60.6629 171.525C60.8387 171.7 60.9375 171.939 60.9375 172.188V175.938H64.6875C64.9361 175.938 65.1746 176.036 65.3504 176.212C65.5262 176.388 65.625 176.626 65.625 176.875C65.625 177.124 65.5262 177.362 65.3504 177.538C65.1746 177.714 64.9361 177.812 64.6875 177.812ZM65.625 165.625H54.375V164.688C54.375 164.439 54.4738 164.2 54.6496 164.025C54.8254 163.849 55.0639 163.75 55.3125 163.75H64.6875C64.9361 163.75 65.1746 163.849 65.3504 164.025C65.5262 164.2 65.625 164.439 65.625 164.688V165.625Z" fill="url(#paint10_linear_2271_4076)"/>
</g>
<path d="M70.3125 165.625H67.5V164.688C67.4992 163.942 67.2027 163.227 66.6754 162.7C66.1481 162.172 65.4332 161.876 64.6875 161.875H55.3125C54.5668 161.876 53.8519 162.172 53.3246 162.7C52.7973 163.227 52.5008 163.942 52.5 164.688V165.625H49.6875C48.6933 165.626 47.7401 166.022 47.037 166.725C46.334 167.428 45.9386 168.381 45.9375 169.375V184.375C45.9375 185.37 46.3326 186.323 47.0358 187.027C47.7391 187.73 48.6929 188.125 49.6875 188.125H70.3125C71.3071 188.125 72.2609 187.73 72.9641 187.027C73.6674 186.323 74.0625 185.37 74.0625 184.375V169.375C74.0614 168.381 73.666 167.428 72.963 166.725C72.2599 166.022 71.3067 165.626 70.3125 165.625ZM64.6875 177.812H60.9375V181.562C60.9375 181.811 60.8387 182.05 60.6629 182.225C60.4871 182.401 60.2486 182.5 60 182.5C59.7514 182.5 59.5129 182.401 59.3371 182.225C59.1613 182.05 59.0625 181.811 59.0625 181.562V177.812H55.3125C55.0639 177.812 54.8254 177.714 54.6496 177.538C54.4738 177.362 54.375 177.124 54.375 176.875C54.375 176.626 54.4738 176.388 54.6496 176.212C54.8254 176.036 55.0639 175.938 55.3125 175.938H59.0625V172.188C59.0625 171.939 59.1613 171.7 59.3371 171.525C59.5129 171.349 59.7514 171.25 60 171.25C60.2486 171.25 60.4871 171.349 60.6629 171.525C60.8387 171.7 60.9375 171.939 60.9375 172.188V175.938H64.6875C64.9361 175.938 65.1746 176.036 65.3504 176.212C65.5262 176.388 65.625 176.626 65.625 176.875C65.625 177.124 65.5262 177.362 65.3504 177.538C65.1746 177.714 64.9361 177.812 64.6875 177.812ZM65.625 165.625H54.375V164.688C54.375 164.439 54.4738 164.2 54.6496 164.025C54.8254 163.849 55.0639 163.75 55.3125 163.75H64.6875C64.9361 163.75 65.1746 163.849 65.3504 164.025C65.5262 164.2 65.625 164.439 65.625 164.688V165.625Z" fill="black"/>
<path d="M70.3125 165.625H67.5V164.688C67.4992 163.942 67.2027 163.227 66.6754 162.7C66.1481 162.172 65.4332 161.876 64.6875 161.875H55.3125C54.5668 161.876 53.8519 162.172 53.3246 162.7C52.7973 163.227 52.5008 163.942 52.5 164.688V165.625H49.6875C48.6933 165.626 47.7401 166.022 47.037 166.725C46.334 167.428 45.9386 168.381 45.9375 169.375V184.375C45.9375 185.37 46.3326 186.323 47.0358 187.027C47.7391 187.73 48.6929 188.125 49.6875 188.125H70.3125C71.3071 188.125 72.2609 187.73 72.9641 187.027C73.6674 186.323 74.0625 185.37 74.0625 184.375V169.375C74.0614 168.381 73.666 167.428 72.963 166.725C72.2599 166.022 71.3067 165.626 70.3125 165.625ZM64.6875 177.812H60.9375V181.562C60.9375 181.811 60.8387 182.05 60.6629 182.225C60.4871 182.401 60.2486 182.5 60 182.5C59.7514 182.5 59.5129 182.401 59.3371 182.225C59.1613 182.05 59.0625 181.811 59.0625 181.562V177.812H55.3125C55.0639 177.812 54.8254 177.714 54.6496 177.538C54.4738 177.362 54.375 177.124 54.375 176.875C54.375 176.626 54.4738 176.388 54.6496 176.212C54.8254 176.036 55.0639 175.938 55.3125 175.938H59.0625V172.188C59.0625 171.939 59.1613 171.7 59.3371 171.525C59.5129 171.349 59.7514 171.25 60 171.25C60.2486 171.25 60.4871 171.349 60.6629 171.525C60.8387 171.7 60.9375 171.939 60.9375 172.188V175.938H64.6875C64.9361 175.938 65.1746 176.036 65.3504 176.212C65.5262 176.388 65.625 176.626 65.625 176.875C65.625 177.124 65.5262 177.362 65.3504 177.538C65.1746 177.714 64.9361 177.812 64.6875 177.812ZM65.625 165.625H54.375V164.688C54.375 164.439 54.4738 164.2 54.6496 164.025C54.8254 163.849 55.0639 163.75 55.3125 163.75H64.6875C64.9361 163.75 65.1746 163.849 65.3504 164.025C65.5262 164.2 65.625 164.439 65.625 164.688V165.625Z" fill="url(#paint11_linear_2271_4076)"/>
<defs>
<filter id="filter0_f_2271_4076" x="-106" y="-141" width="482" height="482" filterUnits="userSpaceOnUse" color-interpolation-filters="sRGB">
<feFlood flood-opacity="0" result="BackgroundImageFix"/>
<feBlend mode="normal" in="SourceGraphic" in2="BackgroundImageFix" result="shape"/>
<feGaussianBlur stdDeviation="75" result="effect1_foregroundBlur_2271_4076"/>
</filter>
<filter id="filter1_f_2271_4076" x="114.469" y="91.875" width="188.063" height="155.25" filterUnits="userSpaceOnUse" color-interpolation-filters="sRGB">
<feFlood flood-opacity="0" result="BackgroundImageFix"/>
<feBlend mode="normal" in="SourceGraphic" in2="BackgroundImageFix" result="shape"/>
<feGaussianBlur stdDeviation="6" result="effect1_foregroundBlur_2271_4076"/>
</filter>
<filter id="filter2_f_2271_4076" x="153.186" y="28.3208" width="28.625" height="34.25" filterUnits="userSpaceOnUse" color-interpolation-filters="sRGB">
<feFlood flood-opacity="0" result="BackgroundImageFix"/>
<feBlend mode="normal" in="SourceGraphic" in2="BackgroundImageFix" result="shape"/>
<feGaussianBlur stdDeviation="2" result="effect1_foregroundBlur_2271_4076"/>
</filter>
<filter id="filter3_f_2271_4076" x="314.857" y="69" width="30.2861" height="32" filterUnits="userSpaceOnUse" color-interpolation-filters="sRGB">
<feFlood flood-opacity="0" result="BackgroundImageFix"/>
<feBlend mode="normal" in="SourceGraphic" in2="BackgroundImageFix" result="shape"/>
<feGaussianBlur stdDeviation="2" result="effect1_foregroundBlur_2271_4076"/>
</filter>
<filter id="filter4_f_2271_4076" x="338" y="204" width="33" height="28" filterUnits="userSpaceOnUse" color-interpolation-filters="sRGB">
<feFlood flood-opacity="0" result="BackgroundImageFix"/>
<feBlend mode="normal" in="SourceGraphic" in2="BackgroundImageFix" result="shape"/>
<feGaussianBlur stdDeviation="2" result="effect1_foregroundBlur_2271_4076"/>
</filter>
<filter id="filter5_f_2271_4076" x="41.9375" y="157.875" width="36.125" height="34.25" filterUnits="userSpaceOnUse" color-interpolation-filters="sRGB">
<feFlood flood-opacity="0" result="BackgroundImageFix"/>
<feBlend mode="normal" in="SourceGraphic" in2="BackgroundImageFix" result="shape"/>
<feGaussianBlur stdDeviation="2" result="effect1_foregroundBlur_2271_4076"/>
</filter>
<linearGradient id="paint0_linear_2271_4076" x1="208.501" y1="103.875" x2="208.501" y2="235.125" gradientUnits="userSpaceOnUse">
<stop offset="0.485577" stop-color="#40C2FF"/>
<stop offset="1" stop-color="#2100D9"/>
</linearGradient>
<linearGradient id="paint1_linear_2271_4076" x1="208.501" y1="103.875" x2="208.501" y2="235.125" gradientUnits="userSpaceOnUse">
<stop offset="0.485577" stop-color="#40C2FF"/>
<stop offset="1" stop-color="#2100D9"/>
</linearGradient>
<linearGradient id="paint2_linear_2271_4076" x1="167.498" y1="32.3208" x2="167.498" y2="58.5708" gradientUnits="userSpaceOnUse">
<stop offset="0.485577" stop-color="#40C2FF"/>
<stop offset="1" stop-color="#2100D9"/>
</linearGradient>
<linearGradient id="paint3_linear_2271_4076" x1="172.766" y1="33.0355" x2="172.766" y2="41.6958" gradientUnits="userSpaceOnUse">
<stop offset="0.485577" stop-color="#40C2FF"/>
<stop offset="1" stop-color="#2100D9"/>
</linearGradient>
<linearGradient id="paint4_linear_2271_4076" x1="167.498" y1="32.3208" x2="167.498" y2="58.5708" gradientUnits="userSpaceOnUse">
<stop offset="0.485577" stop-color="#40C2FF"/>
<stop offset="1" stop-color="#2100D9"/>
</linearGradient>
<linearGradient id="paint5_linear_2271_4076" x1="172.766" y1="33.0355" x2="172.766" y2="41.6958" gradientUnits="userSpaceOnUse">
<stop offset="0.485577" stop-color="#40C2FF"/>
<stop offset="1" stop-color="#2100D9"/>
</linearGradient>
<linearGradient id="paint6_linear_2271_4076" x1="330.001" y1="73" x2="330.001" y2="97" gradientUnits="userSpaceOnUse">
<stop offset="0.485577" stop-color="#40C2FF"/>
<stop offset="1" stop-color="#2100D9"/>
</linearGradient>
<linearGradient id="paint7_linear_2271_4076" x1="330.001" y1="73" x2="330.001" y2="97" gradientUnits="userSpaceOnUse">
<stop offset="0.485577" stop-color="#40C2FF"/>
<stop offset="1" stop-color="#2100D9"/>
</linearGradient>
<linearGradient id="paint8_linear_2271_4076" x1="354.5" y1="208" x2="354.5" y2="228" gradientUnits="userSpaceOnUse">
<stop offset="0.485577" stop-color="#40C2FF"/>
<stop offset="1" stop-color="#2100D9"/>
</linearGradient>
<linearGradient id="paint9_linear_2271_4076" x1="354.5" y1="208" x2="354.5" y2="228" gradientUnits="userSpaceOnUse">
<stop offset="0.485577" stop-color="#40C2FF"/>
<stop offset="1" stop-color="#2100D9"/>
</linearGradient>
<linearGradient id="paint10_linear_2271_4076" x1="60" y1="161.875" x2="60" y2="188.125" gradientUnits="userSpaceOnUse">
<stop offset="0.485577" stop-color="#40C2FF"/>
<stop offset="1" stop-color="#2100D9"/>
</linearGradient>
<linearGradient id="paint11_linear_2271_4076" x1="60" y1="161.875" x2="60" y2="188.125" gradientUnits="userSpaceOnUse">
<stop offset="0.485577" stop-color="#40C2FF"/>
<stop offset="1" stop-color="#2100D9"/>
</linearGradient>
</defs>
</svg>
