<svg width="418" height="442" viewBox="0 0 418 442" fill="none" xmlns="http://www.w3.org/2000/svg">
<g clip-path="url(#clip0_1809_1317)">
<path d="M0 64C0 41.5979 0 30.3968 4.35974 21.8404C8.19467 14.3139 14.3139 8.19467 21.8404 4.35974C30.3968 0 41.5979 0 64 0H354C376.402 0 387.603 0 396.16 4.35974C403.686 8.19467 409.805 14.3139 413.64 21.8404C418 30.3968 418 41.5979 418 64V378C418 400.402 418 411.603 413.64 420.16C409.805 427.686 403.686 433.805 396.16 437.64C387.603 442 376.402 442 354 442H64C41.5979 442 30.3968 442 21.8404 437.64C14.3139 433.805 8.19467 427.686 4.35974 420.16C0 411.603 0 400.402 0 378V64Z" fill="#080035"/>
<mask id="mask0_1809_1317" style="mask-type:alpha" maskUnits="userSpaceOnUse" x="-72" y="-101" width="402" height="402">
<path d="M1.72656 -100V300" stroke="#B3B3B3" stroke-opacity="0.27"/>
<path d="M38.0908 -100V300" stroke="#B3B3B3" stroke-opacity="0.27"/>
<path d="M74.4541 -100V300" stroke="#B3B3B3" stroke-opacity="0.27"/>
<path d="M110.818 -100V300" stroke="#B3B3B3" stroke-opacity="0.27"/>
<path d="M147.182 -100V300" stroke="#B3B3B3" stroke-opacity="0.27"/>
<path d="M183.545 -100V300" stroke="#B3B3B3" stroke-opacity="0.27"/>
<path d="M219.909 -100V300" stroke="#B3B3B3" stroke-opacity="0.27"/>
<path d="M256.272 -100V300" stroke="#B3B3B3" stroke-opacity="0.27"/>
<path d="M292.637 -100V300" stroke="#B3B3B3" stroke-opacity="0.27"/>
<path d="M329 -100V300" stroke="#B3B3B3" stroke-opacity="0.27"/>
<path d="M-71 9.09082H329" stroke="#B3B3B3" stroke-opacity="0.27"/>
<path d="M-71 45.4546H329" stroke="#B3B3B3" stroke-opacity="0.27"/>
<path d="M-71 81.8181H329" stroke="#B3B3B3" stroke-opacity="0.27"/>
<path d="M-71 118.182H329" stroke="#B3B3B3" stroke-opacity="0.27"/>
<path d="M-71 154.545H329" stroke="#B3B3B3" stroke-opacity="0.27"/>
<path d="M-71 190.909H329" stroke="#B3B3B3" stroke-opacity="0.27"/>
<path d="M-71 227.273H329" stroke="#B3B3B3" stroke-opacity="0.27"/>
<path d="M-71 263.636H329" stroke="#B3B3B3" stroke-opacity="0.27"/>
<path d="M-71 300H329" stroke="#B3B3B3" stroke-opacity="0.27"/>
</mask>
<g mask="url(#mask0_1809_1317)">
<g filter="url(#filter0_f_1809_1317)">
<circle cx="135" cy="100" r="91" fill="#40C2FF"/>
</g>
</g>
<path d="M26.9414 330.234C25.3945 330.234 24.0078 329.883 22.7812 329.18C21.5547 328.477 20.5859 327.457 19.875 326.121C19.1641 324.785 18.8086 323.172 18.8086 321.281C18.8086 319.375 19.1641 317.754 19.875 316.418C20.5938 315.074 21.5664 314.055 22.793 313.359C24.0273 312.656 25.4102 312.305 26.9414 312.305C27.957 312.305 28.8984 312.449 29.7656 312.738C30.6328 313.02 31.3984 313.434 32.0625 313.98C32.7344 314.52 33.2812 315.184 33.7031 315.973C34.125 316.754 34.3945 317.648 34.5117 318.656H30.7852C30.7148 318.18 30.5742 317.75 30.3633 317.367C30.1602 316.984 29.8906 316.66 29.5547 316.395C29.2266 316.129 28.8477 315.926 28.418 315.785C27.9961 315.637 27.5312 315.562 27.0234 315.562C26.1328 315.562 25.3477 315.789 24.668 316.242C23.9961 316.688 23.4727 317.336 23.0977 318.188C22.7305 319.031 22.5469 320.062 22.5469 321.281C22.5469 322.523 22.7344 323.57 23.1094 324.422C23.4844 325.266 24.0078 325.902 24.6797 326.332C25.3516 326.762 26.1289 326.977 27.0117 326.977C27.5039 326.977 27.9609 326.91 28.3828 326.777C28.8047 326.645 29.1797 326.453 29.5078 326.203C29.8359 325.953 30.1094 325.648 30.3281 325.289C30.5547 324.922 30.707 324.504 30.7852 324.035H34.5117C34.418 324.84 34.1797 325.613 33.7969 326.355C33.4219 327.098 32.9102 327.762 32.2617 328.348C31.6133 328.926 30.8438 329.387 29.9531 329.73C29.0625 330.066 28.0586 330.234 26.9414 330.234ZM41.8247 330.258C40.4809 330.258 39.3208 329.984 38.3442 329.438C37.3677 328.891 36.6177 328.113 36.0942 327.105C35.5786 326.09 35.3208 324.891 35.3208 323.508C35.3208 322.164 35.5786 320.984 36.0942 319.969C36.6177 318.953 37.352 318.16 38.2973 317.59C39.2505 317.02 40.3677 316.734 41.6489 316.734C42.5161 316.734 43.3247 316.875 44.0747 317.156C44.8247 317.43 45.4809 317.844 46.0434 318.398C46.6059 318.945 47.0434 319.637 47.3559 320.473C47.6684 321.301 47.8247 322.273 47.8247 323.391V324.375H36.7622V322.137H46.0669L44.3794 322.723C44.3794 322.059 44.2778 321.48 44.0747 320.988C43.8716 320.496 43.5669 320.117 43.1606 319.852C42.7622 319.578 42.2661 319.441 41.6723 319.441C41.0786 319.441 40.5747 319.578 40.1606 319.852C39.7544 320.125 39.4419 320.496 39.2231 320.965C39.0044 321.434 38.895 321.973 38.895 322.582V324.164C38.895 324.875 39.02 325.484 39.27 325.992C39.52 326.492 39.8677 326.879 40.313 327.152C40.7661 327.418 41.2856 327.551 41.8716 327.551C42.2778 327.551 42.645 327.492 42.9731 327.375C43.3013 327.258 43.5825 327.086 43.8169 326.859C44.0591 326.633 44.2388 326.359 44.3559 326.039L47.7075 326.262C47.5434 327.066 47.1997 327.77 46.6763 328.371C46.1606 328.965 45.4927 329.43 44.6723 329.766C43.852 330.094 42.9028 330.258 41.8247 330.258ZM52.5244 322.43V330H48.9033V316.898H52.4658V319.23H52.5947C52.8916 318.457 53.3642 317.848 54.0127 317.402C54.6611 316.957 55.4736 316.734 56.4502 316.734C57.3564 316.734 58.1455 316.934 58.8173 317.332C59.497 317.73 60.0244 318.297 60.3994 319.031C60.7744 319.766 60.9619 320.645 60.9619 321.668V330H57.3408V322.312C57.3408 321.516 57.1338 320.891 56.7197 320.438C56.3056 319.977 55.7353 319.746 55.0088 319.746C54.5244 319.746 54.0947 319.855 53.7197 320.074C53.3447 320.285 53.0517 320.59 52.8408 320.988C52.6298 321.387 52.5244 321.867 52.5244 322.43ZM69.5756 316.898V319.641H61.6889V316.898H69.5756ZM63.4819 313.781H67.103V325.969C67.103 326.406 67.2006 326.73 67.3959 326.941C67.5913 327.145 67.9038 327.246 68.3334 327.246C68.4741 327.246 68.6303 327.234 68.8022 327.211C68.9741 327.188 69.1225 327.16 69.2475 327.129L69.8217 329.848C69.4233 329.965 69.0366 330.051 68.6616 330.105C68.2944 330.16 67.9311 330.188 67.5717 330.188C66.267 330.188 65.2592 329.863 64.5483 329.215C63.8373 328.559 63.4819 327.637 63.4819 326.449V313.781ZM70.6777 330V316.898H74.1816V319.195H74.3222C74.5644 318.383 74.9667 317.77 75.5292 317.355C76.0917 316.934 76.7363 316.723 77.4628 316.723C77.6503 316.723 77.8456 316.734 78.0488 316.758C78.2597 316.773 78.4472 316.805 78.6113 316.852V320.062C78.4394 320.008 78.2011 319.965 77.8964 319.934C77.5995 319.895 77.3222 319.875 77.0644 319.875C76.5409 319.875 76.0683 319.992 75.6464 320.227C75.2245 320.453 74.8925 320.773 74.6503 321.188C74.4159 321.594 74.2988 322.062 74.2988 322.594V330H70.6777ZM82.5727 330.246C81.7445 330.246 80.9984 330.102 80.3344 329.812C79.6781 329.516 79.1625 329.078 78.7875 328.5C78.4125 327.922 78.225 327.203 78.225 326.344C78.225 325.609 78.3578 325 78.6234 324.516C78.8891 324.023 79.2523 323.625 79.7133 323.32C80.1742 323.016 80.6977 322.785 81.2836 322.629C81.8695 322.473 82.4906 322.363 83.1469 322.301C83.9047 322.23 84.5141 322.16 84.975 322.09C85.4359 322.02 85.7719 321.914 85.9828 321.773C86.2016 321.625 86.3109 321.414 86.3109 321.141V321.082C86.3109 320.543 86.1391 320.125 85.7953 319.828C85.4594 319.531 84.9828 319.383 84.3656 319.383C83.7172 319.383 83.1977 319.527 82.807 319.816C82.4242 320.098 82.1703 320.457 82.0453 320.895L78.682 320.625C78.8539 319.828 79.1898 319.141 79.6898 318.562C80.1898 317.977 80.8344 317.527 81.6234 317.215C82.4203 316.895 83.3422 316.734 84.3891 316.734C85.1156 316.734 85.8109 316.82 86.475 316.992C87.1391 317.164 87.7289 317.43 88.2445 317.789C88.768 318.141 89.182 318.598 89.4867 319.16C89.7914 319.723 89.9437 320.391 89.9437 321.164V330H86.4867V328.172H86.393C86.182 328.586 85.9008 328.949 85.5492 329.262C85.1977 329.566 84.7758 329.809 84.2836 329.988C83.7914 330.16 83.2211 330.246 82.5727 330.246ZM83.6156 327.738C84.1469 327.738 84.6156 327.633 85.0219 327.422C85.4359 327.203 85.7562 326.914 85.9828 326.555C86.2172 326.188 86.3344 325.777 86.3344 325.324V323.93C86.225 324 86.0687 324.066 85.8656 324.129C85.6703 324.191 85.4516 324.246 85.2094 324.293C84.9672 324.34 84.725 324.383 84.4828 324.422C84.2406 324.453 84.0219 324.484 83.8266 324.516C83.3969 324.578 83.0219 324.68 82.7016 324.82C82.3812 324.953 82.1312 325.137 81.9516 325.371C81.7797 325.598 81.6937 325.883 81.6937 326.227C81.6937 326.719 81.8734 327.094 82.2328 327.352C82.5922 327.609 83.0531 327.738 83.6156 327.738ZM95.2059 312.539V330H91.5848V312.539H95.2059ZM96.8705 330V316.898H100.492V330H96.8705ZM98.6752 315.223C98.1361 315.223 97.6752 315.043 97.2923 314.684C96.9095 314.324 96.7181 313.891 96.7181 313.383C96.7181 312.875 96.9095 312.445 97.2923 312.094C97.6752 311.734 98.1361 311.555 98.6752 311.555C99.222 311.555 99.6869 311.734 100.07 312.094C100.452 312.445 100.644 312.875 100.644 313.383C100.644 313.891 100.452 314.324 100.07 314.684C99.6869 315.043 99.222 315.223 98.6752 315.223ZM102.086 330V327.832L108.496 319.898V319.805H102.297V316.898H112.855V319.277L106.844 327V327.094H113.078V330H102.086ZM120.203 330.258C118.86 330.258 117.7 329.984 116.723 329.438C115.746 328.891 114.996 328.113 114.473 327.105C113.957 326.09 113.7 324.891 113.7 323.508C113.7 322.164 113.957 320.984 114.473 319.969C114.996 318.953 115.731 318.16 116.676 317.59C117.629 317.02 118.746 316.734 120.028 316.734C120.895 316.734 121.703 316.875 122.453 317.156C123.203 317.43 123.86 317.844 124.422 318.398C124.985 318.945 125.422 319.637 125.735 320.473C126.047 321.301 126.203 322.273 126.203 323.391V324.375H115.141V322.137H124.446L122.758 322.723C122.758 322.059 122.657 321.48 122.453 320.988C122.25 320.496 121.946 320.117 121.539 319.852C121.141 319.578 120.645 319.441 120.051 319.441C119.457 319.441 118.953 319.578 118.539 319.852C118.133 320.125 117.821 320.496 117.602 320.965C117.383 321.434 117.274 321.973 117.274 322.582V324.164C117.274 324.875 117.399 325.484 117.649 325.992C117.899 326.492 118.246 326.879 118.692 327.152C119.145 327.418 119.664 327.551 120.25 327.551C120.657 327.551 121.024 327.492 121.352 327.375C121.68 327.258 121.961 327.086 122.196 326.859C122.438 326.633 122.618 326.359 122.735 326.039L126.086 326.262C125.922 327.066 125.578 327.77 125.055 328.371C124.539 328.965 123.871 329.43 123.051 329.766C122.231 330.094 121.282 330.258 120.203 330.258ZM132.063 330.211C131.063 330.211 130.161 329.953 129.356 329.438C128.552 328.922 127.915 328.164 127.446 327.164C126.977 326.156 126.743 324.926 126.743 323.473C126.743 321.973 126.985 320.723 127.47 319.723C127.954 318.723 128.598 317.977 129.403 317.484C130.208 316.984 131.087 316.734 132.04 316.734C132.774 316.734 133.387 316.859 133.88 317.109C134.372 317.352 134.77 317.656 135.075 318.023C135.38 318.391 135.61 318.754 135.766 319.113H135.872V312.539H139.505V330H135.93V327.902H135.766C135.602 328.262 135.364 328.621 135.052 328.98C134.739 329.332 134.337 329.625 133.845 329.859C133.36 330.094 132.766 330.211 132.063 330.211ZM133.2 327.328C133.786 327.328 134.282 327.168 134.688 326.848C135.102 326.52 135.415 326.066 135.626 325.488C135.845 324.91 135.954 324.234 135.954 323.461C135.954 322.68 135.848 322.004 135.637 321.434C135.427 320.855 135.114 320.41 134.7 320.098C134.286 319.777 133.786 319.617 133.2 319.617C132.606 319.617 132.106 319.781 131.7 320.109C131.294 320.438 130.985 320.891 130.774 321.469C130.563 322.039 130.458 322.703 130.458 323.461C130.458 324.219 130.563 324.891 130.774 325.477C130.985 326.055 131.294 326.508 131.7 326.836C132.114 327.164 132.614 327.328 133.2 327.328ZM153.322 330.234C151.775 330.234 150.388 329.883 149.162 329.18C147.935 328.477 146.967 327.457 146.256 326.121C145.545 324.785 145.189 323.172 145.189 321.281C145.189 319.375 145.545 317.754 146.256 316.418C146.974 315.074 147.947 314.055 149.174 313.359C150.408 312.656 151.791 312.305 153.322 312.305C154.338 312.305 155.279 312.449 156.146 312.738C157.013 313.02 157.779 313.434 158.443 313.98C159.115 314.52 159.662 315.184 160.084 315.973C160.506 316.754 160.775 317.648 160.892 318.656H157.166C157.095 318.18 156.955 317.75 156.744 317.367C156.541 316.984 156.271 316.66 155.935 316.395C155.607 316.129 155.228 315.926 154.799 315.785C154.377 315.637 153.912 315.562 153.404 315.562C152.513 315.562 151.728 315.789 151.049 316.242C150.377 316.688 149.853 317.336 149.478 318.188C149.111 319.031 148.927 320.062 148.927 321.281C148.927 322.523 149.115 323.57 149.49 324.422C149.865 325.266 150.388 325.902 151.06 326.332C151.732 326.762 152.51 326.977 153.392 326.977C153.885 326.977 154.342 326.91 154.763 326.777C155.185 326.645 155.56 326.453 155.888 326.203C156.217 325.953 156.49 325.648 156.709 325.289C156.935 324.922 157.088 324.504 157.166 324.035H160.892C160.799 324.84 160.56 325.613 160.177 326.355C159.802 327.098 159.291 327.762 158.642 328.348C157.994 328.926 157.224 329.387 156.334 329.73C155.443 330.066 154.439 330.234 153.322 330.234ZM170.631 324.434V316.898H174.252V330H170.772V327.621H170.631C170.334 328.379 169.846 328.996 169.166 329.473C168.487 329.941 167.655 330.172 166.67 330.164C165.795 330.164 165.022 329.969 164.35 329.578C163.686 329.18 163.166 328.613 162.791 327.879C162.424 327.145 162.24 326.266 162.24 325.242V316.898H165.862V324.609C165.862 325.375 166.069 325.984 166.483 326.438C166.897 326.883 167.447 327.102 168.135 327.094C168.572 327.094 168.979 326.996 169.354 326.801C169.729 326.598 170.033 326.297 170.268 325.898C170.51 325.5 170.631 325.012 170.631 324.434ZM186.792 320.637L183.475 320.836C183.389 320.422 183.159 320.066 182.784 319.77C182.409 319.465 181.905 319.312 181.272 319.312C180.71 319.312 180.237 319.43 179.854 319.664C179.479 319.898 179.292 320.211 179.292 320.602C179.292 320.914 179.413 321.184 179.655 321.41C179.905 321.629 180.331 321.801 180.932 321.926L183.311 322.395C184.585 322.652 185.534 323.07 186.159 323.648C186.784 324.227 187.096 324.988 187.096 325.934C187.096 326.801 186.846 327.559 186.346 328.207C185.846 328.848 185.159 329.352 184.284 329.719C183.409 330.078 182.405 330.258 181.272 330.258C179.538 330.258 178.155 329.895 177.124 329.168C176.1 328.441 175.503 327.457 175.331 326.215L178.882 326.027C178.999 326.559 179.264 326.961 179.678 327.234C180.092 327.508 180.624 327.645 181.272 327.645C181.905 327.645 182.417 327.52 182.807 327.27C183.206 327.02 183.405 326.703 183.405 326.32C183.405 325.672 182.842 325.234 181.717 325.008L179.456 324.539C178.182 324.281 177.233 323.84 176.608 323.215C175.983 322.59 175.671 321.789 175.671 320.812C175.671 319.969 175.901 319.242 176.362 318.633C176.823 318.023 177.467 317.555 178.296 317.227C179.132 316.898 180.108 316.734 181.225 316.734C182.882 316.734 184.182 317.086 185.128 317.789C186.081 318.484 186.635 319.434 186.792 320.637ZM195.089 316.898V319.641H187.202V316.898H195.089ZM188.995 313.781H192.616V325.969C192.616 326.406 192.714 326.73 192.909 326.941C193.105 327.145 193.417 327.246 193.847 327.246C193.988 327.246 194.144 327.234 194.316 327.211C194.488 327.188 194.636 327.16 194.761 327.129L195.335 329.848C194.937 329.965 194.55 330.051 194.175 330.105C193.808 330.16 193.445 330.188 193.085 330.188C191.78 330.188 190.773 329.863 190.062 329.215C189.351 328.559 188.995 327.637 188.995 326.449V313.781ZM201.945 330.258C200.625 330.258 199.48 329.977 198.511 329.414C197.55 328.844 196.808 328.055 196.285 327.047C195.769 326.031 195.511 324.852 195.511 323.508C195.511 322.148 195.769 320.965 196.285 319.957C196.808 318.941 197.55 318.152 198.511 317.59C199.48 317.02 200.625 316.734 201.945 316.734C203.273 316.734 204.418 317.02 205.379 317.59C206.347 318.152 207.09 318.941 207.605 319.957C208.129 320.965 208.39 322.148 208.39 323.508C208.39 324.852 208.129 326.031 207.605 327.047C207.09 328.055 206.347 328.844 205.379 329.414C204.418 329.977 203.273 330.258 201.945 330.258ZM201.968 327.422C202.57 327.422 203.074 327.254 203.48 326.918C203.886 326.574 204.191 326.105 204.394 325.512C204.605 324.918 204.711 324.242 204.711 323.484C204.711 322.719 204.605 322.043 204.394 321.457C204.191 320.871 203.886 320.41 203.48 320.074C203.074 319.738 202.57 319.57 201.968 319.57C201.359 319.57 200.847 319.738 200.433 320.074C200.027 320.41 199.718 320.871 199.508 321.457C199.304 322.043 199.203 322.719 199.203 323.484C199.203 324.242 199.304 324.918 199.508 325.512C199.718 326.105 200.027 326.574 200.433 326.918C200.847 327.254 201.359 327.422 201.968 327.422ZM209.516 330V316.898H212.949V319.23H213.113C213.387 318.457 213.844 317.848 214.485 317.402C215.125 316.957 215.887 316.734 216.77 316.734C217.668 316.734 218.43 316.961 219.055 317.414C219.688 317.859 220.11 318.465 220.32 319.23H220.461C220.727 318.473 221.211 317.867 221.914 317.414C222.617 316.961 223.445 316.734 224.399 316.734C225.617 316.734 226.61 317.121 227.375 317.895C228.149 318.668 228.535 319.766 228.535 321.188V330H224.902V321.914C224.902 321.18 224.707 320.633 224.317 320.273C223.934 319.914 223.453 319.734 222.875 319.734C222.219 319.734 221.703 319.945 221.328 320.367C220.961 320.781 220.777 321.328 220.777 322.008V330H217.262V321.82C217.262 321.188 217.078 320.684 216.711 320.309C216.344 319.926 215.863 319.734 215.27 319.734C214.863 319.734 214.5 319.836 214.18 320.039C213.86 320.242 213.606 320.523 213.418 320.883C213.231 321.234 213.137 321.656 213.137 322.148V330H209.516ZM236.165 330.258C234.821 330.258 233.661 329.984 232.684 329.438C231.708 328.891 230.958 328.113 230.434 327.105C229.919 326.09 229.661 324.891 229.661 323.508C229.661 322.164 229.919 320.984 230.434 319.969C230.958 318.953 231.692 318.16 232.637 317.59C233.59 317.02 234.708 316.734 235.989 316.734C236.856 316.734 237.665 316.875 238.415 317.156C239.165 317.43 239.821 317.844 240.383 318.398C240.946 318.945 241.383 319.637 241.696 320.473C242.008 321.301 242.165 322.273 242.165 323.391V324.375H231.102V322.137H240.407L238.719 322.723C238.719 322.059 238.618 321.48 238.415 320.988C238.212 320.496 237.907 320.117 237.501 319.852C237.102 319.578 236.606 319.441 236.012 319.441C235.419 319.441 234.915 319.578 234.501 319.852C234.094 320.125 233.782 320.496 233.563 320.965C233.344 321.434 233.235 321.973 233.235 322.582V324.164C233.235 324.875 233.36 325.484 233.61 325.992C233.86 326.492 234.208 326.879 234.653 327.152C235.106 327.418 235.626 327.551 236.212 327.551C236.618 327.551 236.985 327.492 237.313 327.375C237.641 327.258 237.923 327.086 238.157 326.859C238.399 326.633 238.579 326.359 238.696 326.039L242.048 326.262C241.883 327.066 241.54 327.77 241.016 328.371C240.501 328.965 239.833 329.43 239.012 329.766C238.192 330.094 237.243 330.258 236.165 330.258ZM243.243 330V316.898H246.747V319.195H246.888C247.13 318.383 247.532 317.77 248.095 317.355C248.657 316.934 249.302 316.723 250.028 316.723C250.216 316.723 250.411 316.734 250.614 316.758C250.825 316.773 251.013 316.805 251.177 316.852V320.062C251.005 320.008 250.767 319.965 250.462 319.934C250.165 319.895 249.888 319.875 249.63 319.875C249.107 319.875 248.634 319.992 248.212 320.227C247.79 320.453 247.458 320.773 247.216 321.188C246.982 321.594 246.864 322.062 246.864 322.594V330H243.243ZM262.334 330H257.787V326.836H262.17C263.272 326.836 264.193 326.645 264.936 326.262C265.686 325.871 266.248 325.266 266.623 324.445C267.006 323.617 267.197 322.555 267.197 321.258C267.197 319.969 267.006 318.914 266.623 318.094C266.248 317.273 265.686 316.672 264.936 316.289C264.193 315.898 263.275 315.703 262.182 315.703H257.717V312.539H262.393C264.15 312.539 265.662 312.891 266.928 313.594C268.193 314.289 269.166 315.289 269.846 316.594C270.525 317.891 270.865 319.445 270.865 321.258C270.865 323.078 270.522 324.641 269.834 325.945C269.154 327.25 268.178 328.254 266.904 328.957C265.631 329.652 264.107 330 262.334 330ZM259.826 312.539V330H256.147V312.539H259.826ZM275.999 330.246C275.17 330.246 274.424 330.102 273.76 329.812C273.104 329.516 272.588 329.078 272.213 328.5C271.838 327.922 271.651 327.203 271.651 326.344C271.651 325.609 271.784 325 272.049 324.516C272.315 324.023 272.678 323.625 273.139 323.32C273.6 323.016 274.124 322.785 274.71 322.629C275.295 322.473 275.917 322.363 276.573 322.301C277.331 322.23 277.94 322.16 278.401 322.09C278.862 322.02 279.198 321.914 279.409 321.773C279.628 321.625 279.737 321.414 279.737 321.141V321.082C279.737 320.543 279.565 320.125 279.221 319.828C278.885 319.531 278.409 319.383 277.792 319.383C277.143 319.383 276.624 319.527 276.233 319.816C275.85 320.098 275.596 320.457 275.471 320.895L272.108 320.625C272.28 319.828 272.616 319.141 273.116 318.562C273.616 317.977 274.26 317.527 275.049 317.215C275.846 316.895 276.768 316.734 277.815 316.734C278.542 316.734 279.237 316.82 279.901 316.992C280.565 317.164 281.155 317.43 281.67 317.789C282.194 318.141 282.608 318.598 282.913 319.16C283.217 319.723 283.37 320.391 283.37 321.164V330H279.913V328.172H279.819C279.608 328.586 279.327 328.949 278.975 329.262C278.624 329.566 278.202 329.809 277.71 329.988C277.217 330.16 276.647 330.246 275.999 330.246ZM277.042 327.738C277.573 327.738 278.042 327.633 278.448 327.422C278.862 327.203 279.182 326.914 279.409 326.555C279.643 326.188 279.76 325.777 279.76 325.324V323.93C279.651 324 279.495 324.066 279.292 324.129C279.096 324.191 278.878 324.246 278.635 324.293C278.393 324.34 278.151 324.383 277.909 324.422C277.667 324.453 277.448 324.484 277.253 324.516C276.823 324.578 276.448 324.68 276.128 324.82C275.807 324.953 275.557 325.137 275.378 325.371C275.206 325.598 275.12 325.883 275.12 326.227C275.12 326.719 275.299 327.094 275.659 327.352C276.018 327.609 276.479 327.738 277.042 327.738ZM291.96 316.898V319.641H284.073V316.898H291.96ZM285.866 313.781H289.487V325.969C289.487 326.406 289.585 326.73 289.78 326.941C289.976 327.145 290.288 327.246 290.718 327.246C290.858 327.246 291.015 327.234 291.187 327.211C291.358 327.188 291.507 327.16 291.632 327.129L292.206 329.848C291.808 329.965 291.421 330.051 291.046 330.105C290.679 330.16 290.315 330.188 289.956 330.188C288.651 330.188 287.644 329.863 286.933 329.215C286.222 328.559 285.866 327.637 285.866 326.449V313.781ZM296.789 330.246C295.96 330.246 295.214 330.102 294.55 329.812C293.894 329.516 293.378 329.078 293.003 328.5C292.628 327.922 292.441 327.203 292.441 326.344C292.441 325.609 292.574 325 292.839 324.516C293.105 324.023 293.468 323.625 293.929 323.32C294.39 323.016 294.914 322.785 295.5 322.629C296.085 322.473 296.707 322.363 297.363 322.301C298.121 322.23 298.73 322.16 299.191 322.09C299.652 322.02 299.988 321.914 300.199 321.773C300.418 321.625 300.527 321.414 300.527 321.141V321.082C300.527 320.543 300.355 320.125 300.011 319.828C299.675 319.531 299.199 319.383 298.582 319.383C297.933 319.383 297.414 319.527 297.023 319.816C296.64 320.098 296.386 320.457 296.261 320.895L292.898 320.625C293.07 319.828 293.406 319.141 293.906 318.562C294.406 317.977 295.05 317.527 295.839 317.215C296.636 316.895 297.558 316.734 298.605 316.734C299.332 316.734 300.027 316.82 300.691 316.992C301.355 317.164 301.945 317.43 302.46 317.789C302.984 318.141 303.398 318.598 303.703 319.16C304.007 319.723 304.16 320.391 304.16 321.164V330H300.703V328.172H300.609C300.398 328.586 300.117 328.949 299.765 329.262C299.414 329.566 298.992 329.809 298.5 329.988C298.007 330.16 297.437 330.246 296.789 330.246ZM297.832 327.738C298.363 327.738 298.832 327.633 299.238 327.422C299.652 327.203 299.972 326.914 300.199 326.555C300.433 326.188 300.55 325.777 300.55 325.324V323.93C300.441 324 300.285 324.066 300.082 324.129C299.886 324.191 299.668 324.246 299.425 324.293C299.183 324.34 298.941 324.383 298.699 324.422C298.457 324.453 298.238 324.484 298.043 324.516C297.613 324.578 297.238 324.68 296.918 324.82C296.597 324.953 296.347 325.137 296.168 325.371C295.996 325.598 295.91 325.883 295.91 326.227C295.91 326.719 296.089 327.094 296.449 327.352C296.808 327.609 297.269 327.738 297.832 327.738Z" fill="#EFEFEF"/>
<path d="M23.4404 371.211C22.4619 371.211 21.6123 371.059 20.8916 370.754C20.1768 370.443 19.6172 370.001 19.2129 369.427C18.8086 368.853 18.583 368.17 18.5361 367.379H20.5225C20.5635 367.854 20.7158 368.249 20.9795 368.565C21.249 368.876 21.5977 369.107 22.0254 369.26C22.4531 369.412 22.9219 369.488 23.4316 369.488C23.9883 369.488 24.4863 369.4 24.9258 369.225C25.3652 369.049 25.708 368.803 25.9541 368.486C26.2061 368.164 26.332 367.789 26.332 367.361C26.332 366.975 26.2207 366.658 25.998 366.412C25.7812 366.166 25.4854 365.964 25.1104 365.806C24.7354 365.642 24.3135 365.498 23.8447 365.375L22.3066 364.953C21.252 364.672 20.4199 364.253 19.8105 363.696C19.2012 363.134 18.8965 362.398 18.8965 361.49C18.8965 360.734 19.0986 360.075 19.5029 359.513C19.9131 358.95 20.4668 358.514 21.1641 358.203C21.8672 357.887 22.6553 357.729 23.5283 357.729C24.4189 357.729 25.2012 357.887 25.875 358.203C26.5547 358.514 27.0908 358.941 27.4834 359.486C27.8818 360.025 28.0898 360.644 28.1074 361.341H26.1914C26.1211 360.737 25.8398 360.269 25.3477 359.935C24.8613 359.601 24.2402 359.434 23.4844 359.434C22.957 359.434 22.4941 359.519 22.0957 359.688C21.7031 359.853 21.3984 360.081 21.1816 360.374C20.9707 360.667 20.8652 361.004 20.8652 361.385C20.8652 361.795 20.9912 362.129 21.2432 362.387C21.501 362.645 21.8115 362.85 22.1748 363.002C22.5439 363.148 22.8984 363.269 23.2383 363.362L24.5127 363.705C24.9287 363.811 25.3564 363.951 25.7959 364.127C26.2354 364.303 26.6426 364.534 27.0176 364.821C27.3984 365.103 27.7031 365.454 27.9316 365.876C28.166 366.292 28.2832 366.796 28.2832 367.388C28.2832 368.12 28.0928 368.776 27.7119 369.356C27.3311 369.931 26.7803 370.385 26.0596 370.719C25.3389 371.047 24.4658 371.211 23.4404 371.211ZM33.9525 361.174V362.712H28.5912V361.174H33.9525ZM30.0238 358.836H31.931V368.117C31.931 368.568 32.0248 368.899 32.2123 369.11C32.3998 369.315 32.7015 369.418 33.1175 369.418C33.2171 369.418 33.3226 369.412 33.4339 369.4C33.5511 369.389 33.6683 369.371 33.7855 369.348L34.1459 370.93C33.9525 370.994 33.7416 371.044 33.513 371.079C33.2845 371.114 33.056 371.132 32.8275 371.132C31.9779 371.132 31.2982 370.895 30.7884 370.42C30.2787 369.939 30.0238 369.301 30.0238 368.504V358.836ZM38.9802 371.202C38.0603 371.202 37.2546 370.991 36.5632 370.569C35.8777 370.147 35.3445 369.556 34.9636 368.794C34.5886 368.032 34.4011 367.147 34.4011 366.14C34.4011 365.12 34.5886 364.229 34.9636 363.468C35.3445 362.7 35.8777 362.105 36.5632 361.684C37.2546 361.262 38.0603 361.051 38.9802 361.051C39.906 361.051 40.7116 361.262 41.3972 361.684C42.0827 362.105 42.6159 362.7 42.9968 363.468C43.3777 364.229 43.5681 365.12 43.5681 366.14C43.5681 367.147 43.3777 368.032 42.9968 368.794C42.6159 369.556 42.0827 370.147 41.3972 370.569C40.7116 370.991 39.906 371.202 38.9802 371.202ZM38.9802 369.594C39.5837 369.594 40.0818 369.436 40.4743 369.119C40.8669 368.803 41.157 368.384 41.3445 367.862C41.5378 367.335 41.6345 366.761 41.6345 366.14C41.6345 365.507 41.5378 364.927 41.3445 364.399C41.157 363.872 40.8669 363.45 40.4743 363.134C40.0818 362.817 39.5837 362.659 38.9802 362.659C38.3825 362.659 37.8874 362.817 37.4948 363.134C37.1081 363.45 36.8181 363.872 36.6247 364.399C36.4314 364.927 36.3347 365.507 36.3347 366.14C36.3347 366.761 36.4314 367.335 36.6247 367.862C36.8181 368.384 37.1081 368.803 37.4948 369.119C37.8874 369.436 38.3825 369.594 38.9802 369.594ZM44.588 371V361.174H46.4249V362.747H46.5304C46.712 362.22 47.0284 361.804 47.4796 361.499C47.9366 361.188 48.4522 361.033 49.0264 361.033C49.1436 361.033 49.2813 361.039 49.4395 361.051C49.6036 361.057 49.7354 361.065 49.835 361.077V362.905C49.7589 362.882 49.6212 362.858 49.422 362.835C49.2286 362.812 49.0323 362.8 48.8331 362.8C48.3819 362.8 47.9776 362.896 47.6202 363.09C47.2686 363.277 46.9903 363.538 46.7852 363.872C46.586 364.2 46.4864 364.581 46.4864 365.015V371H44.588ZM54.2739 371.202C53.3129 371.202 52.4809 370.994 51.7778 370.578C51.0746 370.162 50.5327 369.576 50.1518 368.82C49.7768 368.059 49.5893 367.171 49.5893 366.157C49.5893 365.149 49.7739 364.262 50.143 363.494C50.518 362.727 51.0424 362.129 51.7162 361.701C52.3959 361.268 53.1928 361.051 54.1069 361.051C54.6635 361.051 55.2026 361.142 55.7241 361.323C56.2455 361.505 56.7143 361.792 57.1303 362.185C57.5463 362.577 57.8745 363.087 58.1147 363.714C58.3608 364.341 58.4838 365.097 58.4838 365.981V366.667H50.6704V365.234H57.4995L56.6118 365.709C56.6118 365.105 56.518 364.572 56.3305 364.109C56.143 363.646 55.8618 363.286 55.4868 363.028C55.1176 362.765 54.6577 362.633 54.1069 362.633C53.5561 362.633 53.0844 362.765 52.6918 363.028C52.3051 363.292 52.0092 363.641 51.8041 364.074C51.5991 364.508 51.4965 364.982 51.4965 365.498V366.474C51.4965 367.147 51.6137 367.719 51.8481 368.188C52.0825 368.656 52.4077 369.014 52.8237 369.26C53.2455 369.506 53.7348 369.629 54.2914 369.629C54.6547 369.629 54.9829 369.576 55.2758 369.471C55.5746 369.365 55.8325 369.207 56.0493 368.996C56.2661 368.785 56.4301 368.524 56.5414 368.214L58.352 368.557C58.2055 369.084 57.9477 369.547 57.5786 369.945C57.2094 370.344 56.7436 370.654 56.1811 370.877C55.6245 371.094 54.9887 371.202 54.2739 371.202ZM65.9552 371.211C65.3341 371.211 64.7716 371.097 64.2677 370.868C63.7638 370.634 63.3654 370.294 63.0724 369.849C62.7795 369.403 62.633 368.861 62.633 368.223C62.633 367.666 62.7384 367.212 62.9494 366.86C63.1662 366.503 63.4562 366.219 63.8195 366.008C64.1828 365.797 64.5871 365.639 65.0324 365.533C65.4777 365.428 65.9347 365.346 66.4035 365.287C66.9953 365.223 67.4728 365.167 67.8361 365.12C68.1994 365.073 68.463 365 68.6271 364.9C68.797 364.795 68.882 364.628 68.882 364.399V364.355C68.882 363.799 68.7238 363.368 68.4074 363.063C68.0968 362.759 67.6339 362.606 67.0187 362.606C66.38 362.606 65.8732 362.747 65.4982 363.028C65.1291 363.304 64.8742 363.617 64.7336 363.969L62.9318 363.556C63.1486 362.958 63.4621 362.478 63.8722 362.114C64.2882 361.745 64.7629 361.476 65.2961 361.306C65.8351 361.136 66.3976 361.051 66.9836 361.051C67.3761 361.051 67.7921 361.098 68.2316 361.191C68.6711 361.279 69.0841 361.446 69.4709 361.692C69.8634 361.933 70.1828 362.278 70.4289 362.729C70.675 363.181 70.798 363.764 70.798 364.479V371H68.9259V369.655H68.8556C68.7384 369.896 68.5539 370.136 68.3019 370.376C68.0558 370.616 67.7394 370.815 67.3527 370.974C66.966 371.132 66.5002 371.211 65.9552 371.211ZM66.3683 369.682C66.9015 369.682 67.3556 369.579 67.7306 369.374C68.1056 369.163 68.3927 368.888 68.592 368.548C68.7912 368.208 68.8908 367.848 68.8908 367.467V366.192C68.8205 366.257 68.6886 366.318 68.4953 366.377C68.3019 366.436 68.0822 366.485 67.8361 366.526C67.59 366.567 67.3498 366.605 67.1154 366.641C66.881 366.67 66.6847 366.693 66.5265 366.711C66.1574 366.764 65.8205 366.846 65.5158 366.957C65.2111 367.062 64.965 367.221 64.7775 367.432C64.5959 367.637 64.505 367.909 64.505 368.249C64.505 368.724 64.6808 369.081 65.0324 369.321C65.3839 369.562 65.8293 369.682 66.3683 369.682ZM74.1734 357.904V371H72.2749V357.904H74.1734ZM77.5399 357.904V371H75.6415V357.904H77.5399ZM86.7779 371.202C85.8346 371.202 85.0201 370.985 84.3346 370.552C83.649 370.118 83.1217 369.521 82.7525 368.759C82.3834 367.997 82.1988 367.124 82.1988 366.14C82.1988 365.138 82.3863 364.256 82.7613 363.494C83.1422 362.727 83.6725 362.129 84.3521 361.701C85.0377 361.268 85.8404 361.051 86.7604 361.051C87.5104 361.051 88.1754 361.188 88.7555 361.464C89.3414 361.733 89.8131 362.117 90.1705 362.615C90.5338 363.113 90.7477 363.693 90.8121 364.355H88.9488C88.8844 364.045 88.7584 363.761 88.5709 363.503C88.3893 363.245 88.149 363.04 87.8502 362.888C87.5514 362.735 87.1969 362.659 86.7867 362.659C86.2535 362.659 85.7877 362.8 85.3893 363.081C84.9967 363.356 84.6891 363.752 84.4664 364.268C84.2438 364.783 84.1324 365.393 84.1324 366.096C84.1324 366.805 84.2408 367.423 84.4576 367.95C84.6744 368.478 84.982 368.885 85.3805 369.172C85.7848 369.453 86.2535 369.594 86.7867 369.594C87.3375 369.594 87.8063 369.441 88.193 369.137C88.5855 368.832 88.8375 368.416 88.9488 367.889H90.8121C90.7477 368.527 90.5426 369.096 90.1969 369.594C89.8512 370.092 89.3883 370.484 88.8082 370.771C88.2281 371.059 87.5514 371.202 86.7779 371.202ZM98.0283 366.939V361.174H99.9267V371H98.0634V369.295H97.958C97.7236 369.816 97.3603 370.253 96.8681 370.604C96.3759 370.956 95.7607 371.129 95.0224 371.123C94.3896 371.123 93.83 370.985 93.3437 370.71C92.8632 370.435 92.4853 370.021 92.2099 369.471C91.9404 368.92 91.8056 368.237 91.8056 367.423V361.174H93.7041V367.203C93.7041 367.865 93.8916 368.396 94.2666 368.794C94.6416 369.192 95.125 369.389 95.7168 369.383C96.0742 369.383 96.4287 369.295 96.7802 369.119C97.1377 368.943 97.4336 368.674 97.6679 368.311C97.9082 367.947 98.0283 367.49 98.0283 366.939ZM108.743 363.582L107.011 363.881C106.9 363.553 106.692 363.251 106.387 362.976C106.088 362.7 105.64 362.562 105.042 362.562C104.503 362.562 104.052 362.686 103.689 362.932C103.331 363.172 103.153 363.479 103.153 363.854C103.153 364.183 103.273 364.449 103.513 364.654C103.759 364.859 104.149 365.023 104.682 365.146L106.255 365.498C107.152 365.703 107.823 366.025 108.268 366.465C108.713 366.904 108.936 367.467 108.936 368.152C108.936 368.744 108.766 369.271 108.426 369.734C108.086 370.191 107.615 370.552 107.011 370.815C106.408 371.073 105.71 371.202 104.919 371.202C103.818 371.202 102.921 370.965 102.23 370.49C101.538 370.016 101.114 369.348 100.955 368.486L102.792 368.205C102.909 368.686 103.147 369.049 103.504 369.295C103.868 369.541 104.336 369.664 104.91 369.664C105.532 369.664 106.03 369.532 106.405 369.269C106.785 369.005 106.976 368.686 106.976 368.311C106.976 367.689 106.513 367.271 105.587 367.054L103.926 366.685C103.006 366.474 102.326 366.143 101.887 365.691C101.453 365.234 101.237 364.66 101.237 363.969C101.237 363.389 101.398 362.879 101.72 362.439C102.048 362 102.496 361.66 103.065 361.42C103.639 361.174 104.292 361.051 105.025 361.051C106.091 361.051 106.926 361.282 107.53 361.745C108.139 362.208 108.543 362.82 108.743 363.582ZM114.482 361.174V362.712H109.121V361.174H114.482ZM110.553 358.836H112.461V368.117C112.461 368.568 112.554 368.899 112.742 369.11C112.929 369.315 113.231 369.418 113.647 369.418C113.747 369.418 113.852 369.412 113.964 369.4C114.081 369.389 114.198 369.371 114.315 369.348L114.675 370.93C114.482 370.994 114.271 371.044 114.043 371.079C113.814 371.114 113.586 371.132 113.357 371.132C112.507 371.132 111.828 370.895 111.318 370.42C110.808 369.939 110.553 369.301 110.553 368.504V358.836ZM119.51 371.202C118.59 371.202 117.784 370.991 117.093 370.569C116.407 370.147 115.874 369.556 115.493 368.794C115.118 368.032 114.931 367.147 114.931 366.14C114.931 365.12 115.118 364.229 115.493 363.468C115.874 362.7 116.407 362.105 117.093 361.684C117.784 361.262 118.59 361.051 119.51 361.051C120.436 361.051 121.241 361.262 121.927 361.684C122.612 362.105 123.146 362.7 123.526 363.468C123.907 364.229 124.098 365.12 124.098 366.14C124.098 367.147 123.907 368.032 123.526 368.794C123.146 369.556 122.612 370.147 121.927 370.569C121.241 370.991 120.436 371.202 119.51 371.202ZM119.51 369.594C120.113 369.594 120.611 369.436 121.004 369.119C121.397 368.803 121.687 368.384 121.874 367.862C122.067 367.335 122.164 366.761 122.164 366.14C122.164 365.507 122.067 364.927 121.874 364.399C121.687 363.872 121.397 363.45 121.004 363.134C120.611 362.817 120.113 362.659 119.51 362.659C118.912 362.659 118.417 362.817 118.024 363.134C117.638 363.45 117.348 363.872 117.154 364.399C116.961 364.927 116.864 365.507 116.864 366.14C116.864 366.761 116.961 367.335 117.154 367.862C117.348 368.384 117.638 368.803 118.024 369.119C118.417 369.436 118.912 369.594 119.51 369.594ZM125.118 371V361.174H126.937V362.791H127.069C127.274 362.246 127.608 361.821 128.071 361.517C128.539 361.206 129.096 361.051 129.741 361.051C130.397 361.051 130.945 361.206 131.384 361.517C131.829 361.821 132.161 362.246 132.377 362.791H132.483C132.717 362.258 133.089 361.836 133.599 361.525C134.109 361.209 134.715 361.051 135.418 361.051C136.309 361.051 137.038 361.332 137.607 361.895C138.175 362.451 138.459 363.292 138.459 364.417V371H136.543V364.593C136.543 363.925 136.362 363.444 135.998 363.151C135.635 362.853 135.202 362.703 134.698 362.703C134.077 362.703 133.593 362.896 133.247 363.283C132.908 363.664 132.738 364.147 132.738 364.733V371H130.822V364.47C130.822 363.937 130.658 363.509 130.329 363.187C130.001 362.864 129.571 362.703 129.037 362.703C128.674 362.703 128.337 362.8 128.027 362.993C127.722 363.181 127.476 363.444 127.288 363.784C127.107 364.118 127.016 364.505 127.016 364.944V371H125.118ZM144.155 371.202C143.194 371.202 142.362 370.994 141.659 370.578C140.956 370.162 140.414 369.576 140.033 368.82C139.658 368.059 139.47 367.171 139.47 366.157C139.47 365.149 139.655 364.262 140.024 363.494C140.399 362.727 140.924 362.129 141.597 361.701C142.277 361.268 143.074 361.051 143.988 361.051C144.545 361.051 145.084 361.142 145.605 361.323C146.127 361.505 146.595 361.792 147.011 362.185C147.427 362.577 147.756 363.087 147.996 363.714C148.242 364.341 148.365 365.097 148.365 365.981V366.667H140.552V365.234H147.381L146.493 365.709C146.493 365.105 146.399 364.572 146.212 364.109C146.024 363.646 145.743 363.286 145.368 363.028C144.999 362.765 144.539 362.633 143.988 362.633C143.437 362.633 142.966 362.765 142.573 363.028C142.186 363.292 141.89 363.641 141.685 364.074C141.48 364.508 141.378 364.982 141.378 365.498V366.474C141.378 367.147 141.495 367.719 141.729 368.188C141.964 368.656 142.289 369.014 142.705 369.26C143.127 369.506 143.616 369.629 144.173 369.629C144.536 369.629 144.864 369.576 145.157 369.471C145.456 369.365 145.714 369.207 145.93 368.996C146.147 368.785 146.311 368.524 146.423 368.214L148.233 368.557C148.087 369.084 147.829 369.547 147.46 369.945C147.091 370.344 146.625 370.654 146.062 370.877C145.506 371.094 144.87 371.202 144.155 371.202ZM149.341 371V361.174H151.178V362.747H151.283C151.465 362.22 151.781 361.804 152.233 361.499C152.69 361.188 153.205 361.033 153.779 361.033C153.897 361.033 154.034 361.039 154.193 361.051C154.357 361.057 154.488 361.065 154.588 361.077V362.905C154.512 362.882 154.374 362.858 154.175 362.835C153.982 362.812 153.785 362.8 153.586 362.8C153.135 362.8 152.731 362.896 152.373 363.09C152.022 363.277 151.743 363.538 151.538 363.872C151.339 364.2 151.239 364.581 151.239 365.015V371H149.341ZM162.455 371.193C161.658 371.193 160.949 370.991 160.328 370.587C159.707 370.177 159.221 369.594 158.869 368.838C158.517 368.076 158.342 367.168 158.342 366.113C158.342 365.047 158.52 364.136 158.878 363.38C159.235 362.624 159.724 362.047 160.346 361.648C160.967 361.25 161.67 361.051 162.455 361.051C163.07 361.051 163.562 361.153 163.931 361.358C164.306 361.558 164.597 361.792 164.802 362.062C165.013 362.331 165.174 362.568 165.285 362.773H165.399V357.904H167.298V371H165.443V369.471H165.285C165.174 369.676 165.01 369.913 164.793 370.183C164.576 370.452 164.28 370.689 163.905 370.895C163.536 371.094 163.053 371.193 162.455 371.193ZM162.868 369.567C163.419 369.567 163.885 369.421 164.265 369.128C164.646 368.835 164.933 368.428 165.127 367.906C165.326 367.385 165.426 366.781 165.426 366.096C165.426 365.41 165.329 364.812 165.136 364.303C164.942 363.787 164.655 363.389 164.274 363.107C163.893 362.82 163.425 362.677 162.868 362.677C162.294 362.677 161.816 362.826 161.435 363.125C161.055 363.424 160.767 363.831 160.574 364.347C160.381 364.862 160.284 365.445 160.284 366.096C160.284 366.752 160.381 367.344 160.574 367.871C160.767 368.393 161.055 368.806 161.435 369.11C161.822 369.415 162.3 369.567 162.868 369.567ZM171.622 371.211C171.001 371.211 170.439 371.097 169.935 370.868C169.431 370.634 169.032 370.294 168.739 369.849C168.446 369.403 168.3 368.861 168.3 368.223C168.3 367.666 168.405 367.212 168.616 366.86C168.833 366.503 169.123 366.219 169.487 366.008C169.85 365.797 170.254 365.639 170.699 365.533C171.145 365.428 171.602 365.346 172.071 365.287C172.662 365.223 173.14 365.167 173.503 365.12C173.866 365.073 174.13 365 174.294 364.9C174.464 364.795 174.549 364.628 174.549 364.399V364.355C174.549 363.799 174.391 363.368 174.074 363.063C173.764 362.759 173.301 362.606 172.686 362.606C172.047 362.606 171.54 362.747 171.165 363.028C170.796 363.304 170.541 363.617 170.401 363.969L168.599 363.556C168.816 362.958 169.129 362.478 169.539 362.114C169.955 361.745 170.43 361.476 170.963 361.306C171.502 361.136 172.065 361.051 172.651 361.051C173.043 361.051 173.459 361.098 173.899 361.191C174.338 361.279 174.751 361.446 175.138 361.692C175.53 361.933 175.85 362.278 176.096 362.729C176.342 363.181 176.465 363.764 176.465 364.479V371H174.593V369.655H174.523C174.405 369.896 174.221 370.136 173.969 370.376C173.723 370.616 173.406 370.815 173.02 370.974C172.633 371.132 172.167 371.211 171.622 371.211ZM172.035 369.682C172.569 369.682 173.023 369.579 173.398 369.374C173.773 369.163 174.06 368.888 174.259 368.548C174.458 368.208 174.558 367.848 174.558 367.467V366.192C174.488 366.257 174.356 366.318 174.162 366.377C173.969 366.436 173.749 366.485 173.503 366.526C173.257 366.567 173.017 366.605 172.782 366.641C172.548 366.67 172.352 366.693 172.194 366.711C171.824 366.764 171.488 366.846 171.183 366.957C170.878 367.062 170.632 367.221 170.445 367.432C170.263 367.637 170.172 367.909 170.172 368.249C170.172 368.724 170.348 369.081 170.699 369.321C171.051 369.562 171.496 369.682 172.035 369.682ZM182.512 361.174V362.712H177.151V361.174H182.512ZM178.584 358.836H180.491V368.117C180.491 368.568 180.585 368.899 180.772 369.11C180.96 369.315 181.261 369.418 181.677 369.418C181.777 369.418 181.882 369.412 181.994 369.4C182.111 369.389 182.228 369.371 182.345 369.348L182.706 370.93C182.512 370.994 182.301 371.044 182.073 371.079C181.844 371.114 181.616 371.132 181.387 371.132C180.538 371.132 179.858 370.895 179.348 370.42C178.838 369.939 178.584 369.301 178.584 368.504V358.836ZM186.371 371.211C185.75 371.211 185.187 371.097 184.684 370.868C184.18 370.634 183.781 370.294 183.488 369.849C183.195 369.403 183.049 368.861 183.049 368.223C183.049 367.666 183.154 367.212 183.365 366.86C183.582 366.503 183.872 366.219 184.235 366.008C184.599 365.797 185.003 365.639 185.448 365.533C185.893 365.428 186.351 365.346 186.819 365.287C187.411 365.223 187.889 365.167 188.252 365.12C188.615 365.073 188.879 365 189.043 364.9C189.213 364.795 189.298 364.628 189.298 364.399V364.355C189.298 363.799 189.14 363.368 188.823 363.063C188.513 362.759 188.05 362.606 187.434 362.606C186.796 362.606 186.289 362.747 185.914 363.028C185.545 363.304 185.29 363.617 185.149 363.969L183.348 363.556C183.564 362.958 183.878 362.478 184.288 362.114C184.704 361.745 185.179 361.476 185.712 361.306C186.251 361.136 186.813 361.051 187.399 361.051C187.792 361.051 188.208 361.098 188.647 361.191C189.087 361.279 189.5 361.446 189.887 361.692C190.279 361.933 190.599 362.278 190.845 362.729C191.091 363.181 191.214 363.764 191.214 364.479V371H189.342V369.655H189.271C189.154 369.896 188.97 370.136 188.718 370.376C188.472 370.616 188.155 370.815 187.768 370.974C187.382 371.132 186.916 371.211 186.371 371.211ZM186.784 369.682C187.317 369.682 187.771 369.579 188.146 369.374C188.521 369.163 188.809 368.888 189.008 368.548C189.207 368.208 189.307 367.848 189.307 367.467V366.192C189.236 366.257 189.104 366.318 188.911 366.377C188.718 366.436 188.498 366.485 188.252 366.526C188.006 366.567 187.766 366.605 187.531 366.641C187.297 366.67 187.101 366.693 186.942 366.711C186.573 366.764 186.236 366.846 185.932 366.957C185.627 367.062 185.381 367.221 185.193 367.432C185.012 367.637 184.921 367.909 184.921 368.249C184.921 368.724 185.097 369.081 185.448 369.321C185.8 369.562 186.245 369.682 186.784 369.682ZM196.339 371V361.174H198.237V371H196.339ZM197.297 359.662C196.963 359.662 196.678 359.551 196.444 359.328C196.21 359.105 196.092 358.839 196.092 358.528C196.092 358.212 196.21 357.942 196.444 357.72C196.678 357.497 196.963 357.386 197.297 357.386C197.625 357.386 197.906 357.497 198.14 357.72C198.381 357.942 198.501 358.212 198.501 358.528C198.501 358.839 198.381 359.105 198.14 359.328C197.906 359.551 197.625 359.662 197.297 359.662ZM201.604 365.173V371H199.705V361.174H201.551V362.791H201.683C201.905 362.258 202.254 361.836 202.729 361.525C203.203 361.209 203.812 361.051 204.557 361.051C205.225 361.051 205.808 361.191 206.306 361.473C206.81 361.748 207.199 362.161 207.475 362.712C207.756 363.263 207.896 363.945 207.896 364.76V371H205.998V364.988C205.998 364.279 205.811 363.723 205.436 363.318C205.061 362.908 204.551 362.703 203.906 362.703C203.467 362.703 203.071 362.803 202.72 363.002C202.374 363.195 202.102 363.474 201.902 363.837C201.703 364.2 201.604 364.646 201.604 365.173ZM217.134 371.202C216.215 371.202 215.409 370.991 214.717 370.569C214.032 370.147 213.499 369.556 213.118 368.794C212.743 368.032 212.555 367.147 212.555 366.14C212.555 365.12 212.743 364.229 213.118 363.468C213.499 362.7 214.032 362.105 214.717 361.684C215.409 361.262 216.215 361.051 217.134 361.051C218.06 361.051 218.866 361.262 219.551 361.684C220.237 362.105 220.77 362.7 221.151 363.468C221.532 364.229 221.722 365.12 221.722 366.14C221.722 367.147 221.532 368.032 221.151 368.794C220.77 369.556 220.237 370.147 219.551 370.569C218.866 370.991 218.06 371.202 217.134 371.202ZM217.134 369.594C217.738 369.594 218.236 369.436 218.629 369.119C219.021 368.803 219.311 368.384 219.499 367.862C219.692 367.335 219.789 366.761 219.789 366.14C219.789 365.507 219.692 364.927 219.499 364.399C219.311 363.872 219.021 363.45 218.629 363.134C218.236 362.817 217.738 362.659 217.134 362.659C216.537 362.659 216.042 362.817 215.649 363.134C215.262 363.45 214.972 363.872 214.779 364.399C214.586 364.927 214.489 365.507 214.489 366.14C214.489 366.761 214.586 367.335 214.779 367.862C214.972 368.384 215.262 368.803 215.649 369.119C216.042 369.436 216.537 369.594 217.134 369.594ZM224.641 365.173V371H222.742V361.174H224.588V362.791H224.72C224.942 362.258 225.291 361.836 225.766 361.525C226.24 361.209 226.85 361.051 227.594 361.051C228.262 361.051 228.845 361.191 229.343 361.473C229.847 361.748 230.236 362.161 230.512 362.712C230.793 363.263 230.934 363.945 230.934 364.76V371H229.035V364.988C229.035 364.279 228.848 363.723 228.473 363.318C228.098 362.908 227.588 362.703 226.943 362.703C226.504 362.703 226.108 362.803 225.757 363.002C225.411 363.195 225.139 363.474 224.94 363.837C224.74 364.2 224.641 364.646 224.641 365.173ZM236.629 371.202C235.668 371.202 234.836 370.994 234.133 370.578C233.43 370.162 232.888 369.576 232.507 368.82C232.132 368.059 231.945 367.171 231.945 366.157C231.945 365.149 232.129 364.262 232.498 363.494C232.873 362.727 233.398 362.129 234.072 361.701C234.751 361.268 235.548 361.051 236.462 361.051C237.019 361.051 237.558 361.142 238.08 361.323C238.601 361.505 239.07 361.792 239.486 362.185C239.902 362.577 240.23 363.087 240.47 363.714C240.716 364.341 240.839 365.097 240.839 365.981V366.667H233.026V365.234H239.855L238.967 365.709C238.967 365.105 238.873 364.572 238.686 364.109C238.498 363.646 238.217 363.286 237.842 363.028C237.473 362.765 237.013 362.633 236.462 362.633C235.912 362.633 235.44 362.765 235.047 363.028C234.661 363.292 234.365 363.641 234.16 364.074C233.955 364.508 233.852 364.982 233.852 365.498V366.474C233.852 367.147 233.969 367.719 234.204 368.188C234.438 368.656 234.763 369.014 235.179 369.26C235.601 369.506 236.09 369.629 236.647 369.629C237.01 369.629 237.338 369.576 237.631 369.471C237.93 369.365 238.188 369.207 238.405 368.996C238.622 368.785 238.786 368.524 238.897 368.214L240.707 368.557C240.561 369.084 240.303 369.547 239.934 369.945C239.565 370.344 239.099 370.654 238.537 370.877C237.98 371.094 237.344 371.202 236.629 371.202ZM252.811 363.582L251.079 363.881C250.968 363.553 250.76 363.251 250.455 362.976C250.156 362.7 249.708 362.562 249.111 362.562C248.571 362.562 248.12 362.686 247.757 362.932C247.4 363.172 247.221 363.479 247.221 363.854C247.221 364.183 247.341 364.449 247.581 364.654C247.827 364.859 248.217 365.023 248.75 365.146L250.323 365.498C251.22 365.703 251.891 366.025 252.336 366.465C252.781 366.904 253.004 367.467 253.004 368.152C253.004 368.744 252.834 369.271 252.494 369.734C252.154 370.191 251.683 370.552 251.079 370.815C250.476 371.073 249.778 371.202 248.987 371.202C247.886 371.202 246.989 370.965 246.298 370.49C245.607 370.016 245.182 369.348 245.024 368.486L246.861 368.205C246.978 368.686 247.215 369.049 247.572 369.295C247.936 369.541 248.404 369.664 248.979 369.664C249.6 369.664 250.098 369.532 250.473 369.269C250.854 369.005 251.044 368.686 251.044 368.311C251.044 367.689 250.581 367.271 249.655 367.054L247.994 366.685C247.074 366.474 246.395 366.143 245.955 365.691C245.522 365.234 245.305 364.66 245.305 363.969C245.305 363.389 245.466 362.879 245.788 362.439C246.116 362 246.565 361.66 247.133 361.42C247.707 361.174 248.361 361.051 249.093 361.051C250.159 361.051 250.994 361.282 251.598 361.745C252.207 362.208 252.611 362.82 252.811 363.582ZM258.208 371.202C257.247 371.202 256.415 370.994 255.711 370.578C255.008 370.162 254.466 369.576 254.085 368.82C253.71 368.059 253.523 367.171 253.523 366.157C253.523 365.149 253.708 364.262 254.077 363.494C254.452 362.727 254.976 362.129 255.65 361.701C256.33 361.268 257.126 361.051 258.041 361.051C258.597 361.051 259.136 361.142 259.658 361.323C260.179 361.505 260.648 361.792 261.064 362.185C261.48 362.577 261.808 363.087 262.048 363.714C262.294 364.341 262.417 365.097 262.417 365.981V366.667H254.604V365.234H261.433L260.545 365.709C260.545 365.105 260.452 364.572 260.264 364.109C260.077 363.646 259.795 363.286 259.42 363.028C259.051 362.765 258.591 362.633 258.041 362.633C257.49 362.633 257.018 362.765 256.626 363.028C256.239 363.292 255.943 363.641 255.738 364.074C255.533 364.508 255.43 364.982 255.43 365.498V366.474C255.43 367.147 255.547 367.719 255.782 368.188C256.016 368.656 256.341 369.014 256.757 369.26C257.179 369.506 257.668 369.629 258.225 369.629C258.588 369.629 258.917 369.576 259.209 369.471C259.508 369.365 259.766 369.207 259.983 368.996C260.2 368.785 260.364 368.524 260.475 368.214L262.286 368.557C262.139 369.084 261.881 369.547 261.512 369.945C261.143 370.344 260.677 370.654 260.115 370.877C259.558 371.094 258.922 371.202 258.208 371.202ZM267.516 371.202C266.572 371.202 265.758 370.985 265.072 370.552C264.387 370.118 263.859 369.521 263.49 368.759C263.121 367.997 262.936 367.124 262.936 366.14C262.936 365.138 263.124 364.256 263.499 363.494C263.88 362.727 264.41 362.129 265.09 361.701C265.775 361.268 266.578 361.051 267.498 361.051C268.248 361.051 268.913 361.188 269.493 361.464C270.079 361.733 270.551 362.117 270.908 362.615C271.271 363.113 271.485 363.693 271.55 364.355H269.686C269.622 364.045 269.496 363.761 269.308 363.503C269.127 363.245 268.887 363.04 268.588 362.888C268.289 362.735 267.934 362.659 267.524 362.659C266.991 362.659 266.525 362.8 266.127 363.081C265.734 363.356 265.427 363.752 265.204 364.268C264.981 364.783 264.87 365.393 264.87 366.096C264.87 366.805 264.978 367.423 265.195 367.95C265.412 368.478 265.72 368.885 266.118 369.172C266.522 369.453 266.991 369.594 267.524 369.594C268.075 369.594 268.544 369.441 268.931 369.137C269.323 368.832 269.575 368.416 269.686 367.889H271.55C271.485 368.527 271.28 369.096 270.934 369.594C270.589 370.092 270.126 370.484 269.546 370.771C268.966 371.059 268.289 371.202 267.516 371.202ZM278.766 366.939V361.174H280.664V371H278.801V369.295H278.696C278.461 369.816 278.098 370.253 277.606 370.604C277.114 370.956 276.498 371.129 275.76 371.123C275.127 371.123 274.568 370.985 274.081 370.71C273.601 370.435 273.223 370.021 272.947 369.471C272.678 368.92 272.543 368.237 272.543 367.423V361.174H274.442V367.203C274.442 367.865 274.629 368.396 275.004 368.794C275.379 369.192 275.863 369.389 276.454 369.383C276.812 369.383 277.166 369.295 277.518 369.119C277.875 368.943 278.171 368.674 278.406 368.311C278.646 367.947 278.766 367.49 278.766 366.939ZM282.132 371V361.174H283.969V362.747H284.075C284.256 362.22 284.573 361.804 285.024 361.499C285.481 361.188 285.997 361.033 286.571 361.033C286.688 361.033 286.826 361.039 286.984 361.051C287.148 361.057 287.28 361.065 287.379 361.077V362.905C287.303 362.882 287.166 362.858 286.966 362.835C286.773 362.812 286.577 362.8 286.378 362.8C285.926 362.8 285.522 362.896 285.165 363.09C284.813 363.277 284.535 363.538 284.33 363.872C284.13 364.2 284.031 364.581 284.031 365.015V371H282.132ZM291.818 371.202C290.857 371.202 290.025 370.994 289.322 370.578C288.619 370.162 288.077 369.576 287.696 368.82C287.321 368.059 287.134 367.171 287.134 366.157C287.134 365.149 287.318 364.262 287.687 363.494C288.062 362.727 288.587 362.129 289.261 361.701C289.94 361.268 290.737 361.051 291.651 361.051C292.208 361.051 292.747 361.142 293.269 361.323C293.79 361.505 294.259 361.792 294.675 362.185C295.091 362.577 295.419 363.087 295.659 363.714C295.905 364.341 296.028 365.097 296.028 365.981V366.667H288.215V365.234H295.044L294.156 365.709C294.156 365.105 294.062 364.572 293.875 364.109C293.687 363.646 293.406 363.286 293.031 363.028C292.662 362.765 292.202 362.633 291.651 362.633C291.101 362.633 290.629 362.765 290.236 363.028C289.85 363.292 289.554 363.641 289.349 364.074C289.144 364.508 289.041 364.982 289.041 365.498V366.474C289.041 367.147 289.158 367.719 289.393 368.188C289.627 368.656 289.952 369.014 290.368 369.26C290.79 369.506 291.279 369.629 291.836 369.629C292.199 369.629 292.527 369.576 292.82 369.471C293.119 369.365 293.377 369.207 293.594 368.996C293.811 368.785 293.975 368.524 294.086 368.214L295.896 368.557C295.75 369.084 295.492 369.547 295.123 369.945C294.754 370.344 294.288 370.654 293.726 370.877C293.169 371.094 292.533 371.202 291.818 371.202ZM296.811 374.243L297.584 369.119H299.641L298.191 374.243H296.811ZM309.143 371.202C308.223 371.202 307.417 370.991 306.726 370.569C306.04 370.147 305.507 369.556 305.126 368.794C304.751 368.032 304.564 367.147 304.564 366.14C304.564 365.12 304.751 364.229 305.126 363.468C305.507 362.7 306.04 362.105 306.726 361.684C307.417 361.262 308.223 361.051 309.143 361.051C310.068 361.051 310.874 361.262 311.56 361.684C312.245 362.105 312.778 362.7 313.159 363.468C313.54 364.229 313.73 365.12 313.73 366.14C313.73 367.147 313.54 368.032 313.159 368.794C312.778 369.556 312.245 370.147 311.56 370.569C310.874 370.991 310.068 371.202 309.143 371.202ZM309.143 369.594C309.746 369.594 310.244 369.436 310.637 369.119C311.029 368.803 311.319 368.384 311.507 367.862C311.7 367.335 311.797 366.761 311.797 366.14C311.797 365.507 311.7 364.927 311.507 364.399C311.319 363.872 311.029 363.45 310.637 363.134C310.244 362.817 309.746 362.659 309.143 362.659C308.545 362.659 308.05 362.817 307.657 363.134C307.271 363.45 306.98 363.872 306.787 364.399C306.594 364.927 306.497 365.507 306.497 366.14C306.497 366.761 306.594 367.335 306.787 367.862C306.98 368.384 307.271 368.803 307.657 369.119C308.05 369.436 308.545 369.594 309.143 369.594ZM314.75 371V361.174H316.587V362.747H316.693C316.874 362.22 317.191 361.804 317.642 361.499C318.099 361.188 318.615 361.033 319.189 361.033C319.306 361.033 319.444 361.039 319.602 361.051C319.766 361.057 319.898 361.065 319.997 361.077V362.905C319.921 362.882 319.784 362.858 319.584 362.835C319.391 362.812 319.195 362.8 318.996 362.8C318.544 362.8 318.14 362.896 317.783 363.09C317.431 363.277 317.153 363.538 316.948 363.872C316.748 364.2 316.649 364.581 316.649 365.015V371H314.75ZM324.304 374.885C323.133 374.885 322.21 374.665 321.536 374.226C320.862 373.786 320.396 373.265 320.138 372.661L321.773 371.984C321.89 372.172 322.046 372.371 322.239 372.582C322.438 372.793 322.705 372.972 323.039 373.118C323.373 373.265 323.803 373.338 324.331 373.338C325.052 373.338 325.649 373.162 326.124 372.811C326.598 372.465 326.836 371.908 326.836 371.141V369.216H326.704C326.598 369.421 326.437 369.652 326.22 369.91C326.004 370.162 325.708 370.382 325.333 370.569C324.958 370.757 324.469 370.851 323.865 370.851C323.092 370.851 322.394 370.669 321.773 370.306C321.158 369.937 320.666 369.397 320.297 368.688C319.933 367.974 319.752 367.095 319.752 366.052C319.752 365.009 319.93 364.115 320.288 363.371C320.651 362.621 321.143 362.047 321.764 361.648C322.385 361.25 323.092 361.051 323.883 361.051C324.492 361.051 324.984 361.153 325.359 361.358C325.74 361.558 326.036 361.792 326.247 362.062C326.458 362.331 326.622 362.568 326.739 362.773H326.88V361.174H328.734V371.22C328.734 372.063 328.538 372.755 328.145 373.294C327.759 373.833 327.231 374.231 326.563 374.489C325.895 374.753 325.142 374.885 324.304 374.885ZM324.287 369.26C325.113 369.26 325.746 368.976 326.185 368.407C326.631 367.833 326.853 367.039 326.853 366.025C326.853 365.363 326.757 364.783 326.563 364.285C326.37 363.781 326.083 363.389 325.702 363.107C325.321 362.82 324.849 362.677 324.287 362.677C323.713 362.677 323.232 362.826 322.845 363.125C322.465 363.418 322.177 363.819 321.984 364.329C321.791 364.833 321.694 365.398 321.694 366.025C321.694 366.664 321.791 367.229 321.984 367.722C322.177 368.208 322.468 368.586 322.854 368.855C323.247 369.125 323.724 369.26 324.287 369.26ZM333.05 371.211C332.429 371.211 331.866 371.097 331.362 370.868C330.859 370.634 330.46 370.294 330.167 369.849C329.874 369.403 329.728 368.861 329.728 368.223C329.728 367.666 329.833 367.212 330.044 366.86C330.261 366.503 330.551 366.219 330.914 366.008C331.277 365.797 331.682 365.639 332.127 365.533C332.572 365.428 333.029 365.346 333.498 365.287C334.09 365.223 334.568 365.167 334.931 365.12C335.294 365.073 335.558 365 335.722 364.9C335.892 364.795 335.977 364.628 335.977 364.399V364.355C335.977 363.799 335.818 363.368 335.502 363.063C335.192 362.759 334.729 362.606 334.113 362.606C333.475 362.606 332.968 362.747 332.593 363.028C332.224 363.304 331.969 363.617 331.828 363.969L330.026 363.556C330.243 362.958 330.557 362.478 330.967 362.114C331.383 361.745 331.858 361.476 332.391 361.306C332.93 361.136 333.492 361.051 334.078 361.051C334.471 361.051 334.887 361.098 335.326 361.191C335.766 361.279 336.179 361.446 336.566 361.692C336.958 361.933 337.277 362.278 337.524 362.729C337.77 363.181 337.893 363.764 337.893 364.479V371H336.021V369.655H335.95C335.833 369.896 335.649 370.136 335.397 370.376C335.151 370.616 334.834 370.815 334.447 370.974C334.061 371.132 333.595 371.211 333.05 371.211ZM333.463 369.682C333.996 369.682 334.45 369.579 334.825 369.374C335.2 369.163 335.487 368.888 335.687 368.548C335.886 368.208 335.985 367.848 335.985 367.467V366.192C335.915 366.257 335.783 366.318 335.59 366.377C335.397 366.436 335.177 366.485 334.931 366.526C334.685 366.567 334.444 366.605 334.21 366.641C333.976 366.67 333.779 366.693 333.621 366.711C333.252 366.764 332.915 366.846 332.61 366.957C332.306 367.062 332.06 367.221 331.872 367.432C331.691 367.637 331.6 367.909 331.6 368.249C331.6 368.724 331.776 369.081 332.127 369.321C332.479 369.562 332.924 369.682 333.463 369.682ZM341.268 365.173V371H339.37V361.174H341.215V362.791H341.347C341.57 362.258 341.918 361.836 342.393 361.525C342.868 361.209 343.477 361.051 344.221 361.051C344.889 361.051 345.472 361.191 345.97 361.473C346.474 361.748 346.864 362.161 347.139 362.712C347.42 363.263 347.561 363.945 347.561 364.76V371H345.663V364.988C345.663 364.279 345.475 363.723 345.1 363.318C344.725 362.908 344.215 362.703 343.571 362.703C343.131 362.703 342.736 362.803 342.384 363.002C342.039 363.195 341.766 363.474 341.567 363.837C341.368 364.2 341.268 364.646 341.268 365.173ZM349.029 371V361.174H350.928V371H349.029ZM349.987 359.662C349.653 359.662 349.369 359.551 349.135 359.328C348.9 359.105 348.783 358.839 348.783 358.528C348.783 358.212 348.9 357.942 349.135 357.72C349.369 357.497 349.653 357.386 349.987 357.386C350.315 357.386 350.597 357.497 350.831 357.72C351.071 357.942 351.191 358.212 351.191 358.528C351.191 358.839 351.071 359.105 350.831 359.328C350.597 359.551 350.315 359.662 349.987 359.662ZM352.185 371V369.699L357.502 362.932V362.835H352.361V361.174H359.884V362.58L354.769 369.242V369.339H360.06V371H352.185ZM365.158 371.202C364.197 371.202 363.365 370.994 362.662 370.578C361.959 370.162 361.417 369.576 361.036 368.82C360.661 368.059 360.473 367.171 360.473 366.157C360.473 365.149 360.658 364.262 361.027 363.494C361.402 362.727 361.926 362.129 362.6 361.701C363.28 361.268 364.077 361.051 364.991 361.051C365.547 361.051 366.086 361.142 366.608 361.323C367.129 361.505 367.598 361.792 368.014 362.185C368.43 362.577 368.758 363.087 368.999 363.714C369.245 364.341 369.368 365.097 369.368 365.981V366.667H361.554V365.234H368.383L367.496 365.709C367.496 365.105 367.402 364.572 367.214 364.109C367.027 363.646 366.746 363.286 366.371 363.028C366.002 362.765 365.542 362.633 364.991 362.633C364.44 362.633 363.968 362.765 363.576 363.028C363.189 363.292 362.893 363.641 362.688 364.074C362.483 364.508 362.38 364.982 362.38 365.498V366.474C362.38 367.147 362.498 367.719 362.732 368.188C362.966 368.656 363.292 369.014 363.708 369.26C364.129 369.506 364.619 369.629 365.175 369.629C365.539 369.629 365.867 369.576 366.16 369.471C366.459 369.365 366.716 369.207 366.933 368.996C367.15 368.785 367.314 368.524 367.425 368.214L369.236 368.557C369.089 369.084 368.832 369.547 368.462 369.945C368.093 370.344 367.628 370.654 367.065 370.877C366.508 371.094 365.873 371.202 365.158 371.202ZM374 371.193C373.203 371.193 372.494 370.991 371.873 370.587C371.252 370.177 370.766 369.594 370.414 368.838C370.062 368.076 369.887 367.168 369.887 366.113C369.887 365.047 370.065 364.136 370.423 363.38C370.78 362.624 371.269 362.047 371.891 361.648C372.512 361.25 373.215 361.051 374 361.051C374.615 361.051 375.107 361.153 375.476 361.358C375.851 361.558 376.142 361.792 376.347 362.062C376.558 362.331 376.719 362.568 376.83 362.773H376.944V357.904H378.843V371H376.988V369.471H376.83C376.719 369.676 376.555 369.913 376.338 370.183C376.121 370.452 375.825 370.689 375.45 370.895C375.081 371.094 374.598 371.193 374 371.193ZM374.413 369.567C374.964 369.567 375.43 369.421 375.81 369.128C376.191 368.835 376.478 368.428 376.672 367.906C376.871 367.385 376.971 366.781 376.971 366.096C376.971 365.41 376.874 364.812 376.681 364.303C376.487 363.787 376.2 363.389 375.819 363.107C375.438 362.82 374.97 362.677 374.413 362.677C373.839 362.677 373.361 362.826 372.98 363.125C372.6 363.424 372.312 363.831 372.119 364.347C371.926 364.862 371.829 365.445 371.829 366.096C371.829 366.752 371.926 367.344 372.119 367.871C372.312 368.393 372.6 368.806 372.98 369.11C373.367 369.415 373.845 369.567 374.413 369.567ZM18.9141 399.674V386.174H20.7598V387.773H20.918C21.0352 387.568 21.1963 387.331 21.4014 387.062C21.6123 386.792 21.9053 386.558 22.2803 386.358C22.6553 386.153 23.1445 386.051 23.748 386.051C24.5391 386.051 25.2422 386.25 25.8574 386.648C26.4785 387.047 26.9678 387.624 27.3252 388.38C27.6826 389.136 27.8613 390.047 27.8613 391.113C27.8613 392.168 27.6855 393.076 27.334 393.838C26.9824 394.594 26.4961 395.177 25.875 395.587C25.2598 395.991 24.5537 396.193 23.7568 396.193C23.165 396.193 22.6787 396.094 22.2979 395.895C21.9229 395.689 21.627 395.452 21.4102 395.183C21.1992 394.913 21.0352 394.676 20.918 394.471H20.8125V399.674H18.9141ZM23.3438 394.567C23.9121 394.567 24.3867 394.415 24.7676 394.11C25.1484 393.806 25.4355 393.393 25.6289 392.871C25.8281 392.344 25.9277 391.752 25.9277 391.096C25.9277 390.445 25.8311 389.862 25.6377 389.347C25.4443 388.831 25.1572 388.424 24.7764 388.125C24.3955 387.826 23.918 387.677 23.3438 387.677C22.7871 387.677 22.3184 387.82 21.9375 388.107C21.5566 388.389 21.2666 388.787 21.0674 389.303C20.874 389.812 20.7773 390.41 20.7773 391.096C20.7773 391.781 20.877 392.385 21.0762 392.906C21.2754 393.428 21.5654 393.835 21.9463 394.128C22.333 394.421 22.7988 394.567 23.3438 394.567ZM30.7884 382.904V396H28.89V382.904H30.7884ZM35.1042 396.211C34.4831 396.211 33.9206 396.097 33.4167 395.868C32.9128 395.634 32.5144 395.294 32.2214 394.849C31.9284 394.403 31.782 393.861 31.782 393.223C31.782 392.666 31.8874 392.212 32.0984 391.86C32.3152 391.503 32.6052 391.219 32.9685 391.008C33.3318 390.797 33.7361 390.639 34.1814 390.533C34.6267 390.428 35.0837 390.346 35.5525 390.287C36.1443 390.223 36.6218 390.167 36.9851 390.12C37.3484 390.073 37.612 390 37.7761 389.9C37.946 389.795 38.031 389.628 38.031 389.399V389.355C38.031 388.799 37.8728 388.368 37.5564 388.063C37.2458 387.759 36.7829 387.606 36.1677 387.606C35.529 387.606 35.0222 387.747 34.6472 388.028C34.278 388.304 34.0232 388.617 33.8825 388.969L32.0808 388.556C32.2976 387.958 32.6111 387.478 33.0212 387.114C33.4372 386.745 33.9118 386.476 34.445 386.306C34.9841 386.136 35.5466 386.051 36.1325 386.051C36.5251 386.051 36.9411 386.098 37.3806 386.191C37.82 386.279 38.2331 386.446 38.6198 386.692C39.0124 386.933 39.3318 387.278 39.5779 387.729C39.8239 388.181 39.947 388.764 39.947 389.479V396H38.0749V394.655H38.0046C37.8874 394.896 37.7029 395.136 37.4509 395.376C37.2048 395.616 36.8884 395.815 36.5017 395.974C36.115 396.132 35.6491 396.211 35.1042 396.211ZM35.5173 394.682C36.0505 394.682 36.5046 394.579 36.8796 394.374C37.2546 394.163 37.5417 393.888 37.7409 393.548C37.9402 393.208 38.0398 392.848 38.0398 392.467V391.192C37.9695 391.257 37.8376 391.318 37.6443 391.377C37.4509 391.436 37.2312 391.485 36.9851 391.526C36.739 391.567 36.4987 391.605 36.2644 391.641C36.03 391.67 35.8337 391.693 35.6755 391.711C35.3064 391.764 34.9695 391.846 34.6648 391.957C34.3601 392.062 34.114 392.221 33.9265 392.432C33.7448 392.637 33.654 392.909 33.654 393.249C33.654 393.724 33.8298 394.081 34.1814 394.321C34.5329 394.562 34.9782 394.682 35.5173 394.682ZM45.546 396.202C44.6026 396.202 43.7882 395.985 43.1026 395.552C42.4171 395.118 41.8897 394.521 41.5206 393.759C41.1514 392.997 40.9669 392.124 40.9669 391.14C40.9669 390.138 41.1544 389.256 41.5294 388.494C41.9102 387.727 42.4405 387.129 43.1202 386.701C43.8057 386.268 44.6085 386.051 45.5284 386.051C46.2784 386.051 46.9434 386.188 47.5235 386.464C48.1095 386.733 48.5811 387.117 48.9386 387.615C49.3018 388.113 49.5157 388.693 49.5802 389.355H47.7169C47.6524 389.045 47.5264 388.761 47.3389 388.503C47.1573 388.245 46.9171 388.04 46.6182 387.888C46.3194 387.735 45.9649 387.659 45.5548 387.659C45.0216 387.659 44.5557 387.8 44.1573 388.081C43.7647 388.356 43.4571 388.752 43.2345 389.268C43.0118 389.783 42.9005 390.393 42.9005 391.096C42.9005 391.805 43.0089 392.423 43.2257 392.95C43.4425 393.478 43.7501 393.885 44.1485 394.172C44.5528 394.453 45.0216 394.594 45.5548 394.594C46.1055 394.594 46.5743 394.441 46.961 394.137C47.3536 393.832 47.6055 393.416 47.7169 392.889H49.5802C49.5157 393.527 49.3106 394.096 48.9649 394.594C48.6192 395.092 48.1563 395.484 47.5763 395.771C46.9962 396.059 46.3194 396.202 45.546 396.202ZM54.8012 396.202C53.8403 396.202 53.0082 395.994 52.3051 395.578C51.602 395.162 51.06 394.576 50.6791 393.82C50.3041 393.059 50.1166 392.171 50.1166 391.157C50.1166 390.149 50.3012 389.262 50.6704 388.494C51.0454 387.727 51.5698 387.129 52.2436 386.701C52.9233 386.268 53.7202 386.051 54.6342 386.051C55.1909 386.051 55.7299 386.142 56.2514 386.323C56.7729 386.505 57.2416 386.792 57.6577 387.185C58.0737 387.577 58.4018 388.087 58.642 388.714C58.8881 389.341 59.0112 390.097 59.0112 390.981V391.667H51.1977V390.234H58.0268L57.1391 390.709C57.1391 390.105 57.0454 389.572 56.8579 389.109C56.6704 388.646 56.3891 388.286 56.0141 388.028C55.645 387.765 55.185 387.633 54.6342 387.633C54.0834 387.633 53.6118 387.765 53.2192 388.028C52.8325 388.292 52.5366 388.641 52.3315 389.074C52.1264 389.508 52.0239 389.982 52.0239 390.498V391.474C52.0239 392.147 52.1411 392.719 52.3754 393.188C52.6098 393.656 52.935 394.014 53.351 394.26C53.7729 394.506 54.2621 394.629 54.8188 394.629C55.1821 394.629 55.5102 394.576 55.8032 394.471C56.102 394.365 56.3598 394.207 56.5766 393.996C56.7934 393.785 56.9575 393.524 57.0688 393.214L58.8793 393.557C58.7329 394.084 58.475 394.547 58.1059 394.945C57.7368 395.344 57.2709 395.654 56.7084 395.877C56.1518 396.094 55.5161 396.202 54.8012 396.202ZM61.4109 396.123C61.0535 396.123 60.7488 396 60.4969 395.754C60.2508 395.508 60.1277 395.206 60.1277 394.849C60.1277 394.491 60.2508 394.189 60.4969 393.943C60.7488 393.697 61.0535 393.574 61.4109 393.574C61.7684 393.574 62.0701 393.697 62.3162 393.943C62.5682 394.189 62.6941 394.491 62.6941 394.849C62.6941 395.206 62.5682 395.508 62.3162 395.754C62.0701 396 61.7684 396.123 61.4109 396.123Z" fill="#AAAAAA"/>
<g filter="url(#filter1_f_1809_1317)">
<path d="M126.497 146.736L136.265 226.672C136.539 229.004 137.661 231.154 139.417 232.712C141.173 234.271 143.44 235.129 145.788 235.125H271.227C273.575 235.129 275.842 234.271 277.598 232.712C279.354 231.154 280.476 229.004 280.75 226.672L290.505 146.736C290.572 146.161 290.517 145.578 290.343 145.026C290.169 144.474 289.88 143.964 289.496 143.532C289.111 143.099 288.639 142.753 288.11 142.516C287.582 142.279 287.009 142.156 286.43 142.156H130.571C129.992 142.156 129.419 142.279 128.891 142.516C128.363 142.753 127.891 143.099 127.506 143.532C127.121 143.964 126.832 144.474 126.658 145.026C126.484 145.578 126.429 146.161 126.497 146.736ZM279.594 124.383C279.594 121.845 278.586 119.41 276.791 117.616C274.997 115.821 272.562 114.812 270.024 114.812H204.686L188.28 103.875H146.977C144.439 103.875 142.005 104.883 140.21 106.678C138.415 108.473 137.407 110.907 137.407 113.445V131.219H279.594V124.383Z" fill="black"/>
<path d="M126.497 146.736L136.265 226.672C136.539 229.004 137.661 231.154 139.417 232.712C141.173 234.271 143.44 235.129 145.788 235.125H271.227C273.575 235.129 275.842 234.271 277.598 232.712C279.354 231.154 280.476 229.004 280.75 226.672L290.505 146.736C290.572 146.161 290.517 145.578 290.343 145.026C290.169 144.474 289.88 143.964 289.496 143.532C289.111 143.099 288.639 142.753 288.11 142.516C287.582 142.279 287.009 142.156 286.43 142.156H130.571C129.992 142.156 129.419 142.279 128.891 142.516C128.363 142.753 127.891 143.099 127.506 143.532C127.121 143.964 126.832 144.474 126.658 145.026C126.484 145.578 126.429 146.161 126.497 146.736ZM279.594 124.383C279.594 121.845 278.586 119.41 276.791 117.616C274.997 115.821 272.562 114.812 270.024 114.812H204.686L188.28 103.875H146.977C144.439 103.875 142.005 104.883 140.21 106.678C138.415 108.473 137.407 110.907 137.407 113.445V131.219H279.594V124.383Z" fill="url(#paint0_linear_1809_1317)"/>
</g>
<path d="M126.497 146.736L136.265 226.672C136.539 229.004 137.661 231.154 139.417 232.712C141.173 234.271 143.44 235.129 145.788 235.125H271.227C273.575 235.129 275.842 234.271 277.598 232.712C279.354 231.154 280.476 229.004 280.75 226.672L290.505 146.736C290.572 146.161 290.517 145.578 290.343 145.026C290.169 144.474 289.88 143.964 289.496 143.532C289.111 143.099 288.639 142.753 288.11 142.516C287.582 142.279 287.009 142.156 286.43 142.156H130.571C129.992 142.156 129.419 142.279 128.891 142.516C128.363 142.753 127.891 143.099 127.506 143.532C127.121 143.964 126.832 144.474 126.658 145.026C126.484 145.578 126.429 146.161 126.497 146.736ZM279.594 124.383C279.594 121.845 278.586 119.41 276.791 117.616C274.997 115.821 272.562 114.812 270.024 114.812H204.686L188.28 103.875H146.977C144.439 103.875 142.005 104.883 140.21 106.678C138.415 108.473 137.407 110.907 137.407 113.445V131.219H279.594V124.383Z" fill="black"/>
<path d="M126.497 146.736L136.265 226.672C136.539 229.004 137.661 231.154 139.417 232.712C141.173 234.271 143.44 235.129 145.788 235.125H271.227C273.575 235.129 275.842 234.271 277.598 232.712C279.354 231.154 280.476 229.004 280.75 226.672L290.505 146.736C290.572 146.161 290.517 145.578 290.343 145.026C290.169 144.474 289.88 143.964 289.496 143.532C289.111 143.099 288.639 142.753 288.11 142.516C287.582 142.279 287.009 142.156 286.43 142.156H130.571C129.992 142.156 129.419 142.279 128.891 142.516C128.363 142.753 127.891 143.099 127.506 143.532C127.121 143.964 126.832 144.474 126.658 145.026C126.484 145.578 126.429 146.161 126.497 146.736ZM279.594 124.383C279.594 121.845 278.586 119.41 276.791 117.616C274.997 115.821 272.562 114.812 270.024 114.812H204.686L188.28 103.875H146.977C144.439 103.875 142.005 104.883 140.21 106.678C138.415 108.473 137.407 110.907 137.407 113.445V131.219H279.594V124.383Z" fill="url(#paint1_linear_1809_1317)"/>
<g filter="url(#filter2_f_1809_1317)">
<path d="M177.576 43.5708H169.373C168.627 43.5708 167.912 43.2745 167.384 42.747C166.857 42.2196 166.561 41.5042 166.561 40.7583V32.5552C166.561 32.493 166.536 32.4334 166.492 32.3894C166.448 32.3455 166.388 32.3208 166.326 32.3208H160.936C159.941 32.3208 158.987 32.7159 158.284 33.4192C157.581 34.1224 157.186 35.0762 157.186 36.0708V54.8208C157.186 55.8154 157.581 56.7692 158.284 57.4725C158.987 58.1757 159.941 58.5708 160.936 58.5708H174.061C175.055 58.5708 176.009 58.1757 176.712 57.4725C177.415 56.7692 177.811 55.8154 177.811 54.8208V43.8052C177.811 43.743 177.786 43.6834 177.742 43.6394C177.698 43.5955 177.638 43.5708 177.576 43.5708Z" fill="black"/>
<path d="M177.576 43.5708H169.373C168.627 43.5708 167.912 43.2745 167.384 42.747C166.857 42.2196 166.561 41.5042 166.561 40.7583V32.5552C166.561 32.493 166.536 32.4334 166.492 32.3894C166.448 32.3455 166.388 32.3208 166.326 32.3208H160.936C159.941 32.3208 158.987 32.7159 158.284 33.4192C157.581 34.1224 157.186 35.0762 157.186 36.0708V54.8208C157.186 55.8154 157.581 56.7692 158.284 57.4725C158.987 58.1757 159.941 58.5708 160.936 58.5708H174.061C175.055 58.5708 176.009 58.1757 176.712 57.4725C177.415 56.7692 177.811 55.8154 177.811 54.8208V43.8052C177.811 43.743 177.786 43.6834 177.742 43.6394C177.698 43.5955 177.638 43.5708 177.576 43.5708Z" fill="url(#paint2_linear_1809_1317)"/>
<path d="M177.062 41.496L168.635 33.0696C168.619 33.0533 168.598 33.0422 168.575 33.0377C168.553 33.0333 168.529 33.0356 168.508 33.0444C168.487 33.0532 168.468 33.0682 168.455 33.0874C168.443 33.1066 168.436 33.1291 168.436 33.1522V40.7583C168.436 41.0069 168.534 41.2454 168.71 41.4212C168.886 41.597 169.124 41.6958 169.373 41.6958H176.979C177.002 41.6957 177.025 41.6888 177.044 41.6759C177.063 41.663 177.078 41.6447 177.087 41.6234C177.096 41.602 177.098 41.5785 177.094 41.5559C177.089 41.5332 177.078 41.5124 177.062 41.496Z" fill="black"/>
<path d="M177.062 41.496L168.635 33.0696C168.619 33.0533 168.598 33.0422 168.575 33.0377C168.553 33.0333 168.529 33.0356 168.508 33.0444C168.487 33.0532 168.468 33.0682 168.455 33.0874C168.443 33.1066 168.436 33.1291 168.436 33.1522V40.7583C168.436 41.0069 168.534 41.2454 168.71 41.4212C168.886 41.597 169.124 41.6958 169.373 41.6958H176.979C177.002 41.6957 177.025 41.6888 177.044 41.6759C177.063 41.663 177.078 41.6447 177.087 41.6234C177.096 41.602 177.098 41.5785 177.094 41.5559C177.089 41.5332 177.078 41.5124 177.062 41.496Z" fill="url(#paint3_linear_1809_1317)"/>
</g>
<path d="M177.576 43.5708H169.373C168.627 43.5708 167.912 43.2745 167.384 42.747C166.857 42.2196 166.561 41.5042 166.561 40.7583V32.5552C166.561 32.493 166.536 32.4334 166.492 32.3894C166.448 32.3455 166.388 32.3208 166.326 32.3208H160.936C159.941 32.3208 158.987 32.7159 158.284 33.4192C157.581 34.1224 157.186 35.0762 157.186 36.0708V54.8208C157.186 55.8154 157.581 56.7692 158.284 57.4725C158.987 58.1757 159.941 58.5708 160.936 58.5708H174.061C175.055 58.5708 176.009 58.1757 176.712 57.4725C177.415 56.7692 177.811 55.8154 177.811 54.8208V43.8052C177.811 43.743 177.786 43.6834 177.742 43.6394C177.698 43.5955 177.638 43.5708 177.576 43.5708Z" fill="black"/>
<path d="M177.576 43.5708H169.373C168.627 43.5708 167.912 43.2745 167.384 42.747C166.857 42.2196 166.561 41.5042 166.561 40.7583V32.5552C166.561 32.493 166.536 32.4334 166.492 32.3894C166.448 32.3455 166.388 32.3208 166.326 32.3208H160.936C159.941 32.3208 158.987 32.7159 158.284 33.4192C157.581 34.1224 157.186 35.0762 157.186 36.0708V54.8208C157.186 55.8154 157.581 56.7692 158.284 57.4725C158.987 58.1757 159.941 58.5708 160.936 58.5708H174.061C175.055 58.5708 176.009 58.1757 176.712 57.4725C177.415 56.7692 177.811 55.8154 177.811 54.8208V43.8052C177.811 43.743 177.786 43.6834 177.742 43.6394C177.698 43.5955 177.638 43.5708 177.576 43.5708Z" fill="url(#paint4_linear_1809_1317)"/>
<path d="M177.062 41.496L168.635 33.0696C168.619 33.0533 168.598 33.0422 168.575 33.0377C168.553 33.0333 168.529 33.0356 168.508 33.0444C168.487 33.0532 168.468 33.0682 168.455 33.0874C168.443 33.1066 168.436 33.1291 168.436 33.1522V40.7583C168.436 41.0069 168.534 41.2454 168.71 41.4212C168.886 41.597 169.124 41.6958 169.373 41.6958H176.979C177.002 41.6957 177.025 41.6888 177.044 41.6759C177.063 41.663 177.078 41.6447 177.087 41.6234C177.096 41.602 177.098 41.5785 177.094 41.5559C177.089 41.5332 177.078 41.5124 177.062 41.496Z" fill="black"/>
<path d="M177.062 41.496L168.635 33.0696C168.619 33.0533 168.598 33.0422 168.575 33.0377C168.553 33.0333 168.529 33.0356 168.508 33.0444C168.487 33.0532 168.468 33.0682 168.455 33.0874C168.443 33.1066 168.436 33.1291 168.436 33.1522V40.7583C168.436 41.0069 168.534 41.2454 168.71 41.4212C168.886 41.597 169.124 41.6958 169.373 41.6958H176.979C177.002 41.6957 177.025 41.6888 177.044 41.6759C177.063 41.663 177.078 41.6447 177.087 41.6234C177.096 41.602 177.098 41.5785 177.094 41.5559C177.089 41.5332 177.078 41.5124 177.062 41.496Z" fill="url(#paint5_linear_1809_1317)"/>
<g filter="url(#filter3_f_1809_1317)">
<path d="M334.106 74.7453C333.064 73.6198 331.608 73 330.001 73C328.385 73 326.924 73.6161 325.886 74.7346C324.837 75.8655 324.326 77.4025 324.446 79.0621C324.684 82.3364 327.176 84.9999 330.001 84.9999C332.825 84.9999 335.313 82.3369 335.554 79.0632C335.676 77.4185 335.162 75.8848 334.106 74.7453ZM339.429 96.9999H320.572C320.325 97.0031 320.081 96.9512 319.856 96.8481C319.632 96.7449 319.434 96.5931 319.276 96.4036C318.927 95.9874 318.787 95.419 318.891 94.8442C319.343 92.336 320.754 90.229 322.972 88.7499C324.942 87.4369 327.438 86.7142 330.001 86.7142C332.563 86.7142 335.059 87.4374 337.029 88.7499C339.247 90.2285 340.658 92.3354 341.11 94.8436C341.214 95.4184 341.074 95.9868 340.725 96.4031C340.567 96.5927 340.369 96.7446 340.145 96.8478C339.92 96.9511 339.676 97.003 339.429 96.9999Z" fill="black"/>
<path d="M334.106 74.7453C333.064 73.6198 331.608 73 330.001 73C328.385 73 326.924 73.6161 325.886 74.7346C324.837 75.8655 324.326 77.4025 324.446 79.0621C324.684 82.3364 327.176 84.9999 330.001 84.9999C332.825 84.9999 335.313 82.3369 335.554 79.0632C335.676 77.4185 335.162 75.8848 334.106 74.7453ZM339.429 96.9999H320.572C320.325 97.0031 320.081 96.9512 319.856 96.8481C319.632 96.7449 319.434 96.5931 319.276 96.4036C318.927 95.9874 318.787 95.419 318.891 94.8442C319.343 92.336 320.754 90.229 322.972 88.7499C324.942 87.4369 327.438 86.7142 330.001 86.7142C332.563 86.7142 335.059 87.4374 337.029 88.7499C339.247 90.2285 340.658 92.3354 341.11 94.8436C341.214 95.4184 341.074 95.9868 340.725 96.4031C340.567 96.5927 340.369 96.7446 340.145 96.8478C339.92 96.9511 339.676 97.003 339.429 96.9999Z" fill="url(#paint6_linear_1809_1317)"/>
</g>
<path d="M334.106 74.7453C333.064 73.6198 331.608 73 330.001 73C328.385 73 326.924 73.6161 325.886 74.7346C324.837 75.8655 324.326 77.4025 324.446 79.0621C324.684 82.3364 327.176 84.9999 330.001 84.9999C332.825 84.9999 335.313 82.3369 335.554 79.0632C335.676 77.4185 335.162 75.8848 334.106 74.7453ZM339.429 96.9999H320.572C320.325 97.0031 320.081 96.9512 319.856 96.8481C319.632 96.7449 319.434 96.5931 319.276 96.4036C318.927 95.9874 318.787 95.419 318.891 94.8442C319.343 92.336 320.754 90.229 322.972 88.7499C324.942 87.4369 327.438 86.7142 330.001 86.7142C332.563 86.7142 335.059 87.4374 337.029 88.7499C339.247 90.2285 340.658 92.3354 341.11 94.8436C341.214 95.4184 341.074 95.9868 340.725 96.4031C340.567 96.5927 340.369 96.7446 340.145 96.8478C339.92 96.9511 339.676 97.003 339.429 96.9999Z" fill="black"/>
<path d="M334.106 74.7453C333.064 73.6198 331.608 73 330.001 73C328.385 73 326.924 73.6161 325.886 74.7346C324.837 75.8655 324.326 77.4025 324.446 79.0621C324.684 82.3364 327.176 84.9999 330.001 84.9999C332.825 84.9999 335.313 82.3369 335.554 79.0632C335.676 77.4185 335.162 75.8848 334.106 74.7453ZM339.429 96.9999H320.572C320.325 97.0031 320.081 96.9512 319.856 96.8481C319.632 96.7449 319.434 96.5931 319.276 96.4036C318.927 95.9874 318.787 95.419 318.891 94.8442C319.343 92.336 320.754 90.229 322.972 88.7499C324.942 87.4369 327.438 86.7142 330.001 86.7142C332.563 86.7142 335.059 87.4374 337.029 88.7499C339.247 90.2285 340.658 92.3354 341.11 94.8436C341.214 95.4184 341.074 95.9868 340.725 96.4031C340.567 96.5927 340.369 96.7446 340.145 96.8478C339.92 96.9511 339.676 97.003 339.429 96.9999Z" fill="url(#paint7_linear_1809_1317)"/>
<g filter="url(#filter4_f_1809_1317)">
<path d="M365.128 215.791C364.444 215.292 363.604 214.926 362.718 214.729C362.572 214.697 362.439 214.624 362.334 214.52C362.228 214.416 362.155 214.285 362.123 214.142C361.742 212.473 360.922 211.042 359.717 209.957C358.316 208.694 356.463 208 354.5 208C352.774 208 351.18 208.532 349.892 209.539C349.019 210.223 348.317 211.094 347.838 212.085C347.786 212.193 347.71 212.288 347.614 212.362C347.518 212.436 347.406 212.487 347.286 212.511C345.98 212.77 344.801 213.321 343.9 214.102C342.657 215.182 342 216.619 342 218.259C342 219.917 342.708 221.429 343.992 222.522C345.218 223.564 346.87 224.138 348.641 224.138H353.719V216.771L351.927 218.534C351.852 218.607 351.763 218.665 351.665 218.704C351.567 218.742 351.462 218.761 351.356 218.758C351.25 218.756 351.146 218.732 351.05 218.689C350.954 218.646 350.867 218.584 350.796 218.507C350.513 218.201 350.541 217.724 350.838 217.431L353.948 214.373C354.094 214.229 354.293 214.148 354.5 214.148C354.707 214.148 354.906 214.229 355.052 214.373L358.162 217.43C358.469 217.732 358.486 218.228 358.181 218.531C358.109 218.603 358.023 218.66 357.928 218.699C357.833 218.738 357.731 218.758 357.628 218.758C357.525 218.759 357.423 218.739 357.328 218.7C357.233 218.662 357.147 218.605 357.074 218.534L355.281 216.771V224.138H361.336C362.866 224.138 364.261 223.715 365.264 222.948C366.4 222.079 367 220.835 367 219.354C367 217.916 366.353 216.683 365.128 215.791ZM353.719 227.232C353.719 227.435 353.801 227.631 353.948 227.775C354.094 227.919 354.293 228 354.5 228C354.707 228 354.906 227.919 355.052 227.775C355.199 227.631 355.281 227.435 355.281 227.232V224.138H353.719V227.232Z" fill="black"/>
<path d="M365.128 215.791C364.444 215.292 363.604 214.926 362.718 214.729C362.572 214.697 362.439 214.624 362.334 214.52C362.228 214.416 362.155 214.285 362.123 214.142C361.742 212.473 360.922 211.042 359.717 209.957C358.316 208.694 356.463 208 354.5 208C352.774 208 351.18 208.532 349.892 209.539C349.019 210.223 348.317 211.094 347.838 212.085C347.786 212.193 347.71 212.288 347.614 212.362C347.518 212.436 347.406 212.487 347.286 212.511C345.98 212.77 344.801 213.321 343.9 214.102C342.657 215.182 342 216.619 342 218.259C342 219.917 342.708 221.429 343.992 222.522C345.218 223.564 346.87 224.138 348.641 224.138H353.719V216.771L351.927 218.534C351.852 218.607 351.763 218.665 351.665 218.704C351.567 218.742 351.462 218.761 351.356 218.758C351.25 218.756 351.146 218.732 351.05 218.689C350.954 218.646 350.867 218.584 350.796 218.507C350.513 218.201 350.541 217.724 350.838 217.431L353.948 214.373C354.094 214.229 354.293 214.148 354.5 214.148C354.707 214.148 354.906 214.229 355.052 214.373L358.162 217.43C358.469 217.732 358.486 218.228 358.181 218.531C358.109 218.603 358.023 218.66 357.928 218.699C357.833 218.738 357.731 218.758 357.628 218.758C357.525 218.759 357.423 218.739 357.328 218.7C357.233 218.662 357.147 218.605 357.074 218.534L355.281 216.771V224.138H361.336C362.866 224.138 364.261 223.715 365.264 222.948C366.4 222.079 367 220.835 367 219.354C367 217.916 366.353 216.683 365.128 215.791ZM353.719 227.232C353.719 227.435 353.801 227.631 353.948 227.775C354.094 227.919 354.293 228 354.5 228C354.707 228 354.906 227.919 355.052 227.775C355.199 227.631 355.281 227.435 355.281 227.232V224.138H353.719V227.232Z" fill="url(#paint8_linear_1809_1317)"/>
</g>
<path d="M364.954 215.791C364.282 215.292 363.456 214.926 362.584 214.729C362.44 214.697 362.309 214.624 362.206 214.52C362.102 214.416 362.03 214.285 361.998 214.142C361.623 212.473 360.817 211.042 359.632 209.957C358.254 208.694 356.432 208 354.5 208C352.803 208 351.234 208.532 349.968 209.539C349.11 210.223 348.419 211.094 347.948 212.085C347.897 212.193 347.821 212.288 347.727 212.362C347.632 212.436 347.522 212.487 347.405 212.511C346.12 212.77 344.96 213.321 344.074 214.102C342.852 215.182 342.205 216.619 342.205 218.259C342.205 219.917 342.901 221.429 344.164 222.522C345.371 223.564 346.995 224.138 348.737 224.138H353.732V216.771L351.97 218.534C351.896 218.607 351.808 218.665 351.712 218.704C351.615 218.742 351.512 218.761 351.408 218.758C351.304 218.756 351.201 218.732 351.107 218.689C351.012 218.646 350.927 218.584 350.857 218.507C350.579 218.201 350.606 217.724 350.898 217.431L353.957 214.373C354.101 214.229 354.297 214.148 354.5 214.148C354.704 214.148 354.899 214.229 355.044 214.373L358.102 217.43C358.404 217.732 358.421 218.228 358.121 218.531C358.05 218.603 357.965 218.66 357.872 218.699C357.779 218.738 357.678 218.758 357.577 218.758C357.476 218.759 357.376 218.739 357.282 218.7C357.189 218.662 357.104 218.605 357.032 218.534L355.269 216.771V224.138H361.224C362.73 224.138 364.102 223.715 365.088 222.948C366.205 222.079 366.796 220.835 366.796 219.354C366.796 217.916 366.159 216.683 364.954 215.791ZM353.732 227.232C353.732 227.435 353.813 227.631 353.957 227.775C354.101 227.919 354.297 228 354.5 228C354.704 228 354.9 227.919 355.044 227.775C355.188 227.631 355.269 227.435 355.269 227.232V224.138H353.732V227.232Z" fill="black"/>
<path d="M364.954 215.791C364.282 215.292 363.456 214.926 362.584 214.729C362.44 214.697 362.309 214.624 362.206 214.52C362.102 214.416 362.03 214.285 361.998 214.142C361.623 212.473 360.817 211.042 359.632 209.957C358.254 208.694 356.432 208 354.5 208C352.803 208 351.234 208.532 349.968 209.539C349.11 210.223 348.419 211.094 347.948 212.085C347.897 212.193 347.821 212.288 347.727 212.362C347.632 212.436 347.522 212.487 347.405 212.511C346.12 212.77 344.96 213.321 344.074 214.102C342.852 215.182 342.205 216.619 342.205 218.259C342.205 219.917 342.901 221.429 344.164 222.522C345.371 223.564 346.995 224.138 348.737 224.138H353.732V216.771L351.97 218.534C351.896 218.607 351.808 218.665 351.712 218.704C351.615 218.742 351.512 218.761 351.408 218.758C351.304 218.756 351.201 218.732 351.107 218.689C351.012 218.646 350.927 218.584 350.857 218.507C350.579 218.201 350.606 217.724 350.898 217.431L353.957 214.373C354.101 214.229 354.297 214.148 354.5 214.148C354.704 214.148 354.899 214.229 355.044 214.373L358.102 217.43C358.404 217.732 358.421 218.228 358.121 218.531C358.05 218.603 357.965 218.66 357.872 218.699C357.779 218.738 357.678 218.758 357.577 218.758C357.476 218.759 357.376 218.739 357.282 218.7C357.189 218.662 357.104 218.605 357.032 218.534L355.269 216.771V224.138H361.224C362.73 224.138 364.102 223.715 365.088 222.948C366.205 222.079 366.796 220.835 366.796 219.354C366.796 217.916 366.159 216.683 364.954 215.791ZM353.732 227.232C353.732 227.435 353.813 227.631 353.957 227.775C354.101 227.919 354.297 228 354.5 228C354.704 228 354.9 227.919 355.044 227.775C355.188 227.631 355.269 227.435 355.269 227.232V224.138H353.732V227.232Z" fill="url(#paint9_linear_1809_1317)"/>
<g filter="url(#filter5_f_1809_1317)">
<path d="M70.3125 165.625H67.5V164.688C67.4992 163.942 67.2027 163.227 66.6754 162.7C66.1481 162.172 65.4332 161.876 64.6875 161.875H55.3125C54.5668 161.876 53.8519 162.172 53.3246 162.7C52.7973 163.227 52.5008 163.942 52.5 164.688V165.625H49.6875C48.6933 165.626 47.7401 166.022 47.037 166.725C46.334 167.428 45.9386 168.381 45.9375 169.375V184.375C45.9375 185.37 46.3326 186.323 47.0358 187.027C47.7391 187.73 48.6929 188.125 49.6875 188.125H70.3125C71.3071 188.125 72.2609 187.73 72.9641 187.027C73.6674 186.323 74.0625 185.37 74.0625 184.375V169.375C74.0614 168.381 73.666 167.428 72.963 166.725C72.2599 166.022 71.3067 165.626 70.3125 165.625ZM64.6875 177.812H60.9375V181.562C60.9375 181.811 60.8387 182.05 60.6629 182.225C60.4871 182.401 60.2486 182.5 60 182.5C59.7514 182.5 59.5129 182.401 59.3371 182.225C59.1613 182.05 59.0625 181.811 59.0625 181.562V177.812H55.3125C55.0639 177.812 54.8254 177.714 54.6496 177.538C54.4738 177.362 54.375 177.124 54.375 176.875C54.375 176.626 54.4738 176.388 54.6496 176.212C54.8254 176.036 55.0639 175.938 55.3125 175.938H59.0625V172.188C59.0625 171.939 59.1613 171.7 59.3371 171.525C59.5129 171.349 59.7514 171.25 60 171.25C60.2486 171.25 60.4871 171.349 60.6629 171.525C60.8387 171.7 60.9375 171.939 60.9375 172.188V175.938H64.6875C64.9361 175.938 65.1746 176.036 65.3504 176.212C65.5262 176.388 65.625 176.626 65.625 176.875C65.625 177.124 65.5262 177.362 65.3504 177.538C65.1746 177.714 64.9361 177.812 64.6875 177.812ZM65.625 165.625H54.375V164.688C54.375 164.439 54.4738 164.2 54.6496 164.025C54.8254 163.849 55.0639 163.75 55.3125 163.75H64.6875C64.9361 163.75 65.1746 163.849 65.3504 164.025C65.5262 164.2 65.625 164.439 65.625 164.688V165.625Z" fill="black"/>
<path d="M70.3125 165.625H67.5V164.688C67.4992 163.942 67.2027 163.227 66.6754 162.7C66.1481 162.172 65.4332 161.876 64.6875 161.875H55.3125C54.5668 161.876 53.8519 162.172 53.3246 162.7C52.7973 163.227 52.5008 163.942 52.5 164.688V165.625H49.6875C48.6933 165.626 47.7401 166.022 47.037 166.725C46.334 167.428 45.9386 168.381 45.9375 169.375V184.375C45.9375 185.37 46.3326 186.323 47.0358 187.027C47.7391 187.73 48.6929 188.125 49.6875 188.125H70.3125C71.3071 188.125 72.2609 187.73 72.9641 187.027C73.6674 186.323 74.0625 185.37 74.0625 184.375V169.375C74.0614 168.381 73.666 167.428 72.963 166.725C72.2599 166.022 71.3067 165.626 70.3125 165.625ZM64.6875 177.812H60.9375V181.562C60.9375 181.811 60.8387 182.05 60.6629 182.225C60.4871 182.401 60.2486 182.5 60 182.5C59.7514 182.5 59.5129 182.401 59.3371 182.225C59.1613 182.05 59.0625 181.811 59.0625 181.562V177.812H55.3125C55.0639 177.812 54.8254 177.714 54.6496 177.538C54.4738 177.362 54.375 177.124 54.375 176.875C54.375 176.626 54.4738 176.388 54.6496 176.212C54.8254 176.036 55.0639 175.938 55.3125 175.938H59.0625V172.188C59.0625 171.939 59.1613 171.7 59.3371 171.525C59.5129 171.349 59.7514 171.25 60 171.25C60.2486 171.25 60.4871 171.349 60.6629 171.525C60.8387 171.7 60.9375 171.939 60.9375 172.188V175.938H64.6875C64.9361 175.938 65.1746 176.036 65.3504 176.212C65.5262 176.388 65.625 176.626 65.625 176.875C65.625 177.124 65.5262 177.362 65.3504 177.538C65.1746 177.714 64.9361 177.812 64.6875 177.812ZM65.625 165.625H54.375V164.688C54.375 164.439 54.4738 164.2 54.6496 164.025C54.8254 163.849 55.0639 163.75 55.3125 163.75H64.6875C64.9361 163.75 65.1746 163.849 65.3504 164.025C65.5262 164.2 65.625 164.439 65.625 164.688V165.625Z" fill="url(#paint10_linear_1809_1317)"/>
</g>
<path d="M70.3125 165.625H67.5V164.688C67.4992 163.942 67.2027 163.227 66.6754 162.7C66.1481 162.172 65.4332 161.876 64.6875 161.875H55.3125C54.5668 161.876 53.8519 162.172 53.3246 162.7C52.7973 163.227 52.5008 163.942 52.5 164.688V165.625H49.6875C48.6933 165.626 47.7401 166.022 47.037 166.725C46.334 167.428 45.9386 168.381 45.9375 169.375V184.375C45.9375 185.37 46.3326 186.323 47.0358 187.027C47.7391 187.73 48.6929 188.125 49.6875 188.125H70.3125C71.3071 188.125 72.2609 187.73 72.9641 187.027C73.6674 186.323 74.0625 185.37 74.0625 184.375V169.375C74.0614 168.381 73.666 167.428 72.963 166.725C72.2599 166.022 71.3067 165.626 70.3125 165.625ZM64.6875 177.812H60.9375V181.562C60.9375 181.811 60.8387 182.05 60.6629 182.225C60.4871 182.401 60.2486 182.5 60 182.5C59.7514 182.5 59.5129 182.401 59.3371 182.225C59.1613 182.05 59.0625 181.811 59.0625 181.562V177.812H55.3125C55.0639 177.812 54.8254 177.714 54.6496 177.538C54.4738 177.362 54.375 177.124 54.375 176.875C54.375 176.626 54.4738 176.388 54.6496 176.212C54.8254 176.036 55.0639 175.938 55.3125 175.938H59.0625V172.188C59.0625 171.939 59.1613 171.7 59.3371 171.525C59.5129 171.349 59.7514 171.25 60 171.25C60.2486 171.25 60.4871 171.349 60.6629 171.525C60.8387 171.7 60.9375 171.939 60.9375 172.188V175.938H64.6875C64.9361 175.938 65.1746 176.036 65.3504 176.212C65.5262 176.388 65.625 176.626 65.625 176.875C65.625 177.124 65.5262 177.362 65.3504 177.538C65.1746 177.714 64.9361 177.812 64.6875 177.812ZM65.625 165.625H54.375V164.688C54.375 164.439 54.4738 164.2 54.6496 164.025C54.8254 163.849 55.0639 163.75 55.3125 163.75H64.6875C64.9361 163.75 65.1746 163.849 65.3504 164.025C65.5262 164.2 65.625 164.439 65.625 164.688V165.625Z" fill="black"/>
<path d="M70.3125 165.625H67.5V164.688C67.4992 163.942 67.2027 163.227 66.6754 162.7C66.1481 162.172 65.4332 161.876 64.6875 161.875H55.3125C54.5668 161.876 53.8519 162.172 53.3246 162.7C52.7973 163.227 52.5008 163.942 52.5 164.688V165.625H49.6875C48.6933 165.626 47.7401 166.022 47.037 166.725C46.334 167.428 45.9386 168.381 45.9375 169.375V184.375C45.9375 185.37 46.3326 186.323 47.0358 187.027C47.7391 187.73 48.6929 188.125 49.6875 188.125H70.3125C71.3071 188.125 72.2609 187.73 72.9641 187.027C73.6674 186.323 74.0625 185.37 74.0625 184.375V169.375C74.0614 168.381 73.666 167.428 72.963 166.725C72.2599 166.022 71.3067 165.626 70.3125 165.625ZM64.6875 177.812H60.9375V181.562C60.9375 181.811 60.8387 182.05 60.6629 182.225C60.4871 182.401 60.2486 182.5 60 182.5C59.7514 182.5 59.5129 182.401 59.3371 182.225C59.1613 182.05 59.0625 181.811 59.0625 181.562V177.812H55.3125C55.0639 177.812 54.8254 177.714 54.6496 177.538C54.4738 177.362 54.375 177.124 54.375 176.875C54.375 176.626 54.4738 176.388 54.6496 176.212C54.8254 176.036 55.0639 175.938 55.3125 175.938H59.0625V172.188C59.0625 171.939 59.1613 171.7 59.3371 171.525C59.5129 171.349 59.7514 171.25 60 171.25C60.2486 171.25 60.4871 171.349 60.6629 171.525C60.8387 171.7 60.9375 171.939 60.9375 172.188V175.938H64.6875C64.9361 175.938 65.1746 176.036 65.3504 176.212C65.5262 176.388 65.625 176.626 65.625 176.875C65.625 177.124 65.5262 177.362 65.3504 177.538C65.1746 177.714 64.9361 177.812 64.6875 177.812ZM65.625 165.625H54.375V164.688C54.375 164.439 54.4738 164.2 54.6496 164.025C54.8254 163.849 55.0639 163.75 55.3125 163.75H64.6875C64.9361 163.75 65.1746 163.849 65.3504 164.025C65.5262 164.2 65.625 164.439 65.625 164.688V165.625Z" fill="url(#paint11_linear_1809_1317)"/>
</g>
<defs>
<filter id="filter0_f_1809_1317" x="-106" y="-141" width="482" height="482" filterUnits="userSpaceOnUse" color-interpolation-filters="sRGB">
<feFlood flood-opacity="0" result="BackgroundImageFix"/>
<feBlend mode="normal" in="SourceGraphic" in2="BackgroundImageFix" result="shape"/>
<feGaussianBlur stdDeviation="75" result="effect1_foregroundBlur_1809_1317"/>
</filter>
<filter id="filter1_f_1809_1317" x="114.469" y="91.875" width="188.063" height="155.25" filterUnits="userSpaceOnUse" color-interpolation-filters="sRGB">
<feFlood flood-opacity="0" result="BackgroundImageFix"/>
<feBlend mode="normal" in="SourceGraphic" in2="BackgroundImageFix" result="shape"/>
<feGaussianBlur stdDeviation="6" result="effect1_foregroundBlur_1809_1317"/>
</filter>
<filter id="filter2_f_1809_1317" x="153.186" y="28.3208" width="28.625" height="34.25" filterUnits="userSpaceOnUse" color-interpolation-filters="sRGB">
<feFlood flood-opacity="0" result="BackgroundImageFix"/>
<feBlend mode="normal" in="SourceGraphic" in2="BackgroundImageFix" result="shape"/>
<feGaussianBlur stdDeviation="2" result="effect1_foregroundBlur_1809_1317"/>
</filter>
<filter id="filter3_f_1809_1317" x="314.857" y="69" width="30.2861" height="32" filterUnits="userSpaceOnUse" color-interpolation-filters="sRGB">
<feFlood flood-opacity="0" result="BackgroundImageFix"/>
<feBlend mode="normal" in="SourceGraphic" in2="BackgroundImageFix" result="shape"/>
<feGaussianBlur stdDeviation="2" result="effect1_foregroundBlur_1809_1317"/>
</filter>
<filter id="filter4_f_1809_1317" x="338" y="204" width="33" height="28" filterUnits="userSpaceOnUse" color-interpolation-filters="sRGB">
<feFlood flood-opacity="0" result="BackgroundImageFix"/>
<feBlend mode="normal" in="SourceGraphic" in2="BackgroundImageFix" result="shape"/>
<feGaussianBlur stdDeviation="2" result="effect1_foregroundBlur_1809_1317"/>
</filter>
<filter id="filter5_f_1809_1317" x="41.9375" y="157.875" width="36.125" height="34.25" filterUnits="userSpaceOnUse" color-interpolation-filters="sRGB">
<feFlood flood-opacity="0" result="BackgroundImageFix"/>
<feBlend mode="normal" in="SourceGraphic" in2="BackgroundImageFix" result="shape"/>
<feGaussianBlur stdDeviation="2" result="effect1_foregroundBlur_1809_1317"/>
</filter>
<linearGradient id="paint0_linear_1809_1317" x1="208.501" y1="103.875" x2="208.501" y2="235.125" gradientUnits="userSpaceOnUse">
<stop offset="0.485577" stop-color="#40C2FF"/>
<stop offset="1" stop-color="#2100D9"/>
</linearGradient>
<linearGradient id="paint1_linear_1809_1317" x1="208.501" y1="103.875" x2="208.501" y2="235.125" gradientUnits="userSpaceOnUse">
<stop offset="0.485577" stop-color="#40C2FF"/>
<stop offset="1" stop-color="#2100D9"/>
</linearGradient>
<linearGradient id="paint2_linear_1809_1317" x1="167.498" y1="32.3208" x2="167.498" y2="58.5708" gradientUnits="userSpaceOnUse">
<stop offset="0.485577" stop-color="#40C2FF"/>
<stop offset="1" stop-color="#2100D9"/>
</linearGradient>
<linearGradient id="paint3_linear_1809_1317" x1="172.766" y1="33.0355" x2="172.766" y2="41.6958" gradientUnits="userSpaceOnUse">
<stop offset="0.485577" stop-color="#40C2FF"/>
<stop offset="1" stop-color="#2100D9"/>
</linearGradient>
<linearGradient id="paint4_linear_1809_1317" x1="167.498" y1="32.3208" x2="167.498" y2="58.5708" gradientUnits="userSpaceOnUse">
<stop offset="0.485577" stop-color="#40C2FF"/>
<stop offset="1" stop-color="#2100D9"/>
</linearGradient>
<linearGradient id="paint5_linear_1809_1317" x1="172.766" y1="33.0355" x2="172.766" y2="41.6958" gradientUnits="userSpaceOnUse">
<stop offset="0.485577" stop-color="#40C2FF"/>
<stop offset="1" stop-color="#2100D9"/>
</linearGradient>
<linearGradient id="paint6_linear_1809_1317" x1="330.001" y1="73" x2="330.001" y2="97" gradientUnits="userSpaceOnUse">
<stop offset="0.485577" stop-color="#40C2FF"/>
<stop offset="1" stop-color="#2100D9"/>
</linearGradient>
<linearGradient id="paint7_linear_1809_1317" x1="330.001" y1="73" x2="330.001" y2="97" gradientUnits="userSpaceOnUse">
<stop offset="0.485577" stop-color="#40C2FF"/>
<stop offset="1" stop-color="#2100D9"/>
</linearGradient>
<linearGradient id="paint8_linear_1809_1317" x1="354.5" y1="208" x2="354.5" y2="228" gradientUnits="userSpaceOnUse">
<stop offset="0.485577" stop-color="#40C2FF"/>
<stop offset="1" stop-color="#2100D9"/>
</linearGradient>
<linearGradient id="paint9_linear_1809_1317" x1="354.5" y1="208" x2="354.5" y2="228" gradientUnits="userSpaceOnUse">
<stop offset="0.485577" stop-color="#40C2FF"/>
<stop offset="1" stop-color="#2100D9"/>
</linearGradient>
<linearGradient id="paint10_linear_1809_1317" x1="60" y1="161.875" x2="60" y2="188.125" gradientUnits="userSpaceOnUse">
<stop offset="0.485577" stop-color="#40C2FF"/>
<stop offset="1" stop-color="#2100D9"/>
</linearGradient>
<linearGradient id="paint11_linear_1809_1317" x1="60" y1="161.875" x2="60" y2="188.125" gradientUnits="userSpaceOnUse">
<stop offset="0.485577" stop-color="#40C2FF"/>
<stop offset="1" stop-color="#2100D9"/>
</linearGradient>
<clipPath id="clip0_1809_1317">
<path d="M0 64C0 41.5979 0 30.3968 4.35974 21.8404C8.19467 14.3139 14.3139 8.19467 21.8404 4.35974C30.3968 0 41.5979 0 64 0H354C376.402 0 387.603 0 396.16 4.35974C403.686 8.19467 409.805 14.3139 413.64 21.8404C418 30.3968 418 41.5979 418 64V378C418 400.402 418 411.603 413.64 420.16C409.805 427.686 403.686 433.805 396.16 437.64C387.603 442 376.402 442 354 442H64C41.5979 442 30.3968 442 21.8404 437.64C14.3139 433.805 8.19467 427.686 4.35974 420.16C0 411.603 0 400.402 0 378V64Z" fill="white"/>
</clipPath>
</defs>
</svg>
