<svg width="372" height="255" viewBox="0 0 372 255" fill="none" xmlns="http://www.w3.org/2000/svg">
<g clip-path="url(#clip0_2271_4081)">
<g filter="url(#filter0_f_2271_4081)">
<path d="M186 5.005C185.344 5.005 184.695 5.1342 184.088 5.38523C183.482 5.63625 182.932 6.00418 182.468 6.46801C182.004 6.93183 181.636 7.48248 181.385 8.0885C181.134 8.69452 181.005 9.34405 181.005 10C181.005 10.656 181.134 11.3055 181.385 11.9115C181.636 12.5175 182.004 13.0682 182.468 13.532C182.932 13.9958 183.482 14.3638 184.088 14.6148C184.695 14.8658 185.344 14.995 186 14.995C187.325 14.995 188.595 14.4687 189.532 13.532C190.469 12.5953 190.995 11.3248 190.995 10C190.995 8.67525 190.469 7.40475 189.532 6.46801C188.595 5.53126 187.325 5.005 186 5.005ZM197.25 7.5C196.255 7.5 195.302 7.89509 194.598 8.59835C193.895 9.30162 193.5 10.2554 193.5 11.25C193.5 12.2446 193.895 13.1984 194.598 13.9017C195.302 14.6049 196.255 15 197.25 15C198.245 15 199.198 14.6049 199.902 13.9017C200.605 13.1984 201 12.2446 201 11.25C201 10.2554 200.605 9.30162 199.902 8.59835C199.198 7.89509 198.245 7.5 197.25 7.5ZM174.75 7.5C173.755 7.5 172.802 7.89509 172.098 8.59835C171.395 9.30162 171 10.2554 171 11.25C171 12.2446 171.395 13.1984 172.098 13.9017C172.802 14.6049 173.755 15 174.75 15C175.745 15 176.698 14.6049 177.402 13.9017C178.105 13.1984 178.5 12.2446 178.5 11.25C178.5 10.2554 178.105 9.30162 177.402 8.59835C176.698 7.89509 175.745 7.5 174.75 7.5ZM178.5 19.9825C178.505 19.3225 178.77 18.6911 179.238 18.226C179.707 17.761 180.34 17.5 181 17.5H191C191.663 17.5 192.299 17.7634 192.768 18.2322C193.237 18.7011 193.5 19.337 193.5 20V27.5C193.501 28.2869 193.377 29.0689 193.135 29.8175C192.581 31.5143 191.441 32.9581 189.919 33.8897C188.396 34.8214 186.592 35.1798 184.829 34.9007C183.066 34.6215 181.461 33.7231 180.301 32.3667C179.141 31.0103 178.502 29.2848 178.5 27.5V19.9825ZM176 20C176 19.0875 176.243 18.235 176.67 17.5H171C170.337 17.5 169.701 17.7634 169.232 18.2322C168.763 18.7011 168.5 19.337 168.5 20V26.25C168.5 27.2733 168.751 28.281 169.231 29.1846C169.711 30.0882 170.405 30.8602 171.254 31.4326C172.102 32.005 173.078 32.3605 174.095 32.4677C175.113 32.5749 176.141 32.4306 177.09 32.0475C176.372 30.6384 175.998 29.079 176 27.4975V20ZM196 20V27.5C196 29.1375 195.608 30.6825 194.91 32.0475C195.859 32.4306 196.887 32.5749 197.905 32.4677C198.922 32.3605 199.898 32.005 200.746 31.4326C201.595 30.8602 202.289 30.0882 202.769 29.1846C203.249 28.281 203.5 27.2733 203.5 26.25V20C203.5 19.337 203.237 18.7011 202.768 18.2322C202.299 17.7634 201.663 17.5 201 17.5H195.33C195.755 18.235 196 19.0875 196 20Z" fill="#40C2FF"/>
</g>
<path d="M186 5.00488C185.344 5.00488 184.695 5.13408 184.088 5.3851C183.482 5.63613 182.932 6.00406 182.468 6.46788C182.004 6.93171 181.636 7.48236 181.385 8.08838C181.134 8.6944 181.005 9.34393 181.005 9.99988C181.005 10.6558 181.134 11.3054 181.385 11.9114C181.636 12.5174 182.004 13.0681 182.468 13.5319C182.932 13.9957 183.482 14.3636 184.088 14.6147C184.695 14.8657 185.344 14.9949 186 14.9949C187.325 14.9949 188.595 14.4686 189.532 13.5319C190.469 12.5951 190.995 11.3246 190.995 9.99988C190.995 8.67513 190.469 7.40463 189.532 6.46788C188.595 5.53114 187.325 5.00488 186 5.00488ZM197.25 7.49988C196.255 7.49988 195.302 7.89497 194.598 8.59823C193.895 9.30149 193.5 10.2553 193.5 11.2499C193.5 12.2444 193.895 13.1983 194.598 13.9015C195.302 14.6048 196.255 14.9999 197.25 14.9999C198.245 14.9999 199.198 14.6048 199.902 13.9015C200.605 13.1983 201 12.2444 201 11.2499C201 10.2553 200.605 9.30149 199.902 8.59823C199.198 7.89497 198.245 7.49988 197.25 7.49988ZM174.75 7.49988C173.755 7.49988 172.802 7.89497 172.098 8.59823C171.395 9.30149 171 10.2553 171 11.2499C171 12.2444 171.395 13.1983 172.098 13.9015C172.802 14.6048 173.755 14.9999 174.75 14.9999C175.745 14.9999 176.698 14.6048 177.402 13.9015C178.105 13.1983 178.5 12.2444 178.5 11.2499C178.5 10.2553 178.105 9.30149 177.402 8.59823C176.698 7.89497 175.745 7.49988 174.75 7.49988ZM178.5 19.9824C178.505 19.3224 178.77 18.691 179.238 18.2259C179.707 17.7609 180.34 17.4999 181 17.4999H191C191.663 17.4999 192.299 17.7633 192.768 18.2321C193.237 18.701 193.5 19.3368 193.5 19.9999V27.4999C193.501 28.2867 193.377 29.0688 193.135 29.8174C192.581 31.5141 191.441 32.958 189.919 33.8896C188.396 34.8213 186.592 35.1797 184.829 34.9006C183.066 34.6214 181.461 33.723 180.301 32.3666C179.141 31.0102 178.502 29.2847 178.5 27.4999V19.9824ZM176 19.9999C176 19.0874 176.243 18.2349 176.67 17.4999H171C170.337 17.4999 169.701 17.7633 169.232 18.2321C168.763 18.701 168.5 19.3368 168.5 19.9999V26.2499C168.5 27.2731 168.751 28.2808 169.231 29.1845C169.711 30.0881 170.405 30.86 171.254 31.4325C172.102 32.0049 173.078 32.3603 174.095 32.4676C175.113 32.5748 176.141 32.4305 177.09 32.0474C176.372 30.6382 175.998 29.0789 176 27.4974V19.9999ZM196 19.9999V27.4999C196 29.1374 195.608 30.6824 194.91 32.0474C195.859 32.4305 196.887 32.5748 197.905 32.4676C198.922 32.3603 199.898 32.0049 200.746 31.4325C201.595 30.86 202.289 30.0881 202.769 29.1845C203.249 28.2808 203.5 27.2731 203.5 26.2499V19.9999C203.5 19.3368 203.237 18.701 202.768 18.2321C202.299 17.7633 201.663 17.4999 201 17.4999H195.33C195.755 18.2349 196 19.0874 196 19.9999Z" fill="#40C2FF"/>
</g>
<g clip-path="url(#clip1_2271_4081)">
<g filter="url(#filter1_f_2271_4081)">
<path d="M55 124.004C54.4752 124.004 53.9556 124.107 53.4708 124.308C52.986 124.509 52.5455 124.803 52.1744 125.174C51.8033 125.545 51.509 125.986 51.3082 126.471C51.1074 126.956 51.004 127.475 51.004 128C51.004 128.525 51.1074 129.044 51.3082 129.529C51.509 130.014 51.8033 130.455 52.1744 130.826C52.5455 131.197 52.986 131.491 53.4708 131.692C53.9556 131.893 54.4752 131.996 55 131.996C56.0598 131.996 57.0762 131.575 57.8256 130.826C58.575 130.076 58.996 129.06 58.996 128C58.996 126.94 58.575 125.924 57.8256 125.174C57.0762 124.425 56.0598 124.004 55 124.004ZM64 126C63.2044 126 62.4413 126.316 61.8787 126.879C61.3161 127.441 61 128.204 61 129C61 129.796 61.3161 130.559 61.8787 131.121C62.4413 131.684 63.2044 132 64 132C64.7956 132 65.5587 131.684 66.1213 131.121C66.6839 130.559 67 129.796 67 129C67 128.204 66.6839 127.441 66.1213 126.879C65.5587 126.316 64.7956 126 64 126ZM46 126C45.2044 126 44.4413 126.316 43.8787 126.879C43.3161 127.441 43 128.204 43 129C43 129.796 43.3161 130.559 43.8787 131.121C44.4413 131.684 45.2044 132 46 132C46.7957 132 47.5587 131.684 48.1213 131.121C48.6839 130.559 49 129.796 49 129C49 128.204 48.6839 127.441 48.1213 126.879C47.5587 126.316 46.7957 126 46 126ZM49 135.986C49.0037 135.458 49.216 134.953 49.5907 134.581C49.9654 134.209 50.472 134 51 134H59C59.5304 134 60.0391 134.211 60.4142 134.586C60.7893 134.961 61 135.47 61 136V142C61.0005 142.63 60.902 143.255 60.708 143.854C60.2651 145.211 59.3529 146.367 58.135 147.112C56.9172 147.857 55.4735 148.144 54.0633 147.921C52.653 147.697 51.3686 146.979 50.4406 145.893C49.5126 144.808 49.0018 143.428 49 142V135.986ZM47 136C47 135.27 47.194 134.588 47.536 134H43C42.4696 134 41.9609 134.211 41.5858 134.586C41.2107 134.961 41 135.47 41 136V141C40.9997 141.819 41.2005 142.625 41.5845 143.348C41.9686 144.071 42.5244 144.688 43.2029 145.146C43.8814 145.604 44.662 145.888 45.4761 145.974C46.2902 146.06 47.1129 145.945 47.872 145.638C47.2976 144.511 46.9987 143.263 47 141.998V136ZM63 136V142C63 143.31 62.686 144.546 62.128 145.638C62.8871 145.945 63.7098 146.06 64.5239 145.974C65.338 145.888 66.1186 145.604 66.7971 145.146C67.4756 144.688 68.0314 144.071 68.4155 143.348C68.7995 142.625 69.0003 141.819 69 141V136C69 135.47 68.7893 134.961 68.4142 134.586C68.0391 134.211 67.5304 134 67 134H62.464C62.804 134.588 63 135.27 63 136Z" fill="#40C2FF"/>
</g>
<path d="M55 124.004C54.4752 124.004 53.9556 124.107 53.4708 124.308C52.986 124.509 52.5455 124.803 52.1744 125.174C51.8033 125.545 51.509 125.986 51.3082 126.471C51.1074 126.956 51.004 127.475 51.004 128C51.004 128.525 51.1074 129.044 51.3082 129.529C51.509 130.014 51.8033 130.454 52.1744 130.826C52.5455 131.197 52.986 131.491 53.4708 131.692C53.9556 131.893 54.4752 131.996 55 131.996C56.0598 131.996 57.0762 131.575 57.8256 130.826C58.575 130.076 58.996 129.06 58.996 128C58.996 126.94 58.575 125.924 57.8256 125.174C57.0762 124.425 56.0598 124.004 55 124.004ZM64 126C63.2044 126 62.4413 126.316 61.8787 126.879C61.3161 127.441 61 128.204 61 129C61 129.796 61.3161 130.559 61.8787 131.121C62.4413 131.684 63.2044 132 64 132C64.7956 132 65.5587 131.684 66.1213 131.121C66.6839 130.559 67 129.796 67 129C67 128.204 66.6839 127.441 66.1213 126.879C65.5587 126.316 64.7956 126 64 126ZM46 126C45.2044 126 44.4413 126.316 43.8787 126.879C43.3161 127.441 43 128.204 43 129C43 129.796 43.3161 130.559 43.8787 131.121C44.4413 131.684 45.2044 132 46 132C46.7957 132 47.5587 131.684 48.1213 131.121C48.6839 130.559 49 129.796 49 129C49 128.204 48.6839 127.441 48.1213 126.879C47.5587 126.316 46.7957 126 46 126ZM49 135.986C49.0037 135.458 49.216 134.953 49.5907 134.581C49.9654 134.209 50.472 134 51 134H59C59.5304 134 60.0391 134.211 60.4142 134.586C60.7893 134.961 61 135.469 61 136V142C61.0005 142.629 60.902 143.255 60.708 143.854C60.2651 145.211 59.3529 146.366 58.135 147.112C56.9172 147.857 55.4735 148.144 54.0633 147.92C52.653 147.697 51.3686 146.978 50.4406 145.893C49.5126 144.808 49.0018 143.428 49 142V135.986ZM47 136C47 135.27 47.194 134.588 47.536 134H43C42.4696 134 41.9609 134.211 41.5858 134.586C41.2107 134.961 41 135.469 41 136V141C40.9997 141.819 41.2005 142.625 41.5845 143.348C41.9686 144.07 42.5244 144.688 43.2029 145.146C43.8814 145.604 44.662 145.888 45.4761 145.974C46.2902 146.06 47.1129 145.944 47.872 145.638C47.2976 144.511 46.9987 143.263 47 141.998V136ZM63 136V142C63 143.31 62.686 144.546 62.128 145.638C62.8871 145.944 63.7098 146.06 64.5239 145.974C65.338 145.888 66.1186 145.604 66.7971 145.146C67.4756 144.688 68.0314 144.07 68.4155 143.348C68.7995 142.625 69.0003 141.819 69 141V136C69 135.469 68.7893 134.961 68.4142 134.586C68.0391 134.211 67.5304 134 67 134H62.464C62.804 134.588 63 135.27 63 136Z" fill="#40C2FF"/>
</g>
<g clip-path="url(#clip2_2271_4081)">
<g filter="url(#filter2_f_2271_4081)">
<path d="M12 177.003C11.6064 177.003 11.2167 177.081 10.8531 177.231C10.4895 177.382 10.1591 177.603 9.8808 177.881C9.6025 178.159 9.38175 178.49 9.23113 178.853C9.08052 179.217 9.003 179.606 9.003 180C9.003 180.394 9.08052 180.783 9.23113 181.147C9.38175 181.511 9.6025 181.841 9.8808 182.119C10.1591 182.398 10.4895 182.618 10.8531 182.769C11.2167 182.92 11.6064 182.997 12 182.997C12.7949 182.997 13.5572 182.681 14.1192 182.119C14.6812 181.557 14.997 180.795 14.997 180C14.997 179.205 14.6812 178.443 14.1192 177.881C13.5572 177.319 12.7949 177.003 12 177.003ZM18.75 178.5C18.1533 178.5 17.581 178.737 17.159 179.159C16.7371 179.581 16.5 180.153 16.5 180.75C16.5 181.347 16.7371 181.919 17.159 182.341C17.581 182.763 18.1533 183 18.75 183C19.3467 183 19.919 182.763 20.341 182.341C20.7629 181.919 21 181.347 21 180.75C21 180.153 20.7629 179.581 20.341 179.159C19.919 178.737 19.3467 178.5 18.75 178.5ZM5.25 178.5C4.65326 178.5 4.08097 178.737 3.65901 179.159C3.23705 179.581 3 180.153 3 180.75C3 181.347 3.23705 181.919 3.65901 182.341C4.08097 182.763 4.65326 183 5.25 183C5.84674 183 6.41903 182.763 6.84099 182.341C7.26295 181.919 7.5 181.347 7.5 180.75C7.5 180.153 7.26295 179.581 6.84099 179.159C6.41903 178.737 5.84674 178.5 5.25 178.5ZM7.5 185.99C7.50277 185.594 7.66203 185.215 7.94304 184.936C8.22404 184.657 8.60399 184.5 9 184.5H15C15.3978 184.5 15.7794 184.658 16.0607 184.939C16.342 185.221 16.5 185.602 16.5 186V190.5C16.5004 190.972 16.4265 191.441 16.281 191.891C15.9489 192.909 15.2647 193.775 14.3513 194.334C13.4379 194.893 12.3551 195.108 11.2974 194.94C10.2398 194.773 9.27642 194.234 8.58042 193.42C7.88442 192.606 7.50135 191.571 7.5 190.5V185.99ZM6 186C6 185.453 6.1455 184.941 6.402 184.5H3C2.60218 184.5 2.22064 184.658 1.93934 184.939C1.65804 185.221 1.5 185.602 1.5 186V189.75C1.4998 190.364 1.65034 190.969 1.93841 191.511C2.22648 192.053 2.64326 192.516 3.15216 192.86C3.66106 193.203 4.24651 193.416 4.85708 193.481C5.46766 193.545 6.0847 193.458 6.654 193.229C6.22319 192.383 5.99906 191.447 6 190.499V186ZM18 186V190.5C18 191.483 17.7645 192.41 17.346 193.229C17.9153 193.458 18.5323 193.545 19.1429 193.481C19.7535 193.416 20.3389 193.203 20.8478 192.86C21.3567 192.516 21.7735 192.053 22.0616 191.511C22.3497 190.969 22.5002 190.364 22.5 189.75V186C22.5 185.602 22.342 185.221 22.0607 184.939C21.7794 184.658 21.3978 184.5 21 184.5H17.598C17.853 184.941 18 185.453 18 186Z" fill="#40C2FF"/>
</g>
<path d="M12 177.003C11.6064 177.003 11.2167 177.08 10.8531 177.231C10.4895 177.382 10.1591 177.602 9.8808 177.881C9.6025 178.159 9.38175 178.489 9.23113 178.853C9.08052 179.217 9.003 179.606 9.003 180C9.003 180.394 9.08052 180.783 9.23113 181.147C9.38175 181.51 9.6025 181.841 9.8808 182.119C10.1591 182.397 10.4895 182.618 10.8531 182.769C11.2167 182.919 11.6064 182.997 12 182.997C12.7949 182.997 13.5572 182.681 14.1192 182.119C14.6812 181.557 14.997 180.795 14.997 180C14.997 179.205 14.6812 178.443 14.1192 177.881C13.5572 177.319 12.7949 177.003 12 177.003ZM18.75 178.5C18.1533 178.5 17.581 178.737 17.159 179.159C16.7371 179.581 16.5 180.153 16.5 180.75C16.5 181.347 16.7371 181.919 17.159 182.341C17.581 182.763 18.1533 183 18.75 183C19.3467 183 19.919 182.763 20.341 182.341C20.7629 181.919 21 181.347 21 180.75C21 180.153 20.7629 179.581 20.341 179.159C19.919 178.737 19.3467 178.5 18.75 178.5ZM5.25 178.5C4.65326 178.5 4.08097 178.737 3.65901 179.159C3.23705 179.581 3 180.153 3 180.75C3 181.347 3.23705 181.919 3.65901 182.341C4.08097 182.763 4.65326 183 5.25 183C5.84674 183 6.41903 182.763 6.84099 182.341C7.26295 181.919 7.5 181.347 7.5 180.75C7.5 180.153 7.26295 179.581 6.84099 179.159C6.41903 178.737 5.84674 178.5 5.25 178.5ZM7.5 185.989C7.50277 185.593 7.66203 185.215 7.94304 184.936C8.22404 184.657 8.60399 184.5 9 184.5H15C15.3978 184.5 15.7794 184.658 16.0607 184.939C16.342 185.221 16.5 185.602 16.5 186V190.5C16.5004 190.972 16.4265 191.441 16.281 191.89C15.9489 192.908 15.2647 193.775 14.3513 194.334C13.4379 194.893 12.3551 195.108 11.2974 194.94C10.2398 194.773 9.27642 194.234 8.58042 193.42C7.88442 192.606 7.50135 191.571 7.5 190.5V185.989ZM6 186C6 185.452 6.1455 184.941 6.402 184.5H3C2.60218 184.5 2.22064 184.658 1.93934 184.939C1.65804 185.221 1.5 185.602 1.5 186V189.75C1.4998 190.364 1.65034 190.969 1.93841 191.511C2.22648 192.053 2.64326 192.516 3.15216 192.859C3.66106 193.203 4.24651 193.416 4.85708 193.481C5.46766 193.545 6.0847 193.458 6.654 193.228C6.22319 192.383 5.99906 191.447 6 190.498V186ZM18 186V190.5C18 191.482 17.7645 192.409 17.346 193.228C17.9153 193.458 18.5323 193.545 19.1429 193.481C19.7535 193.416 20.3389 193.203 20.8478 192.859C21.3567 192.516 21.7735 192.053 22.0616 191.511C22.3497 190.969 22.5002 190.364 22.5 189.75V186C22.5 185.602 22.342 185.221 22.0607 184.939C21.7794 184.658 21.3978 184.5 21 184.5H17.598C17.853 184.941 18 185.452 18 186Z" fill="#40C2FF"/>
</g>
<g clip-path="url(#clip3_2271_4081)">
<g filter="url(#filter3_f_2271_4081)">
<path d="M143 213.003C142.606 213.003 142.217 213.081 141.853 213.231C141.489 213.382 141.159 213.603 140.881 213.881C140.603 214.159 140.382 214.49 140.231 214.853C140.081 215.217 140.003 215.606 140.003 216C140.003 216.394 140.081 216.783 140.231 217.147C140.382 217.511 140.603 217.841 140.881 218.119C141.159 218.398 141.489 218.618 141.853 218.769C142.217 218.92 142.606 218.997 143 218.997C143.795 218.997 144.557 218.681 145.119 218.119C145.681 217.557 145.997 216.795 145.997 216C145.997 215.205 145.681 214.443 145.119 213.881C144.557 213.319 143.795 213.003 143 213.003ZM149.75 214.5C149.153 214.5 148.581 214.737 148.159 215.159C147.737 215.581 147.5 216.153 147.5 216.75C147.5 217.347 147.737 217.919 148.159 218.341C148.581 218.763 149.153 219 149.75 219C150.347 219 150.919 218.763 151.341 218.341C151.763 217.919 152 217.347 152 216.75C152 216.153 151.763 215.581 151.341 215.159C150.919 214.737 150.347 214.5 149.75 214.5ZM136.25 214.5C135.653 214.5 135.081 214.737 134.659 215.159C134.237 215.581 134 216.153 134 216.75C134 217.347 134.237 217.919 134.659 218.341C135.081 218.763 135.653 219 136.25 219C136.847 219 137.419 218.763 137.841 218.341C138.263 217.919 138.5 217.347 138.5 216.75C138.5 216.153 138.263 215.581 137.841 215.159C137.419 214.737 136.847 214.5 136.25 214.5ZM138.5 221.99C138.503 221.594 138.662 221.215 138.943 220.936C139.224 220.657 139.604 220.5 140 220.5H146C146.398 220.5 146.779 220.658 147.061 220.939C147.342 221.221 147.5 221.602 147.5 222V226.5C147.5 226.972 147.426 227.441 147.281 227.891C146.949 228.909 146.265 229.775 145.351 230.334C144.438 230.893 143.355 231.108 142.297 230.94C141.24 230.773 140.276 230.234 139.58 229.42C138.884 228.606 138.501 227.571 138.5 226.5V221.99ZM137 222C137 221.453 137.146 220.941 137.402 220.5H134C133.602 220.5 133.221 220.658 132.939 220.939C132.658 221.221 132.5 221.602 132.5 222V225.75C132.5 226.364 132.65 226.969 132.938 227.511C133.226 228.053 133.643 228.516 134.152 228.86C134.661 229.203 135.247 229.416 135.857 229.481C136.468 229.545 137.085 229.458 137.654 229.229C137.223 228.383 136.999 227.447 137 226.499V222ZM149 222V226.5C149 227.483 148.764 228.41 148.346 229.229C148.915 229.458 149.532 229.545 150.143 229.481C150.753 229.416 151.339 229.203 151.848 228.86C152.357 228.516 152.774 228.053 153.062 227.511C153.35 226.969 153.5 226.364 153.5 225.75V222C153.5 221.602 153.342 221.221 153.061 220.939C152.779 220.658 152.398 220.5 152 220.5H148.598C148.853 220.941 149 221.453 149 222Z" fill="#40C2FF"/>
</g>
<path d="M143 213.003C142.606 213.003 142.217 213.08 141.853 213.231C141.489 213.382 141.159 213.602 140.881 213.881C140.603 214.159 140.382 214.489 140.231 214.853C140.081 215.217 140.003 215.606 140.003 216C140.003 216.394 140.081 216.783 140.231 217.147C140.382 217.51 140.603 217.841 140.881 218.119C141.159 218.397 141.489 218.618 141.853 218.769C142.217 218.919 142.606 218.997 143 218.997C143.795 218.997 144.557 218.681 145.119 218.119C145.681 217.557 145.997 216.795 145.997 216C145.997 215.205 145.681 214.443 145.119 213.881C144.557 213.319 143.795 213.003 143 213.003ZM149.75 214.5C149.153 214.5 148.581 214.737 148.159 215.159C147.737 215.581 147.5 216.153 147.5 216.75C147.5 217.347 147.737 217.919 148.159 218.341C148.581 218.763 149.153 219 149.75 219C150.347 219 150.919 218.763 151.341 218.341C151.763 217.919 152 217.347 152 216.75C152 216.153 151.763 215.581 151.341 215.159C150.919 214.737 150.347 214.5 149.75 214.5ZM136.25 214.5C135.653 214.5 135.081 214.737 134.659 215.159C134.237 215.581 134 216.153 134 216.75C134 217.347 134.237 217.919 134.659 218.341C135.081 218.763 135.653 219 136.25 219C136.847 219 137.419 218.763 137.841 218.341C138.263 217.919 138.5 217.347 138.5 216.75C138.5 216.153 138.263 215.581 137.841 215.159C137.419 214.737 136.847 214.5 136.25 214.5ZM138.5 221.989C138.503 221.593 138.662 221.215 138.943 220.936C139.224 220.657 139.604 220.5 140 220.5H146C146.398 220.5 146.779 220.658 147.061 220.939C147.342 221.221 147.5 221.602 147.5 222V226.5C147.5 226.972 147.426 227.441 147.281 227.89C146.949 228.908 146.265 229.775 145.351 230.334C144.438 230.893 143.355 231.108 142.297 230.94C141.24 230.773 140.276 230.234 139.58 229.42C138.884 228.606 138.501 227.571 138.5 226.5V221.989ZM137 222C137 221.452 137.146 220.941 137.402 220.5H134C133.602 220.5 133.221 220.658 132.939 220.939C132.658 221.221 132.5 221.602 132.5 222V225.75C132.5 226.364 132.65 226.969 132.938 227.511C133.226 228.053 133.643 228.516 134.152 228.859C134.661 229.203 135.247 229.416 135.857 229.481C136.468 229.545 137.085 229.458 137.654 229.228C137.223 228.383 136.999 227.447 137 226.498V222ZM149 222V226.5C149 227.482 148.764 228.409 148.346 229.228C148.915 229.458 149.532 229.545 150.143 229.481C150.753 229.416 151.339 229.203 151.848 228.859C152.357 228.516 152.774 228.053 153.062 227.511C153.35 226.969 153.5 226.364 153.5 225.75V222C153.5 221.602 153.342 221.221 153.061 220.939C152.779 220.658 152.398 220.5 152 220.5H148.598C148.853 220.941 149 221.452 149 222Z" fill="#40C2FF"/>
</g>
<g clip-path="url(#clip4_2271_4081)">
<g filter="url(#filter4_f_2271_4081)">
<path d="M274 177.003C273.606 177.003 273.217 177.081 272.853 177.231C272.489 177.382 272.159 177.603 271.881 177.881C271.603 178.159 271.382 178.49 271.231 178.853C271.081 179.217 271.003 179.606 271.003 180C271.003 180.394 271.081 180.783 271.231 181.147C271.382 181.511 271.603 181.841 271.881 182.119C272.159 182.398 272.489 182.618 272.853 182.769C273.217 182.92 273.606 182.997 274 182.997C274.795 182.997 275.557 182.681 276.119 182.119C276.681 181.557 276.997 180.795 276.997 180C276.997 179.205 276.681 178.443 276.119 177.881C275.557 177.319 274.795 177.003 274 177.003ZM280.75 178.5C280.153 178.5 279.581 178.737 279.159 179.159C278.737 179.581 278.5 180.153 278.5 180.75C278.5 181.347 278.737 181.919 279.159 182.341C279.581 182.763 280.153 183 280.75 183C281.347 183 281.919 182.763 282.341 182.341C282.763 181.919 283 181.347 283 180.75C283 180.153 282.763 179.581 282.341 179.159C281.919 178.737 281.347 178.5 280.75 178.5ZM267.25 178.5C266.653 178.5 266.081 178.737 265.659 179.159C265.237 179.581 265 180.153 265 180.75C265 181.347 265.237 181.919 265.659 182.341C266.081 182.763 266.653 183 267.25 183C267.847 183 268.419 182.763 268.841 182.341C269.263 181.919 269.5 181.347 269.5 180.75C269.5 180.153 269.263 179.581 268.841 179.159C268.419 178.737 267.847 178.5 267.25 178.5ZM269.5 185.99C269.503 185.594 269.662 185.215 269.943 184.936C270.224 184.657 270.604 184.5 271 184.5H277C277.398 184.5 277.779 184.658 278.061 184.939C278.342 185.221 278.5 185.602 278.5 186V190.5C278.5 190.972 278.426 191.441 278.281 191.891C277.949 192.909 277.265 193.775 276.351 194.334C275.438 194.893 274.355 195.108 273.297 194.94C272.24 194.773 271.276 194.234 270.58 193.42C269.884 192.606 269.501 191.571 269.5 190.5V185.99ZM268 186C268 185.453 268.146 184.941 268.402 184.5H265C264.602 184.5 264.221 184.658 263.939 184.939C263.658 185.221 263.5 185.602 263.5 186V189.75C263.5 190.364 263.65 190.969 263.938 191.511C264.226 192.053 264.643 192.516 265.152 192.86C265.661 193.203 266.247 193.416 266.857 193.481C267.468 193.545 268.085 193.458 268.654 193.229C268.223 192.383 267.999 191.447 268 190.499V186ZM280 186V190.5C280 191.483 279.764 192.41 279.346 193.229C279.915 193.458 280.532 193.545 281.143 193.481C281.753 193.416 282.339 193.203 282.848 192.86C283.357 192.516 283.774 192.053 284.062 191.511C284.35 190.969 284.5 190.364 284.5 189.75V186C284.5 185.602 284.342 185.221 284.061 184.939C283.779 184.658 283.398 184.5 283 184.5H279.598C279.853 184.941 280 185.453 280 186Z" fill="#40C2FF"/>
</g>
<path d="M274 177.003C273.606 177.003 273.217 177.08 272.853 177.231C272.489 177.382 272.159 177.602 271.881 177.881C271.603 178.159 271.382 178.489 271.231 178.853C271.081 179.217 271.003 179.606 271.003 180C271.003 180.394 271.081 180.783 271.231 181.147C271.382 181.51 271.603 181.841 271.881 182.119C272.159 182.397 272.489 182.618 272.853 182.769C273.217 182.919 273.606 182.997 274 182.997C274.795 182.997 275.557 182.681 276.119 182.119C276.681 181.557 276.997 180.795 276.997 180C276.997 179.205 276.681 178.443 276.119 177.881C275.557 177.319 274.795 177.003 274 177.003ZM280.75 178.5C280.153 178.5 279.581 178.737 279.159 179.159C278.737 179.581 278.5 180.153 278.5 180.75C278.5 181.347 278.737 181.919 279.159 182.341C279.581 182.763 280.153 183 280.75 183C281.347 183 281.919 182.763 282.341 182.341C282.763 181.919 283 181.347 283 180.75C283 180.153 282.763 179.581 282.341 179.159C281.919 178.737 281.347 178.5 280.75 178.5ZM267.25 178.5C266.653 178.5 266.081 178.737 265.659 179.159C265.237 179.581 265 180.153 265 180.75C265 181.347 265.237 181.919 265.659 182.341C266.081 182.763 266.653 183 267.25 183C267.847 183 268.419 182.763 268.841 182.341C269.263 181.919 269.5 181.347 269.5 180.75C269.5 180.153 269.263 179.581 268.841 179.159C268.419 178.737 267.847 178.5 267.25 178.5ZM269.5 185.989C269.503 185.593 269.662 185.215 269.943 184.936C270.224 184.657 270.604 184.5 271 184.5H277C277.398 184.5 277.779 184.658 278.061 184.939C278.342 185.221 278.5 185.602 278.5 186V190.5C278.5 190.972 278.426 191.441 278.281 191.89C277.949 192.908 277.265 193.775 276.351 194.334C275.438 194.893 274.355 195.108 273.297 194.94C272.24 194.773 271.276 194.234 270.58 193.42C269.884 192.606 269.501 191.571 269.5 190.5V185.989ZM268 186C268 185.452 268.146 184.941 268.402 184.5H265C264.602 184.5 264.221 184.658 263.939 184.939C263.658 185.221 263.5 185.602 263.5 186V189.75C263.5 190.364 263.65 190.969 263.938 191.511C264.226 192.053 264.643 192.516 265.152 192.859C265.661 193.203 266.247 193.416 266.857 193.481C267.468 193.545 268.085 193.458 268.654 193.228C268.223 192.383 267.999 191.447 268 190.498V186ZM280 186V190.5C280 191.482 279.764 192.409 279.346 193.228C279.915 193.458 280.532 193.545 281.143 193.481C281.753 193.416 282.339 193.203 282.848 192.859C283.357 192.516 283.774 192.053 284.062 191.511C284.35 190.969 284.5 190.364 284.5 189.75V186C284.5 185.602 284.342 185.221 284.061 184.939C283.779 184.658 283.398 184.5 283 184.5H279.598C279.853 184.941 280 185.452 280 186Z" fill="#40C2FF"/>
</g>
<g clip-path="url(#clip5_2271_4081)">
<g filter="url(#filter5_f_2271_4081)">
<path d="M55 197.003C54.6064 197.003 54.2167 197.081 53.8531 197.231C53.4895 197.382 53.1591 197.603 52.8808 197.881C52.6025 198.159 52.3817 198.49 52.2311 198.853C52.0805 199.217 52.003 199.606 52.003 200C52.003 200.394 52.0805 200.783 52.2311 201.147C52.3817 201.511 52.6025 201.841 52.8808 202.119C53.1591 202.398 53.4895 202.618 53.8531 202.769C54.2167 202.92 54.6064 202.997 55 202.997C55.7949 202.997 56.5572 202.681 57.1192 202.119C57.6812 201.557 57.997 200.795 57.997 200C57.997 199.205 57.6812 198.443 57.1192 197.881C56.5572 197.319 55.7949 197.003 55 197.003ZM61.75 198.5C61.1533 198.5 60.581 198.737 60.159 199.159C59.7371 199.581 59.5 200.153 59.5 200.75C59.5 201.347 59.7371 201.919 60.159 202.341C60.581 202.763 61.1533 203 61.75 203C62.3467 203 62.919 202.763 63.341 202.341C63.7629 201.919 64 201.347 64 200.75C64 200.153 63.7629 199.581 63.341 199.159C62.919 198.737 62.3467 198.5 61.75 198.5ZM48.25 198.5C47.6533 198.5 47.081 198.737 46.659 199.159C46.2371 199.581 46 200.153 46 200.75C46 201.347 46.2371 201.919 46.659 202.341C47.081 202.763 47.6533 203 48.25 203C48.8467 203 49.419 202.763 49.841 202.341C50.2629 201.919 50.5 201.347 50.5 200.75C50.5 200.153 50.2629 199.581 49.841 199.159C49.419 198.737 48.8467 198.5 48.25 198.5ZM50.5 205.99C50.5028 205.594 50.662 205.215 50.943 204.936C51.224 204.657 51.604 204.5 52 204.5H58C58.3978 204.5 58.7794 204.658 59.0607 204.939C59.342 205.221 59.5 205.602 59.5 206V210.5C59.5004 210.972 59.4265 211.441 59.281 211.891C58.9489 212.909 58.2647 213.775 57.3513 214.334C56.4379 214.893 55.3551 215.108 54.2974 214.94C53.2398 214.773 52.2764 214.234 51.5804 213.42C50.8844 212.606 50.5014 211.571 50.5 210.5V205.99ZM49 206C49 205.453 49.1455 204.941 49.402 204.5H46C45.6022 204.5 45.2206 204.658 44.9393 204.939C44.658 205.221 44.5 205.602 44.5 206V209.75C44.4998 210.364 44.6503 210.969 44.9384 211.511C45.2265 212.053 45.6433 212.516 46.1522 212.86C46.6611 213.203 47.2465 213.416 47.8571 213.481C48.4677 213.545 49.0847 213.458 49.654 213.229C49.2232 212.383 48.9991 211.447 49 210.499V206ZM61 206V210.5C61 211.483 60.7645 212.41 60.346 213.229C60.9153 213.458 61.5323 213.545 62.1429 213.481C62.7535 213.416 63.3389 213.203 63.8478 212.86C64.3567 212.516 64.7735 212.053 65.0616 211.511C65.3497 210.969 65.5002 210.364 65.5 209.75V206C65.5 205.602 65.342 205.221 65.0607 204.939C64.7794 204.658 64.3978 204.5 64 204.5H60.598C60.853 204.941 61 205.453 61 206Z" fill="#40C2FF"/>
</g>
<path d="M55 197.003C54.6064 197.003 54.2167 197.08 53.8531 197.231C53.4895 197.382 53.1591 197.602 52.8808 197.881C52.6025 198.159 52.3817 198.489 52.2311 198.853C52.0805 199.217 52.003 199.606 52.003 200C52.003 200.394 52.0805 200.783 52.2311 201.147C52.3817 201.51 52.6025 201.841 52.8808 202.119C53.1591 202.397 53.4895 202.618 53.8531 202.769C54.2167 202.919 54.6064 202.997 55 202.997C55.7949 202.997 56.5572 202.681 57.1192 202.119C57.6812 201.557 57.997 200.795 57.997 200C57.997 199.205 57.6812 198.443 57.1192 197.881C56.5572 197.319 55.7949 197.003 55 197.003ZM61.75 198.5C61.1533 198.5 60.581 198.737 60.159 199.159C59.7371 199.581 59.5 200.153 59.5 200.75C59.5 201.347 59.7371 201.919 60.159 202.341C60.581 202.763 61.1533 203 61.75 203C62.3467 203 62.919 202.763 63.341 202.341C63.7629 201.919 64 201.347 64 200.75C64 200.153 63.7629 199.581 63.341 199.159C62.919 198.737 62.3467 198.5 61.75 198.5ZM48.25 198.5C47.6533 198.5 47.081 198.737 46.659 199.159C46.2371 199.581 46 200.153 46 200.75C46 201.347 46.2371 201.919 46.659 202.341C47.081 202.763 47.6533 203 48.25 203C48.8467 203 49.419 202.763 49.841 202.341C50.2629 201.919 50.5 201.347 50.5 200.75C50.5 200.153 50.2629 199.581 49.841 199.159C49.419 198.737 48.8467 198.5 48.25 198.5ZM50.5 205.989C50.5028 205.593 50.662 205.215 50.943 204.936C51.224 204.657 51.604 204.5 52 204.5H58C58.3978 204.5 58.7794 204.658 59.0607 204.939C59.342 205.221 59.5 205.602 59.5 206V210.5C59.5004 210.972 59.4265 211.441 59.281 211.89C58.9489 212.908 58.2647 213.775 57.3513 214.334C56.4379 214.893 55.3551 215.108 54.2974 214.94C53.2398 214.773 52.2764 214.234 51.5804 213.42C50.8844 212.606 50.5014 211.571 50.5 210.5V205.989ZM49 206C49 205.452 49.1455 204.941 49.402 204.5H46C45.6022 204.5 45.2206 204.658 44.9393 204.939C44.658 205.221 44.5 205.602 44.5 206V209.75C44.4998 210.364 44.6503 210.969 44.9384 211.511C45.2265 212.053 45.6433 212.516 46.1522 212.859C46.6611 213.203 47.2465 213.416 47.8571 213.481C48.4677 213.545 49.0847 213.458 49.654 213.228C49.2232 212.383 48.9991 211.447 49 210.498V206ZM61 206V210.5C61 211.482 60.7645 212.409 60.346 213.228C60.9153 213.458 61.5323 213.545 62.1429 213.481C62.7535 213.416 63.3389 213.203 63.8478 212.859C64.3567 212.516 64.7735 212.053 65.0616 211.511C65.3497 210.969 65.5002 210.364 65.5 209.75V206C65.5 205.602 65.342 205.221 65.0607 204.939C64.7794 204.658 64.3978 204.5 64 204.5H60.598C60.853 204.941 61 205.452 61 206Z" fill="#40C2FF"/>
</g>
<g clip-path="url(#clip6_2271_4081)">
<g filter="url(#filter6_f_2271_4081)">
<path d="M186 234.003C185.606 234.003 185.217 234.081 184.853 234.231C184.489 234.382 184.159 234.603 183.881 234.881C183.603 235.159 183.382 235.49 183.231 235.853C183.081 236.217 183.003 236.606 183.003 237C183.003 237.394 183.081 237.783 183.231 238.147C183.382 238.511 183.603 238.841 183.881 239.119C184.159 239.398 184.489 239.618 184.853 239.769C185.217 239.92 185.606 239.997 186 239.997C186.795 239.997 187.557 239.681 188.119 239.119C188.681 238.557 188.997 237.795 188.997 237C188.997 236.205 188.681 235.443 188.119 234.881C187.557 234.319 186.795 234.003 186 234.003ZM192.75 235.5C192.153 235.5 191.581 235.737 191.159 236.159C190.737 236.581 190.5 237.153 190.5 237.75C190.5 238.347 190.737 238.919 191.159 239.341C191.581 239.763 192.153 240 192.75 240C193.347 240 193.919 239.763 194.341 239.341C194.763 238.919 195 238.347 195 237.75C195 237.153 194.763 236.581 194.341 236.159C193.919 235.737 193.347 235.5 192.75 235.5ZM179.25 235.5C178.653 235.5 178.081 235.737 177.659 236.159C177.237 236.581 177 237.153 177 237.75C177 238.347 177.237 238.919 177.659 239.341C178.081 239.763 178.653 240 179.25 240C179.847 240 180.419 239.763 180.841 239.341C181.263 238.919 181.5 238.347 181.5 237.75C181.5 237.153 181.263 236.581 180.841 236.159C180.419 235.737 179.847 235.5 179.25 235.5ZM181.5 242.99C181.503 242.594 181.662 242.215 181.943 241.936C182.224 241.657 182.604 241.5 183 241.5H189C189.398 241.5 189.779 241.658 190.061 241.939C190.342 242.221 190.5 242.602 190.5 243V247.5C190.5 247.972 190.426 248.441 190.281 248.891C189.949 249.909 189.265 250.775 188.351 251.334C187.438 251.893 186.355 252.108 185.297 251.94C184.24 251.773 183.276 251.234 182.58 250.42C181.884 249.606 181.501 248.571 181.5 247.5V242.99ZM180 243C180 242.453 180.146 241.941 180.402 241.5H177C176.602 241.5 176.221 241.658 175.939 241.939C175.658 242.221 175.5 242.602 175.5 243V246.75C175.5 247.364 175.65 247.969 175.938 248.511C176.226 249.053 176.643 249.516 177.152 249.86C177.661 250.203 178.247 250.416 178.857 250.481C179.468 250.545 180.085 250.458 180.654 250.229C180.223 249.383 179.999 248.447 180 247.499V243ZM192 243V247.5C192 248.483 191.764 249.41 191.346 250.229C191.915 250.458 192.532 250.545 193.143 250.481C193.753 250.416 194.339 250.203 194.848 249.86C195.357 249.516 195.774 249.053 196.062 248.511C196.35 247.969 196.5 247.364 196.5 246.75V243C196.5 242.602 196.342 242.221 196.061 241.939C195.779 241.658 195.398 241.5 195 241.5H191.598C191.853 241.941 192 242.453 192 243Z" fill="#40C2FF"/>
</g>
<path d="M186 234.003C185.606 234.003 185.217 234.08 184.853 234.231C184.489 234.382 184.159 234.602 183.881 234.881C183.603 235.159 183.382 235.489 183.231 235.853C183.081 236.217 183.003 236.606 183.003 237C183.003 237.394 183.081 237.783 183.231 238.147C183.382 238.51 183.603 238.841 183.881 239.119C184.159 239.397 184.489 239.618 184.853 239.769C185.217 239.919 185.606 239.997 186 239.997C186.795 239.997 187.557 239.681 188.119 239.119C188.681 238.557 188.997 237.795 188.997 237C188.997 236.205 188.681 235.443 188.119 234.881C187.557 234.319 186.795 234.003 186 234.003ZM192.75 235.5C192.153 235.5 191.581 235.737 191.159 236.159C190.737 236.581 190.5 237.153 190.5 237.75C190.5 238.347 190.737 238.919 191.159 239.341C191.581 239.763 192.153 240 192.75 240C193.347 240 193.919 239.763 194.341 239.341C194.763 238.919 195 238.347 195 237.75C195 237.153 194.763 236.581 194.341 236.159C193.919 235.737 193.347 235.5 192.75 235.5ZM179.25 235.5C178.653 235.5 178.081 235.737 177.659 236.159C177.237 236.581 177 237.153 177 237.75C177 238.347 177.237 238.919 177.659 239.341C178.081 239.763 178.653 240 179.25 240C179.847 240 180.419 239.763 180.841 239.341C181.263 238.919 181.5 238.347 181.5 237.75C181.5 237.153 181.263 236.581 180.841 236.159C180.419 235.737 179.847 235.5 179.25 235.5ZM181.5 242.989C181.503 242.593 181.662 242.215 181.943 241.936C182.224 241.657 182.604 241.5 183 241.5H189C189.398 241.5 189.779 241.658 190.061 241.939C190.342 242.221 190.5 242.602 190.5 243V247.5C190.5 247.972 190.426 248.441 190.281 248.89C189.949 249.908 189.265 250.775 188.351 251.334C187.438 251.893 186.355 252.108 185.297 251.94C184.24 251.773 183.276 251.234 182.58 250.42C181.884 249.606 181.501 248.571 181.5 247.5V242.989ZM180 243C180 242.452 180.146 241.941 180.402 241.5H177C176.602 241.5 176.221 241.658 175.939 241.939C175.658 242.221 175.5 242.602 175.5 243V246.75C175.5 247.364 175.65 247.969 175.938 248.511C176.226 249.053 176.643 249.516 177.152 249.859C177.661 250.203 178.247 250.416 178.857 250.481C179.468 250.545 180.085 250.458 180.654 250.228C180.223 249.383 179.999 248.447 180 247.498V243ZM192 243V247.5C192 248.482 191.764 249.409 191.346 250.228C191.915 250.458 192.532 250.545 193.143 250.481C193.753 250.416 194.339 250.203 194.848 249.859C195.357 249.516 195.774 249.053 196.062 248.511C196.35 247.969 196.5 247.364 196.5 246.75V243C196.5 242.602 196.342 242.221 196.061 241.939C195.779 241.658 195.398 241.5 195 241.5H191.598C191.853 241.941 192 242.452 192 243Z" fill="#40C2FF"/>
</g>
<g clip-path="url(#clip7_2271_4081)">
<g filter="url(#filter7_f_2271_4081)">
<path d="M317 197.003C316.606 197.003 316.217 197.081 315.853 197.231C315.489 197.382 315.159 197.603 314.881 197.881C314.603 198.159 314.382 198.49 314.231 198.853C314.081 199.217 314.003 199.606 314.003 200C314.003 200.394 314.081 200.783 314.231 201.147C314.382 201.511 314.603 201.841 314.881 202.119C315.159 202.398 315.489 202.618 315.853 202.769C316.217 202.92 316.606 202.997 317 202.997C317.795 202.997 318.557 202.681 319.119 202.119C319.681 201.557 319.997 200.795 319.997 200C319.997 199.205 319.681 198.443 319.119 197.881C318.557 197.319 317.795 197.003 317 197.003ZM323.75 198.5C323.153 198.5 322.581 198.737 322.159 199.159C321.737 199.581 321.5 200.153 321.5 200.75C321.5 201.347 321.737 201.919 322.159 202.341C322.581 202.763 323.153 203 323.75 203C324.347 203 324.919 202.763 325.341 202.341C325.763 201.919 326 201.347 326 200.75C326 200.153 325.763 199.581 325.341 199.159C324.919 198.737 324.347 198.5 323.75 198.5ZM310.25 198.5C309.653 198.5 309.081 198.737 308.659 199.159C308.237 199.581 308 200.153 308 200.75C308 201.347 308.237 201.919 308.659 202.341C309.081 202.763 309.653 203 310.25 203C310.847 203 311.419 202.763 311.841 202.341C312.263 201.919 312.5 201.347 312.5 200.75C312.5 200.153 312.263 199.581 311.841 199.159C311.419 198.737 310.847 198.5 310.25 198.5ZM312.5 205.99C312.503 205.594 312.662 205.215 312.943 204.936C313.224 204.657 313.604 204.5 314 204.5H320C320.398 204.5 320.779 204.658 321.061 204.939C321.342 205.221 321.5 205.602 321.5 206V210.5C321.5 210.972 321.426 211.441 321.281 211.891C320.949 212.909 320.265 213.775 319.351 214.334C318.438 214.893 317.355 215.108 316.297 214.94C315.24 214.773 314.276 214.234 313.58 213.42C312.884 212.606 312.501 211.571 312.5 210.5V205.99ZM311 206C311 205.453 311.146 204.941 311.402 204.5H308C307.602 204.5 307.221 204.658 306.939 204.939C306.658 205.221 306.5 205.602 306.5 206V209.75C306.5 210.364 306.65 210.969 306.938 211.511C307.226 212.053 307.643 212.516 308.152 212.86C308.661 213.203 309.247 213.416 309.857 213.481C310.468 213.545 311.085 213.458 311.654 213.229C311.223 212.383 310.999 211.447 311 210.499V206ZM323 206V210.5C323 211.483 322.764 212.41 322.346 213.229C322.915 213.458 323.532 213.545 324.143 213.481C324.753 213.416 325.339 213.203 325.848 212.86C326.357 212.516 326.774 212.053 327.062 211.511C327.35 210.969 327.5 210.364 327.5 209.75V206C327.5 205.602 327.342 205.221 327.061 204.939C326.779 204.658 326.398 204.5 326 204.5H322.598C322.853 204.941 323 205.453 323 206Z" fill="#40C2FF"/>
</g>
<path d="M317 197.003C316.606 197.003 316.217 197.08 315.853 197.231C315.489 197.382 315.159 197.602 314.881 197.881C314.603 198.159 314.382 198.489 314.231 198.853C314.081 199.217 314.003 199.606 314.003 200C314.003 200.394 314.081 200.783 314.231 201.147C314.382 201.51 314.603 201.841 314.881 202.119C315.159 202.397 315.489 202.618 315.853 202.769C316.217 202.919 316.606 202.997 317 202.997C317.795 202.997 318.557 202.681 319.119 202.119C319.681 201.557 319.997 200.795 319.997 200C319.997 199.205 319.681 198.443 319.119 197.881C318.557 197.319 317.795 197.003 317 197.003ZM323.75 198.5C323.153 198.5 322.581 198.737 322.159 199.159C321.737 199.581 321.5 200.153 321.5 200.75C321.5 201.347 321.737 201.919 322.159 202.341C322.581 202.763 323.153 203 323.75 203C324.347 203 324.919 202.763 325.341 202.341C325.763 201.919 326 201.347 326 200.75C326 200.153 325.763 199.581 325.341 199.159C324.919 198.737 324.347 198.5 323.75 198.5ZM310.25 198.5C309.653 198.5 309.081 198.737 308.659 199.159C308.237 199.581 308 200.153 308 200.75C308 201.347 308.237 201.919 308.659 202.341C309.081 202.763 309.653 203 310.25 203C310.847 203 311.419 202.763 311.841 202.341C312.263 201.919 312.5 201.347 312.5 200.75C312.5 200.153 312.263 199.581 311.841 199.159C311.419 198.737 310.847 198.5 310.25 198.5ZM312.5 205.989C312.503 205.593 312.662 205.215 312.943 204.936C313.224 204.657 313.604 204.5 314 204.5H320C320.398 204.5 320.779 204.658 321.061 204.939C321.342 205.221 321.5 205.602 321.5 206V210.5C321.5 210.972 321.426 211.441 321.281 211.89C320.949 212.908 320.265 213.775 319.351 214.334C318.438 214.893 317.355 215.108 316.297 214.94C315.24 214.773 314.276 214.234 313.58 213.42C312.884 212.606 312.501 211.571 312.5 210.5V205.989ZM311 206C311 205.452 311.146 204.941 311.402 204.5H308C307.602 204.5 307.221 204.658 306.939 204.939C306.658 205.221 306.5 205.602 306.5 206V209.75C306.5 210.364 306.65 210.969 306.938 211.511C307.226 212.053 307.643 212.516 308.152 212.859C308.661 213.203 309.247 213.416 309.857 213.481C310.468 213.545 311.085 213.458 311.654 213.228C311.223 212.383 310.999 211.447 311 210.498V206ZM323 206V210.5C323 211.482 322.764 212.409 322.346 213.228C322.915 213.458 323.532 213.545 324.143 213.481C324.753 213.416 325.339 213.203 325.848 212.859C326.357 212.516 326.774 212.053 327.062 211.511C327.35 210.969 327.5 210.364 327.5 209.75V206C327.5 205.602 327.342 205.221 327.061 204.939C326.779 204.658 326.398 204.5 326 204.5H322.598C322.853 204.941 323 205.452 323 206Z" fill="#40C2FF"/>
</g>
<g clip-path="url(#clip8_2271_4081)">
<g filter="url(#filter8_f_2271_4081)">
<path d="M97 176.003C96.6064 176.003 96.2167 176.081 95.8531 176.231C95.4895 176.382 95.1591 176.603 94.8808 176.881C94.6025 177.159 94.3817 177.49 94.2311 177.853C94.0805 178.217 94.003 178.606 94.003 179C94.003 179.394 94.0805 179.783 94.2311 180.147C94.3817 180.511 94.6025 180.841 94.8808 181.119C95.1591 181.398 95.4895 181.618 95.8531 181.769C96.2167 181.92 96.6064 181.997 97 181.997C97.7949 181.997 98.5572 181.681 99.1192 181.119C99.6812 180.557 99.997 179.795 99.997 179C99.997 178.205 99.6812 177.443 99.1192 176.881C98.5572 176.319 97.7949 176.003 97 176.003ZM103.75 177.5C103.153 177.5 102.581 177.737 102.159 178.159C101.737 178.581 101.5 179.153 101.5 179.75C101.5 180.347 101.737 180.919 102.159 181.341C102.581 181.763 103.153 182 103.75 182C104.347 182 104.919 181.763 105.341 181.341C105.763 180.919 106 180.347 106 179.75C106 179.153 105.763 178.581 105.341 178.159C104.919 177.737 104.347 177.5 103.75 177.5ZM90.25 177.5C89.6533 177.5 89.081 177.737 88.659 178.159C88.2371 178.581 88 179.153 88 179.75C88 180.347 88.2371 180.919 88.659 181.341C89.081 181.763 89.6533 182 90.25 182C90.8467 182 91.419 181.763 91.841 181.341C92.2629 180.919 92.5 180.347 92.5 179.75C92.5 179.153 92.2629 178.581 91.841 178.159C91.419 177.737 90.8467 177.5 90.25 177.5ZM92.5 184.99C92.5028 184.594 92.662 184.215 92.943 183.936C93.224 183.657 93.604 183.5 94 183.5H100C100.398 183.5 100.779 183.658 101.061 183.939C101.342 184.221 101.5 184.602 101.5 185V189.5C101.5 189.972 101.426 190.441 101.281 190.891C100.949 191.909 100.265 192.775 99.3513 193.334C98.4379 193.893 97.3551 194.108 96.2974 193.94C95.2398 193.773 94.2764 193.234 93.5804 192.42C92.8844 191.606 92.5014 190.571 92.5 189.5V184.99ZM91 185C91 184.453 91.1455 183.941 91.402 183.5H88C87.6022 183.5 87.2206 183.658 86.9393 183.939C86.658 184.221 86.5 184.602 86.5 185V188.75C86.4998 189.364 86.6503 189.969 86.9384 190.511C87.2265 191.053 87.6433 191.516 88.1522 191.86C88.6611 192.203 89.2465 192.416 89.8571 192.481C90.4677 192.545 91.0847 192.458 91.654 192.229C91.2232 191.383 90.9991 190.447 91 189.499V185ZM103 185V189.5C103 190.483 102.764 191.41 102.346 192.229C102.915 192.458 103.532 192.545 104.143 192.481C104.753 192.416 105.339 192.203 105.848 191.86C106.357 191.516 106.774 191.053 107.062 190.511C107.35 189.969 107.5 189.364 107.5 188.75V185C107.5 184.602 107.342 184.221 107.061 183.939C106.779 183.658 106.398 183.5 106 183.5H102.598C102.853 183.941 103 184.453 103 185Z" fill="#40C2FF"/>
</g>
<path d="M97 176.003C96.6064 176.003 96.2167 176.08 95.8531 176.231C95.4895 176.382 95.1591 176.602 94.8808 176.881C94.6025 177.159 94.3817 177.489 94.2311 177.853C94.0805 178.217 94.003 178.606 94.003 179C94.003 179.394 94.0805 179.783 94.2311 180.147C94.3817 180.51 94.6025 180.841 94.8808 181.119C95.1591 181.397 95.4895 181.618 95.8531 181.769C96.2167 181.919 96.6064 181.997 97 181.997C97.7949 181.997 98.5572 181.681 99.1192 181.119C99.6812 180.557 99.997 179.795 99.997 179C99.997 178.205 99.6812 177.443 99.1192 176.881C98.5572 176.319 97.7949 176.003 97 176.003ZM103.75 177.5C103.153 177.5 102.581 177.737 102.159 178.159C101.737 178.581 101.5 179.153 101.5 179.75C101.5 180.347 101.737 180.919 102.159 181.341C102.581 181.763 103.153 182 103.75 182C104.347 182 104.919 181.763 105.341 181.341C105.763 180.919 106 180.347 106 179.75C106 179.153 105.763 178.581 105.341 178.159C104.919 177.737 104.347 177.5 103.75 177.5ZM90.25 177.5C89.6533 177.5 89.081 177.737 88.659 178.159C88.2371 178.581 88 179.153 88 179.75C88 180.347 88.2371 180.919 88.659 181.341C89.081 181.763 89.6533 182 90.25 182C90.8467 182 91.419 181.763 91.841 181.341C92.2629 180.919 92.5 180.347 92.5 179.75C92.5 179.153 92.2629 178.581 91.841 178.159C91.419 177.737 90.8467 177.5 90.25 177.5ZM92.5 184.989C92.5028 184.593 92.662 184.215 92.943 183.936C93.224 183.657 93.604 183.5 94 183.5H100C100.398 183.5 100.779 183.658 101.061 183.939C101.342 184.221 101.5 184.602 101.5 185V189.5C101.5 189.972 101.426 190.441 101.281 190.89C100.949 191.908 100.265 192.775 99.3513 193.334C98.4379 193.893 97.3551 194.108 96.2974 193.94C95.2398 193.773 94.2764 193.234 93.5804 192.42C92.8844 191.606 92.5014 190.571 92.5 189.5V184.989ZM91 185C91 184.452 91.1455 183.941 91.402 183.5H88C87.6022 183.5 87.2206 183.658 86.9393 183.939C86.658 184.221 86.5 184.602 86.5 185V188.75C86.4998 189.364 86.6503 189.969 86.9384 190.511C87.2265 191.053 87.6433 191.516 88.1522 191.859C88.6611 192.203 89.2465 192.416 89.8571 192.481C90.4677 192.545 91.0847 192.458 91.654 192.228C91.2232 191.383 90.9991 190.447 91 189.498V185ZM103 185V189.5C103 190.482 102.764 191.409 102.346 192.228C102.915 192.458 103.532 192.545 104.143 192.481C104.753 192.416 105.339 192.203 105.848 191.859C106.357 191.516 106.774 191.053 107.062 190.511C107.35 189.969 107.5 189.364 107.5 188.75V185C107.5 184.602 107.342 184.221 107.061 183.939C106.779 183.658 106.398 183.5 106 183.5H102.598C102.853 183.941 103 184.452 103 185Z" fill="#40C2FF"/>
</g>
<g clip-path="url(#clip9_2271_4081)">
<g filter="url(#filter9_f_2271_4081)">
<path d="M228 213.003C227.606 213.003 227.217 213.081 226.853 213.231C226.489 213.382 226.159 213.603 225.881 213.881C225.603 214.159 225.382 214.49 225.231 214.853C225.081 215.217 225.003 215.606 225.003 216C225.003 216.394 225.081 216.783 225.231 217.147C225.382 217.511 225.603 217.841 225.881 218.119C226.159 218.398 226.489 218.618 226.853 218.769C227.217 218.92 227.606 218.997 228 218.997C228.795 218.997 229.557 218.681 230.119 218.119C230.681 217.557 230.997 216.795 230.997 216C230.997 215.205 230.681 214.443 230.119 213.881C229.557 213.319 228.795 213.003 228 213.003ZM234.75 214.5C234.153 214.5 233.581 214.737 233.159 215.159C232.737 215.581 232.5 216.153 232.5 216.75C232.5 217.347 232.737 217.919 233.159 218.341C233.581 218.763 234.153 219 234.75 219C235.347 219 235.919 218.763 236.341 218.341C236.763 217.919 237 217.347 237 216.75C237 216.153 236.763 215.581 236.341 215.159C235.919 214.737 235.347 214.5 234.75 214.5ZM221.25 214.5C220.653 214.5 220.081 214.737 219.659 215.159C219.237 215.581 219 216.153 219 216.75C219 217.347 219.237 217.919 219.659 218.341C220.081 218.763 220.653 219 221.25 219C221.847 219 222.419 218.763 222.841 218.341C223.263 217.919 223.5 217.347 223.5 216.75C223.5 216.153 223.263 215.581 222.841 215.159C222.419 214.737 221.847 214.5 221.25 214.5ZM223.5 221.99C223.503 221.594 223.662 221.215 223.943 220.936C224.224 220.657 224.604 220.5 225 220.5H231C231.398 220.5 231.779 220.658 232.061 220.939C232.342 221.221 232.5 221.602 232.5 222V226.5C232.5 226.972 232.426 227.441 232.281 227.891C231.949 228.909 231.265 229.775 230.351 230.334C229.438 230.893 228.355 231.108 227.297 230.94C226.24 230.773 225.276 230.234 224.58 229.42C223.884 228.606 223.501 227.571 223.5 226.5V221.99ZM222 222C222 221.453 222.146 220.941 222.402 220.5H219C218.602 220.5 218.221 220.658 217.939 220.939C217.658 221.221 217.5 221.602 217.5 222V225.75C217.5 226.364 217.65 226.969 217.938 227.511C218.226 228.053 218.643 228.516 219.152 228.86C219.661 229.203 220.247 229.416 220.857 229.481C221.468 229.545 222.085 229.458 222.654 229.229C222.223 228.383 221.999 227.447 222 226.499V222ZM234 222V226.5C234 227.483 233.764 228.41 233.346 229.229C233.915 229.458 234.532 229.545 235.143 229.481C235.753 229.416 236.339 229.203 236.848 228.86C237.357 228.516 237.774 228.053 238.062 227.511C238.35 226.969 238.5 226.364 238.5 225.75V222C238.5 221.602 238.342 221.221 238.061 220.939C237.779 220.658 237.398 220.5 237 220.5H233.598C233.853 220.941 234 221.453 234 222Z" fill="#40C2FF"/>
</g>
<path d="M228 213.003C227.606 213.003 227.217 213.08 226.853 213.231C226.489 213.382 226.159 213.602 225.881 213.881C225.603 214.159 225.382 214.489 225.231 214.853C225.081 215.217 225.003 215.606 225.003 216C225.003 216.394 225.081 216.783 225.231 217.147C225.382 217.51 225.603 217.841 225.881 218.119C226.159 218.397 226.489 218.618 226.853 218.769C227.217 218.919 227.606 218.997 228 218.997C228.795 218.997 229.557 218.681 230.119 218.119C230.681 217.557 230.997 216.795 230.997 216C230.997 215.205 230.681 214.443 230.119 213.881C229.557 213.319 228.795 213.003 228 213.003ZM234.75 214.5C234.153 214.5 233.581 214.737 233.159 215.159C232.737 215.581 232.5 216.153 232.5 216.75C232.5 217.347 232.737 217.919 233.159 218.341C233.581 218.763 234.153 219 234.75 219C235.347 219 235.919 218.763 236.341 218.341C236.763 217.919 237 217.347 237 216.75C237 216.153 236.763 215.581 236.341 215.159C235.919 214.737 235.347 214.5 234.75 214.5ZM221.25 214.5C220.653 214.5 220.081 214.737 219.659 215.159C219.237 215.581 219 216.153 219 216.75C219 217.347 219.237 217.919 219.659 218.341C220.081 218.763 220.653 219 221.25 219C221.847 219 222.419 218.763 222.841 218.341C223.263 217.919 223.5 217.347 223.5 216.75C223.5 216.153 223.263 215.581 222.841 215.159C222.419 214.737 221.847 214.5 221.25 214.5ZM223.5 221.989C223.503 221.593 223.662 221.215 223.943 220.936C224.224 220.657 224.604 220.5 225 220.5H231C231.398 220.5 231.779 220.658 232.061 220.939C232.342 221.221 232.5 221.602 232.5 222V226.5C232.5 226.972 232.426 227.441 232.281 227.89C231.949 228.908 231.265 229.775 230.351 230.334C229.438 230.893 228.355 231.108 227.297 230.94C226.24 230.773 225.276 230.234 224.58 229.42C223.884 228.606 223.501 227.571 223.5 226.5V221.989ZM222 222C222 221.452 222.146 220.941 222.402 220.5H219C218.602 220.5 218.221 220.658 217.939 220.939C217.658 221.221 217.5 221.602 217.5 222V225.75C217.5 226.364 217.65 226.969 217.938 227.511C218.226 228.053 218.643 228.516 219.152 228.859C219.661 229.203 220.247 229.416 220.857 229.481C221.468 229.545 222.085 229.458 222.654 229.228C222.223 228.383 221.999 227.447 222 226.498V222ZM234 222V226.5C234 227.482 233.764 228.409 233.346 229.228C233.915 229.458 234.532 229.545 235.143 229.481C235.753 229.416 236.339 229.203 236.848 228.859C237.357 228.516 237.774 228.053 238.062 227.511C238.35 226.969 238.5 226.364 238.5 225.75V222C238.5 221.602 238.342 221.221 238.061 220.939C237.779 220.658 237.398 220.5 237 220.5H233.598C233.853 220.941 234 221.452 234 222Z" fill="#40C2FF"/>
</g>
<g clip-path="url(#clip10_2271_4081)">
<g filter="url(#filter10_f_2271_4081)">
<path d="M360 176.003C359.606 176.003 359.217 176.081 358.853 176.231C358.489 176.382 358.159 176.603 357.881 176.881C357.603 177.159 357.382 177.49 357.231 177.853C357.081 178.217 357.003 178.606 357.003 179C357.003 179.394 357.081 179.783 357.231 180.147C357.382 180.511 357.603 180.841 357.881 181.119C358.159 181.398 358.489 181.618 358.853 181.769C359.217 181.92 359.606 181.997 360 181.997C360.795 181.997 361.557 181.681 362.119 181.119C362.681 180.557 362.997 179.795 362.997 179C362.997 178.205 362.681 177.443 362.119 176.881C361.557 176.319 360.795 176.003 360 176.003ZM366.75 177.5C366.153 177.5 365.581 177.737 365.159 178.159C364.737 178.581 364.5 179.153 364.5 179.75C364.5 180.347 364.737 180.919 365.159 181.341C365.581 181.763 366.153 182 366.75 182C367.347 182 367.919 181.763 368.341 181.341C368.763 180.919 369 180.347 369 179.75C369 179.153 368.763 178.581 368.341 178.159C367.919 177.737 367.347 177.5 366.75 177.5ZM353.25 177.5C352.653 177.5 352.081 177.737 351.659 178.159C351.237 178.581 351 179.153 351 179.75C351 180.347 351.237 180.919 351.659 181.341C352.081 181.763 352.653 182 353.25 182C353.847 182 354.419 181.763 354.841 181.341C355.263 180.919 355.5 180.347 355.5 179.75C355.5 179.153 355.263 178.581 354.841 178.159C354.419 177.737 353.847 177.5 353.25 177.5ZM355.5 184.99C355.503 184.594 355.662 184.215 355.943 183.936C356.224 183.657 356.604 183.5 357 183.5H363C363.398 183.5 363.779 183.658 364.061 183.939C364.342 184.221 364.5 184.602 364.5 185V189.5C364.5 189.972 364.426 190.441 364.281 190.891C363.949 191.909 363.265 192.775 362.351 193.334C361.438 193.893 360.355 194.108 359.297 193.94C358.24 193.773 357.276 193.234 356.58 192.42C355.884 191.606 355.501 190.571 355.5 189.5V184.99ZM354 185C354 184.453 354.146 183.941 354.402 183.5H351C350.602 183.5 350.221 183.658 349.939 183.939C349.658 184.221 349.5 184.602 349.5 185V188.75C349.5 189.364 349.65 189.969 349.938 190.511C350.226 191.053 350.643 191.516 351.152 191.86C351.661 192.203 352.247 192.416 352.857 192.481C353.468 192.545 354.085 192.458 354.654 192.229C354.223 191.383 353.999 190.447 354 189.499V185ZM366 185V189.5C366 190.483 365.764 191.41 365.346 192.229C365.915 192.458 366.532 192.545 367.143 192.481C367.753 192.416 368.339 192.203 368.848 191.86C369.357 191.516 369.774 191.053 370.062 190.511C370.35 189.969 370.5 189.364 370.5 188.75V185C370.5 184.602 370.342 184.221 370.061 183.939C369.779 183.658 369.398 183.5 369 183.5H365.598C365.853 183.941 366 184.453 366 185Z" fill="#40C2FF"/>
</g>
<path d="M360 176.003C359.606 176.003 359.217 176.08 358.853 176.231C358.489 176.382 358.159 176.602 357.881 176.881C357.603 177.159 357.382 177.489 357.231 177.853C357.081 178.217 357.003 178.606 357.003 179C357.003 179.394 357.081 179.783 357.231 180.147C357.382 180.51 357.603 180.841 357.881 181.119C358.159 181.397 358.489 181.618 358.853 181.769C359.217 181.919 359.606 181.997 360 181.997C360.795 181.997 361.557 181.681 362.119 181.119C362.681 180.557 362.997 179.795 362.997 179C362.997 178.205 362.681 177.443 362.119 176.881C361.557 176.319 360.795 176.003 360 176.003ZM366.75 177.5C366.153 177.5 365.581 177.737 365.159 178.159C364.737 178.581 364.5 179.153 364.5 179.75C364.5 180.347 364.737 180.919 365.159 181.341C365.581 181.763 366.153 182 366.75 182C367.347 182 367.919 181.763 368.341 181.341C368.763 180.919 369 180.347 369 179.75C369 179.153 368.763 178.581 368.341 178.159C367.919 177.737 367.347 177.5 366.75 177.5ZM353.25 177.5C352.653 177.5 352.081 177.737 351.659 178.159C351.237 178.581 351 179.153 351 179.75C351 180.347 351.237 180.919 351.659 181.341C352.081 181.763 352.653 182 353.25 182C353.847 182 354.419 181.763 354.841 181.341C355.263 180.919 355.5 180.347 355.5 179.75C355.5 179.153 355.263 178.581 354.841 178.159C354.419 177.737 353.847 177.5 353.25 177.5ZM355.5 184.989C355.503 184.593 355.662 184.215 355.943 183.936C356.224 183.657 356.604 183.5 357 183.5H363C363.398 183.5 363.779 183.658 364.061 183.939C364.342 184.221 364.5 184.602 364.5 185V189.5C364.5 189.972 364.426 190.441 364.281 190.89C363.949 191.908 363.265 192.775 362.351 193.334C361.438 193.893 360.355 194.108 359.297 193.94C358.24 193.773 357.276 193.234 356.58 192.42C355.884 191.606 355.501 190.571 355.5 189.5V184.989ZM354 185C354 184.452 354.146 183.941 354.402 183.5H351C350.602 183.5 350.221 183.658 349.939 183.939C349.658 184.221 349.5 184.602 349.5 185V188.75C349.5 189.364 349.65 189.969 349.938 190.511C350.226 191.053 350.643 191.516 351.152 191.859C351.661 192.203 352.247 192.416 352.857 192.481C353.468 192.545 354.085 192.458 354.654 192.228C354.223 191.383 353.999 190.447 354 189.498V185ZM366 185V189.5C366 190.482 365.764 191.409 365.346 192.228C365.915 192.458 366.532 192.545 367.143 192.481C367.753 192.416 368.339 192.203 368.848 191.859C369.357 191.516 369.774 191.053 370.062 190.511C370.35 189.969 370.5 189.364 370.5 188.75V185C370.5 184.602 370.342 184.221 370.061 183.939C369.779 183.658 369.398 183.5 369 183.5H365.598C365.853 183.941 366 184.452 366 185Z" fill="#40C2FF"/>
</g>
<g clip-path="url(#clip11_2271_4081)">
<g filter="url(#filter11_f_2271_4081)">
<path d="M186 124.004C185.475 124.004 184.956 124.107 184.471 124.308C183.986 124.509 183.545 124.803 183.174 125.174C182.803 125.545 182.509 125.986 182.308 126.471C182.107 126.956 182.004 127.475 182.004 128C182.004 128.525 182.107 129.044 182.308 129.529C182.509 130.014 182.803 130.455 183.174 130.826C183.545 131.197 183.986 131.491 184.471 131.692C184.956 131.893 185.475 131.996 186 131.996C187.06 131.996 188.076 131.575 188.826 130.826C189.575 130.076 189.996 129.06 189.996 128C189.996 126.94 189.575 125.924 188.826 125.174C188.076 124.425 187.06 124.004 186 124.004ZM195 126C194.204 126 193.441 126.316 192.879 126.879C192.316 127.441 192 128.204 192 129C192 129.796 192.316 130.559 192.879 131.121C193.441 131.684 194.204 132 195 132C195.796 132 196.559 131.684 197.121 131.121C197.684 130.559 198 129.796 198 129C198 128.204 197.684 127.441 197.121 126.879C196.559 126.316 195.796 126 195 126ZM177 126C176.204 126 175.441 126.316 174.879 126.879C174.316 127.441 174 128.204 174 129C174 129.796 174.316 130.559 174.879 131.121C175.441 131.684 176.204 132 177 132C177.796 132 178.559 131.684 179.121 131.121C179.684 130.559 180 129.796 180 129C180 128.204 179.684 127.441 179.121 126.879C178.559 126.316 177.796 126 177 126ZM180 135.986C180.004 135.458 180.216 134.953 180.591 134.581C180.965 134.209 181.472 134 182 134H190C190.53 134 191.039 134.211 191.414 134.586C191.789 134.961 192 135.47 192 136V142C192.001 142.63 191.902 143.255 191.708 143.854C191.265 145.211 190.353 146.367 189.135 147.112C187.917 147.857 186.474 148.144 185.063 147.921C183.653 147.697 182.369 146.979 181.441 145.893C180.513 144.808 180.002 143.428 180 142V135.986ZM178 136C178 135.27 178.194 134.588 178.536 134H174C173.47 134 172.961 134.211 172.586 134.586C172.211 134.961 172 135.47 172 136V141C172 141.819 172.2 142.625 172.585 143.348C172.969 144.071 173.524 144.688 174.203 145.146C174.881 145.604 175.662 145.888 176.476 145.974C177.29 146.06 178.113 145.945 178.872 145.638C178.298 144.511 177.999 143.263 178 141.998V136ZM194 136V142C194 143.31 193.686 144.546 193.128 145.638C193.887 145.945 194.71 146.06 195.524 145.974C196.338 145.888 197.119 145.604 197.797 145.146C198.476 144.688 199.031 144.071 199.415 143.348C199.8 142.625 200 141.819 200 141V136C200 135.47 199.789 134.961 199.414 134.586C199.039 134.211 198.53 134 198 134H193.464C193.804 134.588 194 135.27 194 136Z" fill="#40C2FF"/>
</g>
<path d="M186 124.004C185.475 124.004 184.956 124.107 184.471 124.308C183.986 124.509 183.545 124.803 183.174 125.174C182.803 125.545 182.509 125.986 182.308 126.471C182.107 126.956 182.004 127.475 182.004 128C182.004 128.525 182.107 129.044 182.308 129.529C182.509 130.014 182.803 130.454 183.174 130.826C183.545 131.197 183.986 131.491 184.471 131.692C184.956 131.893 185.475 131.996 186 131.996C187.06 131.996 188.076 131.575 188.826 130.826C189.575 130.076 189.996 129.06 189.996 128C189.996 126.94 189.575 125.924 188.826 125.174C188.076 124.425 187.06 124.004 186 124.004ZM195 126C194.204 126 193.441 126.316 192.879 126.879C192.316 127.441 192 128.204 192 129C192 129.796 192.316 130.559 192.879 131.121C193.441 131.684 194.204 132 195 132C195.796 132 196.559 131.684 197.121 131.121C197.684 130.559 198 129.796 198 129C198 128.204 197.684 127.441 197.121 126.879C196.559 126.316 195.796 126 195 126ZM177 126C176.204 126 175.441 126.316 174.879 126.879C174.316 127.441 174 128.204 174 129C174 129.796 174.316 130.559 174.879 131.121C175.441 131.684 176.204 132 177 132C177.796 132 178.559 131.684 179.121 131.121C179.684 130.559 180 129.796 180 129C180 128.204 179.684 127.441 179.121 126.879C178.559 126.316 177.796 126 177 126ZM180 135.986C180.004 135.458 180.216 134.953 180.591 134.581C180.965 134.209 181.472 134 182 134H190C190.53 134 191.039 134.211 191.414 134.586C191.789 134.961 192 135.469 192 136V142C192.001 142.629 191.902 143.255 191.708 143.854C191.265 145.211 190.353 146.366 189.135 147.112C187.917 147.857 186.474 148.144 185.063 147.92C183.653 147.697 182.369 146.978 181.441 145.893C180.513 144.808 180.002 143.428 180 142V135.986ZM178 136C178 135.27 178.194 134.588 178.536 134H174C173.47 134 172.961 134.211 172.586 134.586C172.211 134.961 172 135.469 172 136V141C172 141.819 172.2 142.625 172.585 143.348C172.969 144.07 173.524 144.688 174.203 145.146C174.881 145.604 175.662 145.888 176.476 145.974C177.29 146.06 178.113 145.944 178.872 145.638C178.298 144.511 177.999 143.263 178 141.998V136ZM194 136V142C194 143.31 193.686 144.546 193.128 145.638C193.887 145.944 194.71 146.06 195.524 145.974C196.338 145.888 197.119 145.604 197.797 145.146C198.476 144.688 199.031 144.07 199.415 143.348C199.8 142.625 200 141.819 200 141V136C200 135.469 199.789 134.961 199.414 134.586C199.039 134.211 198.53 134 198 134H193.464C193.804 134.588 194 135.27 194 136Z" fill="#40C2FF"/>
</g>
<g clip-path="url(#clip12_2271_4081)">
<g filter="url(#filter12_f_2271_4081)">
<path d="M317 124.004C316.475 124.004 315.956 124.107 315.471 124.308C314.986 124.509 314.545 124.803 314.174 125.174C313.803 125.545 313.509 125.986 313.308 126.471C313.107 126.956 313.004 127.475 313.004 128C313.004 128.525 313.107 129.044 313.308 129.529C313.509 130.014 313.803 130.455 314.174 130.826C314.545 131.197 314.986 131.491 315.471 131.692C315.956 131.893 316.475 131.996 317 131.996C318.06 131.996 319.076 131.575 319.826 130.826C320.575 130.076 320.996 129.06 320.996 128C320.996 126.94 320.575 125.924 319.826 125.174C319.076 124.425 318.06 124.004 317 124.004ZM326 126C325.204 126 324.441 126.316 323.879 126.879C323.316 127.441 323 128.204 323 129C323 129.796 323.316 130.559 323.879 131.121C324.441 131.684 325.204 132 326 132C326.796 132 327.559 131.684 328.121 131.121C328.684 130.559 329 129.796 329 129C329 128.204 328.684 127.441 328.121 126.879C327.559 126.316 326.796 126 326 126ZM308 126C307.204 126 306.441 126.316 305.879 126.879C305.316 127.441 305 128.204 305 129C305 129.796 305.316 130.559 305.879 131.121C306.441 131.684 307.204 132 308 132C308.796 132 309.559 131.684 310.121 131.121C310.684 130.559 311 129.796 311 129C311 128.204 310.684 127.441 310.121 126.879C309.559 126.316 308.796 126 308 126ZM311 135.986C311.004 135.458 311.216 134.953 311.591 134.581C311.965 134.209 312.472 134 313 134H321C321.53 134 322.039 134.211 322.414 134.586C322.789 134.961 323 135.47 323 136V142C323.001 142.63 322.902 143.255 322.708 143.854C322.265 145.211 321.353 146.367 320.135 147.112C318.917 147.857 317.474 148.144 316.063 147.921C314.653 147.697 313.369 146.979 312.441 145.893C311.513 144.808 311.002 143.428 311 142V135.986ZM309 136C309 135.27 309.194 134.588 309.536 134H305C304.47 134 303.961 134.211 303.586 134.586C303.211 134.961 303 135.47 303 136V141C303 141.819 303.2 142.625 303.585 143.348C303.969 144.071 304.524 144.688 305.203 145.146C305.881 145.604 306.662 145.888 307.476 145.974C308.29 146.06 309.113 145.945 309.872 145.638C309.298 144.511 308.999 143.263 309 141.998V136ZM325 136V142C325 143.31 324.686 144.546 324.128 145.638C324.887 145.945 325.71 146.06 326.524 145.974C327.338 145.888 328.119 145.604 328.797 145.146C329.476 144.688 330.031 144.071 330.415 143.348C330.8 142.625 331 141.819 331 141V136C331 135.47 330.789 134.961 330.414 134.586C330.039 134.211 329.53 134 329 134H324.464C324.804 134.588 325 135.27 325 136Z" fill="#40C2FF"/>
</g>
<path d="M317 124.004C316.475 124.004 315.956 124.107 315.471 124.308C314.986 124.509 314.545 124.803 314.174 125.174C313.803 125.545 313.509 125.986 313.308 126.471C313.107 126.956 313.004 127.475 313.004 128C313.004 128.525 313.107 129.044 313.308 129.529C313.509 130.014 313.803 130.454 314.174 130.826C314.545 131.197 314.986 131.491 315.471 131.692C315.956 131.893 316.475 131.996 317 131.996C318.06 131.996 319.076 131.575 319.826 130.826C320.575 130.076 320.996 129.06 320.996 128C320.996 126.94 320.575 125.924 319.826 125.174C319.076 124.425 318.06 124.004 317 124.004ZM326 126C325.204 126 324.441 126.316 323.879 126.879C323.316 127.441 323 128.204 323 129C323 129.796 323.316 130.559 323.879 131.121C324.441 131.684 325.204 132 326 132C326.796 132 327.559 131.684 328.121 131.121C328.684 130.559 329 129.796 329 129C329 128.204 328.684 127.441 328.121 126.879C327.559 126.316 326.796 126 326 126ZM308 126C307.204 126 306.441 126.316 305.879 126.879C305.316 127.441 305 128.204 305 129C305 129.796 305.316 130.559 305.879 131.121C306.441 131.684 307.204 132 308 132C308.796 132 309.559 131.684 310.121 131.121C310.684 130.559 311 129.796 311 129C311 128.204 310.684 127.441 310.121 126.879C309.559 126.316 308.796 126 308 126ZM311 135.986C311.004 135.458 311.216 134.953 311.591 134.581C311.965 134.209 312.472 134 313 134H321C321.53 134 322.039 134.211 322.414 134.586C322.789 134.961 323 135.469 323 136V142C323.001 142.629 322.902 143.255 322.708 143.854C322.265 145.211 321.353 146.366 320.135 147.112C318.917 147.857 317.474 148.144 316.063 147.92C314.653 147.697 313.369 146.978 312.441 145.893C311.513 144.808 311.002 143.428 311 142V135.986ZM309 136C309 135.27 309.194 134.588 309.536 134H305C304.47 134 303.961 134.211 303.586 134.586C303.211 134.961 303 135.469 303 136V141C303 141.819 303.2 142.625 303.585 143.348C303.969 144.07 304.524 144.688 305.203 145.146C305.881 145.604 306.662 145.888 307.476 145.974C308.29 146.06 309.113 145.944 309.872 145.638C309.298 144.511 308.999 143.263 309 141.998V136ZM325 136V142C325 143.31 324.686 144.546 324.128 145.638C324.887 145.944 325.71 146.06 326.524 145.974C327.338 145.888 328.119 145.604 328.797 145.146C329.476 144.688 330.031 144.07 330.415 143.348C330.8 142.625 331 141.819 331 141V136C331 135.469 330.789 134.961 330.414 134.586C330.039 134.211 329.53 134 329 134H324.464C324.804 134.588 325 135.27 325 136Z" fill="#40C2FF"/>
</g>
<path d="M186.5 43C186.5 42.7239 186.276 42.5 186 42.5C185.724 42.5 185.5 42.7239 185.5 43H186.5ZM54.6464 117.354C54.8417 117.549 55.1583 117.549 55.3536 117.354L58.5355 114.172C58.7308 113.976 58.7308 113.66 58.5355 113.464C58.3403 113.269 58.0237 113.269 57.8284 113.464L55 116.293L52.1716 113.464C51.9763 113.269 51.6597 113.269 51.4645 113.464C51.2692 113.66 51.2692 113.976 51.4645 114.172L54.6464 117.354ZM186 43H185.5V56H186H186.5V43H186ZM162 80V79.5H79V80V80.5H162V80ZM55 104H54.5V117H55H55.5V104H55ZM79 80V79.5C65.469 79.5 54.5 90.469 54.5 104H55H55.5C55.5 91.0213 66.0213 80.5 79 80.5V80ZM186 56H185.5C185.5 68.9787 174.979 79.5 162 79.5V80V80.5C175.531 80.5 186.5 69.531 186.5 56H186Z" fill="#B3B3B3"/>
<path d="M186.5 43C186.5 42.7239 186.276 42.5 186 42.5C185.724 42.5 185.5 42.7239 185.5 43H186.5ZM54.6464 117.354C54.8417 117.549 55.1583 117.549 55.3536 117.354L58.5355 114.172C58.7308 113.976 58.7308 113.66 58.5355 113.464C58.3403 113.269 58.0237 113.269 57.8284 113.464L55 116.293L52.1716 113.464C51.9763 113.269 51.6597 113.269 51.4645 113.464C51.2692 113.66 51.2692 113.976 51.4645 114.172L54.6464 117.354ZM186 43H185.5V56H186H186.5V43H186ZM162 80V79.5H79V80V80.5H162V80ZM55 104H54.5V117H55H55.5V104H55ZM79 80V79.5C65.469 79.5 54.5 90.469 54.5 104H55H55.5C55.5 91.0213 66.0213 80.5 79 80.5V80ZM186 56H185.5C185.5 68.9787 174.979 79.5 162 79.5V80V80.5C175.531 80.5 186.5 69.531 186.5 56H186Z" fill="#B3B3B3"/>
<path d="M186.5 43C186.5 42.7239 186.276 42.5 186 42.5C185.724 42.5 185.5 42.7239 185.5 43H186.5ZM316.646 117.354C316.842 117.549 317.158 117.549 317.354 117.354L320.536 114.172C320.731 113.976 320.731 113.66 320.536 113.464C320.34 113.269 320.024 113.269 319.828 113.464L317 116.293L314.172 113.464C313.976 113.269 313.66 113.269 313.464 113.464C313.269 113.66 313.269 113.976 313.464 114.172L316.646 117.354ZM186 43H185.5V56H186H186.5V43H186ZM210 80V80.5H293V80V79.5H210V80ZM317 104H316.5V117H317H317.5V104H317ZM293 80V80.5C305.979 80.5 316.5 91.0213 316.5 104H317H317.5C317.5 90.469 306.531 79.5 293 79.5V80ZM186 56H185.5C185.5 69.531 196.469 80.5 210 80.5V80V79.5C197.021 79.5 186.5 68.9787 186.5 56H186Z" fill="#B3B3B3"/>
<path d="M186.5 43C186.5 42.7239 186.276 42.5 186 42.5C185.724 42.5 185.5 42.7239 185.5 43H186.5ZM185.646 117.354C185.842 117.549 186.158 117.549 186.354 117.354L189.536 114.172C189.731 113.976 189.731 113.66 189.536 113.464C189.34 113.269 189.024 113.269 188.828 113.464L186 116.293L183.172 113.464C182.976 113.269 182.66 113.269 182.464 113.464C182.269 113.66 182.269 113.976 182.464 114.172L185.646 117.354ZM186 43H185.5V117H186H186.5V43H186Z" fill="#B3B3B3"/>
<path d="M36 136.5C36.2761 136.5 36.5 136.276 36.5 136C36.5 135.724 36.2761 135.5 36 135.5V136.5ZM11.6464 171.354C11.8417 171.549 12.1583 171.549 12.3536 171.354L15.5355 168.172C15.7308 167.976 15.7308 167.66 15.5355 167.464C15.3403 167.269 15.0237 167.269 14.8284 167.464L12 170.293L9.17157 167.464C8.97631 167.269 8.65973 167.269 8.46447 167.464C8.2692 167.66 8.2692 167.976 8.46447 168.172L11.6464 171.354ZM12 160H11.5V171H12H12.5V160H12ZM36 136V135.5C22.469 135.5 11.5 146.469 11.5 160H12H12.5C12.5 147.021 23.0213 136.5 36 136.5V136Z" fill="#B3B3B3"/>
<path d="M55.5 155C55.5 154.724 55.2761 154.5 55 154.5C54.7239 154.5 54.5 154.724 54.5 155H55.5ZM54.6464 191.354C54.8417 191.549 55.1583 191.549 55.3536 191.354L58.5355 188.172C58.7308 187.976 58.7308 187.66 58.5355 187.464C58.3403 187.269 58.0237 187.269 57.8284 187.464L55 190.293L52.1716 187.464C51.9763 187.269 51.6597 187.269 51.4645 187.464C51.2692 187.66 51.2692 187.976 51.4645 188.172L54.6464 191.354ZM55 155H54.5V191H55H55.5V155H55Z" fill="#B3B3B3"/>
<path d="M74 135.5C73.7239 135.5 73.5 135.724 73.5 136C73.5 136.276 73.7239 136.5 74 136.5V135.5ZM96.6464 170.354C96.8417 170.549 97.1583 170.549 97.3536 170.354L100.536 167.172C100.731 166.976 100.731 166.66 100.536 166.464C100.34 166.269 100.024 166.269 99.8284 166.464L97 169.293L94.1716 166.464C93.9763 166.269 93.6597 166.269 93.4645 166.464C93.2692 166.66 93.2692 166.976 93.4645 167.172L96.6464 170.354ZM97 159H96.5V170H97H97.5V159H97ZM74 136V136.5C86.4264 136.5 96.5 146.574 96.5 159H97H97.5C97.5 146.021 86.9787 135.5 74 135.5V136Z" fill="#B3B3B3"/>
<path d="M167 136.5C167.276 136.5 167.5 136.276 167.5 136C167.5 135.724 167.276 135.5 167 135.5V136.5ZM142.646 207.354C142.842 207.549 143.158 207.549 143.354 207.354L146.536 204.172C146.731 203.976 146.731 203.66 146.536 203.464C146.34 203.269 146.024 203.269 145.828 203.464L143 206.293L140.172 203.464C139.976 203.269 139.66 203.269 139.464 203.464C139.269 203.66 139.269 203.976 139.464 204.172L142.646 207.354ZM143 160H142.5V207H143H143.5V160H143ZM167 136V135.5C153.469 135.5 142.5 146.469 142.5 160H143H143.5C143.5 147.021 154.021 136.5 167 136.5V136Z" fill="#B3B3B3"/>
<path d="M186.5 155C186.5 154.724 186.276 154.5 186 154.5C185.724 154.5 185.5 154.724 185.5 155H186.5ZM185.646 228.354C185.842 228.549 186.158 228.549 186.354 228.354L189.536 225.172C189.731 224.976 189.731 224.66 189.536 224.464C189.34 224.269 189.024 224.269 188.828 224.464L186 227.293L183.172 224.464C182.976 224.269 182.66 224.269 182.464 224.464C182.269 224.66 182.269 224.976 182.464 225.172L185.646 228.354ZM186 155H185.5V228H186H186.5V155H186Z" fill="#B3B3B3"/>
<path d="M205 135.5C204.724 135.5 204.5 135.724 204.5 136C204.5 136.276 204.724 136.5 205 136.5V135.5ZM227.646 207.354C227.842 207.549 228.158 207.549 228.354 207.354L231.536 204.172C231.731 203.976 231.731 203.66 231.536 203.464C231.34 203.269 231.024 203.269 230.828 203.464L228 206.293L225.172 203.464C224.976 203.269 224.66 203.269 224.464 203.464C224.269 203.66 224.269 203.976 224.464 204.172L227.646 207.354ZM228 159H227.5V207H228H228.5V159H228ZM205 136V136.5C217.426 136.5 227.5 146.574 227.5 159H228H228.5C228.5 146.021 217.979 135.5 205 135.5V136Z" fill="#B3B3B3"/>
<path d="M298 136.5C298.276 136.5 298.5 136.276 298.5 136C298.5 135.724 298.276 135.5 298 135.5V136.5ZM273.646 171.354C273.842 171.549 274.158 171.549 274.354 171.354L277.536 168.172C277.731 167.976 277.731 167.66 277.536 167.464C277.34 167.269 277.024 167.269 276.828 167.464L274 170.293L271.172 167.464C270.976 167.269 270.66 167.269 270.464 167.464C270.269 167.66 270.269 167.976 270.464 168.172L273.646 171.354ZM274 160H273.5V171H274H274.5V160H274ZM298 136V135.5C284.469 135.5 273.5 146.469 273.5 160H274H274.5C274.5 147.021 285.021 136.5 298 136.5V136Z" fill="#B3B3B3"/>
<path d="M317.5 155C317.5 154.724 317.276 154.5 317 154.5C316.724 154.5 316.5 154.724 316.5 155H317.5ZM316.646 191.354C316.842 191.549 317.158 191.549 317.354 191.354L320.536 188.172C320.731 187.976 320.731 187.66 320.536 187.464C320.34 187.269 320.024 187.269 319.828 187.464L317 190.293L314.172 187.464C313.976 187.269 313.66 187.269 313.464 187.464C313.269 187.66 313.269 187.976 313.464 188.172L316.646 191.354ZM317 155H316.5V191H317H317.5V155H317Z" fill="#B3B3B3"/>
<path d="M336 135.5C335.724 135.5 335.5 135.724 335.5 136C335.5 136.276 335.724 136.5 336 136.5V135.5ZM359.646 170.354C359.842 170.549 360.158 170.549 360.354 170.354L363.536 167.172C363.731 166.976 363.731 166.66 363.536 166.464C363.34 166.269 363.024 166.269 362.828 166.464L360 169.293L357.172 166.464C356.976 166.269 356.66 166.269 356.464 166.464C356.269 166.66 356.269 166.976 356.464 167.172L359.646 170.354ZM360 160H359.5V170H360H360.5V160H360ZM336 136V136.5C348.979 136.5 359.5 147.021 359.5 160H360H360.5C360.5 146.469 349.531 135.5 336 135.5V136Z" fill="#B3B3B3"/>
<defs>
<filter id="filter0_f_2271_4081" x="164.5" y="1.005" width="43" height="37.988" filterUnits="userSpaceOnUse" color-interpolation-filters="sRGB">
<feFlood flood-opacity="0" result="BackgroundImageFix"/>
<feBlend mode="normal" in="SourceGraphic" in2="BackgroundImageFix" result="shape"/>
<feGaussianBlur stdDeviation="2" result="effect1_foregroundBlur_2271_4081"/>
</filter>
<filter id="filter1_f_2271_4081" x="37" y="120.004" width="36" height="31.9905" filterUnits="userSpaceOnUse" color-interpolation-filters="sRGB">
<feFlood flood-opacity="0" result="BackgroundImageFix"/>
<feBlend mode="normal" in="SourceGraphic" in2="BackgroundImageFix" result="shape"/>
<feGaussianBlur stdDeviation="2" result="effect1_foregroundBlur_2271_4081"/>
</filter>
<filter id="filter2_f_2271_4081" x="-2.5" y="173.003" width="29" height="25.9928" filterUnits="userSpaceOnUse" color-interpolation-filters="sRGB">
<feFlood flood-opacity="0" result="BackgroundImageFix"/>
<feBlend mode="normal" in="SourceGraphic" in2="BackgroundImageFix" result="shape"/>
<feGaussianBlur stdDeviation="2" result="effect1_foregroundBlur_2271_4081"/>
</filter>
<filter id="filter3_f_2271_4081" x="128.5" y="209.003" width="29" height="25.9928" filterUnits="userSpaceOnUse" color-interpolation-filters="sRGB">
<feFlood flood-opacity="0" result="BackgroundImageFix"/>
<feBlend mode="normal" in="SourceGraphic" in2="BackgroundImageFix" result="shape"/>
<feGaussianBlur stdDeviation="2" result="effect1_foregroundBlur_2271_4081"/>
</filter>
<filter id="filter4_f_2271_4081" x="259.5" y="173.003" width="29" height="25.9928" filterUnits="userSpaceOnUse" color-interpolation-filters="sRGB">
<feFlood flood-opacity="0" result="BackgroundImageFix"/>
<feBlend mode="normal" in="SourceGraphic" in2="BackgroundImageFix" result="shape"/>
<feGaussianBlur stdDeviation="2" result="effect1_foregroundBlur_2271_4081"/>
</filter>
<filter id="filter5_f_2271_4081" x="40.5" y="193.003" width="29" height="25.9928" filterUnits="userSpaceOnUse" color-interpolation-filters="sRGB">
<feFlood flood-opacity="0" result="BackgroundImageFix"/>
<feBlend mode="normal" in="SourceGraphic" in2="BackgroundImageFix" result="shape"/>
<feGaussianBlur stdDeviation="2" result="effect1_foregroundBlur_2271_4081"/>
</filter>
<filter id="filter6_f_2271_4081" x="171.5" y="230.003" width="29" height="25.9928" filterUnits="userSpaceOnUse" color-interpolation-filters="sRGB">
<feFlood flood-opacity="0" result="BackgroundImageFix"/>
<feBlend mode="normal" in="SourceGraphic" in2="BackgroundImageFix" result="shape"/>
<feGaussianBlur stdDeviation="2" result="effect1_foregroundBlur_2271_4081"/>
</filter>
<filter id="filter7_f_2271_4081" x="302.5" y="193.003" width="29" height="25.9928" filterUnits="userSpaceOnUse" color-interpolation-filters="sRGB">
<feFlood flood-opacity="0" result="BackgroundImageFix"/>
<feBlend mode="normal" in="SourceGraphic" in2="BackgroundImageFix" result="shape"/>
<feGaussianBlur stdDeviation="2" result="effect1_foregroundBlur_2271_4081"/>
</filter>
<filter id="filter8_f_2271_4081" x="82.5" y="172.003" width="29" height="25.9928" filterUnits="userSpaceOnUse" color-interpolation-filters="sRGB">
<feFlood flood-opacity="0" result="BackgroundImageFix"/>
<feBlend mode="normal" in="SourceGraphic" in2="BackgroundImageFix" result="shape"/>
<feGaussianBlur stdDeviation="2" result="effect1_foregroundBlur_2271_4081"/>
</filter>
<filter id="filter9_f_2271_4081" x="213.5" y="209.003" width="29" height="25.9928" filterUnits="userSpaceOnUse" color-interpolation-filters="sRGB">
<feFlood flood-opacity="0" result="BackgroundImageFix"/>
<feBlend mode="normal" in="SourceGraphic" in2="BackgroundImageFix" result="shape"/>
<feGaussianBlur stdDeviation="2" result="effect1_foregroundBlur_2271_4081"/>
</filter>
<filter id="filter10_f_2271_4081" x="345.5" y="172.003" width="29" height="25.9928" filterUnits="userSpaceOnUse" color-interpolation-filters="sRGB">
<feFlood flood-opacity="0" result="BackgroundImageFix"/>
<feBlend mode="normal" in="SourceGraphic" in2="BackgroundImageFix" result="shape"/>
<feGaussianBlur stdDeviation="2" result="effect1_foregroundBlur_2271_4081"/>
</filter>
<filter id="filter11_f_2271_4081" x="168" y="120.004" width="36" height="31.9905" filterUnits="userSpaceOnUse" color-interpolation-filters="sRGB">
<feFlood flood-opacity="0" result="BackgroundImageFix"/>
<feBlend mode="normal" in="SourceGraphic" in2="BackgroundImageFix" result="shape"/>
<feGaussianBlur stdDeviation="2" result="effect1_foregroundBlur_2271_4081"/>
</filter>
<filter id="filter12_f_2271_4081" x="299" y="120.004" width="36" height="31.9905" filterUnits="userSpaceOnUse" color-interpolation-filters="sRGB">
<feFlood flood-opacity="0" result="BackgroundImageFix"/>
<feBlend mode="normal" in="SourceGraphic" in2="BackgroundImageFix" result="shape"/>
<feGaussianBlur stdDeviation="2" result="effect1_foregroundBlur_2271_4081"/>
</filter>
<clipPath id="clip0_2271_4081">
<rect width="40" height="40" fill="white" transform="translate(166)"/>
</clipPath>
<clipPath id="clip1_2271_4081">
<rect width="32" height="32" fill="white" transform="translate(39 120)"/>
</clipPath>
<clipPath id="clip2_2271_4081">
<rect width="24" height="24" fill="white" transform="translate(0 174)"/>
</clipPath>
<clipPath id="clip3_2271_4081">
<rect width="24" height="24" fill="white" transform="translate(131 210)"/>
</clipPath>
<clipPath id="clip4_2271_4081">
<rect width="24" height="24" fill="white" transform="translate(262 174)"/>
</clipPath>
<clipPath id="clip5_2271_4081">
<rect width="24" height="24" fill="white" transform="translate(43 194)"/>
</clipPath>
<clipPath id="clip6_2271_4081">
<rect width="24" height="24" fill="white" transform="translate(174 231)"/>
</clipPath>
<clipPath id="clip7_2271_4081">
<rect width="24" height="24" fill="white" transform="translate(305 194)"/>
</clipPath>
<clipPath id="clip8_2271_4081">
<rect width="24" height="24" fill="white" transform="translate(85 173)"/>
</clipPath>
<clipPath id="clip9_2271_4081">
<rect width="24" height="24" fill="white" transform="translate(216 210)"/>
</clipPath>
<clipPath id="clip10_2271_4081">
<rect width="24" height="24" fill="white" transform="translate(348 173)"/>
</clipPath>
<clipPath id="clip11_2271_4081">
<rect width="32" height="32" fill="white" transform="translate(170 120)"/>
</clipPath>
<clipPath id="clip12_2271_4081">
<rect width="32" height="32" fill="white" transform="translate(301 120)"/>
</clipPath>
</defs>
</svg>
