<svg width="418" height="442" viewBox="0 0 418 442" fill="none" xmlns="http://www.w3.org/2000/svg">
<path opacity="0.7" d="M27.073 223.658H-48V488H466V-2L419.955 50.1651H356.393H305.344L238.278 128.12H104.648L27.073 223.658Z" fill="url(#paint0_linear_2271_4078)" stroke="#40C2FF" stroke-width="1.5"/>
<g filter="url(#filter0_f_2271_4078)">
<circle cx="239" cy="127" r="6" fill="#40C2FF"/>
</g>
<circle cx="239" cy="127" r="6" fill="#40C2FF"/>
<path d="M196.922 110.635V94.2695H197.959V110.635H196.922ZM197.44 109.211C196.462 109.211 195.612 109.059 194.892 108.754C194.177 108.443 193.617 108.001 193.213 107.427C192.809 106.853 192.583 106.17 192.536 105.379H194.522C194.563 105.854 194.716 106.249 194.979 106.565C195.249 106.876 195.598 107.107 196.025 107.26C196.453 107.412 196.922 107.488 197.432 107.488C197.988 107.488 198.486 107.4 198.926 107.225C199.365 107.049 199.708 106.803 199.954 106.486C200.206 106.164 200.332 105.789 200.332 105.361C200.332 104.975 200.221 104.658 199.998 104.412C199.781 104.166 199.485 103.964 199.11 103.806C198.735 103.642 198.313 103.498 197.845 103.375L196.307 102.953C195.252 102.672 194.42 102.253 193.811 101.696C193.201 101.134 192.896 100.398 192.896 99.4902C192.896 98.7344 193.099 98.0752 193.503 97.5127C193.913 96.9502 194.467 96.5137 195.164 96.2031C195.867 95.8867 196.655 95.7285 197.528 95.7285C198.419 95.7285 199.201 95.8867 199.875 96.2031C200.555 96.5137 201.091 96.9414 201.483 97.4863C201.882 98.0254 202.09 98.6436 202.107 99.3408H200.191C200.121 98.7373 199.84 98.2686 199.348 97.9346C198.861 97.6006 198.24 97.4336 197.484 97.4336C196.957 97.4336 196.494 97.5186 196.096 97.6885C195.703 97.8525 195.398 98.0811 195.182 98.374C194.971 98.667 194.865 99.0039 194.865 99.3848C194.865 99.7949 194.991 100.129 195.243 100.387C195.501 100.645 195.812 100.85 196.175 101.002C196.544 101.148 196.898 101.269 197.238 101.362L198.513 101.705C198.929 101.811 199.356 101.951 199.796 102.127C200.235 102.303 200.643 102.534 201.018 102.821C201.398 103.103 201.703 103.454 201.932 103.876C202.166 104.292 202.283 104.796 202.283 105.388C202.283 106.12 202.093 106.776 201.712 107.356C201.331 107.931 200.78 108.385 200.06 108.719C199.339 109.047 198.466 109.211 197.44 109.211ZM207.909 109.176C207.024 109.176 206.239 109.026 205.553 108.728C204.868 108.423 204.326 108.001 203.927 107.462C203.529 106.923 203.318 106.299 203.294 105.59H205.281C205.31 105.977 205.442 106.311 205.676 106.592C205.911 106.873 206.218 107.093 206.599 107.251C206.986 107.403 207.416 107.479 207.891 107.479C208.407 107.479 208.864 107.389 209.262 107.207C209.661 107.025 209.971 106.776 210.194 106.46C210.422 106.138 210.536 105.766 210.536 105.344C210.536 104.904 210.425 104.518 210.203 104.184C209.98 103.844 209.655 103.58 209.227 103.393C208.799 103.205 208.284 103.111 207.68 103.111H206.564V101.494H207.68C208.161 101.494 208.585 101.406 208.954 101.23C209.324 101.055 209.611 100.812 209.816 100.501C210.027 100.19 210.132 99.8242 210.132 99.4023C210.132 98.998 210.041 98.6465 209.86 98.3477C209.678 98.043 209.423 97.8086 209.095 97.6445C208.767 97.4746 208.38 97.3896 207.935 97.3896C207.507 97.3896 207.109 97.4658 206.74 97.6182C206.37 97.7705 206.069 97.9902 205.834 98.2773C205.606 98.5586 205.486 98.9014 205.474 99.3057H203.567C203.584 98.5967 203.789 97.9756 204.182 97.4424C204.58 96.9033 205.108 96.4844 205.764 96.1855C206.426 95.8809 207.159 95.7285 207.961 95.7285C208.799 95.7285 209.523 95.8926 210.132 96.2207C210.747 96.543 211.222 96.9766 211.556 97.5215C211.89 98.0605 212.057 98.6494 212.057 99.2881C212.057 100.032 211.852 100.659 211.442 101.169C211.032 101.673 210.484 102.016 209.798 102.197V102.294C210.665 102.429 211.336 102.774 211.811 103.331C212.291 103.888 212.532 104.579 212.532 105.405C212.532 106.126 212.329 106.771 211.925 107.339C211.527 107.907 210.979 108.355 210.282 108.684C209.59 109.012 208.799 109.176 207.909 109.176ZM218.385 109.176C217.378 109.176 216.513 108.912 215.793 108.385C215.078 107.857 214.53 107.096 214.149 106.1C213.774 105.098 213.587 103.885 213.587 102.461C213.587 101.043 213.777 99.833 214.158 98.8311C214.539 97.8232 215.087 97.0557 215.801 96.5283C216.522 95.9951 217.384 95.7285 218.385 95.7285C219.393 95.7285 220.255 95.9951 220.969 96.5283C221.69 97.0557 222.238 97.8232 222.613 98.8311C222.994 99.833 223.184 101.043 223.184 102.461C223.184 103.885 222.997 105.098 222.622 106.1C222.247 107.096 221.702 107.857 220.987 108.385C220.272 108.912 219.405 109.176 218.385 109.176ZM218.385 107.488C219.001 107.488 219.519 107.292 219.941 106.899C220.363 106.507 220.685 105.936 220.908 105.186C221.131 104.43 221.242 103.521 221.242 102.461C221.242 101.395 221.131 100.486 220.908 99.7363C220.685 98.9805 220.363 98.4062 219.941 98.0137C219.519 97.6152 219.001 97.416 218.385 97.416C217.477 97.416 216.774 97.8584 216.276 98.7432C215.784 99.6221 215.538 100.861 215.538 102.461C215.538 103.521 215.649 104.43 215.872 105.186C216.094 105.936 216.417 106.507 216.839 106.899C217.266 107.292 217.782 107.488 218.385 107.488ZM228.906 109.176C227.899 109.176 227.034 108.912 226.314 108.385C225.599 107.857 225.051 107.096 224.67 106.1C224.295 105.098 224.108 103.885 224.108 102.461C224.108 101.043 224.298 99.833 224.679 98.8311C225.06 97.8232 225.608 97.0557 226.322 96.5283C227.043 95.9951 227.904 95.7285 228.906 95.7285C229.914 95.7285 230.775 95.9951 231.49 96.5283C232.211 97.0557 232.759 97.8232 233.134 98.8311C233.515 99.833 233.705 101.043 233.705 102.461C233.705 103.885 233.518 105.098 233.143 106.1C232.768 107.096 232.223 107.857 231.508 108.385C230.793 108.912 229.926 109.176 228.906 109.176ZM228.906 107.488C229.522 107.488 230.04 107.292 230.462 106.899C230.884 106.507 231.206 105.936 231.429 105.186C231.651 104.43 231.763 103.521 231.763 102.461C231.763 101.395 231.651 100.486 231.429 99.7363C231.206 98.9805 230.884 98.4062 230.462 98.0137C230.04 97.6152 229.522 97.416 228.906 97.416C227.998 97.416 227.295 97.8584 226.797 98.7432C226.305 99.6221 226.059 100.861 226.059 102.461C226.059 103.521 226.17 104.43 226.393 105.186C226.615 105.936 226.938 106.507 227.359 106.899C227.787 107.292 228.303 107.488 228.906 107.488ZM239.427 109.176C238.419 109.176 237.555 108.912 236.834 108.385C236.12 107.857 235.572 107.096 235.191 106.1C234.816 105.098 234.628 103.885 234.628 102.461C234.628 101.043 234.819 99.833 235.2 98.8311C235.581 97.8232 236.128 97.0557 236.843 96.5283C237.564 95.9951 238.425 95.7285 239.427 95.7285C240.435 95.7285 241.296 95.9951 242.011 96.5283C242.732 97.0557 243.28 97.8232 243.655 98.8311C244.036 99.833 244.226 101.043 244.226 102.461C244.226 103.885 244.039 105.098 243.664 106.1C243.289 107.096 242.744 107.857 242.029 108.385C241.314 108.912 240.447 109.176 239.427 109.176ZM239.427 107.488C240.042 107.488 240.561 107.292 240.983 106.899C241.405 106.507 241.727 105.936 241.95 105.186C242.172 104.43 242.284 103.521 242.284 102.461C242.284 101.395 242.172 100.486 241.95 99.7363C241.727 98.9805 241.405 98.4062 240.983 98.0137C240.561 97.6152 240.042 97.416 239.427 97.416C238.519 97.416 237.816 97.8584 237.318 98.7432C236.826 99.6221 236.58 100.861 236.58 102.461C236.58 103.521 236.691 104.43 236.914 105.186C237.136 105.936 237.458 106.507 237.88 106.899C238.308 107.292 238.824 107.488 239.427 107.488Z" fill="white"/>
<defs>
<filter id="filter0_f_2271_4078" x="217" y="105" width="44" height="44" filterUnits="userSpaceOnUse" color-interpolation-filters="sRGB">
<feFlood flood-opacity="0" result="BackgroundImageFix"/>
<feBlend mode="normal" in="SourceGraphic" in2="BackgroundImageFix" result="shape"/>
<feGaussianBlur stdDeviation="8" result="effect1_foregroundBlur_2271_4078"/>
</filter>
<linearGradient id="paint0_linear_2271_4078" x1="209" y1="-2" x2="209" y2="488" gradientUnits="userSpaceOnUse">
<stop stop-color="#40C2FF"/>
<stop offset="0.541188" stop-color="#40C2FF" stop-opacity="0"/>
</linearGradient>
</defs>
</svg>
