<svg width="418" height="442" viewBox="0 0 418 442" fill="none" xmlns="http://www.w3.org/2000/svg">
<g clip-path="url(#clip0_1809_1419)">
<path d="M0 64C0 41.5979 0 30.3968 4.35974 21.8404C8.19467 14.3139 14.3139 8.19467 21.8404 4.35974C30.3968 0 41.5979 0 64 0H354C376.402 0 387.603 0 396.16 4.35974C403.686 8.19467 409.805 14.3139 413.64 21.8404C418 30.3968 418 41.5979 418 64V378C418 400.402 418 411.603 413.64 420.16C409.805 427.686 403.686 433.805 396.16 437.64C387.603 442 376.402 442 354 442H64C41.5979 442 30.3968 442 21.8404 437.64C14.3139 433.805 8.19467 427.686 4.35974 420.16C0 411.603 0 400.402 0 378V64Z" fill="#080035"/>
<mask id="mask0_1809_1419" style="mask-type:alpha" maskUnits="userSpaceOnUse" x="-72" y="-101" width="402" height="402">
<path d="M1.72656 -100V300" stroke="#B3B3B3" stroke-opacity="0.27"/>
<path d="M38.0908 -100V300" stroke="#B3B3B3" stroke-opacity="0.27"/>
<path d="M74.4541 -100V300" stroke="#B3B3B3" stroke-opacity="0.27"/>
<path d="M110.818 -100V300" stroke="#B3B3B3" stroke-opacity="0.27"/>
<path d="M147.182 -100V300" stroke="#B3B3B3" stroke-opacity="0.27"/>
<path d="M183.545 -100V300" stroke="#B3B3B3" stroke-opacity="0.27"/>
<path d="M219.909 -100V300" stroke="#B3B3B3" stroke-opacity="0.27"/>
<path d="M256.272 -100V300" stroke="#B3B3B3" stroke-opacity="0.27"/>
<path d="M292.637 -100V300" stroke="#B3B3B3" stroke-opacity="0.27"/>
<path d="M329 -100V300" stroke="#B3B3B3" stroke-opacity="0.27"/>
<path d="M-71 9.09082H329" stroke="#B3B3B3" stroke-opacity="0.27"/>
<path d="M-71 45.4546H329" stroke="#B3B3B3" stroke-opacity="0.27"/>
<path d="M-71 81.8181H329" stroke="#B3B3B3" stroke-opacity="0.27"/>
<path d="M-71 118.182H329" stroke="#B3B3B3" stroke-opacity="0.27"/>
<path d="M-71 154.545H329" stroke="#B3B3B3" stroke-opacity="0.27"/>
<path d="M-71 190.909H329" stroke="#B3B3B3" stroke-opacity="0.27"/>
<path d="M-71 227.273H329" stroke="#B3B3B3" stroke-opacity="0.27"/>
<path d="M-71 263.636H329" stroke="#B3B3B3" stroke-opacity="0.27"/>
<path d="M-71 300H329" stroke="#B3B3B3" stroke-opacity="0.27"/>
</mask>
<g mask="url(#mask0_1809_1419)">
<g filter="url(#filter0_f_1809_1419)">
<circle cx="135" cy="100" r="91" fill="#40C2FF"/>
</g>
</g>
<path d="M19.125 330V312.539H26.0039C27.3242 312.539 28.4492 312.773 29.3789 313.242C30.3164 313.711 31.0312 314.375 31.5234 315.234C32.0234 316.086 32.2734 317.09 32.2734 318.246C32.2734 319.402 32.0234 320.398 31.5234 321.234C31.0234 322.07 30.2969 322.711 29.3438 323.156C28.3984 323.594 27.2539 323.812 25.9102 323.812H21.3047V320.848H25.3125C26.0234 320.848 26.6094 320.75 27.0703 320.555C27.5391 320.359 27.8867 320.07 28.1133 319.688C28.3477 319.305 28.4648 318.824 28.4648 318.246C28.4648 317.66 28.3477 317.172 28.1133 316.781C27.8867 316.383 27.5391 316.082 27.0703 315.879C26.6016 315.668 26.0117 315.562 25.3008 315.562H22.8047V330H19.125ZM28.8164 330L24.5625 322.055H28.5469L32.8945 330H28.8164ZM39.3169 330.258C37.9731 330.258 36.813 329.984 35.8364 329.438C34.8598 328.891 34.1098 328.113 33.5864 327.105C33.0708 326.09 32.813 324.891 32.813 323.508C32.813 322.164 33.0708 320.984 33.5864 319.969C34.1098 318.953 34.8442 318.16 35.7895 317.59C36.7427 317.02 37.8598 316.734 39.1411 316.734C40.0083 316.734 40.8169 316.875 41.5669 317.156C42.3169 317.43 42.9731 317.844 43.5356 318.398C44.0981 318.945 44.5356 319.637 44.8481 320.473C45.1606 321.301 45.3169 322.273 45.3169 323.391V324.375H34.2544V322.137H43.5591L41.8716 322.723C41.8716 322.059 41.77 321.48 41.5669 320.988C41.3638 320.496 41.0591 320.117 40.6528 319.852C40.2544 319.578 39.7583 319.441 39.1645 319.441C38.5708 319.441 38.0669 319.578 37.6528 319.852C37.2466 320.125 36.9341 320.496 36.7153 320.965C36.4966 321.434 36.3872 321.973 36.3872 322.582V324.164C36.3872 324.875 36.5122 325.484 36.7622 325.992C37.0122 326.492 37.3598 326.879 37.8052 327.152C38.2583 327.418 38.7778 327.551 39.3638 327.551C39.77 327.551 40.1372 327.492 40.4653 327.375C40.7934 327.258 41.0747 327.086 41.3091 326.859C41.5513 326.633 41.7309 326.359 41.8481 326.039L45.1997 326.262C45.0356 327.066 44.6919 327.77 44.1684 328.371C43.6528 328.965 42.9848 329.43 42.1645 329.766C41.3442 330.094 40.395 330.258 39.3169 330.258ZM50.122 330.246C49.2939 330.246 48.5478 330.102 47.8838 329.812C47.2275 329.516 46.7119 329.078 46.3369 328.5C45.9619 327.922 45.7744 327.203 45.7744 326.344C45.7744 325.609 45.9072 325 46.1728 324.516C46.4384 324.023 46.8017 323.625 47.2627 323.32C47.7236 323.016 48.247 322.785 48.833 322.629C49.4189 322.473 50.04 322.363 50.6963 322.301C51.4541 322.23 52.0634 322.16 52.5244 322.09C52.9853 322.02 53.3213 321.914 53.5322 321.773C53.7509 321.625 53.8603 321.414 53.8603 321.141V321.082C53.8603 320.543 53.6884 320.125 53.3447 319.828C53.0088 319.531 52.5322 319.383 51.915 319.383C51.2666 319.383 50.747 319.527 50.3564 319.816C49.9736 320.098 49.7197 320.457 49.5947 320.895L46.2314 320.625C46.4033 319.828 46.7392 319.141 47.2392 318.562C47.7392 317.977 48.3838 317.527 49.1728 317.215C49.9697 316.895 50.8916 316.734 51.9384 316.734C52.665 316.734 53.3603 316.82 54.0244 316.992C54.6884 317.164 55.2783 317.43 55.7939 317.789C56.3173 318.141 56.7314 318.598 57.0361 319.16C57.3408 319.723 57.4931 320.391 57.4931 321.164V330H54.0361V328.172H53.9423C53.7314 328.586 53.4502 328.949 53.0986 329.262C52.747 329.566 52.3252 329.809 51.833 329.988C51.3408 330.16 50.7705 330.246 50.122 330.246ZM51.165 327.738C51.6963 327.738 52.165 327.633 52.5713 327.422C52.9853 327.203 53.3056 326.914 53.5322 326.555C53.7666 326.188 53.8838 325.777 53.8838 325.324V323.93C53.7744 324 53.6181 324.066 53.415 324.129C53.2197 324.191 53.0009 324.246 52.7588 324.293C52.5166 324.34 52.2744 324.383 52.0322 324.422C51.79 324.453 51.5713 324.484 51.3759 324.516C50.9463 324.578 50.5713 324.68 50.2509 324.82C49.9306 324.953 49.6806 325.137 49.5009 325.371C49.3291 325.598 49.2431 325.883 49.2431 326.227C49.2431 326.719 49.4228 327.094 49.7822 327.352C50.1416 327.609 50.6025 327.738 51.165 327.738ZM62.7553 312.539V330H59.1342V312.539H62.7553ZM72.5644 321.398V324.281H64.5956V321.398H72.5644ZM81.3422 316.898V319.641H73.4555V316.898H81.3422ZM75.2484 313.781H78.8695V325.969C78.8695 326.406 78.9672 326.73 79.1625 326.941C79.3578 327.145 79.6703 327.246 80.1 327.246C80.2406 327.246 80.3969 327.234 80.5687 327.211C80.7406 327.188 80.8891 327.16 81.0141 327.129L81.5883 329.848C81.1898 329.965 80.8031 330.051 80.4281 330.105C80.0609 330.16 79.6977 330.188 79.3383 330.188C78.0336 330.188 77.0258 329.863 76.3148 329.215C75.6039 328.559 75.2484 327.637 75.2484 326.449V313.781ZM82.4442 330V316.898H86.0653V330H82.4442ZM84.2489 315.223C83.7098 315.223 83.2489 315.043 82.8661 314.684C82.4833 314.324 82.2919 313.891 82.2919 313.383C82.2919 312.875 82.4833 312.445 82.8661 312.094C83.2489 311.734 83.7098 311.555 84.2489 311.555C84.7958 311.555 85.2606 311.734 85.6434 312.094C86.0262 312.445 86.2177 312.875 86.2177 313.383C86.2177 313.891 86.0262 314.324 85.6434 314.684C85.2606 315.043 84.7958 315.223 84.2489 315.223ZM87.7298 330V316.898H91.1634V319.23H91.3275C91.6009 318.457 92.058 317.848 92.6986 317.402C93.3392 316.957 94.1009 316.734 94.9837 316.734C95.8822 316.734 96.6439 316.961 97.2689 317.414C97.9017 317.859 98.3236 318.465 98.5345 319.23H98.6752C98.9408 318.473 99.4252 317.867 100.128 317.414C100.831 316.961 101.66 316.734 102.613 316.734C103.831 316.734 104.824 317.121 105.589 317.895C106.363 318.668 106.749 319.766 106.749 321.188V330H103.117V321.914C103.117 321.18 102.921 320.633 102.531 320.273C102.148 319.914 101.667 319.734 101.089 319.734C100.433 319.734 99.9173 319.945 99.5423 320.367C99.1752 320.781 98.9916 321.328 98.9916 322.008V330H95.4759V321.82C95.4759 321.188 95.2923 320.684 94.9252 320.309C94.558 319.926 94.0775 319.734 93.4837 319.734C93.0775 319.734 92.7142 319.836 92.3939 320.039C92.0736 320.242 91.8197 320.523 91.6322 320.883C91.4447 321.234 91.3509 321.656 91.3509 322.148V330H87.7298ZM114.379 330.258C113.035 330.258 111.875 329.984 110.898 329.438C109.922 328.891 109.172 328.113 108.648 327.105C108.133 326.09 107.875 324.891 107.875 323.508C107.875 322.164 108.133 320.984 108.648 319.969C109.172 318.953 109.906 318.16 110.851 317.59C111.805 317.02 112.922 316.734 114.203 316.734C115.07 316.734 115.879 316.875 116.629 317.156C117.379 317.43 118.035 317.844 118.598 318.398C119.16 318.945 119.598 319.637 119.91 320.473C120.223 321.301 120.379 322.273 120.379 323.391V324.375H109.316V322.137H118.621L116.933 322.723C116.933 322.059 116.832 321.48 116.629 320.988C116.426 320.496 116.121 320.117 115.715 319.852C115.316 319.578 114.82 319.441 114.226 319.441C113.633 319.441 113.129 319.578 112.715 319.852C112.308 320.125 111.996 320.496 111.777 320.965C111.558 321.434 111.449 321.973 111.449 322.582V324.164C111.449 324.875 111.574 325.484 111.824 325.992C112.074 326.492 112.422 326.879 112.867 327.152C113.32 327.418 113.84 327.551 114.426 327.551C114.832 327.551 115.199 327.492 115.527 327.375C115.855 327.258 116.137 327.086 116.371 326.859C116.613 326.633 116.793 326.359 116.91 326.039L120.262 326.262C120.098 327.066 119.754 327.77 119.23 328.371C118.715 328.965 118.047 329.43 117.226 329.766C116.406 330.094 115.457 330.258 114.379 330.258ZM128.817 330H124.868L130.891 312.539H135.649L141.661 330H137.723L133.341 316.523H133.2L128.817 330ZM128.583 323.133H137.923V326.016H128.583V323.133ZM146.056 322.43V330H142.435V316.898H145.997V319.23H146.126C146.423 318.457 146.896 317.848 147.544 317.402C148.193 316.957 149.005 316.734 149.982 316.734C150.888 316.734 151.677 316.934 152.349 317.332C153.029 317.73 153.556 318.297 153.931 319.031C154.306 319.766 154.493 320.645 154.493 321.668V330H150.872V322.312C150.872 321.516 150.665 320.891 150.251 320.438C149.837 319.977 149.267 319.746 148.54 319.746C148.056 319.746 147.626 319.855 147.251 320.074C146.876 320.285 146.583 320.59 146.372 320.988C146.161 321.387 146.056 321.867 146.056 322.43ZM159.885 330.246C159.056 330.246 158.31 330.102 157.646 329.812C156.99 329.516 156.474 329.078 156.099 328.5C155.724 327.922 155.537 327.203 155.537 326.344C155.537 325.609 155.67 325 155.935 324.516C156.201 324.023 156.564 323.625 157.025 323.32C157.486 323.016 158.01 322.785 158.595 322.629C159.181 322.473 159.803 322.363 160.459 322.301C161.217 322.23 161.826 322.16 162.287 322.09C162.748 322.02 163.084 321.914 163.295 321.773C163.513 321.625 163.623 321.414 163.623 321.141V321.082C163.623 320.543 163.451 320.125 163.107 319.828C162.771 319.531 162.295 319.383 161.678 319.383C161.029 319.383 160.51 319.527 160.119 319.816C159.736 320.098 159.482 320.457 159.357 320.895L155.994 320.625C156.166 319.828 156.502 319.141 157.002 318.562C157.502 317.977 158.146 317.527 158.935 317.215C159.732 316.895 160.654 316.734 161.701 316.734C162.428 316.734 163.123 316.82 163.787 316.992C164.451 317.164 165.041 317.43 165.556 317.789C166.08 318.141 166.494 318.598 166.799 319.16C167.103 319.723 167.256 320.391 167.256 321.164V330H163.799V328.172H163.705C163.494 328.586 163.213 328.949 162.861 329.262C162.51 329.566 162.088 329.809 161.595 329.988C161.103 330.16 160.533 330.246 159.885 330.246ZM160.928 327.738C161.459 327.738 161.928 327.633 162.334 327.422C162.748 327.203 163.068 326.914 163.295 326.555C163.529 326.188 163.646 325.777 163.646 325.324V323.93C163.537 324 163.381 324.066 163.178 324.129C162.982 324.191 162.763 324.246 162.521 324.293C162.279 324.34 162.037 324.383 161.795 324.422C161.553 324.453 161.334 324.484 161.138 324.516C160.709 324.578 160.334 324.68 160.013 324.82C159.693 324.953 159.443 325.137 159.263 325.371C159.092 325.598 159.006 325.883 159.006 326.227C159.006 326.719 159.185 327.094 159.545 327.352C159.904 327.609 160.365 327.738 160.928 327.738ZM172.518 312.539V330H168.897V312.539H172.518ZM176.409 334.898C175.948 334.906 175.514 334.875 175.108 334.805C174.71 334.734 174.382 334.645 174.124 334.535L174.944 331.828L175.061 331.852C175.671 332.031 176.19 332.07 176.62 331.969C177.057 331.875 177.389 331.531 177.616 330.938L177.827 330.375L173.139 316.898H176.948L179.655 326.52H179.796L182.538 316.898H186.37L181.284 331.418C181.042 332.121 180.71 332.734 180.288 333.258C179.874 333.781 179.35 334.184 178.717 334.465C178.085 334.754 177.315 334.898 176.409 334.898ZM193.941 316.898V319.641H186.054V316.898H193.941ZM187.847 313.781H191.468V325.969C191.468 326.406 191.566 326.73 191.761 326.941C191.956 327.145 192.269 327.246 192.698 327.246C192.839 327.246 192.995 327.234 193.167 327.211C193.339 327.188 193.488 327.16 193.613 327.129L194.187 329.848C193.788 329.965 193.402 330.051 193.027 330.105C192.659 330.16 192.296 330.188 191.937 330.188C190.632 330.188 189.624 329.863 188.913 329.215C188.202 328.559 187.847 327.637 187.847 326.449V313.781ZM195.043 330V316.898H198.664V330H195.043ZM196.847 315.223C196.308 315.223 195.847 315.043 195.465 314.684C195.082 314.324 194.89 313.891 194.89 313.383C194.89 312.875 195.082 312.445 195.465 312.094C195.847 311.734 196.308 311.555 196.847 311.555C197.394 311.555 197.859 311.734 198.242 312.094C198.625 312.445 198.816 312.875 198.816 313.383C198.816 313.891 198.625 314.324 198.242 314.684C197.859 315.043 197.394 315.223 196.847 315.223ZM206.223 330.258C204.887 330.258 203.738 329.973 202.777 329.402C201.817 328.824 201.078 328.031 200.563 327.023C200.047 326.008 199.789 324.836 199.789 323.508C199.789 322.164 200.047 320.984 200.563 319.969C201.086 318.953 201.828 318.16 202.789 317.59C203.75 317.02 204.895 316.734 206.223 316.734C207.363 316.734 208.36 316.941 209.211 317.355C210.07 317.77 210.75 318.352 211.25 319.102C211.75 319.852 212.024 320.734 212.07 321.75H208.649C208.586 321.312 208.453 320.93 208.25 320.602C208.047 320.273 207.777 320.02 207.442 319.84C207.106 319.66 206.715 319.57 206.27 319.57C205.707 319.57 205.215 319.723 204.793 320.027C204.379 320.324 204.055 320.766 203.82 321.352C203.594 321.93 203.481 322.633 203.481 323.461C203.481 324.289 203.594 325 203.82 325.594C204.055 326.188 204.379 326.641 204.793 326.953C205.215 327.266 205.707 327.422 206.27 327.422C206.895 327.422 207.422 327.227 207.852 326.836C208.281 326.438 208.547 325.891 208.649 325.195H212.07C212.016 326.195 211.746 327.078 211.262 327.844C210.777 328.602 210.11 329.195 209.258 329.625C208.406 330.047 207.395 330.258 206.223 330.258ZM224.036 320.637L220.719 320.836C220.633 320.422 220.403 320.066 220.028 319.77C219.653 319.465 219.149 319.312 218.516 319.312C217.954 319.312 217.481 319.43 217.098 319.664C216.723 319.898 216.536 320.211 216.536 320.602C216.536 320.914 216.657 321.184 216.899 321.41C217.149 321.629 217.575 321.801 218.176 321.926L220.555 322.395C221.829 322.652 222.778 323.07 223.403 323.648C224.028 324.227 224.34 324.988 224.34 325.934C224.34 326.801 224.09 327.559 223.59 328.207C223.09 328.848 222.403 329.352 221.528 329.719C220.653 330.078 219.649 330.258 218.516 330.258C216.782 330.258 215.399 329.895 214.368 329.168C213.344 328.441 212.747 327.457 212.575 326.215L216.126 326.027C216.243 326.559 216.508 326.961 216.923 327.234C217.337 327.508 217.868 327.645 218.516 327.645C219.149 327.645 219.661 327.52 220.051 327.27C220.45 327.02 220.649 326.703 220.649 326.32C220.649 325.672 220.087 325.234 218.962 325.008L216.7 324.539C215.426 324.281 214.477 323.84 213.852 323.215C213.227 322.59 212.915 321.789 212.915 320.812C212.915 319.969 213.145 319.242 213.606 318.633C214.067 318.023 214.712 317.555 215.54 317.227C216.376 316.898 217.352 316.734 218.469 316.734C220.126 316.734 221.426 317.086 222.372 317.789C223.325 318.484 223.88 319.434 224.036 320.637Z" fill="#EFEFEF"/>
<path d="M19.0547 357.904H21.4629L25.6289 368.082H25.7783L29.9531 357.904H32.3965V371H30.4629V361.525H30.3398L26.4639 370.982H24.8994L21.0674 361.517H20.9443V371H19.0547V357.904ZM36.8529 371.211C36.2318 371.211 35.6693 371.097 35.1654 370.868C34.6615 370.634 34.263 370.294 33.9701 369.849C33.6771 369.403 33.5306 368.861 33.5306 368.223C33.5306 367.666 33.6361 367.212 33.847 366.86C34.0638 366.503 34.3539 366.219 34.7171 366.008C35.0804 365.797 35.4847 365.639 35.93 365.533C36.3754 365.428 36.8324 365.346 37.3011 365.287C37.8929 365.223 38.3705 365.167 38.7338 365.12C39.097 365.073 39.3607 365 39.5248 364.9C39.6947 364.795 39.7796 364.628 39.7796 364.399V364.355C39.7796 363.799 39.6214 363.368 39.305 363.063C38.9945 362.759 38.5316 362.606 37.9164 362.606C37.2777 362.606 36.7709 362.747 36.3959 363.028C36.0267 363.304 35.7718 363.617 35.6312 363.969L33.8295 363.556C34.0463 362.958 34.3597 362.478 34.7699 362.114C35.1859 361.745 35.6605 361.476 36.1937 361.306C36.7328 361.136 37.2953 361.051 37.8812 361.051C38.2738 361.051 38.6898 361.098 39.1293 361.191C39.5687 361.279 39.9818 361.446 40.3685 361.692C40.7611 361.933 41.0804 362.278 41.3265 362.729C41.5726 363.181 41.6957 363.764 41.6957 364.479V371H39.8236V369.655H39.7533C39.6361 369.896 39.4515 370.136 39.1996 370.376C38.9535 370.616 38.6371 370.815 38.2504 370.974C37.8636 371.132 37.3978 371.211 36.8529 371.211ZM37.266 369.682C37.7992 369.682 38.2533 369.579 38.6283 369.374C39.0033 369.163 39.2904 368.888 39.4896 368.548C39.6888 368.208 39.7884 367.848 39.7884 367.467V366.192C39.7181 366.257 39.5863 366.318 39.3929 366.377C39.1996 366.436 38.9798 366.485 38.7338 366.526C38.4877 366.567 38.2474 366.605 38.013 366.641C37.7787 366.67 37.5824 366.693 37.4242 366.711C37.055 366.764 36.7181 366.846 36.4134 366.957C36.1088 367.062 35.8627 367.221 35.6752 367.432C35.4935 367.637 35.4027 367.909 35.4027 368.249C35.4027 368.724 35.5785 369.081 35.93 369.321C36.2816 369.562 36.7269 369.682 37.266 369.682ZM44.9304 367.669L44.904 365.34H45.2468L49.1579 361.174H51.4431L46.987 365.92H46.6706L44.9304 367.669ZM43.1726 371V357.904H45.071V371H43.1726ZM49.3601 371L45.8445 366.342L47.1628 364.997L51.7155 371H49.3601ZM55.8995 371.202C54.9386 371.202 54.1065 370.994 53.4034 370.578C52.7003 370.162 52.1583 369.576 51.7774 368.82C51.4024 368.059 51.2149 367.171 51.2149 366.157C51.2149 365.149 51.3995 364.262 51.7686 363.494C52.1436 362.727 52.668 362.129 53.3419 361.701C54.0216 361.268 54.8184 361.051 55.7325 361.051C56.2891 361.051 56.8282 361.142 57.3497 361.323C57.8712 361.505 58.3399 361.792 58.7559 362.185C59.172 362.577 59.5001 363.087 59.7403 363.714C59.9864 364.341 60.1095 365.097 60.1095 365.981V366.667H52.296V365.234H59.1251L58.2374 365.709C58.2374 365.105 58.1436 364.572 57.9561 364.109C57.7686 363.646 57.4874 363.286 57.1124 363.028C56.7432 362.765 56.2833 362.633 55.7325 362.633C55.1817 362.633 54.71 362.765 54.3175 363.028C53.9307 363.292 53.6348 363.641 53.4298 364.074C53.2247 364.508 53.1221 364.982 53.1221 365.498V366.474C53.1221 367.147 53.2393 367.719 53.4737 368.188C53.7081 368.656 54.0333 369.014 54.4493 369.26C54.8712 369.506 55.3604 369.629 55.9171 369.629C56.2803 369.629 56.6085 369.576 56.9014 369.471C57.2003 369.365 57.4581 369.207 57.6749 368.996C57.8917 368.785 58.0557 368.524 58.1671 368.214L59.9776 368.557C59.8311 369.084 59.5733 369.547 59.2042 369.945C58.835 370.344 58.3692 370.654 57.8067 370.877C57.2501 371.094 56.6143 371.202 55.8995 371.202ZM68.3895 371.193C67.5926 371.193 66.8836 370.991 66.2625 370.587C65.6414 370.177 65.1551 369.594 64.8035 368.838C64.452 368.076 64.2762 367.168 64.2762 366.113C64.2762 365.047 64.4549 364.136 64.8123 363.38C65.1697 362.624 65.659 362.047 66.2801 361.648C66.9012 361.25 67.6043 361.051 68.3895 361.051C69.0047 361.051 69.4969 361.153 69.866 361.358C70.241 361.558 70.5311 361.792 70.7361 362.062C70.9471 362.331 71.1082 362.568 71.2195 362.773H71.3338V357.904H73.2322V371H71.3777V369.471H71.2195C71.1082 369.676 70.9441 369.913 70.7273 370.183C70.5105 370.452 70.2146 370.689 69.8396 370.895C69.4705 371.094 68.9871 371.193 68.3895 371.193ZM68.8025 369.567C69.3533 369.567 69.8191 369.421 70.2 369.128C70.5809 368.835 70.868 368.428 71.0613 367.906C71.2605 367.385 71.3602 366.781 71.3602 366.096C71.3602 365.41 71.2635 364.812 71.0701 364.303C70.8768 363.787 70.5896 363.389 70.2088 363.107C69.8279 362.82 69.3592 362.677 68.8025 362.677C68.2283 362.677 67.7508 362.826 67.3699 363.125C66.9891 363.424 66.702 363.831 66.5086 364.347C66.3152 364.862 66.2186 365.445 66.2186 366.096C66.2186 366.752 66.3152 367.344 66.5086 367.871C66.702 368.393 66.9891 368.806 67.3699 369.11C67.7566 369.415 68.2342 369.567 68.8025 369.567ZM77.5568 371.211C76.9357 371.211 76.3732 371.097 75.8693 370.868C75.3654 370.634 74.967 370.294 74.674 369.849C74.381 369.403 74.2345 368.861 74.2345 368.223C74.2345 367.666 74.34 367.212 74.5509 366.86C74.7677 366.503 75.0578 366.219 75.4211 366.008C75.7843 365.797 76.1886 365.639 76.6339 365.533C77.0793 365.428 77.5363 365.346 78.005 365.287C78.5968 365.223 79.0744 365.167 79.4377 365.12C79.8009 365.073 80.0646 365 80.2287 364.9C80.3986 364.795 80.4836 364.628 80.4836 364.399V364.355C80.4836 363.799 80.3254 363.368 80.0089 363.063C79.6984 362.759 79.2355 362.606 78.6203 362.606C77.9816 362.606 77.4748 362.747 77.0998 363.028C76.7306 363.304 76.4757 363.617 76.3351 363.969L74.5334 363.556C74.7502 362.958 75.0636 362.478 75.4738 362.114C75.8898 361.745 76.3644 361.476 76.8976 361.306C77.4367 361.136 77.9992 361.051 78.5851 361.051C78.9777 361.051 79.3937 361.098 79.8332 361.191C80.2726 361.279 80.6857 361.446 81.0724 361.692C81.465 361.933 81.7843 362.278 82.0304 362.729C82.2765 363.181 82.3996 363.764 82.3996 364.479V371H80.5275V369.655H80.4572C80.34 369.896 80.1554 370.136 79.9035 370.376C79.6574 370.616 79.341 370.815 78.9543 370.974C78.5675 371.132 78.1017 371.211 77.5568 371.211ZM77.9699 369.682C78.5031 369.682 78.9572 369.579 79.3322 369.374C79.7072 369.163 79.9943 368.888 80.1935 368.548C80.3927 368.208 80.4923 367.848 80.4923 367.467V366.192C80.422 366.257 80.2902 366.318 80.0968 366.377C79.9035 366.436 79.6838 366.485 79.4377 366.526C79.1916 366.567 78.9513 366.605 78.717 366.641C78.4826 366.67 78.2863 366.693 78.1281 366.711C77.7589 366.764 77.422 366.846 77.1173 366.957C76.8127 367.062 76.5666 367.221 76.3791 367.432C76.1974 367.637 76.1066 367.909 76.1066 368.249C76.1066 368.724 76.2824 369.081 76.6339 369.321C76.9855 369.562 77.4308 369.682 77.9699 369.682ZM88.4468 361.174V362.712H83.0855V361.174H88.4468ZM84.5181 358.836H86.4253V368.117C86.4253 368.568 86.5191 368.899 86.7066 369.11C86.8941 369.315 87.1958 369.418 87.6118 369.418C87.7114 369.418 87.8169 369.412 87.9282 369.4C88.0454 369.389 88.1626 369.371 88.2798 369.348L88.6402 370.93C88.4468 370.994 88.2359 371.044 88.0073 371.079C87.7788 371.114 87.5503 371.132 87.3218 371.132C86.4722 371.132 85.7925 370.895 85.2827 370.42C84.773 369.939 84.5181 369.301 84.5181 368.504V358.836ZM92.3055 371.211C91.6845 371.211 91.122 371.097 90.618 370.868C90.1141 370.634 89.7157 370.294 89.4227 369.849C89.1298 369.403 88.9833 368.861 88.9833 368.223C88.9833 367.666 89.0888 367.212 89.2997 366.86C89.5165 366.503 89.8065 366.219 90.1698 366.008C90.5331 365.797 90.9374 365.639 91.3827 365.533C91.828 365.428 92.285 365.346 92.7538 365.287C93.3456 365.223 93.8231 365.167 94.1864 365.12C94.5497 365.073 94.8134 365 94.9774 364.9C95.1473 364.795 95.2323 364.628 95.2323 364.399V364.355C95.2323 363.799 95.0741 363.368 94.7577 363.063C94.4472 362.759 93.9843 362.606 93.369 362.606C92.7304 362.606 92.2235 362.747 91.8485 363.028C91.4794 363.304 91.2245 363.617 91.0839 363.969L89.2821 363.556C89.4989 362.958 89.8124 362.478 90.2225 362.114C90.6386 361.745 91.1132 361.476 91.6464 361.306C92.1854 361.136 92.7479 361.051 93.3339 361.051C93.7264 361.051 94.1425 361.098 94.5819 361.191C95.0214 361.279 95.4345 361.446 95.8212 361.692C96.2138 361.933 96.5331 362.278 96.7792 362.729C97.0253 363.181 97.1483 363.764 97.1483 364.479V371H95.2763V369.655H95.2059C95.0888 369.896 94.9042 370.136 94.6522 370.376C94.4061 370.616 94.0897 370.815 93.703 370.974C93.3163 371.132 92.8505 371.211 92.3055 371.211ZM92.7186 369.682C93.2518 369.682 93.7059 369.579 94.0809 369.374C94.4559 369.163 94.743 368.888 94.9423 368.548C95.1415 368.208 95.2411 367.848 95.2411 367.467V366.192C95.1708 366.257 95.0389 366.318 94.8456 366.377C94.6522 366.436 94.4325 366.485 94.1864 366.526C93.9403 366.567 93.7001 366.605 93.4657 366.641C93.2313 366.67 93.035 366.693 92.8768 366.711C92.5077 366.764 92.1708 366.846 91.8661 366.957C91.5614 367.062 91.3153 367.221 91.1278 367.432C90.9462 367.637 90.8554 367.909 90.8554 368.249C90.8554 368.724 91.0311 369.081 91.3827 369.321C91.7343 369.562 92.1796 369.682 92.7186 369.682ZM104.4 364.646V366.298H98.5813V364.646H104.4ZM109.48 371.193C108.683 371.193 107.974 370.991 107.353 370.587C106.732 370.177 106.246 369.594 105.894 368.838C105.543 368.076 105.367 367.168 105.367 366.113C105.367 365.047 105.546 364.136 105.903 363.38C106.26 362.624 106.75 362.047 107.371 361.648C107.992 361.25 108.695 361.051 109.48 361.051C110.095 361.051 110.588 361.153 110.957 361.358C111.332 361.558 111.622 361.792 111.827 362.062C112.038 362.331 112.199 362.568 112.31 362.773H112.424V357.904H114.323V371H112.468V369.471H112.31C112.199 369.676 112.035 369.913 111.818 370.183C111.601 370.452 111.305 370.689 110.93 370.895C110.561 371.094 110.078 371.193 109.48 371.193ZM109.893 369.567C110.444 369.567 110.91 369.421 111.291 369.128C111.671 368.835 111.959 368.428 112.152 367.906C112.351 367.385 112.451 366.781 112.451 366.096C112.451 365.41 112.354 364.812 112.161 364.303C111.967 363.787 111.68 363.389 111.299 363.107C110.919 362.82 110.45 362.677 109.893 362.677C109.319 362.677 108.841 362.826 108.461 363.125C108.08 363.424 107.793 363.831 107.599 364.347C107.406 364.862 107.309 365.445 107.309 366.096C107.309 366.752 107.406 367.344 107.599 367.871C107.793 368.393 108.08 368.806 108.461 369.11C108.847 369.415 109.325 369.567 109.893 369.567ZM115.8 371V361.174H117.637V362.747H117.742C117.924 362.22 118.24 361.804 118.691 361.499C119.148 361.188 119.664 361.033 120.238 361.033C120.355 361.033 120.493 361.039 120.651 361.051C120.815 361.057 120.947 361.065 121.047 361.077V362.905C120.971 362.882 120.833 362.858 120.634 362.835C120.44 362.812 120.244 362.8 120.045 362.8C119.594 362.8 119.189 362.896 118.832 363.09C118.48 363.277 118.202 363.538 117.997 363.872C117.798 364.2 117.698 364.581 117.698 365.015V371H115.8ZM121.61 371V361.174H123.508V371H121.61ZM122.568 359.662C122.234 359.662 121.95 359.551 121.715 359.328C121.481 359.105 121.364 358.839 121.364 358.528C121.364 358.212 121.481 357.942 121.715 357.72C121.95 357.497 122.234 357.386 122.568 357.386C122.896 357.386 123.177 357.497 123.411 357.72C123.652 357.942 123.772 358.212 123.772 358.528C123.772 358.839 123.652 359.105 123.411 359.328C123.177 359.551 122.896 359.662 122.568 359.662ZM133.361 361.174L129.81 371H127.754L124.194 361.174H126.242L128.738 368.75H128.843L131.322 361.174H133.361ZM137.932 371.202C136.971 371.202 136.139 370.994 135.436 370.578C134.732 370.162 134.19 369.576 133.81 368.82C133.435 368.059 133.247 367.171 133.247 366.157C133.247 365.149 133.432 364.262 133.801 363.494C134.176 362.727 134.7 362.129 135.374 361.701C136.054 361.268 136.851 361.051 137.765 361.051C138.321 361.051 138.86 361.142 139.382 361.323C139.903 361.505 140.372 361.792 140.788 362.185C141.204 362.577 141.532 363.087 141.772 363.714C142.019 364.341 142.142 365.097 142.142 365.981V366.667H134.328V365.234H141.157L140.27 365.709C140.27 365.105 140.176 364.572 139.988 364.109C139.801 363.646 139.52 363.286 139.145 363.028C138.775 362.765 138.315 362.633 137.765 362.633C137.214 362.633 136.742 362.765 136.35 363.028C135.963 363.292 135.667 363.641 135.462 364.074C135.257 364.508 135.154 364.982 135.154 365.498V366.474C135.154 367.147 135.272 367.719 135.506 368.188C135.74 368.656 136.065 369.014 136.481 369.26C136.903 369.506 137.393 369.629 137.949 369.629C138.313 369.629 138.641 369.576 138.934 369.471C139.232 369.365 139.49 369.207 139.707 368.996C139.924 368.785 140.088 368.524 140.199 368.214L142.01 368.557C141.863 369.084 141.606 369.547 141.236 369.945C140.867 370.344 140.401 370.654 139.839 370.877C139.282 371.094 138.647 371.202 137.932 371.202ZM145.016 365.173V371H143.118V361.174H144.963V362.791H145.095C145.318 362.258 145.666 361.836 146.141 361.525C146.616 361.209 147.225 361.051 147.969 361.051C148.637 361.051 149.22 361.191 149.718 361.473C150.222 361.748 150.612 362.161 150.887 362.712C151.168 363.263 151.309 363.945 151.309 364.76V371H149.411V364.988C149.411 364.279 149.223 363.723 148.848 363.318C148.473 362.908 147.963 362.703 147.319 362.703C146.879 362.703 146.484 362.803 146.132 363.002C145.787 363.195 145.514 363.474 145.315 363.837C145.116 364.2 145.016 364.646 145.016 365.173ZM160.081 371.193C159.284 371.193 158.575 370.991 157.954 370.587C157.333 370.177 156.847 369.594 156.495 368.838C156.144 368.076 155.968 367.168 155.968 366.113C155.968 365.047 156.147 364.136 156.504 363.38C156.861 362.624 157.351 362.047 157.972 361.648C158.593 361.25 159.296 361.051 160.081 361.051C160.696 361.051 161.189 361.153 161.558 361.358C161.933 361.558 162.223 361.792 162.428 362.062C162.639 362.331 162.8 362.568 162.911 362.773H163.026V357.904H164.924V371H163.069V369.471H162.911C162.8 369.676 162.636 369.913 162.419 370.183C162.202 370.452 161.906 370.689 161.531 370.895C161.162 371.094 160.679 371.193 160.081 371.193ZM160.494 369.567C161.045 369.567 161.511 369.421 161.892 369.128C162.273 368.835 162.56 368.428 162.753 367.906C162.952 367.385 163.052 366.781 163.052 366.096C163.052 365.41 162.955 364.812 162.762 364.303C162.568 363.787 162.281 363.389 161.901 363.107C161.52 362.82 161.051 362.677 160.494 362.677C159.92 362.677 159.443 362.826 159.062 363.125C158.681 363.424 158.394 363.831 158.2 364.347C158.007 364.862 157.91 365.445 157.91 366.096C157.91 366.752 158.007 367.344 158.2 367.871C158.394 368.393 158.681 368.806 159.062 369.11C159.448 369.415 159.926 369.567 160.494 369.567ZM170.628 371.202C169.667 371.202 168.835 370.994 168.132 370.578C167.429 370.162 166.887 369.576 166.506 368.82C166.131 368.059 165.944 367.171 165.944 366.157C165.944 365.149 166.128 364.262 166.498 363.494C166.873 362.727 167.397 362.129 168.071 361.701C168.75 361.268 169.547 361.051 170.461 361.051C171.018 361.051 171.557 361.142 172.079 361.323C172.6 361.505 173.069 361.792 173.485 362.185C173.901 362.577 174.229 363.087 174.469 363.714C174.715 364.341 174.838 365.097 174.838 365.981V366.667H167.025V365.234H173.854L172.966 365.709C172.966 365.105 172.873 364.572 172.685 364.109C172.498 363.646 172.216 363.286 171.841 363.028C171.472 362.765 171.012 362.633 170.461 362.633C169.911 362.633 169.439 362.765 169.046 363.028C168.66 363.292 168.364 363.641 168.159 364.074C167.954 364.508 167.851 364.982 167.851 365.498V366.474C167.851 367.147 167.968 367.719 168.203 368.188C168.437 368.656 168.762 369.014 169.178 369.26C169.6 369.506 170.089 369.629 170.646 369.629C171.009 369.629 171.337 369.576 171.63 369.471C171.929 369.365 172.187 369.207 172.404 368.996C172.621 368.785 172.785 368.524 172.896 368.214L174.707 368.557C174.56 369.084 174.302 369.547 173.933 369.945C173.564 370.344 173.098 370.654 172.536 370.877C171.979 371.094 171.343 371.202 170.628 371.202ZM179.936 371.202C178.993 371.202 178.179 370.985 177.493 370.552C176.807 370.118 176.28 369.521 175.911 368.759C175.542 367.997 175.357 367.124 175.357 366.14C175.357 365.138 175.545 364.256 175.92 363.494C176.301 362.727 176.831 362.129 177.511 361.701C178.196 361.268 178.999 361.051 179.919 361.051C180.669 361.051 181.334 361.188 181.914 361.464C182.5 361.733 182.972 362.117 183.329 362.615C183.692 363.113 183.906 363.693 183.971 364.355H182.107C182.043 364.045 181.917 363.761 181.729 363.503C181.548 363.245 181.307 363.04 181.009 362.888C180.71 362.735 180.355 362.659 179.945 362.659C179.412 362.659 178.946 362.8 178.548 363.081C178.155 363.356 177.848 363.752 177.625 364.268C177.402 364.783 177.291 365.393 177.291 366.096C177.291 366.805 177.399 367.423 177.616 367.95C177.833 368.478 178.14 368.885 178.539 369.172C178.943 369.453 179.412 369.594 179.945 369.594C180.496 369.594 180.965 369.441 181.351 369.137C181.744 368.832 181.996 368.416 182.107 367.889H183.971C183.906 368.527 183.701 369.096 183.355 369.594C183.01 370.092 182.547 370.484 181.967 370.771C181.387 371.059 180.71 371.202 179.936 371.202ZM184.964 371V361.174H186.863V371H184.964ZM185.922 359.662C185.588 359.662 185.304 359.551 185.07 359.328C184.835 359.105 184.718 358.839 184.718 358.528C184.718 358.212 184.835 357.942 185.07 357.72C185.304 357.497 185.588 357.386 185.922 357.386C186.25 357.386 186.531 357.497 186.766 357.72C187.006 357.942 187.126 358.212 187.126 358.528C187.126 358.839 187.006 359.105 186.766 359.328C186.531 359.551 186.25 359.662 185.922 359.662ZM195.678 363.582L193.947 363.881C193.836 363.553 193.628 363.251 193.323 362.976C193.024 362.7 192.576 362.562 191.978 362.562C191.439 362.562 190.988 362.686 190.625 362.932C190.267 363.172 190.088 363.479 190.088 363.854C190.088 364.183 190.209 364.449 190.449 364.654C190.695 364.859 191.085 365.023 191.618 365.146L193.191 365.498C194.087 365.703 194.758 366.025 195.204 366.465C195.649 366.904 195.872 367.467 195.872 368.152C195.872 368.744 195.702 369.271 195.362 369.734C195.022 370.191 194.55 370.552 193.947 370.815C193.343 371.073 192.646 371.202 191.855 371.202C190.753 371.202 189.857 370.965 189.166 370.49C188.474 370.016 188.049 369.348 187.891 368.486L189.728 368.205C189.845 368.686 190.083 369.049 190.44 369.295C190.803 369.541 191.272 369.664 191.846 369.664C192.467 369.664 192.965 369.532 193.34 369.269C193.721 369.005 193.912 368.686 193.912 368.311C193.912 367.689 193.449 367.271 192.523 367.054L190.862 366.685C189.942 366.474 189.262 366.143 188.823 365.691C188.389 365.234 188.172 364.66 188.172 363.969C188.172 363.389 188.334 362.879 188.656 362.439C188.984 362 189.432 361.66 190.001 361.42C190.575 361.174 191.228 361.051 191.961 361.051C193.027 361.051 193.862 361.282 194.465 361.745C195.075 362.208 195.479 362.82 195.678 363.582ZM196.848 371V361.174H198.746V371H196.848ZM197.806 359.662C197.472 359.662 197.187 359.551 196.953 359.328C196.719 359.105 196.601 358.839 196.601 358.528C196.601 358.212 196.719 357.942 196.953 357.72C197.187 357.497 197.472 357.386 197.806 357.386C198.134 357.386 198.415 357.497 198.649 357.72C198.89 357.942 199.01 358.212 199.01 358.528C199.01 358.839 198.89 359.105 198.649 359.328C198.415 359.551 198.134 359.662 197.806 359.662ZM204.336 371.202C203.416 371.202 202.611 370.991 201.919 370.569C201.234 370.147 200.7 369.556 200.32 368.794C199.945 368.032 199.757 367.147 199.757 366.14C199.757 365.12 199.945 364.229 200.32 363.468C200.7 362.7 201.234 362.105 201.919 361.684C202.611 361.262 203.416 361.051 204.336 361.051C205.262 361.051 206.068 361.262 206.753 361.684C207.439 362.105 207.972 362.7 208.353 363.468C208.734 364.229 208.924 365.12 208.924 366.14C208.924 367.147 208.734 368.032 208.353 368.794C207.972 369.556 207.439 370.147 206.753 370.569C206.068 370.991 205.262 371.202 204.336 371.202ZM204.336 369.594C204.94 369.594 205.438 369.436 205.83 369.119C206.223 368.803 206.513 368.384 206.7 367.862C206.894 367.335 206.991 366.761 206.991 366.14C206.991 365.507 206.894 364.927 206.7 364.399C206.513 363.872 206.223 363.45 205.83 363.134C205.438 362.817 204.94 362.659 204.336 362.659C203.739 362.659 203.243 362.817 202.851 363.134C202.464 363.45 202.174 363.872 201.981 364.399C201.787 364.927 201.691 365.507 201.691 366.14C201.691 366.761 201.787 367.335 201.981 367.862C202.174 368.384 202.464 368.803 202.851 369.119C203.243 369.436 203.739 369.594 204.336 369.594ZM211.842 365.173V371H209.944V361.174H211.79V362.791H211.922C212.144 362.258 212.493 361.836 212.967 361.525C213.442 361.209 214.051 361.051 214.796 361.051C215.464 361.051 216.047 361.191 216.545 361.473C217.048 361.748 217.438 362.161 217.714 362.712C217.995 363.263 218.135 363.945 218.135 364.76V371H216.237V364.988C216.237 364.279 216.049 363.723 215.674 363.318C215.299 362.908 214.79 362.703 214.145 362.703C213.706 362.703 213.31 362.803 212.959 363.002C212.613 363.195 212.34 363.474 212.141 363.837C211.942 364.2 211.842 364.646 211.842 365.173ZM226.951 363.582L225.22 363.881C225.108 363.553 224.9 363.251 224.596 362.976C224.297 362.7 223.849 362.562 223.251 362.562C222.712 362.562 222.261 362.686 221.897 362.932C221.54 363.172 221.361 363.479 221.361 363.854C221.361 364.183 221.481 364.449 221.722 364.654C221.968 364.859 222.357 365.023 222.891 365.146L224.464 365.498C225.36 365.703 226.031 366.025 226.477 366.465C226.922 366.904 227.145 367.467 227.145 368.152C227.145 368.744 226.975 369.271 226.635 369.734C226.295 370.191 225.823 370.552 225.22 370.815C224.616 371.073 223.919 371.202 223.128 371.202C222.026 371.202 221.13 370.965 220.438 370.49C219.747 370.016 219.322 369.348 219.164 368.486L221.001 368.205C221.118 368.686 221.355 369.049 221.713 369.295C222.076 369.541 222.545 369.664 223.119 369.664C223.74 369.664 224.238 369.532 224.613 369.269C224.994 369.005 225.185 368.686 225.185 368.311C225.185 367.689 224.722 367.271 223.796 367.054L222.135 366.685C221.215 366.474 220.535 366.143 220.096 365.691C219.662 365.234 219.445 364.66 219.445 363.969C219.445 363.389 219.606 362.879 219.929 362.439C220.257 362 220.705 361.66 221.273 361.42C221.848 361.174 222.501 361.051 223.233 361.051C224.3 361.051 225.135 361.282 225.738 361.745C226.348 362.208 226.752 362.82 226.951 363.582ZM233.886 371L231.004 361.174H232.972L234.897 368.39H235.003L236.927 361.174H238.905L240.812 368.363H240.909L242.825 361.174H244.794L241.911 371H239.968L237.965 363.916H237.833L235.829 371H233.886ZM245.506 371V361.174H247.404V371H245.506ZM246.464 359.662C246.13 359.662 245.846 359.551 245.611 359.328C245.377 359.105 245.26 358.839 245.26 358.528C245.26 358.212 245.377 357.942 245.611 357.72C245.846 357.497 246.13 357.386 246.464 357.386C246.792 357.386 247.073 357.497 247.308 357.72C247.548 357.942 247.668 358.212 247.668 358.528C247.668 358.839 247.548 359.105 247.308 359.328C247.073 359.551 246.792 359.662 246.464 359.662ZM253.443 361.174V362.712H248.081V361.174H253.443ZM249.514 358.836H251.421V368.117C251.421 368.568 251.515 368.899 251.703 369.11C251.89 369.315 252.192 369.418 252.608 369.418C252.707 369.418 252.813 369.412 252.924 369.4C253.041 369.389 253.159 369.371 253.276 369.348L253.636 370.93C253.443 370.994 253.232 371.044 253.003 371.079C252.775 371.114 252.546 371.132 252.318 371.132C251.468 371.132 250.789 370.895 250.279 370.42C249.769 369.939 249.514 369.301 249.514 368.504V358.836ZM256.563 365.173V371H254.665V357.904H256.537V362.791H256.669C256.897 362.258 257.246 361.836 257.715 361.525C258.189 361.209 258.807 361.051 259.569 361.051C260.243 361.051 260.832 361.188 261.336 361.464C261.84 361.739 262.232 362.152 262.513 362.703C262.801 363.254 262.944 363.939 262.944 364.76V371H261.028V364.988C261.028 364.262 260.841 363.699 260.466 363.301C260.096 362.902 259.581 362.703 258.919 362.703C258.462 362.703 258.057 362.803 257.706 363.002C257.354 363.195 257.076 363.474 256.871 363.837C256.666 364.2 256.563 364.646 256.563 365.173ZM269.959 357.904V371H268.06V357.904H269.959ZM271.427 371V361.174H273.325V371H271.427ZM272.385 359.662C272.051 359.662 271.766 359.551 271.532 359.328C271.298 359.105 271.181 358.839 271.181 358.528C271.181 358.212 271.298 357.942 271.532 357.72C271.766 357.497 272.051 357.386 272.385 357.386C272.713 357.386 272.994 357.497 273.228 357.72C273.469 357.942 273.589 358.212 273.589 358.528C273.589 358.839 273.469 359.105 273.228 359.328C272.994 359.551 272.713 359.662 272.385 359.662ZM283.178 361.174L279.627 371H277.571L274.011 361.174H276.059L278.555 368.75H278.66L281.139 361.174H283.178ZM287.749 371.202C286.788 371.202 285.956 370.994 285.253 370.578C284.549 370.162 284.007 369.576 283.627 368.82C283.252 368.059 283.064 367.171 283.064 366.157C283.064 365.149 283.249 364.262 283.618 363.494C283.993 362.727 284.517 362.129 285.191 361.701C285.871 361.268 286.668 361.051 287.582 361.051C288.138 361.051 288.677 361.142 289.199 361.323C289.72 361.505 290.189 361.792 290.605 362.185C291.021 362.577 291.349 363.087 291.589 363.714C291.836 364.341 291.959 365.097 291.959 365.981V366.667H284.145V365.234H290.974L290.087 365.709C290.087 365.105 289.993 364.572 289.805 364.109C289.618 363.646 289.337 363.286 288.962 363.028C288.592 362.765 288.132 362.633 287.582 362.633C287.031 362.633 286.559 362.765 286.167 363.028C285.78 363.292 285.484 363.641 285.279 364.074C285.074 364.508 284.971 364.982 284.971 365.498V366.474C284.971 367.147 285.088 367.719 285.323 368.188C285.557 368.656 285.882 369.014 286.298 369.26C286.72 369.506 287.21 369.629 287.766 369.629C288.129 369.629 288.458 369.576 288.751 369.471C289.049 369.365 289.307 369.207 289.524 368.996C289.741 368.785 289.905 368.524 290.016 368.214L291.827 368.557C291.68 369.084 291.422 369.547 291.053 369.945C290.684 370.344 290.218 370.654 289.656 370.877C289.099 371.094 288.463 371.202 287.749 371.202ZM296.582 371V361.174H298.402V362.791H298.534C298.739 362.246 299.073 361.821 299.535 361.517C300.004 361.206 300.561 361.051 301.205 361.051C301.862 361.051 302.409 361.206 302.849 361.517C303.294 361.821 303.625 362.246 303.842 362.791H303.948C304.182 362.258 304.554 361.836 305.064 361.525C305.574 361.209 306.18 361.051 306.883 361.051C307.774 361.051 308.503 361.332 309.072 361.895C309.64 362.451 309.924 363.292 309.924 364.417V371H308.008V364.593C308.008 363.925 307.826 363.444 307.463 363.151C307.1 362.853 306.666 362.703 306.162 362.703C305.541 362.703 305.058 362.896 304.712 363.283C304.372 363.664 304.202 364.147 304.202 364.733V371H302.286V364.47C302.286 363.937 302.122 363.509 301.794 363.187C301.466 362.864 301.035 362.703 300.502 362.703C300.139 362.703 299.802 362.8 299.492 362.993C299.187 363.181 298.941 363.444 298.753 363.784C298.572 364.118 298.481 364.505 298.481 364.944V371H296.582ZM315.62 371.202C314.659 371.202 313.827 370.994 313.124 370.578C312.421 370.162 311.879 369.576 311.498 368.82C311.123 368.059 310.935 367.171 310.935 366.157C310.935 365.149 311.12 364.262 311.489 363.494C311.864 362.727 312.388 362.129 313.062 361.701C313.742 361.268 314.539 361.051 315.453 361.051C316.009 361.051 316.549 361.142 317.07 361.323C317.591 361.505 318.06 361.792 318.476 362.185C318.892 362.577 319.22 363.087 319.461 363.714C319.707 364.341 319.83 365.097 319.83 365.981V366.667H312.016V365.234H318.845L317.958 365.709C317.958 365.105 317.864 364.572 317.676 364.109C317.489 363.646 317.208 363.286 316.833 363.028C316.464 362.765 316.004 362.633 315.453 362.633C314.902 362.633 314.43 362.765 314.038 363.028C313.651 363.292 313.355 363.641 313.15 364.074C312.945 364.508 312.842 364.982 312.842 365.498V366.474C312.842 367.147 312.96 367.719 313.194 368.188C313.428 368.656 313.754 369.014 314.17 369.26C314.591 369.506 315.081 369.629 315.637 369.629C316.001 369.629 316.329 369.576 316.622 369.471C316.921 369.365 317.178 369.207 317.395 368.996C317.612 368.785 317.776 368.524 317.887 368.214L319.698 368.557C319.551 369.084 319.294 369.547 318.924 369.945C318.555 370.344 318.09 370.654 317.527 370.877C316.97 371.094 316.335 371.202 315.62 371.202ZM325.376 361.174V362.712H320.015V361.174H325.376ZM321.447 358.836H323.355V368.117C323.355 368.568 323.448 368.899 323.636 369.11C323.823 369.315 324.125 369.418 324.541 369.418C324.641 369.418 324.746 369.412 324.857 369.4C324.975 369.389 325.092 369.371 325.209 369.348L325.569 370.93C325.376 370.994 325.165 371.044 324.937 371.079C324.708 371.114 324.48 371.132 324.251 371.132C323.401 371.132 322.722 370.895 322.212 370.42C321.702 369.939 321.447 369.301 321.447 368.504V358.836ZM326.387 371V361.174H328.224V362.747H328.329C328.511 362.22 328.828 361.804 329.279 361.499C329.736 361.188 330.251 361.033 330.826 361.033C330.943 361.033 331.08 361.039 331.239 361.051C331.403 361.057 331.535 361.065 331.634 361.077V362.905C331.558 362.882 331.42 362.858 331.221 362.835C331.028 362.812 330.831 362.8 330.632 362.8C330.181 362.8 329.777 362.896 329.419 363.09C329.068 363.277 328.789 363.538 328.584 363.872C328.385 364.2 328.286 364.581 328.286 365.015V371H326.387ZM332.197 371V361.174H334.095V371H332.197ZM333.155 359.662C332.821 359.662 332.537 359.551 332.302 359.328C332.068 359.105 331.951 358.839 331.951 358.528C331.951 358.212 332.068 357.942 332.302 357.72C332.537 357.497 332.821 357.386 333.155 357.386C333.483 357.386 333.764 357.497 333.999 357.72C334.239 357.942 334.359 358.212 334.359 358.528C334.359 358.839 334.239 359.105 333.999 359.328C333.764 359.551 333.483 359.662 333.155 359.662ZM339.686 371.202C338.742 371.202 337.928 370.985 337.242 370.552C336.557 370.118 336.029 369.521 335.66 368.759C335.291 367.997 335.107 367.124 335.107 366.14C335.107 365.138 335.294 364.256 335.669 363.494C336.05 362.727 336.58 362.129 337.26 361.701C337.945 361.268 338.748 361.051 339.668 361.051C340.418 361.051 341.083 361.188 341.663 361.464C342.249 361.733 342.721 362.117 343.078 362.615C343.442 363.113 343.655 363.693 343.72 364.355H341.857C341.792 364.045 341.666 363.761 341.479 363.503C341.297 363.245 341.057 363.04 340.758 362.888C340.459 362.735 340.105 362.659 339.694 362.659C339.161 362.659 338.695 362.8 338.297 363.081C337.904 363.356 337.597 363.752 337.374 364.268C337.151 364.783 337.04 365.393 337.04 366.096C337.04 366.805 337.149 367.423 337.365 367.95C337.582 368.478 337.89 368.885 338.288 369.172C338.693 369.453 339.161 369.594 339.694 369.594C340.245 369.594 340.714 369.441 341.101 369.137C341.493 368.832 341.745 368.416 341.857 367.889H343.72C343.655 368.527 343.45 369.096 343.105 369.594C342.759 370.092 342.296 370.484 341.716 370.771C341.136 371.059 340.459 371.202 339.686 371.202ZM352.061 363.582L350.33 363.881C350.218 363.553 350.01 363.251 349.706 362.976C349.407 362.7 348.958 362.562 348.361 362.562C347.822 362.562 347.371 362.686 347.007 362.932C346.65 363.172 346.471 363.479 346.471 363.854C346.471 364.183 346.591 364.449 346.832 364.654C347.078 364.859 347.467 365.023 348 365.146L349.574 365.498C350.47 365.703 351.141 366.025 351.586 366.465C352.032 366.904 352.254 367.467 352.254 368.152C352.254 368.744 352.084 369.271 351.745 369.734C351.405 370.191 350.933 370.552 350.33 370.815C349.726 371.073 349.029 371.202 348.238 371.202C347.136 371.202 346.24 370.965 345.548 370.49C344.857 370.016 344.432 369.348 344.274 368.486L346.111 368.205C346.228 368.686 346.465 369.049 346.823 369.295C347.186 369.541 347.655 369.664 348.229 369.664C348.85 369.664 349.348 369.532 349.723 369.269C350.104 369.005 350.294 368.686 350.294 368.311C350.294 367.689 349.832 367.271 348.906 367.054L347.245 366.685C346.325 366.474 345.645 366.143 345.206 365.691C344.772 365.234 344.555 364.66 344.555 363.969C344.555 363.389 344.716 362.879 345.039 362.439C345.367 362 345.815 361.66 346.383 361.42C346.957 361.174 347.611 361.051 348.343 361.051C349.41 361.051 350.245 361.282 350.848 361.745C351.457 362.208 351.862 362.82 352.061 363.582ZM359.726 371.211C359.105 371.211 358.542 371.097 358.038 370.868C357.534 370.634 357.136 370.294 356.843 369.849C356.55 369.403 356.404 368.861 356.404 368.223C356.404 367.666 356.509 367.212 356.72 366.86C356.937 366.503 357.227 366.219 357.59 366.008C357.953 365.797 358.358 365.639 358.803 365.533C359.248 365.428 359.705 365.346 360.174 365.287C360.766 365.223 361.243 365.167 361.607 365.12C361.97 365.073 362.234 365 362.398 364.9C362.568 364.795 362.653 364.628 362.653 364.399V364.355C362.653 363.799 362.494 363.368 362.178 363.063C361.867 362.759 361.404 362.606 360.789 362.606C360.151 362.606 359.644 362.747 359.269 363.028C358.9 363.304 358.645 363.617 358.504 363.969L356.702 363.556C356.919 362.958 357.233 362.478 357.643 362.114C358.059 361.745 358.533 361.476 359.067 361.306C359.606 361.136 360.168 361.051 360.754 361.051C361.147 361.051 361.563 361.098 362.002 361.191C362.442 361.279 362.855 361.446 363.241 361.692C363.634 361.933 363.953 362.278 364.199 362.729C364.445 363.181 364.569 363.764 364.569 364.479V371H362.696V369.655H362.626C362.509 369.896 362.324 370.136 362.072 370.376C361.826 370.616 361.51 370.815 361.123 370.974C360.737 371.132 360.271 371.211 359.726 371.211ZM360.139 369.682C360.672 369.682 361.126 369.579 361.501 369.374C361.876 369.163 362.163 368.888 362.362 368.548C362.562 368.208 362.661 367.848 362.661 367.467V366.192C362.591 366.257 362.459 366.318 362.266 366.377C362.072 366.436 361.853 366.485 361.607 366.526C361.361 366.567 361.12 366.605 360.886 366.641C360.652 366.67 360.455 366.693 360.297 366.711C359.928 366.764 359.591 366.846 359.286 366.957C358.982 367.062 358.736 367.221 358.548 367.432C358.366 367.637 358.276 367.909 358.276 368.249C358.276 368.724 358.451 369.081 358.803 369.321C359.154 369.562 359.6 369.682 360.139 369.682ZM367.944 365.173V371H366.045V361.174H367.891V362.791H368.023C368.246 362.258 368.594 361.836 369.069 361.525C369.544 361.209 370.153 361.051 370.897 361.051C371.565 361.051 372.148 361.191 372.646 361.473C373.15 361.748 373.54 362.161 373.815 362.712C374.096 363.263 374.237 363.945 374.237 364.76V371H372.338V364.988C372.338 364.279 372.151 363.723 371.776 363.318C371.401 362.908 370.891 362.703 370.247 362.703C369.807 362.703 369.412 362.803 369.06 363.002C368.714 363.195 368.442 363.474 368.243 363.837C368.044 364.2 367.944 364.646 367.944 365.173ZM379.361 371.193C378.564 371.193 377.855 370.991 377.234 370.587C376.613 370.177 376.127 369.594 375.775 368.838C375.424 368.076 375.248 367.168 375.248 366.113C375.248 365.047 375.427 364.136 375.784 363.38C376.142 362.624 376.631 362.047 377.252 361.648C377.873 361.25 378.576 361.051 379.361 361.051C379.976 361.051 380.469 361.153 380.838 361.358C381.213 361.558 381.503 361.792 381.708 362.062C381.919 362.331 382.08 362.568 382.191 362.773H382.306V357.904H384.204V371H382.35V369.471H382.191C382.08 369.676 381.916 369.913 381.699 370.183C381.482 370.452 381.186 370.689 380.811 370.895C380.442 371.094 379.959 371.193 379.361 371.193ZM379.774 369.567C380.325 369.567 380.791 369.421 381.172 369.128C381.553 368.835 381.84 368.428 382.033 367.906C382.232 367.385 382.332 366.781 382.332 366.096C382.332 365.41 382.235 364.812 382.042 364.303C381.849 363.787 381.561 363.389 381.181 363.107C380.8 362.82 380.331 362.677 379.774 362.677C379.2 362.677 378.723 362.826 378.342 363.125C377.961 363.424 377.674 363.831 377.48 364.347C377.287 364.862 377.19 365.445 377.19 366.096C377.19 366.752 377.287 367.344 377.48 367.871C377.674 368.393 377.961 368.806 378.342 369.11C378.728 369.415 379.206 369.567 379.774 369.567ZM23.0361 396.202C22.0928 396.202 21.2783 395.985 20.5928 395.552C19.9072 395.118 19.3799 394.521 19.0107 393.759C18.6416 392.997 18.457 392.124 18.457 391.14C18.457 390.138 18.6445 389.256 19.0195 388.494C19.4004 387.727 19.9307 387.129 20.6104 386.701C21.2959 386.268 22.0986 386.051 23.0186 386.051C23.7686 386.051 24.4336 386.188 25.0137 386.464C25.5996 386.733 26.0713 387.117 26.4287 387.615C26.792 388.113 27.0059 388.693 27.0703 389.355H25.207C25.1426 389.045 25.0166 388.761 24.8291 388.503C24.6475 388.245 24.4072 388.04 24.1084 387.888C23.8096 387.735 23.4551 387.659 23.0449 387.659C22.5117 387.659 22.0459 387.8 21.6475 388.081C21.2549 388.356 20.9473 388.752 20.7246 389.268C20.502 389.783 20.3906 390.393 20.3906 391.096C20.3906 391.805 20.499 392.423 20.7158 392.95C20.9326 393.478 21.2402 393.885 21.6387 394.172C22.043 394.453 22.5117 394.594 23.0449 394.594C23.5957 394.594 24.0645 394.441 24.4512 394.137C24.8438 393.832 25.0957 393.416 25.207 392.889H27.0703C27.0059 393.527 26.8008 394.096 26.4551 394.594C26.1094 395.092 25.6465 395.484 25.0664 395.771C24.4863 396.059 23.8096 396.202 23.0361 396.202ZM34.2865 391.939V386.174H36.1849V396H34.3216V394.295H34.2162C33.9818 394.816 33.6185 395.253 33.1263 395.604C32.6341 395.956 32.0189 396.129 31.2806 396.123C30.6478 396.123 30.0882 395.985 29.6019 395.71C29.1214 395.435 28.7435 395.021 28.4681 394.471C28.1986 393.92 28.0638 393.237 28.0638 392.423V386.174H29.9623V392.203C29.9623 392.865 30.1498 393.396 30.5248 393.794C30.8998 394.192 31.3832 394.389 31.975 394.383C32.3324 394.383 32.6869 394.295 33.0384 394.119C33.3959 393.943 33.6918 393.674 33.9261 393.311C34.1664 392.947 34.2865 392.49 34.2865 391.939ZM45.0007 388.582L43.2693 388.881C43.1579 388.553 42.9499 388.251 42.6452 387.976C42.3464 387.7 41.8982 387.562 41.3005 387.562C40.7614 387.562 40.3103 387.686 39.947 387.932C39.5896 388.172 39.4109 388.479 39.4109 388.854C39.4109 389.183 39.531 389.449 39.7712 389.654C40.0173 389.859 40.407 390.023 40.9402 390.146L42.5134 390.498C43.4099 390.703 44.0808 391.025 44.5261 391.465C44.9714 391.904 45.1941 392.467 45.1941 393.152C45.1941 393.744 45.0241 394.271 44.6843 394.734C44.3445 395.191 43.8728 395.552 43.2693 395.815C42.6657 396.073 41.9685 396.202 41.1775 396.202C40.0759 396.202 39.1794 395.965 38.488 395.49C37.7966 395.016 37.3718 394.348 37.2136 393.486L39.0505 393.205C39.1677 393.686 39.405 394.049 39.7624 394.295C40.1257 394.541 40.5945 394.664 41.1687 394.664C41.7898 394.664 42.2878 394.532 42.6628 394.269C43.0437 394.005 43.2341 393.686 43.2341 393.311C43.2341 392.689 42.7712 392.271 41.8454 392.054L40.1843 391.685C39.2644 391.474 38.5847 391.143 38.1452 390.691C37.7116 390.234 37.4948 389.66 37.4948 388.969C37.4948 388.389 37.656 387.879 37.9782 387.439C38.3064 387 38.7546 386.66 39.323 386.42C39.8972 386.174 40.5505 386.051 41.2829 386.051C42.3493 386.051 43.1843 386.282 43.7878 386.745C44.3972 387.208 44.8015 387.82 45.0007 388.582ZM50.7403 386.174V387.712H45.379V386.174H50.7403ZM46.8116 383.836H48.7188V393.117C48.7188 393.568 48.8126 393.899 49.0001 394.11C49.1876 394.315 49.4893 394.418 49.9054 394.418C50.005 394.418 50.1104 394.412 50.2218 394.4C50.3389 394.389 50.4561 394.371 50.5733 394.348L50.9337 395.93C50.7403 395.994 50.5294 396.044 50.3009 396.079C50.0723 396.114 49.8438 396.132 49.6153 396.132C48.7657 396.132 48.086 395.895 47.5763 395.42C47.0665 394.939 46.8116 394.301 46.8116 393.504V383.836ZM55.768 396.202C54.8481 396.202 54.0424 395.991 53.351 395.569C52.6655 395.147 52.1323 394.556 51.7514 393.794C51.3764 393.032 51.1889 392.147 51.1889 391.14C51.1889 390.12 51.3764 389.229 51.7514 388.468C52.1323 387.7 52.6655 387.105 53.351 386.684C54.0424 386.262 54.8481 386.051 55.768 386.051C56.6938 386.051 57.4995 386.262 58.185 386.684C58.8705 387.105 59.4038 387.7 59.7846 388.468C60.1655 389.229 60.3559 390.12 60.3559 391.14C60.3559 392.147 60.1655 393.032 59.7846 393.794C59.4038 394.556 58.8705 395.147 58.185 395.569C57.4995 395.991 56.6938 396.202 55.768 396.202ZM55.768 394.594C56.3715 394.594 56.8696 394.436 57.2621 394.119C57.6547 393.803 57.9448 393.384 58.1323 392.862C58.3256 392.335 58.4223 391.761 58.4223 391.14C58.4223 390.507 58.3256 389.927 58.1323 389.399C57.9448 388.872 57.6547 388.45 57.2621 388.134C56.8696 387.817 56.3715 387.659 55.768 387.659C55.1704 387.659 54.6752 387.817 54.2827 388.134C53.8959 388.45 53.6059 388.872 53.4125 389.399C53.2192 389.927 53.1225 390.507 53.1225 391.14C53.1225 391.761 53.2192 392.335 53.4125 392.862C53.6059 393.384 53.8959 393.803 54.2827 394.119C54.6752 394.436 55.1704 394.594 55.768 394.594ZM61.3758 396V386.174H63.1951V387.791H63.327C63.532 387.246 63.866 386.821 64.3289 386.517C64.7977 386.206 65.3543 386.051 65.9988 386.051C66.6551 386.051 67.2029 386.206 67.6424 386.517C68.0877 386.821 68.4188 387.246 68.6355 387.791H68.741C68.9754 387.258 69.3475 386.836 69.8572 386.525C70.367 386.209 70.9734 386.051 71.6766 386.051C72.5672 386.051 73.2967 386.332 73.865 386.895C74.4334 387.451 74.7176 388.292 74.7176 389.417V396H72.8016V389.593C72.8016 388.925 72.6199 388.444 72.2566 388.151C71.8934 387.853 71.4598 387.703 70.9559 387.703C70.3348 387.703 69.8514 387.896 69.5057 388.283C69.1658 388.664 68.9959 389.147 68.9959 389.733V396H67.0799V389.47C67.0799 388.937 66.9158 388.509 66.5877 388.187C66.2596 387.864 65.8289 387.703 65.2957 387.703C64.9324 387.703 64.5955 387.8 64.285 387.993C63.9803 388.181 63.7342 388.444 63.5467 388.784C63.365 389.118 63.2742 389.505 63.2742 389.944V396H61.3758ZM79.8335 396V386.174H81.6704V387.747H81.7759C81.9575 387.22 82.2739 386.804 82.7251 386.499C83.1821 386.188 83.6978 386.033 84.272 386.033C84.3892 386.033 84.5269 386.039 84.6851 386.051C84.8491 386.057 84.981 386.065 85.0806 386.077V387.905C85.0044 387.882 84.8667 387.858 84.6675 387.835C84.4741 387.812 84.2779 387.8 84.0786 387.8C83.6275 387.8 83.2232 387.896 82.8657 388.09C82.5142 388.277 82.2359 388.538 82.0308 388.872C81.8316 389.2 81.732 389.581 81.732 390.015V396H79.8335ZM89.5194 396.202C88.5585 396.202 87.7264 395.994 87.0233 395.578C86.3202 395.162 85.7782 394.576 85.3973 393.82C85.0223 393.059 84.8348 392.171 84.8348 391.157C84.8348 390.149 85.0194 389.262 85.3886 388.494C85.7636 387.727 86.288 387.129 86.9618 386.701C87.6415 386.268 88.4384 386.051 89.3524 386.051C89.9091 386.051 90.4481 386.142 90.9696 386.323C91.4911 386.505 91.9598 386.792 92.3759 387.185C92.7919 387.577 93.12 388.087 93.3602 388.714C93.6063 389.341 93.7294 390.097 93.7294 390.981V391.667H85.9159V390.234H92.745L91.8573 390.709C91.8573 390.105 91.7636 389.572 91.5761 389.109C91.3886 388.646 91.1073 388.286 90.7323 388.028C90.3632 387.765 89.9032 387.633 89.3524 387.633C88.8016 387.633 88.33 387.765 87.9374 388.028C87.5507 388.292 87.2548 388.641 87.0497 389.074C86.8446 389.508 86.7421 389.982 86.7421 390.498V391.474C86.7421 392.147 86.8593 392.719 87.0936 393.188C87.328 393.656 87.6532 394.014 88.0692 394.26C88.4911 394.506 88.9804 394.629 89.537 394.629C89.9003 394.629 90.2284 394.576 90.5214 394.471C90.8202 394.365 91.078 394.207 91.2948 393.996C91.5116 393.785 91.6757 393.524 91.787 393.214L93.5975 393.557C93.4511 394.084 93.1932 394.547 92.8241 394.945C92.455 395.344 91.9891 395.654 91.4266 395.877C90.87 396.094 90.2343 396.202 89.5194 396.202ZM94.7053 399.674V386.174H96.551V387.773H96.7092C96.8264 387.568 96.9875 387.331 97.1926 387.062C97.4036 386.792 97.6965 386.558 98.0715 386.358C98.4465 386.153 98.9358 386.051 99.5393 386.051C100.33 386.051 101.033 386.25 101.649 386.648C102.27 387.047 102.759 387.624 103.116 388.38C103.474 389.136 103.653 390.047 103.653 391.113C103.653 392.168 103.477 393.076 103.125 393.838C102.774 394.594 102.287 395.177 101.666 395.587C101.051 395.991 100.345 396.193 99.5481 396.193C98.9563 396.193 98.47 396.094 98.0891 395.895C97.7141 395.689 97.4182 395.452 97.2014 395.183C96.9905 394.913 96.8264 394.676 96.7092 394.471H96.6038V399.674H94.7053ZM99.135 394.567C99.7034 394.567 100.178 394.415 100.559 394.11C100.94 393.806 101.227 393.393 101.42 392.871C101.619 392.344 101.719 391.752 101.719 391.096C101.719 390.445 101.622 389.862 101.429 389.347C101.236 388.831 100.948 388.424 100.568 388.125C100.187 387.826 99.7092 387.677 99.135 387.677C98.5784 387.677 98.1096 387.82 97.7288 388.107C97.3479 388.389 97.0579 388.787 96.8586 389.303C96.6653 389.812 96.5686 390.41 96.5686 391.096C96.5686 391.781 96.6682 392.385 96.8674 392.906C97.0666 393.428 97.3567 393.835 97.7375 394.128C98.1243 394.421 98.5901 394.567 99.135 394.567ZM108.803 396.202C107.883 396.202 107.078 395.991 106.386 395.569C105.701 395.147 105.168 394.556 104.787 393.794C104.412 393.032 104.224 392.147 104.224 391.14C104.224 390.12 104.412 389.229 104.787 388.468C105.168 387.7 105.701 387.105 106.386 386.684C107.078 386.262 107.883 386.051 108.803 386.051C109.729 386.051 110.535 386.262 111.22 386.684C111.906 387.105 112.439 387.7 112.82 388.468C113.201 389.229 113.391 390.12 113.391 391.14C113.391 392.147 113.201 393.032 112.82 393.794C112.439 394.556 111.906 395.147 111.22 395.569C110.535 395.991 109.729 396.202 108.803 396.202ZM108.803 394.594C109.407 394.594 109.905 394.436 110.297 394.119C110.69 393.803 110.98 393.384 111.168 392.862C111.361 392.335 111.458 391.761 111.458 391.14C111.458 390.507 111.361 389.927 111.168 389.399C110.98 388.872 110.69 388.45 110.297 388.134C109.905 387.817 109.407 387.659 108.803 387.659C108.206 387.659 107.711 387.817 107.318 388.134C106.931 388.45 106.641 388.872 106.448 389.399C106.254 389.927 106.158 390.507 106.158 391.14C106.158 391.761 106.254 392.335 106.448 392.862C106.641 393.384 106.931 393.803 107.318 394.119C107.711 394.436 108.206 394.594 108.803 394.594ZM114.411 396V386.174H116.248V387.747H116.353C116.535 387.22 116.852 386.804 117.303 386.499C117.76 386.188 118.275 386.033 118.85 386.033C118.967 386.033 119.104 386.039 119.263 386.051C119.427 386.057 119.559 386.065 119.658 386.077V387.905C119.582 387.882 119.444 387.858 119.245 387.835C119.052 387.812 118.855 387.8 118.656 387.8C118.205 387.8 117.801 387.896 117.443 388.09C117.092 388.277 116.813 388.538 116.608 388.872C116.409 389.2 116.31 389.581 116.31 390.015V396H114.411ZM125.354 386.174V387.712H119.993V386.174H125.354ZM121.425 383.836H123.332V393.117C123.332 393.568 123.426 393.899 123.614 394.11C123.801 394.315 124.103 394.418 124.519 394.418C124.618 394.418 124.724 394.412 124.835 394.4C124.952 394.389 125.07 394.371 125.187 394.348L125.547 395.93C125.354 395.994 125.143 396.044 124.914 396.079C124.686 396.114 124.457 396.132 124.229 396.132C123.379 396.132 122.7 395.895 122.19 395.42C121.68 394.939 121.425 394.301 121.425 393.504V383.836ZM133.554 388.582L131.823 388.881C131.712 388.553 131.504 388.251 131.199 387.976C130.9 387.7 130.452 387.562 129.854 387.562C129.315 387.562 128.864 387.686 128.501 387.932C128.143 388.172 127.965 388.479 127.965 388.854C127.965 389.183 128.085 389.449 128.325 389.654C128.571 389.859 128.961 390.023 129.494 390.146L131.067 390.498C131.964 390.703 132.634 391.025 133.08 391.465C133.525 391.904 133.748 392.467 133.748 393.152C133.748 393.744 133.578 394.271 133.238 394.734C132.898 395.191 132.426 395.552 131.823 395.815C131.219 396.073 130.522 396.202 129.731 396.202C128.63 396.202 127.733 395.965 127.042 395.49C126.35 395.016 125.925 394.348 125.767 393.486L127.604 393.205C127.721 393.686 127.959 394.049 128.316 394.295C128.679 394.541 129.148 394.664 129.722 394.664C130.343 394.664 130.841 394.532 131.216 394.269C131.597 394.005 131.788 393.686 131.788 393.311C131.788 392.689 131.325 392.271 130.399 392.054L128.738 391.685C127.818 391.474 127.138 391.143 126.699 390.691C126.265 390.234 126.049 389.66 126.049 388.969C126.049 388.389 126.21 387.879 126.532 387.439C126.86 387 127.308 386.66 127.877 386.42C128.451 386.174 129.104 386.051 129.837 386.051C130.903 386.051 131.738 386.282 132.341 386.745C132.951 387.208 133.355 387.82 133.554 388.582ZM136.147 396.123C135.79 396.123 135.485 396 135.233 395.754C134.987 395.508 134.864 395.206 134.864 394.849C134.864 394.491 134.987 394.189 135.233 393.943C135.485 393.697 135.79 393.574 136.147 393.574C136.505 393.574 136.807 393.697 137.053 393.943C137.305 394.189 137.431 394.491 137.431 394.849C137.431 395.206 137.305 395.508 137.053 395.754C136.807 396 136.505 396.123 136.147 396.123Z" fill="#AAAAAA"/>
<path opacity="0.7" d="M27.073 223.658H-48V488H466V-2L419.955 50.1651H356.393H305.344L238.278 128.12H104.648L27.073 223.658Z" fill="url(#paint0_linear_1809_1419)" stroke="#40C2FF" stroke-width="1.5"/>
<g filter="url(#filter1_f_1809_1419)">
<circle cx="239" cy="127" r="6" fill="#40C2FF"/>
</g>
<circle cx="239" cy="127" r="6" fill="#40C2FF"/>
<path d="M196.922 110.635V94.2695H197.959V110.635H196.922ZM197.44 109.211C196.462 109.211 195.612 109.059 194.892 108.754C194.177 108.443 193.617 108.001 193.213 107.427C192.809 106.853 192.583 106.17 192.536 105.379H194.522C194.563 105.854 194.716 106.249 194.979 106.565C195.249 106.876 195.598 107.107 196.025 107.26C196.453 107.412 196.922 107.488 197.432 107.488C197.988 107.488 198.486 107.4 198.926 107.225C199.365 107.049 199.708 106.803 199.954 106.486C200.206 106.164 200.332 105.789 200.332 105.361C200.332 104.975 200.221 104.658 199.998 104.412C199.781 104.166 199.485 103.964 199.11 103.806C198.735 103.642 198.313 103.498 197.845 103.375L196.307 102.953C195.252 102.672 194.42 102.253 193.811 101.696C193.201 101.134 192.896 100.398 192.896 99.4902C192.896 98.7344 193.099 98.0752 193.503 97.5127C193.913 96.9502 194.467 96.5137 195.164 96.2031C195.867 95.8867 196.655 95.7285 197.528 95.7285C198.419 95.7285 199.201 95.8867 199.875 96.2031C200.555 96.5137 201.091 96.9414 201.483 97.4863C201.882 98.0254 202.09 98.6436 202.107 99.3408H200.191C200.121 98.7373 199.84 98.2686 199.348 97.9346C198.861 97.6006 198.24 97.4336 197.484 97.4336C196.957 97.4336 196.494 97.5186 196.096 97.6885C195.703 97.8525 195.398 98.0811 195.182 98.374C194.971 98.667 194.865 99.0039 194.865 99.3848C194.865 99.7949 194.991 100.129 195.243 100.387C195.501 100.645 195.812 100.85 196.175 101.002C196.544 101.148 196.898 101.269 197.238 101.362L198.513 101.705C198.929 101.811 199.356 101.951 199.796 102.127C200.235 102.303 200.643 102.534 201.018 102.821C201.398 103.103 201.703 103.454 201.932 103.876C202.166 104.292 202.283 104.796 202.283 105.388C202.283 106.12 202.093 106.776 201.712 107.356C201.331 107.931 200.78 108.385 200.06 108.719C199.339 109.047 198.466 109.211 197.44 109.211ZM207.909 109.176C207.024 109.176 206.239 109.026 205.553 108.728C204.868 108.423 204.326 108.001 203.927 107.462C203.529 106.923 203.318 106.299 203.294 105.59H205.281C205.31 105.977 205.442 106.311 205.676 106.592C205.911 106.873 206.218 107.093 206.599 107.251C206.986 107.403 207.416 107.479 207.891 107.479C208.407 107.479 208.864 107.389 209.262 107.207C209.661 107.025 209.971 106.776 210.194 106.46C210.422 106.138 210.536 105.766 210.536 105.344C210.536 104.904 210.425 104.518 210.203 104.184C209.98 103.844 209.655 103.58 209.227 103.393C208.799 103.205 208.284 103.111 207.68 103.111H206.564V101.494H207.68C208.161 101.494 208.585 101.406 208.954 101.23C209.324 101.055 209.611 100.812 209.816 100.501C210.027 100.19 210.132 99.8242 210.132 99.4023C210.132 98.998 210.041 98.6465 209.86 98.3477C209.678 98.043 209.423 97.8086 209.095 97.6445C208.767 97.4746 208.38 97.3896 207.935 97.3896C207.507 97.3896 207.109 97.4658 206.74 97.6182C206.37 97.7705 206.069 97.9902 205.834 98.2773C205.606 98.5586 205.486 98.9014 205.474 99.3057H203.567C203.584 98.5967 203.789 97.9756 204.182 97.4424C204.58 96.9033 205.108 96.4844 205.764 96.1855C206.426 95.8809 207.159 95.7285 207.961 95.7285C208.799 95.7285 209.523 95.8926 210.132 96.2207C210.747 96.543 211.222 96.9766 211.556 97.5215C211.89 98.0605 212.057 98.6494 212.057 99.2881C212.057 100.032 211.852 100.659 211.442 101.169C211.032 101.673 210.484 102.016 209.798 102.197V102.294C210.665 102.429 211.336 102.774 211.811 103.331C212.291 103.888 212.532 104.579 212.532 105.405C212.532 106.126 212.329 106.771 211.925 107.339C211.527 107.907 210.979 108.355 210.282 108.684C209.59 109.012 208.799 109.176 207.909 109.176ZM218.385 109.176C217.378 109.176 216.513 108.912 215.793 108.385C215.078 107.857 214.53 107.096 214.149 106.1C213.774 105.098 213.587 103.885 213.587 102.461C213.587 101.043 213.777 99.833 214.158 98.8311C214.539 97.8232 215.087 97.0557 215.801 96.5283C216.522 95.9951 217.384 95.7285 218.385 95.7285C219.393 95.7285 220.255 95.9951 220.969 96.5283C221.69 97.0557 222.238 97.8232 222.613 98.8311C222.994 99.833 223.184 101.043 223.184 102.461C223.184 103.885 222.997 105.098 222.622 106.1C222.247 107.096 221.702 107.857 220.987 108.385C220.272 108.912 219.405 109.176 218.385 109.176ZM218.385 107.488C219.001 107.488 219.519 107.292 219.941 106.899C220.363 106.507 220.685 105.936 220.908 105.186C221.131 104.43 221.242 103.521 221.242 102.461C221.242 101.395 221.131 100.486 220.908 99.7363C220.685 98.9805 220.363 98.4062 219.941 98.0137C219.519 97.6152 219.001 97.416 218.385 97.416C217.477 97.416 216.774 97.8584 216.276 98.7432C215.784 99.6221 215.538 100.861 215.538 102.461C215.538 103.521 215.649 104.43 215.872 105.186C216.094 105.936 216.417 106.507 216.839 106.899C217.266 107.292 217.782 107.488 218.385 107.488ZM228.906 109.176C227.899 109.176 227.034 108.912 226.314 108.385C225.599 107.857 225.051 107.096 224.67 106.1C224.295 105.098 224.108 103.885 224.108 102.461C224.108 101.043 224.298 99.833 224.679 98.8311C225.06 97.8232 225.608 97.0557 226.322 96.5283C227.043 95.9951 227.904 95.7285 228.906 95.7285C229.914 95.7285 230.775 95.9951 231.49 96.5283C232.211 97.0557 232.759 97.8232 233.134 98.8311C233.515 99.833 233.705 101.043 233.705 102.461C233.705 103.885 233.518 105.098 233.143 106.1C232.768 107.096 232.223 107.857 231.508 108.385C230.793 108.912 229.926 109.176 228.906 109.176ZM228.906 107.488C229.522 107.488 230.04 107.292 230.462 106.899C230.884 106.507 231.206 105.936 231.429 105.186C231.651 104.43 231.763 103.521 231.763 102.461C231.763 101.395 231.651 100.486 231.429 99.7363C231.206 98.9805 230.884 98.4062 230.462 98.0137C230.04 97.6152 229.522 97.416 228.906 97.416C227.998 97.416 227.295 97.8584 226.797 98.7432C226.305 99.6221 226.059 100.861 226.059 102.461C226.059 103.521 226.17 104.43 226.393 105.186C226.615 105.936 226.938 106.507 227.359 106.899C227.787 107.292 228.303 107.488 228.906 107.488ZM239.427 109.176C238.419 109.176 237.555 108.912 236.834 108.385C236.12 107.857 235.572 107.096 235.191 106.1C234.816 105.098 234.628 103.885 234.628 102.461C234.628 101.043 234.819 99.833 235.2 98.8311C235.581 97.8232 236.128 97.0557 236.843 96.5283C237.564 95.9951 238.425 95.7285 239.427 95.7285C240.435 95.7285 241.296 95.9951 242.011 96.5283C242.732 97.0557 243.28 97.8232 243.655 98.8311C244.036 99.833 244.226 101.043 244.226 102.461C244.226 103.885 244.039 105.098 243.664 106.1C243.289 107.096 242.744 107.857 242.029 108.385C241.314 108.912 240.447 109.176 239.427 109.176ZM239.427 107.488C240.042 107.488 240.561 107.292 240.983 106.899C241.405 106.507 241.727 105.936 241.95 105.186C242.172 104.43 242.284 103.521 242.284 102.461C242.284 101.395 242.172 100.486 241.95 99.7363C241.727 98.9805 241.405 98.4062 240.983 98.0137C240.561 97.6152 240.042 97.416 239.427 97.416C238.519 97.416 237.816 97.8584 237.318 98.7432C236.826 99.6221 236.58 100.861 236.58 102.461C236.58 103.521 236.691 104.43 236.914 105.186C237.136 105.936 237.458 106.507 237.88 106.899C238.308 107.292 238.824 107.488 239.427 107.488Z" fill="white"/>
</g>
<defs>
<filter id="filter0_f_1809_1419" x="-106" y="-141" width="482" height="482" filterUnits="userSpaceOnUse" color-interpolation-filters="sRGB">
<feFlood flood-opacity="0" result="BackgroundImageFix"/>
<feBlend mode="normal" in="SourceGraphic" in2="BackgroundImageFix" result="shape"/>
<feGaussianBlur stdDeviation="75" result="effect1_foregroundBlur_1809_1419"/>
</filter>
<filter id="filter1_f_1809_1419" x="217" y="105" width="44" height="44" filterUnits="userSpaceOnUse" color-interpolation-filters="sRGB">
<feFlood flood-opacity="0" result="BackgroundImageFix"/>
<feBlend mode="normal" in="SourceGraphic" in2="BackgroundImageFix" result="shape"/>
<feGaussianBlur stdDeviation="8" result="effect1_foregroundBlur_1809_1419"/>
</filter>
<linearGradient id="paint0_linear_1809_1419" x1="209" y1="-2" x2="209" y2="488" gradientUnits="userSpaceOnUse">
<stop stop-color="#40C2FF"/>
<stop offset="0.541188" stop-color="#40C2FF" stop-opacity="0"/>
</linearGradient>
<clipPath id="clip0_1809_1419">
<path d="M0 64C0 41.5979 0 30.3968 4.35974 21.8404C8.19467 14.3139 14.3139 8.19467 21.8404 4.35974C30.3968 0 41.5979 0 64 0H354C376.402 0 387.603 0 396.16 4.35974C403.686 8.19467 409.805 14.3139 413.64 21.8404C418 30.3968 418 41.5979 418 64V378C418 400.402 418 411.603 413.64 420.16C409.805 427.686 403.686 433.805 396.16 437.64C387.603 442 376.402 442 354 442H64C41.5979 442 30.3968 442 21.8404 437.64C14.3139 433.805 8.19467 427.686 4.35974 420.16C0 411.603 0 400.402 0 378V64Z" fill="white"/>
</clipPath>
</defs>
</svg>
