<svg width="418" height="442" viewBox="0 0 418 442" fill="none" xmlns="http://www.w3.org/2000/svg">
<g clip-path="url(#clip0_1809_1370)">
<path d="M0 64C0 41.5979 0 30.3968 4.35974 21.8404C8.19467 14.3139 14.3139 8.19467 21.8404 4.35974C30.3968 0 41.5979 0 64 0H354C376.402 0 387.603 0 396.16 4.35974C403.686 8.19467 409.805 14.3139 413.64 21.8404C418 30.3968 418 41.5979 418 64V378C418 400.402 418 411.603 413.64 420.16C409.805 427.686 403.686 433.805 396.16 437.64C387.603 442 376.402 442 354 442H64C41.5979 442 30.3968 442 21.8404 437.64C14.3139 433.805 8.19467 427.686 4.35974 420.16C0 411.603 0 400.402 0 378V64Z" fill="#080035"/>
<mask id="mask0_1809_1370" style="mask-type:alpha" maskUnits="userSpaceOnUse" x="-72" y="-101" width="402" height="402">
<path d="M1.72656 -100V300" stroke="#B3B3B3" stroke-opacity="0.27"/>
<path d="M38.0908 -100V300" stroke="#B3B3B3" stroke-opacity="0.27"/>
<path d="M74.4541 -100V300" stroke="#B3B3B3" stroke-opacity="0.27"/>
<path d="M110.818 -100V300" stroke="#B3B3B3" stroke-opacity="0.27"/>
<path d="M147.182 -100V300" stroke="#B3B3B3" stroke-opacity="0.27"/>
<path d="M183.545 -100V300" stroke="#B3B3B3" stroke-opacity="0.27"/>
<path d="M219.909 -100V300" stroke="#B3B3B3" stroke-opacity="0.27"/>
<path d="M256.272 -100V300" stroke="#B3B3B3" stroke-opacity="0.27"/>
<path d="M292.637 -100V300" stroke="#B3B3B3" stroke-opacity="0.27"/>
<path d="M329 -100V300" stroke="#B3B3B3" stroke-opacity="0.27"/>
<path d="M-71 9.09082H329" stroke="#B3B3B3" stroke-opacity="0.27"/>
<path d="M-71 45.4546H329" stroke="#B3B3B3" stroke-opacity="0.27"/>
<path d="M-71 81.8181H329" stroke="#B3B3B3" stroke-opacity="0.27"/>
<path d="M-71 118.182H329" stroke="#B3B3B3" stroke-opacity="0.27"/>
<path d="M-71 154.545H329" stroke="#B3B3B3" stroke-opacity="0.27"/>
<path d="M-71 190.909H329" stroke="#B3B3B3" stroke-opacity="0.27"/>
<path d="M-71 227.273H329" stroke="#B3B3B3" stroke-opacity="0.27"/>
<path d="M-71 263.636H329" stroke="#B3B3B3" stroke-opacity="0.27"/>
<path d="M-71 300H329" stroke="#B3B3B3" stroke-opacity="0.27"/>
</mask>
<g mask="url(#mask0_1809_1370)">
<g filter="url(#filter0_f_1809_1370)">
<circle cx="135" cy="100" r="91" fill="#40C2FF"/>
</g>
</g>
<path d="M22.125 330H18.1758L24.1992 312.539H28.957L34.9688 330H31.0312L26.6484 316.523H26.5078L22.125 330ZM21.8906 323.133H31.2305V326.016H21.8906V323.133ZM44.1333 324.434V316.898H47.7544V330H44.2739V327.621H44.1333C43.8364 328.379 43.3481 328.996 42.6684 329.473C41.9888 329.941 41.1567 330.172 40.1723 330.164C39.2973 330.164 38.5239 329.969 37.852 329.578C37.188 329.18 36.6684 328.613 36.2934 327.879C35.9263 327.145 35.7427 326.266 35.7427 325.242V316.898H39.3638V324.609C39.3638 325.375 39.5708 325.984 39.9848 326.438C40.3989 326.883 40.9497 327.102 41.6372 327.094C42.0747 327.094 42.4809 326.996 42.8559 326.801C43.2309 326.598 43.5356 326.297 43.77 325.898C44.0122 325.5 44.1333 325.012 44.1333 324.434ZM56.3681 316.898V319.641H48.4814V316.898H56.3681ZM50.2744 313.781H53.8955V325.969C53.8955 326.406 53.9931 326.73 54.1884 326.941C54.3838 327.145 54.6963 327.246 55.1259 327.246C55.2666 327.246 55.4228 327.234 55.5947 327.211C55.7666 327.188 55.915 327.16 56.04 327.129L56.6142 329.848C56.2158 329.965 55.8291 330.051 55.4541 330.105C55.0869 330.16 54.7236 330.188 54.3642 330.188C53.0595 330.188 52.0517 329.863 51.3408 329.215C50.6298 328.559 50.2744 327.637 50.2744 326.449V313.781ZM63.2241 330.258C61.9038 330.258 60.7592 329.977 59.7905 329.414C58.8295 328.844 58.0873 328.055 57.5639 327.047C57.0483 326.031 56.7905 324.852 56.7905 323.508C56.7905 322.148 57.0483 320.965 57.5639 319.957C58.0873 318.941 58.8295 318.152 59.7905 317.59C60.7592 317.02 61.9038 316.734 63.2241 316.734C64.5522 316.734 65.6967 317.02 66.6577 317.59C67.6264 318.152 68.3686 318.941 68.8842 319.957C69.4077 320.965 69.6694 322.148 69.6694 323.508C69.6694 324.852 69.4077 326.031 68.8842 327.047C68.3686 328.055 67.6264 328.844 66.6577 329.414C65.6967 329.977 64.5522 330.258 63.2241 330.258ZM63.2475 327.422C63.8491 327.422 64.353 327.254 64.7592 326.918C65.1655 326.574 65.4702 326.105 65.6733 325.512C65.8842 324.918 65.9897 324.242 65.9897 323.484C65.9897 322.719 65.8842 322.043 65.6733 321.457C65.4702 320.871 65.1655 320.41 64.7592 320.074C64.353 319.738 63.8491 319.57 63.2475 319.57C62.6381 319.57 62.1264 319.738 61.7123 320.074C61.3061 320.41 60.9975 320.871 60.7866 321.457C60.5834 322.043 60.4819 322.719 60.4819 323.484C60.4819 324.242 60.5834 324.918 60.7866 325.512C60.9975 326.105 61.3061 326.574 61.7123 326.918C62.1264 327.254 62.6381 327.422 63.2475 327.422ZM70.7948 330V316.898H74.2284V319.23H74.3925C74.6659 318.457 75.123 317.848 75.7636 317.402C76.4042 316.957 77.1659 316.734 78.0488 316.734C78.9472 316.734 79.7089 316.961 80.3339 317.414C80.9667 317.859 81.3886 318.465 81.5995 319.23H81.7402C82.0058 318.473 82.4902 317.867 83.1933 317.414C83.8964 316.961 84.7245 316.734 85.6777 316.734C86.8964 316.734 87.8886 317.121 88.6542 317.895C89.4277 318.668 89.8144 319.766 89.8144 321.188V330H86.1816V321.914C86.1816 321.18 85.9863 320.633 85.5956 320.273C85.2128 319.914 84.7323 319.734 84.1542 319.734C83.498 319.734 82.9823 319.945 82.6073 320.367C82.2402 320.781 82.0566 321.328 82.0566 322.008V330H78.5409V321.82C78.5409 321.188 78.3573 320.684 77.9902 320.309C77.623 319.926 77.1425 319.734 76.5488 319.734C76.1425 319.734 75.7792 319.836 75.4589 320.039C75.1386 320.242 74.8847 320.523 74.6972 320.883C74.5097 321.234 74.4159 321.656 74.4159 322.148V330H70.7948ZM95.2055 330.246C94.3773 330.246 93.6312 330.102 92.9672 329.812C92.3109 329.516 91.7953 329.078 91.4203 328.5C91.0453 327.922 90.8578 327.203 90.8578 326.344C90.8578 325.609 90.9906 325 91.2562 324.516C91.5219 324.023 91.8852 323.625 92.3461 323.32C92.807 323.016 93.3305 322.785 93.9164 322.629C94.5023 322.473 95.1234 322.363 95.7797 322.301C96.5375 322.23 97.1469 322.16 97.6078 322.09C98.0687 322.02 98.4047 321.914 98.6156 321.773C98.8344 321.625 98.9437 321.414 98.9437 321.141V321.082C98.9437 320.543 98.7719 320.125 98.4281 319.828C98.0922 319.531 97.6156 319.383 96.9984 319.383C96.35 319.383 95.8305 319.527 95.4398 319.816C95.057 320.098 94.8031 320.457 94.6781 320.895L91.3148 320.625C91.4867 319.828 91.8227 319.141 92.3227 318.562C92.8227 317.977 93.4672 317.527 94.2562 317.215C95.0531 316.895 95.975 316.734 97.0219 316.734C97.7484 316.734 98.4437 316.82 99.1078 316.992C99.7719 317.164 100.362 317.43 100.877 317.789C101.401 318.141 101.815 318.598 102.12 319.16C102.424 319.723 102.577 320.391 102.577 321.164V330H99.1195V328.172H99.0258C98.8148 328.586 98.5336 328.949 98.182 329.262C97.8305 329.566 97.4086 329.809 96.9164 329.988C96.4242 330.16 95.8539 330.246 95.2055 330.246ZM96.2484 327.738C96.7797 327.738 97.2484 327.633 97.6547 327.422C98.0687 327.203 98.3891 326.914 98.6156 326.555C98.85 326.188 98.9672 325.777 98.9672 325.324V323.93C98.8578 324 98.7016 324.066 98.4984 324.129C98.3031 324.191 98.0844 324.246 97.8422 324.293C97.6 324.34 97.3578 324.383 97.1156 324.422C96.8734 324.453 96.6547 324.484 96.4594 324.516C96.0297 324.578 95.6547 324.68 95.3344 324.82C95.0141 324.953 94.7641 325.137 94.5844 325.371C94.4125 325.598 94.3266 325.883 94.3266 326.227C94.3266 326.719 94.5062 327.094 94.8656 327.352C95.225 327.609 95.6859 327.738 96.2484 327.738ZM111.167 316.898V319.641H103.28V316.898H111.167ZM105.073 313.781H108.694V325.969C108.694 326.406 108.792 326.73 108.987 326.941C109.183 327.145 109.495 327.246 109.925 327.246C110.065 327.246 110.222 327.234 110.393 327.211C110.565 327.188 110.714 327.16 110.839 327.129L111.413 329.848C111.015 329.965 110.628 330.051 110.253 330.105C109.886 330.16 109.522 330.188 109.163 330.188C107.858 330.188 106.85 329.863 106.14 329.215C105.429 328.559 105.073 327.637 105.073 326.449V313.781ZM118.093 330.258C116.749 330.258 115.589 329.984 114.613 329.438C113.636 328.891 112.886 328.113 112.363 327.105C111.847 326.09 111.589 324.891 111.589 323.508C111.589 322.164 111.847 320.984 112.363 319.969C112.886 318.953 113.62 318.16 114.566 317.59C115.519 317.02 116.636 316.734 117.917 316.734C118.785 316.734 119.593 316.875 120.343 317.156C121.093 317.43 121.749 317.844 122.312 318.398C122.874 318.945 123.312 319.637 123.624 320.473C123.937 321.301 124.093 322.273 124.093 323.391V324.375H113.031V322.137H122.335L120.648 322.723C120.648 322.059 120.546 321.48 120.343 320.988C120.14 320.496 119.835 320.117 119.429 319.852C119.031 319.578 118.535 319.441 117.941 319.441C117.347 319.441 116.843 319.578 116.429 319.852C116.023 320.125 115.71 320.496 115.492 320.965C115.273 321.434 115.163 321.973 115.163 322.582V324.164C115.163 324.875 115.288 325.484 115.538 325.992C115.788 326.492 116.136 326.879 116.581 327.152C117.035 327.418 117.554 327.551 118.14 327.551C118.546 327.551 118.913 327.492 119.242 327.375C119.57 327.258 119.851 327.086 120.085 326.859C120.327 326.633 120.507 326.359 120.624 326.039L123.976 326.262C123.812 327.066 123.468 327.77 122.945 328.371C122.429 328.965 121.761 329.43 120.941 329.766C120.12 330.094 119.171 330.258 118.093 330.258ZM129.953 330.211C128.953 330.211 128.051 329.953 127.246 329.438C126.441 328.922 125.805 328.164 125.336 327.164C124.867 326.156 124.633 324.926 124.633 323.473C124.633 321.973 124.875 320.723 125.359 319.723C125.844 318.723 126.488 317.977 127.293 317.484C128.098 316.984 128.976 316.734 129.93 316.734C130.664 316.734 131.277 316.859 131.769 317.109C132.262 317.352 132.66 317.656 132.965 318.023C133.269 318.391 133.5 318.754 133.656 319.113H133.762V312.539H137.394V330H133.82V327.902H133.656C133.492 328.262 133.254 328.621 132.941 328.98C132.629 329.332 132.226 329.625 131.734 329.859C131.25 330.094 130.656 330.211 129.953 330.211ZM131.09 327.328C131.676 327.328 132.172 327.168 132.578 326.848C132.992 326.52 133.305 326.066 133.515 325.488C133.734 324.91 133.844 324.234 133.844 323.461C133.844 322.68 133.738 322.004 133.527 321.434C133.316 320.855 133.004 320.41 132.59 320.098C132.176 319.777 131.676 319.617 131.09 319.617C130.496 319.617 129.996 319.781 129.59 320.109C129.183 320.438 128.875 320.891 128.664 321.469C128.453 322.039 128.348 322.703 128.348 323.461C128.348 324.219 128.453 324.891 128.664 325.477C128.875 326.055 129.183 326.508 129.59 326.836C130.004 327.164 130.504 327.328 131.09 327.328ZM147.321 330L142.329 312.539H146.36L149.255 324.668H149.407L152.583 312.539H156.04L159.216 324.703H159.368L162.262 312.539H166.294L161.29 330H157.692L154.387 318.586H154.247L150.93 330H147.321ZM171.65 330.258C170.329 330.258 169.185 329.977 168.216 329.414C167.255 328.844 166.513 328.055 165.99 327.047C165.474 326.031 165.216 324.852 165.216 323.508C165.216 322.148 165.474 320.965 165.99 319.957C166.513 318.941 167.255 318.152 168.216 317.59C169.185 317.02 170.329 316.734 171.65 316.734C172.978 316.734 174.122 317.02 175.083 317.59C176.052 318.152 176.794 318.941 177.31 319.957C177.833 320.965 178.095 322.148 178.095 323.508C178.095 324.852 177.833 326.031 177.31 327.047C176.794 328.055 176.052 328.844 175.083 329.414C174.122 329.977 172.978 330.258 171.65 330.258ZM171.673 327.422C172.275 327.422 172.779 327.254 173.185 326.918C173.591 326.574 173.896 326.105 174.099 325.512C174.31 324.918 174.415 324.242 174.415 323.484C174.415 322.719 174.31 322.043 174.099 321.457C173.896 320.871 173.591 320.41 173.185 320.074C172.779 319.738 172.275 319.57 171.673 319.57C171.064 319.57 170.552 319.738 170.138 320.074C169.732 320.41 169.423 320.871 169.212 321.457C169.009 322.043 168.908 322.719 168.908 323.484C168.908 324.242 169.009 324.918 169.212 325.512C169.423 326.105 169.732 326.574 170.138 326.918C170.552 327.254 171.064 327.422 171.673 327.422ZM179.22 330V316.898H182.724V319.195H182.865C183.107 318.383 183.51 317.77 184.072 317.355C184.635 316.934 185.279 316.723 186.006 316.723C186.193 316.723 186.388 316.734 186.592 316.758C186.803 316.773 186.99 316.805 187.154 316.852V320.062C186.982 320.008 186.744 319.965 186.439 319.934C186.142 319.895 185.865 319.875 185.607 319.875C185.084 319.875 184.611 319.992 184.189 320.227C183.767 320.453 183.435 320.773 183.193 321.188C182.959 321.594 182.842 322.062 182.842 322.594V330H179.22ZM191.045 326.227L191.057 321.879H191.584L195.768 316.898H199.94L194.315 323.496H193.436L191.045 326.227ZM187.764 330V312.539H191.385V330H187.764ZM195.932 330L192.088 324.305L194.502 321.727L200.186 330H195.932ZM207.534 316.898V319.641H199.46V316.898H207.534ZM201.311 330V315.949C201.311 315.004 201.495 314.219 201.862 313.594C202.237 312.969 202.745 312.5 203.385 312.188C204.034 311.875 204.768 311.719 205.589 311.719C206.151 311.719 206.663 311.766 207.124 311.859C207.592 311.945 207.936 312.02 208.155 312.082L207.522 314.801C207.374 314.762 207.198 314.723 206.995 314.684C206.792 314.645 206.577 314.625 206.35 314.625C205.819 314.625 205.448 314.75 205.237 315C205.026 315.242 204.921 315.586 204.921 316.031V330H201.311ZM212.128 312.539V330H208.507V312.539H212.128ZM219.687 330.258C218.367 330.258 217.222 329.977 216.254 329.414C215.293 328.844 214.55 328.055 214.027 327.047C213.511 326.031 213.254 324.852 213.254 323.508C213.254 322.148 213.511 320.965 214.027 319.957C214.55 318.941 215.293 318.152 216.254 317.59C217.222 317.02 218.367 316.734 219.687 316.734C221.015 316.734 222.16 317.02 223.121 317.59C224.09 318.152 224.832 318.941 225.347 319.957C225.871 320.965 226.133 322.148 226.133 323.508C226.133 324.852 225.871 326.031 225.347 327.047C224.832 328.055 224.09 328.844 223.121 329.414C222.16 329.977 221.015 330.258 219.687 330.258ZM219.711 327.422C220.312 327.422 220.816 327.254 221.222 326.918C221.629 326.574 221.933 326.105 222.136 325.512C222.347 324.918 222.453 324.242 222.453 323.484C222.453 322.719 222.347 322.043 222.136 321.457C221.933 320.871 221.629 320.41 221.222 320.074C220.816 319.738 220.312 319.57 219.711 319.57C219.101 319.57 218.59 319.738 218.175 320.074C217.769 320.41 217.461 320.871 217.25 321.457C217.047 322.043 216.945 322.719 216.945 323.484C216.945 324.242 217.047 324.918 217.25 325.512C217.461 326.105 217.769 326.574 218.175 326.918C218.59 327.254 219.101 327.422 219.711 327.422ZM229.496 330L225.934 316.898H229.613L231.641 325.711H231.758L233.879 316.898H237.477L239.621 325.652H239.738L241.731 316.898H245.399L241.836 330H238.004L235.754 321.762H235.59L233.34 330H229.496ZM256.942 320.637L253.626 320.836C253.54 320.422 253.309 320.066 252.934 319.77C252.559 319.465 252.055 319.312 251.423 319.312C250.86 319.312 250.387 319.43 250.005 319.664C249.63 319.898 249.442 320.211 249.442 320.602C249.442 320.914 249.563 321.184 249.805 321.41C250.055 321.629 250.481 321.801 251.083 321.926L253.462 322.395C254.735 322.652 255.684 323.07 256.309 323.648C256.934 324.227 257.247 324.988 257.247 325.934C257.247 326.801 256.997 327.559 256.497 328.207C255.997 328.848 255.309 329.352 254.434 329.719C253.559 330.078 252.555 330.258 251.423 330.258C249.688 330.258 248.305 329.895 247.274 329.168C246.251 328.441 245.653 327.457 245.481 326.215L249.032 326.027C249.149 326.559 249.415 326.961 249.829 327.234C250.243 327.508 250.774 327.645 251.423 327.645C252.055 327.645 252.567 327.52 252.958 327.27C253.356 327.02 253.555 326.703 253.555 326.32C253.555 325.672 252.993 325.234 251.868 325.008L249.606 324.539C248.333 324.281 247.383 323.84 246.758 323.215C246.133 322.59 245.821 321.789 245.821 320.812C245.821 319.969 246.051 319.242 246.512 318.633C246.973 318.023 247.618 317.555 248.446 317.227C249.282 316.898 250.258 316.734 251.376 316.734C253.032 316.734 254.333 317.086 255.278 317.789C256.231 318.484 256.786 319.434 256.942 320.637Z" fill="#EFEFEF"/>
<path d="M20.1709 371H18.0703L22.7812 357.904H25.0664L29.7686 371H27.6768L23.9678 360.286H23.8623L20.1709 371ZM20.5225 365.876H27.3164V367.528H20.5225V365.876ZM36.6068 366.939V361.174H38.5052V371H36.642V369.295H36.5365C36.3021 369.816 35.9388 370.253 35.4466 370.604C34.9545 370.956 34.3392 371.129 33.6009 371.123C32.9681 371.123 32.4086 370.985 31.9222 370.71C31.4418 370.435 31.0638 370.021 30.7884 369.471C30.5189 368.92 30.3841 368.237 30.3841 367.423V361.174H32.2826V367.203C32.2826 367.865 32.4701 368.396 32.8451 368.794C33.2201 369.192 33.7035 369.389 34.2953 369.383C34.6527 369.383 35.0072 369.295 35.3588 369.119C35.7162 368.943 36.0121 368.674 36.2464 368.311C36.4867 367.947 36.6068 367.49 36.6068 366.939ZM44.5437 361.174V362.712H39.1823V361.174H44.5437ZM40.615 358.836H42.5222V368.117C42.5222 368.568 42.6159 368.899 42.8034 369.11C42.9909 369.315 43.2927 369.418 43.7087 369.418C43.8083 369.418 43.9138 369.412 44.0251 369.4C44.1423 369.389 44.2595 369.371 44.3767 369.348L44.737 370.93C44.5437 370.994 44.3327 371.044 44.1042 371.079C43.8757 371.114 43.6472 371.132 43.4187 371.132C42.5691 371.132 41.8894 370.895 41.3796 370.42C40.8698 369.939 40.615 369.301 40.615 368.504V358.836ZM49.5714 371.202C48.6514 371.202 47.8458 370.991 47.1544 370.569C46.4688 370.147 45.9356 369.556 45.5548 368.794C45.1798 368.032 44.9923 367.147 44.9923 366.14C44.9923 365.12 45.1798 364.229 45.5548 363.468C45.9356 362.7 46.4688 362.105 47.1544 361.684C47.8458 361.262 48.6514 361.051 49.5714 361.051C50.4971 361.051 51.3028 361.262 51.9884 361.684C52.6739 362.105 53.2071 362.7 53.588 363.468C53.9688 364.229 54.1593 365.12 54.1593 366.14C54.1593 367.147 53.9688 368.032 53.588 368.794C53.2071 369.556 52.6739 370.147 51.9884 370.569C51.3028 370.991 50.4971 371.202 49.5714 371.202ZM49.5714 369.594C50.1749 369.594 50.6729 369.436 51.0655 369.119C51.4581 368.803 51.7481 368.384 51.9356 367.862C52.129 367.335 52.2257 366.761 52.2257 366.14C52.2257 365.507 52.129 364.927 51.9356 364.399C51.7481 363.872 51.4581 363.45 51.0655 363.134C50.6729 362.817 50.1749 362.659 49.5714 362.659C48.9737 362.659 48.4786 362.817 48.086 363.134C47.6993 363.45 47.4093 363.872 47.2159 364.399C47.0225 364.927 46.9259 365.507 46.9259 366.14C46.9259 366.761 47.0225 367.335 47.2159 367.862C47.4093 368.384 47.6993 368.803 48.086 369.119C48.4786 369.436 48.9737 369.594 49.5714 369.594ZM55.1791 371V361.174H56.9985V362.791H57.1303C57.3354 362.246 57.6694 361.821 58.1323 361.517C58.601 361.206 59.1577 361.051 59.8022 361.051C60.4584 361.051 61.0063 361.206 61.4457 361.517C61.8911 361.821 62.2221 362.246 62.4389 362.791H62.5444C62.7788 362.258 63.1508 361.836 63.6606 361.525C64.1704 361.209 64.7768 361.051 65.4799 361.051C66.3705 361.051 67.1 361.332 67.6684 361.895C68.2368 362.451 68.5209 363.292 68.5209 364.417V371H66.6049V364.593C66.6049 363.925 66.4233 363.444 66.06 363.151C65.6967 362.853 65.2631 362.703 64.7592 362.703C64.1381 362.703 63.6547 362.896 63.309 363.283C62.9692 363.664 62.7993 364.147 62.7993 364.733V371H60.8832V364.47C60.8832 363.937 60.7192 363.509 60.3911 363.187C60.0629 362.864 59.6323 362.703 59.0991 362.703C58.7358 362.703 58.3989 362.8 58.0883 362.993C57.7836 363.181 57.5375 363.444 57.35 363.784C57.1684 364.118 57.0776 364.505 57.0776 364.944V371H55.1791ZM72.8367 371.211C72.2156 371.211 71.6531 371.097 71.1492 370.868C70.6453 370.634 70.2469 370.294 69.9539 369.849C69.6609 369.403 69.5145 368.861 69.5145 368.223C69.5145 367.666 69.6199 367.212 69.8309 366.86C70.0477 366.503 70.3377 366.219 70.701 366.008C71.0643 365.797 71.4686 365.639 71.9139 365.533C72.3592 365.428 72.8162 365.346 73.285 365.287C73.8768 365.223 74.3543 365.167 74.7176 365.12C75.0809 365.073 75.3445 365 75.5086 364.9C75.6785 364.795 75.7635 364.628 75.7635 364.399V364.355C75.7635 363.799 75.6053 363.368 75.2889 363.063C74.9783 362.759 74.5154 362.606 73.9002 362.606C73.2615 362.606 72.7547 362.747 72.3797 363.028C72.0105 363.304 71.7557 363.617 71.615 363.969L69.8133 363.556C70.0301 362.958 70.3436 362.478 70.7537 362.114C71.1697 361.745 71.6443 361.476 72.1775 361.306C72.7166 361.136 73.2791 361.051 73.865 361.051C74.2576 361.051 74.6736 361.098 75.1131 361.191C75.5525 361.279 75.9656 361.446 76.3523 361.692C76.7449 361.933 77.0643 362.278 77.3104 362.729C77.5564 363.181 77.6795 363.764 77.6795 364.479V371H75.8074V369.655H75.7371C75.6199 369.896 75.4354 370.136 75.1834 370.376C74.9373 370.616 74.6209 370.815 74.2342 370.974C73.8475 371.132 73.3816 371.211 72.8367 371.211ZM73.2498 369.682C73.783 369.682 74.2371 369.579 74.6121 369.374C74.9871 369.163 75.2742 368.888 75.4734 368.548C75.6727 368.208 75.7723 367.848 75.7723 367.467V366.192C75.702 366.257 75.5701 366.318 75.3768 366.377C75.1834 366.436 74.9637 366.485 74.7176 366.526C74.4715 366.567 74.2313 366.605 73.9969 366.641C73.7625 366.67 73.5662 366.693 73.408 366.711C73.0389 366.764 72.702 366.846 72.3973 366.957C72.0926 367.062 71.8465 367.221 71.659 367.432C71.4773 367.637 71.3865 367.909 71.3865 368.249C71.3865 368.724 71.5623 369.081 71.9139 369.321C72.2654 369.562 72.7107 369.682 73.2498 369.682ZM83.7267 361.174V362.712H78.3654V361.174H83.7267ZM79.798 358.836H81.7052V368.117C81.7052 368.568 81.799 368.899 81.9865 369.11C82.174 369.315 82.4757 369.418 82.8918 369.418C82.9914 369.418 83.0968 369.412 83.2082 369.4C83.3254 369.389 83.4425 369.371 83.5597 369.348L83.9201 370.93C83.7267 370.994 83.5158 371.044 83.2873 371.079C83.0588 371.114 82.8302 371.132 82.6017 371.132C81.7521 371.132 81.0724 370.895 80.5627 370.42C80.0529 369.939 79.798 369.301 79.798 368.504V358.836ZM88.8599 371.202C87.8989 371.202 87.0669 370.994 86.3638 370.578C85.6607 370.162 85.1187 369.576 84.7378 368.82C84.3628 368.059 84.1753 367.171 84.1753 366.157C84.1753 365.149 84.3599 364.262 84.729 363.494C85.104 362.727 85.6284 362.129 86.3023 361.701C86.982 361.268 87.7788 361.051 88.6929 361.051C89.2495 361.051 89.7886 361.142 90.3101 361.323C90.8316 361.505 91.3003 361.792 91.7163 362.185C92.1323 362.577 92.4605 363.087 92.7007 363.714C92.9468 364.341 93.0698 365.097 93.0698 365.981V366.667H85.2564V365.234H92.0855L91.1978 365.709C91.1978 365.105 91.104 364.572 90.9165 364.109C90.729 363.646 90.4478 363.286 90.0728 363.028C89.7036 362.765 89.2437 362.633 88.6929 362.633C88.1421 362.633 87.6704 362.765 87.2779 363.028C86.8911 363.292 86.5952 363.641 86.3902 364.074C86.1851 364.508 86.0825 364.982 86.0825 365.498V366.474C86.0825 367.147 86.1997 367.719 86.4341 368.188C86.6685 368.656 86.9937 369.014 87.4097 369.26C87.8316 369.506 88.3208 369.629 88.8775 369.629C89.2407 369.629 89.5689 369.576 89.8618 369.471C90.1607 369.365 90.4185 369.207 90.6353 368.996C90.8521 368.785 91.0161 368.524 91.1275 368.214L92.938 368.557C92.7915 369.084 92.5337 369.547 92.1646 369.945C91.7954 370.344 91.3296 370.654 90.7671 370.877C90.2105 371.094 89.5747 371.202 88.8599 371.202ZM102.264 361.174V362.712H96.9026V361.174H102.264ZM98.3352 358.836H100.242V368.117C100.242 368.568 100.336 368.899 100.524 369.11C100.711 369.315 101.013 369.418 101.429 369.418C101.529 369.418 101.634 369.412 101.745 369.4C101.863 369.389 101.98 369.371 102.097 369.348L102.457 370.93C102.264 370.994 102.053 371.044 101.824 371.079C101.596 371.114 101.367 371.132 101.139 371.132C100.289 371.132 99.6096 370.895 99.0998 370.42C98.5901 369.939 98.3352 369.301 98.3352 368.504V358.836ZM106.123 371.211C105.502 371.211 104.939 371.097 104.435 370.868C103.931 370.634 103.533 370.294 103.24 369.849C102.947 369.403 102.8 368.861 102.8 368.223C102.8 367.666 102.906 367.212 103.117 366.86C103.334 366.503 103.624 366.219 103.987 366.008C104.35 365.797 104.754 365.639 105.2 365.533C105.645 365.428 106.102 365.346 106.571 365.287C107.163 365.223 107.64 365.167 108.004 365.12C108.367 365.073 108.63 365 108.795 364.9C108.964 364.795 109.049 364.628 109.049 364.399V364.355C109.049 363.799 108.891 363.368 108.575 363.063C108.264 362.759 107.801 362.606 107.186 362.606C106.547 362.606 106.041 362.747 105.666 363.028C105.296 363.304 105.042 363.617 104.901 363.969L103.099 363.556C103.316 362.958 103.629 362.478 104.04 362.114C104.456 361.745 104.93 361.476 105.463 361.306C106.003 361.136 106.565 361.051 107.151 361.051C107.544 361.051 107.96 361.098 108.399 361.191C108.838 361.279 109.252 361.446 109.638 361.692C110.031 361.933 110.35 362.278 110.596 362.729C110.842 363.181 110.965 363.764 110.965 364.479V371H109.093V369.655H109.023C108.906 369.896 108.721 370.136 108.469 370.376C108.223 370.616 107.907 370.815 107.52 370.974C107.133 371.132 106.668 371.211 106.123 371.211ZM106.536 369.682C107.069 369.682 107.523 369.579 107.898 369.374C108.273 369.163 108.56 368.888 108.759 368.548C108.959 368.208 109.058 367.848 109.058 367.467V366.192C108.988 366.257 108.856 366.318 108.663 366.377C108.469 366.436 108.25 366.485 108.004 366.526C107.757 366.567 107.517 366.605 107.283 366.641C107.048 366.67 106.852 366.693 106.694 366.711C106.325 366.764 105.988 366.846 105.683 366.957C105.379 367.062 105.132 367.221 104.945 367.432C104.763 367.637 104.672 367.909 104.672 368.249C104.672 368.724 104.848 369.081 105.2 369.321C105.551 369.562 105.997 369.682 106.536 369.682ZM119.79 363.582L118.059 363.881C117.947 363.553 117.739 363.251 117.435 362.976C117.136 362.7 116.687 362.562 116.09 362.562C115.551 362.562 115.1 362.686 114.736 362.932C114.379 363.172 114.2 363.479 114.2 363.854C114.2 364.183 114.32 364.449 114.561 364.654C114.807 364.859 115.196 365.023 115.729 365.146L117.303 365.498C118.199 365.703 118.87 366.025 119.315 366.465C119.761 366.904 119.983 367.467 119.983 368.152C119.983 368.744 119.813 369.271 119.474 369.734C119.134 370.191 118.662 370.552 118.059 370.815C117.455 371.073 116.758 371.202 115.967 371.202C114.865 371.202 113.969 370.965 113.277 370.49C112.586 370.016 112.161 369.348 112.003 368.486L113.84 368.205C113.957 368.686 114.194 369.049 114.552 369.295C114.915 369.541 115.384 369.664 115.958 369.664C116.579 369.664 117.077 369.532 117.452 369.269C117.833 369.005 118.023 368.686 118.023 368.311C118.023 367.689 117.561 367.271 116.635 367.054L114.974 366.685C114.054 366.474 113.374 366.143 112.935 365.691C112.501 365.234 112.284 364.66 112.284 363.969C112.284 363.389 112.445 362.879 112.768 362.439C113.096 362 113.544 361.66 114.112 361.42C114.686 361.174 115.34 361.051 116.072 361.051C117.139 361.051 117.974 361.282 118.577 361.745C119.186 362.208 119.591 362.82 119.79 363.582ZM122.717 367.669L122.691 365.34H123.034L126.945 361.174H129.23L124.774 365.92H124.457L122.717 367.669ZM120.959 371V357.904H122.858V371H120.959ZM127.147 371L123.631 366.342L124.95 364.997L129.502 371H127.147ZM137.211 363.582L135.479 363.881C135.368 363.553 135.16 363.251 134.855 362.976C134.556 362.7 134.108 362.562 133.51 362.562C132.971 362.562 132.52 362.686 132.157 362.932C131.799 363.172 131.621 363.479 131.621 363.854C131.621 364.183 131.741 364.449 131.981 364.654C132.227 364.859 132.617 365.023 133.15 365.146L134.723 365.498C135.62 365.703 136.291 366.025 136.736 366.465C137.181 366.904 137.404 367.467 137.404 368.152C137.404 368.744 137.234 369.271 136.894 369.734C136.554 370.191 136.083 370.552 135.479 370.815C134.876 371.073 134.178 371.202 133.387 371.202C132.286 371.202 131.389 370.965 130.698 370.49C130.007 370.016 129.582 369.348 129.424 368.486L131.26 368.205C131.378 368.686 131.615 369.049 131.972 369.295C132.336 369.541 132.804 369.664 133.379 369.664C134 369.664 134.498 369.532 134.873 369.269C135.254 369.005 135.444 368.686 135.444 368.311C135.444 367.689 134.981 367.271 134.055 367.054L132.394 366.685C131.474 366.474 130.795 366.143 130.355 365.691C129.922 365.234 129.705 364.66 129.705 363.969C129.705 363.389 129.866 362.879 130.188 362.439C130.516 362 130.965 361.66 131.533 361.42C132.107 361.174 132.76 361.051 133.493 361.051C134.559 361.051 135.394 361.282 135.998 361.745C136.607 362.208 137.011 362.82 137.211 363.582ZM144.875 371.211C144.254 371.211 143.692 371.097 143.188 370.868C142.684 370.634 142.286 370.294 141.993 369.849C141.7 369.403 141.553 368.861 141.553 368.223C141.553 367.666 141.659 367.212 141.87 366.86C142.086 366.503 142.376 366.219 142.74 366.008C143.103 365.797 143.507 365.639 143.953 365.533C144.398 365.428 144.855 365.346 145.324 365.287C145.915 365.223 146.393 365.167 146.756 365.12C147.12 365.073 147.383 365 147.547 364.9C147.717 364.795 147.802 364.628 147.802 364.399V364.355C147.802 363.799 147.644 363.368 147.328 363.063C147.017 362.759 146.554 362.606 145.939 362.606C145.3 362.606 144.793 362.747 144.418 363.028C144.049 363.304 143.794 363.617 143.654 363.969L141.852 363.556C142.069 362.958 142.382 362.478 142.792 362.114C143.208 361.745 143.683 361.476 144.216 361.306C144.755 361.136 145.318 361.051 145.904 361.051C146.296 361.051 146.712 361.098 147.152 361.191C147.591 361.279 148.004 361.446 148.391 361.692C148.784 361.933 149.103 362.278 149.349 362.729C149.595 363.181 149.718 363.764 149.718 364.479V371H147.846V369.655H147.776C147.659 369.896 147.474 370.136 147.222 370.376C146.976 370.616 146.66 370.815 146.273 370.974C145.886 371.132 145.42 371.211 144.875 371.211ZM145.288 369.682C145.822 369.682 146.276 369.579 146.651 369.374C147.026 369.163 147.313 368.888 147.512 368.548C147.711 368.208 147.811 367.848 147.811 367.467V366.192C147.741 366.257 147.609 366.318 147.415 366.377C147.222 366.436 147.002 366.485 146.756 366.526C146.51 366.567 146.27 366.605 146.036 366.641C145.801 366.67 145.605 366.693 145.447 366.711C145.078 366.764 144.741 366.846 144.436 366.957C144.131 367.062 143.885 367.221 143.698 367.432C143.516 367.637 143.425 367.909 143.425 368.249C143.425 368.724 143.601 369.081 143.953 369.321C144.304 369.562 144.749 369.682 145.288 369.682ZM153.094 365.173V371H151.195V361.174H153.041V362.791H153.173C153.395 362.258 153.744 361.836 154.219 361.525C154.693 361.209 155.303 361.051 156.047 361.051C156.715 361.051 157.298 361.191 157.796 361.473C158.3 361.748 158.689 362.161 158.965 362.712C159.246 363.263 159.386 363.945 159.386 364.76V371H157.488V364.988C157.488 364.279 157.301 363.723 156.926 363.318C156.551 362.908 156.041 362.703 155.396 362.703C154.957 362.703 154.561 362.803 154.21 363.002C153.864 363.195 153.592 363.474 153.392 363.837C153.193 364.2 153.094 364.646 153.094 365.173ZM164.511 371.193C163.714 371.193 163.005 370.991 162.384 370.587C161.763 370.177 161.276 369.594 160.925 368.838C160.573 368.076 160.398 367.168 160.398 366.113C160.398 365.047 160.576 364.136 160.934 363.38C161.291 362.624 161.78 362.047 162.401 361.648C163.023 361.25 163.726 361.051 164.511 361.051C165.126 361.051 165.618 361.153 165.987 361.358C166.362 361.558 166.652 361.792 166.858 362.062C167.068 362.331 167.23 362.568 167.341 362.773H167.455V357.904H169.354V371H167.499V369.471H167.341C167.23 369.676 167.066 369.913 166.849 370.183C166.632 370.452 166.336 370.689 165.961 370.895C165.592 371.094 165.109 371.193 164.511 371.193ZM164.924 369.567C165.475 369.567 165.941 369.421 166.321 369.128C166.702 368.835 166.989 368.428 167.183 367.906C167.382 367.385 167.482 366.781 167.482 366.096C167.482 365.41 167.385 364.812 167.192 364.303C166.998 363.787 166.711 363.389 166.33 363.107C165.949 362.82 165.481 362.677 164.924 362.677C164.35 362.677 163.872 362.826 163.491 363.125C163.11 363.424 162.823 363.831 162.63 364.347C162.437 364.862 162.34 365.445 162.34 366.096C162.34 366.752 162.437 367.344 162.63 367.871C162.823 368.393 163.11 368.806 163.491 369.11C163.878 369.415 164.356 369.567 164.924 369.567ZM178.6 371.202C177.657 371.202 176.843 370.985 176.157 370.552C175.472 370.118 174.944 369.521 174.575 368.759C174.206 367.997 174.021 367.124 174.021 366.14C174.021 365.138 174.209 364.256 174.584 363.494C174.965 362.727 175.495 362.129 176.175 361.701C176.86 361.268 177.663 361.051 178.583 361.051C179.333 361.051 179.998 361.188 180.578 361.464C181.164 361.733 181.636 362.117 181.993 362.615C182.356 363.113 182.57 363.693 182.635 364.355H180.771C180.707 364.045 180.581 363.761 180.393 363.503C180.212 363.245 179.972 363.04 179.673 362.888C179.374 362.735 179.019 362.659 178.609 362.659C178.076 362.659 177.61 362.8 177.212 363.081C176.819 363.356 176.512 363.752 176.289 364.268C176.066 364.783 175.955 365.393 175.955 366.096C175.955 366.805 176.063 367.423 176.28 367.95C176.497 368.478 176.805 368.885 177.203 369.172C177.607 369.453 178.076 369.594 178.609 369.594C179.16 369.594 179.629 369.441 180.015 369.137C180.408 368.832 180.66 368.416 180.771 367.889H182.635C182.57 368.527 182.365 369.096 182.019 369.594C181.674 370.092 181.211 370.484 180.631 370.771C180.051 371.059 179.374 371.202 178.6 371.202ZM187.75 371.202C186.83 371.202 186.025 370.991 185.333 370.569C184.648 370.147 184.114 369.556 183.734 368.794C183.359 368.032 183.171 367.147 183.171 366.14C183.171 365.12 183.359 364.229 183.734 363.468C184.114 362.7 184.648 362.105 185.333 361.684C186.025 361.262 186.83 361.051 187.75 361.051C188.676 361.051 189.482 361.262 190.167 361.684C190.853 362.105 191.386 362.7 191.767 363.468C192.148 364.229 192.338 365.12 192.338 366.14C192.338 367.147 192.148 368.032 191.767 368.794C191.386 369.556 190.853 370.147 190.167 370.569C189.482 370.991 188.676 371.202 187.75 371.202ZM187.75 369.594C188.354 369.594 188.852 369.436 189.244 369.119C189.637 368.803 189.927 368.384 190.114 367.862C190.308 367.335 190.404 366.761 190.404 366.14C190.404 365.507 190.308 364.927 190.114 364.399C189.927 363.872 189.637 363.45 189.244 363.134C188.852 362.817 188.354 362.659 187.75 362.659C187.153 362.659 186.657 362.817 186.265 363.134C185.878 363.45 185.588 363.872 185.395 364.399C185.201 364.927 185.105 365.507 185.105 366.14C185.105 366.761 185.201 367.335 185.395 367.862C185.588 368.384 185.878 368.803 186.265 369.119C186.657 369.436 187.153 369.594 187.75 369.594ZM193.358 371V361.174H195.177V362.791H195.309C195.514 362.246 195.848 361.821 196.311 361.517C196.78 361.206 197.336 361.051 197.981 361.051C198.637 361.051 199.185 361.206 199.625 361.517C200.07 361.821 200.401 362.246 200.618 362.791H200.723C200.958 362.258 201.33 361.836 201.839 361.525C202.349 361.209 202.956 361.051 203.659 361.051C204.549 361.051 205.279 361.332 205.847 361.895C206.416 362.451 206.7 363.292 206.7 364.417V371H204.784V364.593C204.784 363.925 204.602 363.444 204.239 363.151C203.876 362.853 203.442 362.703 202.938 362.703C202.317 362.703 201.834 362.896 201.488 363.283C201.148 363.664 200.978 364.147 200.978 364.733V371H199.062V364.47C199.062 363.937 198.898 363.509 198.57 363.187C198.242 362.864 197.811 362.703 197.278 362.703C196.915 362.703 196.578 362.8 196.267 362.993C195.962 363.181 195.716 363.444 195.529 363.784C195.347 364.118 195.256 364.505 195.256 364.944V371H193.358ZM208.168 371V361.174H209.987V362.791H210.119C210.324 362.246 210.658 361.821 211.121 361.517C211.59 361.206 212.146 361.051 212.791 361.051C213.447 361.051 213.995 361.206 214.434 361.517C214.88 361.821 215.211 362.246 215.428 362.791H215.533C215.768 362.258 216.14 361.836 216.649 361.525C217.159 361.209 217.766 361.051 218.469 361.051C219.359 361.051 220.089 361.332 220.657 361.895C221.226 362.451 221.51 363.292 221.51 364.417V371H219.594V364.593C219.594 363.925 219.412 363.444 219.049 363.151C218.685 362.853 218.252 362.703 217.748 362.703C217.127 362.703 216.643 362.896 216.298 363.283C215.958 363.664 215.788 364.147 215.788 364.733V371H213.872V364.47C213.872 363.937 213.708 363.509 213.38 363.187C213.052 362.864 212.621 362.703 212.088 362.703C211.725 362.703 211.388 362.8 211.077 362.993C210.772 363.181 210.526 363.444 210.339 363.784C210.157 364.118 210.066 364.505 210.066 364.944V371H208.168ZM229.2 366.939V361.174H231.099V371H229.236V369.295H229.13C228.896 369.816 228.533 370.253 228.04 370.604C227.548 370.956 226.933 371.129 226.195 371.123C225.562 371.123 225.002 370.985 224.516 370.71C224.035 370.435 223.658 370.021 223.382 369.471C223.113 368.92 222.978 368.237 222.978 367.423V361.174H224.876V367.203C224.876 367.865 225.064 368.396 225.439 368.794C225.814 369.192 226.297 369.389 226.889 369.383C227.246 369.383 227.601 369.295 227.952 369.119C228.31 368.943 228.606 368.674 228.84 368.311C229.08 367.947 229.2 367.49 229.2 366.939ZM234.465 365.173V371H232.567V361.174H234.413V362.791H234.545C234.767 362.258 235.116 361.836 235.59 361.525C236.065 361.209 236.674 361.051 237.419 361.051C238.087 361.051 238.67 361.191 239.168 361.473C239.672 361.748 240.061 362.161 240.337 362.712C240.618 363.263 240.758 363.945 240.758 364.76V371H238.86V364.988C238.86 364.279 238.673 363.723 238.298 363.318C237.923 362.908 237.413 362.703 236.768 362.703C236.329 362.703 235.933 362.803 235.582 363.002C235.236 363.195 234.964 363.474 234.764 363.837C234.565 364.2 234.465 364.646 234.465 365.173ZM242.227 371V361.174H244.125V371H242.227ZM243.185 359.662C242.851 359.662 242.566 359.551 242.332 359.328C242.098 359.105 241.98 358.839 241.98 358.528C241.98 358.212 242.098 357.942 242.332 357.72C242.566 357.497 242.851 357.386 243.185 357.386C243.513 357.386 243.794 357.497 244.028 357.72C244.269 357.942 244.389 358.212 244.389 358.528C244.389 358.839 244.269 359.105 244.028 359.328C243.794 359.551 243.513 359.662 243.185 359.662ZM249.715 371.202C248.772 371.202 247.957 370.985 247.272 370.552C246.586 370.118 246.059 369.521 245.69 368.759C245.321 367.997 245.136 367.124 245.136 366.14C245.136 365.138 245.324 364.256 245.699 363.494C246.079 362.727 246.61 362.129 247.289 361.701C247.975 361.268 248.778 361.051 249.698 361.051C250.448 361.051 251.113 361.188 251.693 361.464C252.279 361.733 252.75 362.117 253.108 362.615C253.471 363.113 253.685 363.693 253.749 364.355H251.886C251.822 364.045 251.696 363.761 251.508 363.503C251.327 363.245 251.086 363.04 250.787 362.888C250.489 362.735 250.134 362.659 249.724 362.659C249.191 362.659 248.725 362.8 248.327 363.081C247.934 363.356 247.626 363.752 247.404 364.268C247.181 364.783 247.07 365.393 247.07 366.096C247.07 366.805 247.178 367.423 247.395 367.95C247.612 368.478 247.919 368.885 248.318 369.172C248.722 369.453 249.191 369.594 249.724 369.594C250.275 369.594 250.744 369.441 251.13 369.137C251.523 368.832 251.775 368.416 251.886 367.889H253.749C253.685 368.527 253.48 369.096 253.134 369.594C252.788 370.092 252.326 370.484 251.745 370.771C251.165 371.059 250.489 371.202 249.715 371.202ZM257.591 371.211C256.969 371.211 256.407 371.097 255.903 370.868C255.399 370.634 255.001 370.294 254.708 369.849C254.415 369.403 254.268 368.861 254.268 368.223C254.268 367.666 254.374 367.212 254.585 366.86C254.801 366.503 255.092 366.219 255.455 366.008C255.818 365.797 256.222 365.639 256.668 365.533C257.113 365.428 257.57 365.346 258.039 365.287C258.631 365.223 259.108 365.167 259.471 365.12C259.835 365.073 260.098 365 260.262 364.9C260.432 364.795 260.517 364.628 260.517 364.399V364.355C260.517 363.799 260.359 363.368 260.043 363.063C259.732 362.759 259.269 362.606 258.654 362.606C258.015 362.606 257.509 362.747 257.134 363.028C256.764 363.304 256.509 363.617 256.369 363.969L254.567 363.556C254.784 362.958 255.097 362.478 255.508 362.114C255.924 361.745 256.398 361.476 256.931 361.306C257.47 361.136 258.033 361.051 258.619 361.051C259.011 361.051 259.427 361.098 259.867 361.191C260.306 361.279 260.719 361.446 261.106 361.692C261.499 361.933 261.818 362.278 262.064 362.729C262.31 363.181 262.433 363.764 262.433 364.479V371H260.561V369.655H260.491C260.374 369.896 260.189 370.136 259.937 370.376C259.691 370.616 259.375 370.815 258.988 370.974C258.601 371.132 258.135 371.211 257.591 371.211ZM258.004 369.682C258.537 369.682 258.991 369.579 259.366 369.374C259.741 369.163 260.028 368.888 260.227 368.548C260.426 368.208 260.526 367.848 260.526 367.467V366.192C260.456 366.257 260.324 366.318 260.131 366.377C259.937 366.436 259.717 366.485 259.471 366.526C259.225 366.567 258.985 366.605 258.751 366.641C258.516 366.67 258.32 366.693 258.162 366.711C257.793 366.764 257.456 366.846 257.151 366.957C256.846 367.062 256.6 367.221 256.413 367.432C256.231 367.637 256.14 367.909 256.14 368.249C256.14 368.724 256.316 369.081 256.668 369.321C257.019 369.562 257.465 369.682 258.004 369.682ZM268.481 361.174V362.712H263.119V361.174H268.481ZM264.552 358.836H266.459V368.117C266.459 368.568 266.553 368.899 266.74 369.11C266.928 369.315 267.23 369.418 267.646 369.418C267.745 369.418 267.851 369.412 267.962 369.4C268.079 369.389 268.196 369.371 268.314 369.348L268.674 370.93C268.481 370.994 268.27 371.044 268.041 371.079C267.813 371.114 267.584 371.132 267.356 371.132C266.506 371.132 265.826 370.895 265.316 370.42C264.807 369.939 264.552 369.301 264.552 368.504V358.836ZM269.492 371V361.174H271.39V371H269.492ZM270.45 359.662C270.116 359.662 269.831 359.551 269.597 359.328C269.363 359.105 269.246 358.839 269.246 358.528C269.246 358.212 269.363 357.942 269.597 357.72C269.831 357.497 270.116 357.386 270.45 357.386C270.778 357.386 271.059 357.497 271.293 357.72C271.534 357.942 271.654 358.212 271.654 358.528C271.654 358.839 271.534 359.105 271.293 359.328C271.059 359.551 270.778 359.662 270.45 359.662ZM276.98 371.202C276.06 371.202 275.255 370.991 274.563 370.569C273.878 370.147 273.345 369.556 272.964 368.794C272.589 368.032 272.401 367.147 272.401 366.14C272.401 365.12 272.589 364.229 272.964 363.468C273.345 362.7 273.878 362.105 274.563 361.684C275.255 361.262 276.06 361.051 276.98 361.051C277.906 361.051 278.712 361.262 279.397 361.684C280.083 362.105 280.616 362.7 280.997 363.468C281.378 364.229 281.568 365.12 281.568 366.14C281.568 367.147 281.378 368.032 280.997 368.794C280.616 369.556 280.083 370.147 279.397 370.569C278.712 370.991 277.906 371.202 276.98 371.202ZM276.98 369.594C277.584 369.594 278.082 369.436 278.474 369.119C278.867 368.803 279.157 368.384 279.345 367.862C279.538 367.335 279.635 366.761 279.635 366.14C279.635 365.507 279.538 364.927 279.345 364.399C279.157 363.872 278.867 363.45 278.474 363.134C278.082 362.817 277.584 362.659 276.98 362.659C276.383 362.659 275.887 362.817 275.495 363.134C275.108 363.45 274.818 363.872 274.625 364.399C274.431 364.927 274.335 365.507 274.335 366.14C274.335 366.761 274.431 367.335 274.625 367.862C274.818 368.384 275.108 368.803 275.495 369.119C275.887 369.436 276.383 369.594 276.98 369.594ZM284.486 365.173V371H282.588V361.174H284.434V362.791H284.566C284.788 362.258 285.137 361.836 285.611 361.525C286.086 361.209 286.695 361.051 287.44 361.051C288.108 361.051 288.691 361.191 289.189 361.473C289.693 361.748 290.082 362.161 290.358 362.712C290.639 363.263 290.779 363.945 290.779 364.76V371H288.881V364.988C288.881 364.279 288.694 363.723 288.319 363.318C287.944 362.908 287.434 362.703 286.789 362.703C286.35 362.703 285.954 362.803 285.603 363.002C285.257 363.195 284.985 363.474 284.785 363.837C284.586 364.2 284.486 364.646 284.486 365.173ZM299.595 363.582L297.864 363.881C297.752 363.553 297.544 363.251 297.24 362.976C296.941 362.7 296.493 362.562 295.895 362.562C295.356 362.562 294.905 362.686 294.542 362.932C294.184 363.172 294.005 363.479 294.005 363.854C294.005 364.183 294.126 364.449 294.366 364.654C294.612 364.859 295.001 365.023 295.535 365.146L297.108 365.498C298.004 365.703 298.675 366.025 299.121 366.465C299.566 366.904 299.789 367.467 299.789 368.152C299.789 368.744 299.619 369.271 299.279 369.734C298.939 370.191 298.467 370.552 297.864 370.815C297.26 371.073 296.563 371.202 295.772 371.202C294.67 371.202 293.774 370.965 293.083 370.49C292.391 370.016 291.966 369.348 291.808 368.486L293.645 368.205C293.762 368.686 294 369.049 294.357 369.295C294.72 369.541 295.189 369.664 295.763 369.664C296.384 369.664 296.882 369.532 297.257 369.269C297.638 369.005 297.829 368.686 297.829 368.311C297.829 367.689 297.366 367.271 296.44 367.054L294.779 366.685C293.859 366.474 293.179 366.143 292.74 365.691C292.306 365.234 292.089 364.66 292.089 363.969C292.089 363.389 292.251 362.879 292.573 362.439C292.901 362 293.349 361.66 293.918 361.42C294.492 361.174 295.145 361.051 295.877 361.051C296.944 361.051 297.779 361.282 298.382 361.745C298.992 362.208 299.396 362.82 299.595 363.582ZM308.983 361.174V362.712H303.621V361.174H308.983ZM305.054 358.836H306.961V368.117C306.961 368.568 307.055 368.899 307.242 369.11C307.43 369.315 307.732 369.418 308.148 369.418C308.247 369.418 308.353 369.412 308.464 369.4C308.581 369.389 308.698 369.371 308.816 369.348L309.176 370.93C308.983 370.994 308.772 371.044 308.543 371.079C308.315 371.114 308.086 371.132 307.858 371.132C307.008 371.132 306.328 370.895 305.819 370.42C305.309 369.939 305.054 369.301 305.054 368.504V358.836ZM314.01 371.202C313.09 371.202 312.285 370.991 311.593 370.569C310.908 370.147 310.375 369.556 309.994 368.794C309.619 368.032 309.431 367.147 309.431 366.14C309.431 365.12 309.619 364.229 309.994 363.468C310.375 362.7 310.908 362.105 311.593 361.684C312.285 361.262 313.09 361.051 314.01 361.051C314.936 361.051 315.742 361.262 316.427 361.684C317.113 362.105 317.646 362.7 318.027 363.468C318.408 364.229 318.598 365.12 318.598 366.14C318.598 367.147 318.408 368.032 318.027 368.794C317.646 369.556 317.113 370.147 316.427 370.569C315.742 370.991 314.936 371.202 314.01 371.202ZM314.01 369.594C314.614 369.594 315.112 369.436 315.504 369.119C315.897 368.803 316.187 368.384 316.375 367.862C316.568 367.335 316.665 366.761 316.665 366.14C316.665 365.507 316.568 364.927 316.375 364.399C316.187 363.872 315.897 363.45 315.504 363.134C315.112 362.817 314.614 362.659 314.01 362.659C313.413 362.659 312.918 362.817 312.525 363.134C312.138 363.45 311.848 363.872 311.655 364.399C311.462 364.927 311.365 365.507 311.365 366.14C311.365 366.761 311.462 367.335 311.655 367.862C311.848 368.384 312.138 368.803 312.525 369.119C312.918 369.436 313.413 369.594 314.01 369.594ZM328.109 371.193C327.517 371.193 327.031 371.094 326.65 370.895C326.275 370.689 325.979 370.452 325.762 370.183C325.551 369.913 325.387 369.676 325.27 369.471H325.112V371H323.266V357.904H325.164V362.773H325.27C325.387 362.568 325.548 362.331 325.753 362.062C325.964 361.792 326.257 361.558 326.632 361.358C327.007 361.153 327.496 361.051 328.1 361.051C328.891 361.051 329.594 361.25 330.209 361.648C330.83 362.047 331.32 362.624 331.677 363.38C332.034 364.136 332.213 365.047 332.213 366.113C332.213 367.168 332.037 368.076 331.686 368.838C331.334 369.594 330.848 370.177 330.227 370.587C329.612 370.991 328.906 371.193 328.109 371.193ZM327.696 369.567C328.264 369.567 328.739 369.415 329.119 369.11C329.5 368.806 329.787 368.393 329.981 367.871C330.18 367.344 330.28 366.752 330.28 366.096C330.28 365.445 330.183 364.862 329.99 364.347C329.796 363.831 329.509 363.424 329.128 363.125C328.747 362.826 328.27 362.677 327.696 362.677C327.139 362.677 326.67 362.82 326.289 363.107C325.909 363.389 325.618 363.787 325.419 364.303C325.226 364.812 325.129 365.41 325.129 366.096C325.129 366.781 325.229 367.385 325.428 367.906C325.627 368.428 325.917 368.835 326.298 369.128C326.685 369.421 327.151 369.567 327.696 369.567ZM337.364 371.202C336.444 371.202 335.638 370.991 334.947 370.569C334.261 370.147 333.728 369.556 333.347 368.794C332.972 368.032 332.785 367.147 332.785 366.14C332.785 365.12 332.972 364.229 333.347 363.468C333.728 362.7 334.261 362.105 334.947 361.684C335.638 361.262 336.444 361.051 337.364 361.051C338.29 361.051 339.095 361.262 339.781 361.684C340.466 362.105 341 362.7 341.381 363.468C341.761 364.229 341.952 365.12 341.952 366.14C341.952 367.147 341.761 368.032 341.381 368.794C341 369.556 340.466 370.147 339.781 370.569C339.095 370.991 338.29 371.202 337.364 371.202ZM337.364 369.594C337.967 369.594 338.466 369.436 338.858 369.119C339.251 368.803 339.541 368.384 339.728 367.862C339.922 367.335 340.018 366.761 340.018 366.14C340.018 365.507 339.922 364.927 339.728 364.399C339.541 363.872 339.251 363.45 338.858 363.134C338.466 362.817 337.967 362.659 337.364 362.659C336.766 362.659 336.271 362.817 335.879 363.134C335.492 363.45 335.202 363.872 335.008 364.399C334.815 364.927 334.718 365.507 334.718 366.14C334.718 366.761 334.815 367.335 335.008 367.862C335.202 368.384 335.492 368.803 335.879 369.119C336.271 369.436 336.766 369.594 337.364 369.594ZM347.094 371.202C346.174 371.202 345.368 370.991 344.677 370.569C343.991 370.147 343.458 369.556 343.077 368.794C342.702 368.032 342.515 367.147 342.515 366.14C342.515 365.12 342.702 364.229 343.077 363.468C343.458 362.7 343.991 362.105 344.677 361.684C345.368 361.262 346.174 361.051 347.094 361.051C348.02 361.051 348.825 361.262 349.511 361.684C350.196 362.105 350.73 362.7 351.11 363.468C351.491 364.229 351.682 365.12 351.682 366.14C351.682 367.147 351.491 368.032 351.11 368.794C350.73 369.556 350.196 370.147 349.511 370.569C348.825 370.991 348.02 371.202 347.094 371.202ZM347.094 369.594C347.697 369.594 348.195 369.436 348.588 369.119C348.98 368.803 349.271 368.384 349.458 367.862C349.651 367.335 349.748 366.761 349.748 366.14C349.748 365.507 349.651 364.927 349.458 364.399C349.271 363.872 348.98 363.45 348.588 363.134C348.195 362.817 347.697 362.659 347.094 362.659C346.496 362.659 346.001 362.817 345.608 363.134C345.222 363.45 344.932 363.872 344.738 364.399C344.545 364.927 344.448 365.507 344.448 366.14C344.448 366.761 344.545 367.335 344.738 367.862C344.932 368.384 345.222 368.803 345.608 369.119C346.001 369.436 346.496 369.594 347.094 369.594ZM360.049 363.582L358.318 363.881C358.206 363.553 357.998 363.251 357.694 362.976C357.395 362.7 356.947 362.562 356.349 362.562C355.81 362.562 355.359 362.686 354.996 362.932C354.638 363.172 354.459 363.479 354.459 363.854C354.459 364.183 354.579 364.449 354.82 364.654C355.066 364.859 355.455 365.023 355.989 365.146L357.562 365.498C358.458 365.703 359.129 366.025 359.575 366.465C360.02 366.904 360.243 367.467 360.243 368.152C360.243 368.744 360.073 369.271 359.733 369.734C359.393 370.191 358.921 370.552 358.318 370.815C357.714 371.073 357.017 371.202 356.226 371.202C355.124 371.202 354.228 370.965 353.537 370.49C352.845 370.016 352.42 369.348 352.262 368.486L354.099 368.205C354.216 368.686 354.454 369.049 354.811 369.295C355.174 369.541 355.643 369.664 356.217 369.664C356.838 369.664 357.336 369.532 357.711 369.269C358.092 369.005 358.283 368.686 358.283 368.311C358.283 367.689 357.82 367.271 356.894 367.054L355.233 366.685C354.313 366.474 353.633 366.143 353.194 365.691C352.76 365.234 352.543 364.66 352.543 363.969C352.543 363.389 352.704 362.879 353.027 362.439C353.355 362 353.803 361.66 354.371 361.42C354.946 361.174 355.599 361.051 356.331 361.051C357.398 361.051 358.233 361.282 358.836 361.745C359.446 362.208 359.85 362.82 360.049 363.582ZM365.789 361.174V362.712H360.427V361.174H365.789ZM361.86 358.836H363.767V368.117C363.767 368.568 363.861 368.899 364.049 369.11C364.236 369.315 364.538 369.418 364.954 369.418C365.053 369.418 365.159 369.412 365.27 369.4C365.387 369.389 365.505 369.371 365.622 369.348L365.982 370.93C365.789 370.994 365.578 371.044 365.349 371.079C365.121 371.114 364.892 371.132 364.664 371.132C363.814 371.132 363.135 370.895 362.625 370.42C362.115 369.939 361.86 369.301 361.86 368.504V358.836ZM26.2617 388.582L24.5303 388.881C24.4189 388.553 24.2109 388.251 23.9062 387.976C23.6074 387.7 23.1592 387.562 22.5615 387.562C22.0225 387.562 21.5713 387.686 21.208 387.932C20.8506 388.172 20.6719 388.479 20.6719 388.854C20.6719 389.183 20.792 389.449 21.0322 389.654C21.2783 389.859 21.668 390.023 22.2012 390.146L23.7744 390.498C24.6709 390.703 25.3418 391.025 25.7871 391.465C26.2324 391.904 26.4551 392.467 26.4551 393.152C26.4551 393.744 26.2852 394.271 25.9453 394.734C25.6055 395.191 25.1338 395.552 24.5303 395.815C23.9268 396.073 23.2295 396.202 22.4385 396.202C21.3369 396.202 20.4404 395.965 19.749 395.49C19.0576 395.016 18.6328 394.348 18.4746 393.486L20.3115 393.205C20.4287 393.686 20.666 394.049 21.0234 394.295C21.3867 394.541 21.8555 394.664 22.4297 394.664C23.0508 394.664 23.5488 394.532 23.9238 394.269C24.3047 394.005 24.4951 393.686 24.4951 393.311C24.4951 392.689 24.0322 392.271 23.1064 392.054L21.4453 391.685C20.5254 391.474 19.8457 391.143 19.4062 390.691C18.9727 390.234 18.7559 389.66 18.7559 388.969C18.7559 388.389 18.917 387.879 19.2393 387.439C19.5674 387 20.0156 386.66 20.584 386.42C21.1582 386.174 21.8115 386.051 22.5439 386.051C23.6104 386.051 24.4453 386.282 25.0488 386.745C25.6582 387.208 26.0625 387.82 26.2617 388.582ZM27.431 399.674V386.174H29.2767V387.773H29.4349C29.5521 387.568 29.7132 387.331 29.9183 387.062C30.1293 386.792 30.4222 386.558 30.7972 386.358C31.1722 386.153 31.6615 386.051 32.265 386.051C33.056 386.051 33.7591 386.25 34.3744 386.648C34.9955 387.047 35.4847 387.624 35.8421 388.38C36.1996 389.136 36.3783 390.047 36.3783 391.113C36.3783 392.168 36.2025 393.076 35.8509 393.838C35.4994 394.594 35.013 395.177 34.392 395.587C33.7767 395.991 33.0707 396.193 32.2738 396.193C31.682 396.193 31.1957 396.094 30.8148 395.895C30.4398 395.689 30.1439 395.452 29.9271 395.183C29.7162 394.913 29.5521 394.676 29.4349 394.471H29.3295V399.674H27.431ZM31.8607 394.567C32.4291 394.567 32.9037 394.415 33.2845 394.11C33.6654 393.806 33.9525 393.393 34.1459 392.871C34.3451 392.344 34.4447 391.752 34.4447 391.096C34.4447 390.445 34.348 389.862 34.1546 389.347C33.9613 388.831 33.6742 388.424 33.2933 388.125C32.9125 387.826 32.4349 387.677 31.8607 387.677C31.3041 387.677 30.8353 387.82 30.4545 388.107C30.0736 388.389 29.7836 388.787 29.5843 389.303C29.391 389.812 29.2943 390.41 29.2943 391.096C29.2943 391.781 29.3939 392.385 29.5931 392.906C29.7923 393.428 30.0824 393.835 30.4632 394.128C30.85 394.421 31.3158 394.567 31.8607 394.567ZM41.6345 396.202C40.6736 396.202 39.8415 395.994 39.1384 395.578C38.4353 395.162 37.8933 394.576 37.5124 393.82C37.1374 393.059 36.9499 392.171 36.9499 391.157C36.9499 390.149 37.1345 389.262 37.5036 388.494C37.8786 387.727 38.403 387.129 39.0769 386.701C39.7566 386.268 40.5534 386.051 41.4675 386.051C42.0241 386.051 42.5632 386.142 43.0847 386.323C43.6062 386.505 44.0749 386.792 44.4909 387.185C44.907 387.577 45.2351 388.087 45.4753 388.714C45.7214 389.341 45.8445 390.097 45.8445 390.981V391.667H38.031V390.234H44.8601L43.9724 390.709C43.9724 390.105 43.8786 389.572 43.6911 389.109C43.5036 388.646 43.2224 388.286 42.8474 388.028C42.4782 387.765 42.0183 387.633 41.4675 387.633C40.9167 387.633 40.445 387.765 40.0525 388.028C39.6657 388.292 39.3698 388.641 39.1648 389.074C38.9597 389.508 38.8571 389.982 38.8571 390.498V391.474C38.8571 392.147 38.9743 392.719 39.2087 393.188C39.4431 393.656 39.7683 394.014 40.1843 394.26C40.6062 394.506 41.0954 394.629 41.6521 394.629C42.0154 394.629 42.3435 394.576 42.6364 394.471C42.9353 394.365 43.1931 394.207 43.4099 393.996C43.6267 393.785 43.7907 393.524 43.9021 393.214L45.7126 393.557C45.5661 394.084 45.3083 394.547 44.9392 394.945C44.57 395.344 44.1042 395.654 43.5417 395.877C42.9851 396.094 42.3493 396.202 41.6345 396.202ZM51.0479 396.202C50.087 396.202 49.255 395.994 48.5518 395.578C47.8487 395.162 47.3067 394.576 46.9259 393.82C46.5509 393.059 46.3634 392.171 46.3634 391.157C46.3634 390.149 46.5479 389.262 46.9171 388.494C47.2921 387.727 47.8165 387.129 48.4903 386.701C49.17 386.268 49.9669 386.051 50.8809 386.051C51.4376 386.051 51.9766 386.142 52.4981 386.323C53.0196 386.505 53.4884 386.792 53.9044 387.185C54.3204 387.577 54.6485 388.087 54.8888 388.714C55.1348 389.341 55.2579 390.097 55.2579 390.981V391.667H47.4444V390.234H54.2735L53.3858 390.709C53.3858 390.105 53.2921 389.572 53.1046 389.109C52.9171 388.646 52.6358 388.286 52.2608 388.028C51.8917 387.765 51.4317 387.633 50.8809 387.633C50.3302 387.633 49.8585 387.765 49.4659 388.028C49.0792 388.292 48.7833 388.641 48.5782 389.074C48.3731 389.508 48.2706 389.982 48.2706 390.498V391.474C48.2706 392.147 48.3878 392.719 48.6221 393.188C48.8565 393.656 49.1817 394.014 49.5977 394.26C50.0196 394.506 50.5089 394.629 51.0655 394.629C51.4288 394.629 51.7569 394.576 52.0499 394.471C52.3487 394.365 52.6065 394.207 52.8233 393.996C53.0401 393.785 53.2042 393.524 53.3155 393.214L55.1261 393.557C54.9796 394.084 54.7218 394.547 54.3526 394.945C53.9835 395.344 53.5177 395.654 52.9552 395.877C52.3985 396.094 51.7628 396.202 51.0479 396.202ZM59.8901 396.193C59.0932 396.193 58.3842 395.991 57.7631 395.587C57.142 395.177 56.6557 394.594 56.3041 393.838C55.9526 393.076 55.7768 392.168 55.7768 391.113C55.7768 390.047 55.9555 389.136 56.3129 388.38C56.6704 387.624 57.1596 387.047 57.7807 386.648C58.4018 386.25 59.1049 386.051 59.8901 386.051C60.5053 386.051 60.9975 386.153 61.3666 386.358C61.7416 386.558 62.0317 386.792 62.2368 387.062C62.4477 387.331 62.6088 387.568 62.7202 387.773H62.8344V382.904H64.7329V396H62.8784V394.471H62.7202C62.6088 394.676 62.4448 394.913 62.228 395.183C62.0112 395.452 61.7153 395.689 61.3403 395.895C60.9711 396.094 60.4877 396.193 59.8901 396.193ZM60.3032 394.567C60.8539 394.567 61.3198 394.421 61.7006 394.128C62.0815 393.835 62.3686 393.428 62.562 392.906C62.7612 392.385 62.8608 391.781 62.8608 391.096C62.8608 390.41 62.7641 389.812 62.5707 389.303C62.3774 388.787 62.0903 388.389 61.7094 388.107C61.3286 387.82 60.8598 387.677 60.3032 387.677C59.7289 387.677 59.2514 387.826 58.8705 388.125C58.4897 388.424 58.2026 388.831 58.0092 389.347C57.8159 389.862 57.7192 390.445 57.7192 391.096C57.7192 391.752 57.8159 392.344 58.0092 392.871C58.2026 393.393 58.4897 393.806 58.8705 394.11C59.2573 394.415 59.7348 394.567 60.3032 394.567ZM72.7052 396.211C72.0841 396.211 71.5216 396.097 71.0177 395.868C70.5138 395.634 70.1154 395.294 69.8224 394.849C69.5295 394.403 69.383 393.861 69.383 393.223C69.383 392.666 69.4884 392.212 69.6994 391.86C69.9162 391.503 70.2062 391.219 70.5695 391.008C70.9328 390.797 71.3371 390.639 71.7824 390.533C72.2277 390.428 72.6847 390.346 73.1535 390.287C73.7453 390.223 74.2228 390.167 74.5861 390.12C74.9494 390.073 75.213 390 75.3771 389.9C75.547 389.795 75.632 389.628 75.632 389.399V389.355C75.632 388.799 75.4738 388.368 75.1574 388.063C74.8468 387.759 74.3839 387.606 73.7687 387.606C73.13 387.606 72.6232 387.747 72.2482 388.028C71.8791 388.304 71.6242 388.617 71.4836 388.969L69.6818 388.556C69.8986 387.958 70.2121 387.478 70.6222 387.114C71.0382 386.745 71.5129 386.476 72.0461 386.306C72.5851 386.136 73.1476 386.051 73.7336 386.051C74.1261 386.051 74.5421 386.098 74.9816 386.191C75.4211 386.279 75.8341 386.446 76.2209 386.692C76.6134 386.933 76.9328 387.278 77.1789 387.729C77.425 388.181 77.548 388.764 77.548 389.479V396H75.6759V394.655H75.6056C75.4884 394.896 75.3039 395.136 75.0519 395.376C74.8058 395.616 74.4894 395.815 74.1027 395.974C73.716 396.132 73.2502 396.211 72.7052 396.211ZM73.1183 394.682C73.6515 394.682 74.1056 394.579 74.4806 394.374C74.8556 394.163 75.1427 393.888 75.342 393.548C75.5412 393.208 75.6408 392.848 75.6408 392.467V391.192C75.5705 391.257 75.4386 391.318 75.2453 391.377C75.0519 391.436 74.8322 391.485 74.5861 391.526C74.34 391.567 74.0998 391.605 73.8654 391.641C73.631 391.67 73.4347 391.693 73.2765 391.711C72.9074 391.764 72.5705 391.846 72.2658 391.957C71.9611 392.062 71.715 392.221 71.5275 392.432C71.3459 392.637 71.255 392.909 71.255 393.249C71.255 393.724 71.4308 394.081 71.7824 394.321C72.1339 394.562 72.5793 394.682 73.1183 394.682ZM80.9234 390.173V396H79.0249V386.174H80.8706V387.791H81.0025C81.2251 387.258 81.5737 386.836 82.0484 386.525C82.523 386.209 83.1323 386.051 83.8765 386.051C84.5445 386.051 85.1275 386.191 85.6255 386.473C86.1294 386.748 86.5191 387.161 86.7945 387.712C87.0757 388.263 87.2163 388.945 87.2163 389.76V396H85.3179V389.988C85.3179 389.279 85.1304 388.723 84.7554 388.318C84.3804 387.908 83.8706 387.703 83.2261 387.703C82.7866 387.703 82.3911 387.803 82.0396 388.002C81.6939 388.195 81.4214 388.474 81.2222 388.837C81.023 389.2 80.9234 389.646 80.9234 390.173ZM92.3407 396.193C91.5438 396.193 90.8348 395.991 90.2138 395.587C89.5927 395.177 89.1063 394.594 88.7548 393.838C88.4032 393.076 88.2274 392.168 88.2274 391.113C88.2274 390.047 88.4061 389.136 88.7636 388.38C89.121 387.624 89.6102 387.047 90.2313 386.648C90.8524 386.25 91.5555 386.051 92.3407 386.051C92.9559 386.051 93.4481 386.153 93.8173 386.358C94.1923 386.558 94.4823 386.792 94.6874 387.062C94.8983 387.331 95.0595 387.568 95.1708 387.773H95.285V382.904H97.1835V396H95.329V394.471H95.1708C95.0595 394.676 94.8954 394.913 94.6786 395.183C94.4618 395.452 94.1659 395.689 93.7909 395.895C93.4218 396.094 92.9384 396.193 92.3407 396.193ZM92.7538 394.567C93.3046 394.567 93.7704 394.421 94.1513 394.128C94.5321 393.835 94.8192 393.428 95.0126 392.906C95.2118 392.385 95.3114 391.781 95.3114 391.096C95.3114 390.41 95.2147 389.812 95.0214 389.303C94.828 388.787 94.5409 388.389 94.16 388.107C93.7792 387.82 93.3104 387.677 92.7538 387.677C92.1796 387.677 91.702 387.826 91.3212 388.125C90.9403 388.424 90.6532 388.831 90.4598 389.347C90.2665 389.862 90.1698 390.445 90.1698 391.096C90.1698 391.752 90.2665 392.344 90.4598 392.871C90.6532 393.393 90.9403 393.806 91.3212 394.11C91.7079 394.415 92.1854 394.567 92.7538 394.567ZM106.536 396.202C105.575 396.202 104.743 395.994 104.04 395.578C103.337 395.162 102.795 394.576 102.414 393.82C102.039 393.059 101.851 392.171 101.851 391.157C101.851 390.149 102.036 389.262 102.405 388.494C102.78 387.727 103.304 387.129 103.978 386.701C104.658 386.268 105.455 386.051 106.369 386.051C106.925 386.051 107.464 386.142 107.986 386.323C108.507 386.505 108.976 386.792 109.392 387.185C109.808 387.577 110.136 388.087 110.377 388.714C110.623 389.341 110.746 390.097 110.746 390.981V391.667H102.932V390.234H109.761L108.874 390.709C108.874 390.105 108.78 389.572 108.592 389.109C108.405 388.646 108.124 388.286 107.749 388.028C107.379 387.765 106.92 387.633 106.369 387.633C105.818 387.633 105.346 387.765 104.954 388.028C104.567 388.292 104.271 388.641 104.066 389.074C103.861 389.508 103.758 389.982 103.758 390.498V391.474C103.758 392.147 103.876 392.719 104.11 393.188C104.344 393.656 104.67 394.014 105.086 394.26C105.507 394.506 105.997 394.629 106.553 394.629C106.917 394.629 107.245 394.576 107.538 394.471C107.837 394.365 108.094 394.207 108.311 393.996C108.528 393.785 108.692 393.524 108.803 393.214L110.614 393.557C110.467 394.084 110.21 394.547 109.84 394.945C109.471 395.344 109.005 395.654 108.443 395.877C107.886 396.094 107.251 396.202 106.536 396.202ZM116.397 386.174V387.712H110.852V386.174H116.397ZM112.363 396V385.031C112.363 384.422 112.498 383.915 112.768 383.511C113.043 383.101 113.4 382.796 113.84 382.597C114.285 382.392 114.763 382.289 115.272 382.289C115.665 382.289 115.999 382.321 116.274 382.386C116.55 382.45 116.752 382.506 116.881 382.553L116.424 384.1C116.336 384.07 116.222 384.038 116.081 384.003C115.946 383.968 115.776 383.95 115.571 383.95C115.108 383.95 114.774 384.067 114.569 384.302C114.364 384.53 114.262 384.864 114.262 385.304V396H112.363ZM121.926 386.174V387.712H116.38V386.174H121.926ZM117.892 396V385.031C117.892 384.422 118.027 383.915 118.296 383.511C118.572 383.101 118.929 382.796 119.368 382.597C119.814 382.392 120.291 382.289 120.801 382.289C121.194 382.289 121.528 382.321 121.803 382.386C122.078 382.45 122.281 382.506 122.409 382.553L121.952 384.1C121.865 384.07 121.75 384.038 121.61 384.003C121.475 383.968 121.305 383.95 121.1 383.95C120.637 383.95 120.303 384.067 120.098 384.302C119.893 384.53 119.79 384.864 119.79 385.304V396H117.892ZM122.779 396V386.174H124.677V396H122.779ZM123.737 384.662C123.403 384.662 123.119 384.551 122.884 384.328C122.65 384.105 122.533 383.839 122.533 383.528C122.533 383.212 122.65 382.942 122.884 382.72C123.119 382.497 123.403 382.386 123.737 382.386C124.065 382.386 124.346 382.497 124.581 382.72C124.821 382.942 124.941 383.212 124.941 383.528C124.941 383.839 124.821 384.105 124.581 384.328C124.346 384.551 124.065 384.662 123.737 384.662ZM130.268 396.202C129.324 396.202 128.51 395.985 127.824 395.552C127.139 395.118 126.611 394.521 126.242 393.759C125.873 392.997 125.689 392.124 125.689 391.14C125.689 390.138 125.876 389.256 126.251 388.494C126.632 387.727 127.162 387.129 127.842 386.701C128.527 386.268 129.33 386.051 130.25 386.051C131 386.051 131.665 386.188 132.245 386.464C132.831 386.733 133.303 387.117 133.66 387.615C134.023 388.113 134.237 388.693 134.302 389.355H132.439C132.374 389.045 132.248 388.761 132.061 388.503C131.879 388.245 131.639 388.04 131.34 387.888C131.041 387.735 130.687 387.659 130.276 387.659C129.743 387.659 129.277 387.8 128.879 388.081C128.486 388.356 128.179 388.752 127.956 389.268C127.733 389.783 127.622 390.393 127.622 391.096C127.622 391.805 127.731 392.423 127.947 392.95C128.164 393.478 128.472 393.885 128.87 394.172C129.274 394.453 129.743 394.594 130.276 394.594C130.827 394.594 131.296 394.441 131.683 394.137C132.075 393.832 132.327 393.416 132.439 392.889H134.302C134.237 393.527 134.032 394.096 133.687 394.594C133.341 395.092 132.878 395.484 132.298 395.771C131.718 396.059 131.041 396.202 130.268 396.202ZM135.295 396V386.174H137.194V396H135.295ZM136.253 384.662C135.919 384.662 135.635 384.551 135.401 384.328C135.166 384.105 135.049 383.839 135.049 383.528C135.049 383.212 135.166 382.942 135.401 382.72C135.635 382.497 135.919 382.386 136.253 382.386C136.581 382.386 136.863 382.497 137.097 382.72C137.337 382.942 137.457 383.212 137.457 383.528C137.457 383.839 137.337 384.105 137.097 384.328C136.863 384.551 136.581 384.662 136.253 384.662ZM142.889 396.202C141.928 396.202 141.096 395.994 140.393 395.578C139.69 395.162 139.148 394.576 138.767 393.82C138.392 393.059 138.205 392.171 138.205 391.157C138.205 390.149 138.389 389.262 138.759 388.494C139.134 387.727 139.658 387.129 140.332 386.701C141.011 386.268 141.808 386.051 142.722 386.051C143.279 386.051 143.818 386.142 144.34 386.323C144.861 386.505 145.33 386.792 145.746 387.185C146.162 387.577 146.49 388.087 146.73 388.714C146.976 389.341 147.099 390.097 147.099 390.981V391.667H139.286V390.234H146.115L145.227 390.709C145.227 390.105 145.134 389.572 144.946 389.109C144.759 388.646 144.477 388.286 144.102 388.028C143.733 387.765 143.273 387.633 142.722 387.633C142.172 387.633 141.7 387.765 141.307 388.028C140.921 388.292 140.625 388.641 140.42 389.074C140.215 389.508 140.112 389.982 140.112 390.498V391.474C140.112 392.147 140.229 392.719 140.464 393.188C140.698 393.656 141.023 394.014 141.439 394.26C141.861 394.506 142.35 394.629 142.907 394.629C143.27 394.629 143.598 394.576 143.891 394.471C144.19 394.365 144.448 394.207 144.665 393.996C144.882 393.785 145.046 393.524 145.157 393.214L146.968 393.557C146.821 394.084 146.563 394.547 146.194 394.945C145.825 395.344 145.359 395.654 144.797 395.877C144.24 396.094 143.604 396.202 142.889 396.202ZM149.974 390.173V396H148.075V386.174H149.921V387.791H150.053C150.276 387.258 150.624 386.836 151.099 386.525C151.573 386.209 152.183 386.051 152.927 386.051C153.595 386.051 154.178 386.191 154.676 386.473C155.18 386.748 155.569 387.161 155.845 387.712C156.126 388.263 156.267 388.945 156.267 389.76V396H154.368V389.988C154.368 389.279 154.181 388.723 153.806 388.318C153.431 387.908 152.921 387.703 152.276 387.703C151.837 387.703 151.442 387.803 151.09 388.002C150.744 388.195 150.472 388.474 150.273 388.837C150.073 389.2 149.974 389.646 149.974 390.173ZM161.857 396.202C160.914 396.202 160.099 395.985 159.414 395.552C158.728 395.118 158.201 394.521 157.832 393.759C157.462 392.997 157.278 392.124 157.278 391.14C157.278 390.138 157.465 389.256 157.84 388.494C158.221 387.727 158.751 387.129 159.431 386.701C160.117 386.268 160.919 386.051 161.839 386.051C162.589 386.051 163.254 386.188 163.834 386.464C164.42 386.733 164.892 387.117 165.249 387.615C165.613 388.113 165.827 388.693 165.891 389.355H164.028C163.963 389.045 163.837 388.761 163.65 388.503C163.468 388.245 163.228 388.04 162.929 387.888C162.63 387.735 162.276 387.659 161.866 387.659C161.333 387.659 160.867 387.8 160.468 388.081C160.076 388.356 159.768 388.752 159.545 389.268C159.323 389.783 159.211 390.393 159.211 391.096C159.211 391.805 159.32 392.423 159.537 392.95C159.753 393.478 160.061 393.885 160.459 394.172C160.864 394.453 161.333 394.594 161.866 394.594C162.416 394.594 162.885 394.441 163.272 394.137C163.665 393.832 163.916 393.416 164.028 392.889H165.891C165.827 393.527 165.622 394.096 165.276 394.594C164.93 395.092 164.467 395.484 163.887 395.771C163.307 396.059 162.63 396.202 161.857 396.202ZM167.728 399.674C167.441 399.68 167.181 399.659 166.946 399.612C166.718 399.571 166.542 399.521 166.419 399.463L166.885 397.907L167.016 397.942C167.503 398.065 167.913 398.057 168.247 397.916C168.587 397.781 168.871 397.403 169.099 396.782L169.337 396.132L165.751 386.174H167.799L170.277 393.803H170.383L172.87 386.174H174.918L170.875 397.301C170.687 397.816 170.45 398.25 170.163 398.602C169.876 398.959 169.53 399.226 169.126 399.401C168.727 399.583 168.262 399.674 167.728 399.674ZM176.28 396.123C175.923 396.123 175.618 396 175.366 395.754C175.12 395.508 174.997 395.206 174.997 394.849C174.997 394.491 175.12 394.189 175.366 393.943C175.618 393.697 175.923 393.574 176.28 393.574C176.638 393.574 176.94 393.697 177.186 393.943C177.438 394.189 177.564 394.491 177.564 394.849C177.564 395.206 177.438 395.508 177.186 395.754C176.94 396 176.638 396.123 176.28 396.123Z" fill="#AAAAAA"/>
<rect x="84" y="41" width="86" height="38" rx="19" stroke="#40C2FF"/>
<path d="M103.61 69.3751C103.505 69.3751 103.402 69.3523 103.307 69.3081C103.212 69.264 103.128 69.1995 103.061 69.1194C102.993 69.0392 102.944 68.9453 102.917 68.8442C102.89 68.743 102.885 68.6372 102.903 68.534V68.5297L104.001 62.5001H99.7499C99.6319 62.5 99.5163 62.4666 99.4165 62.4037C99.3167 62.3407 99.2368 62.2508 99.186 62.1443C99.1351 62.0378 99.1155 61.9191 99.1293 61.8019C99.1431 61.6847 99.1898 61.5738 99.264 61.4821L107.825 50.8985C107.923 50.7748 108.058 50.6864 108.21 50.6469C108.363 50.6073 108.524 50.6188 108.669 50.6795C108.815 50.7403 108.936 50.8469 109.015 50.9832C109.094 51.1194 109.126 51.2778 109.107 51.434C109.107 51.4458 109.103 51.4571 109.101 51.4688L108 57.5001H112.25C112.368 57.5001 112.484 57.5335 112.583 57.5964C112.683 57.6594 112.763 57.7493 112.814 57.8558C112.865 57.9623 112.884 58.081 112.871 58.1982C112.857 58.3154 112.81 58.4263 112.736 58.518L104.173 69.1016C104.106 69.1866 104.021 69.2554 103.923 69.3027C103.825 69.35 103.718 69.3748 103.61 69.3751Z" fill="#EFEFEF"/>
<path d="M125.44 67.2109C124.462 67.2109 123.612 67.0586 122.892 66.7539C122.177 66.4434 121.617 66.001 121.213 65.4268C120.809 64.8525 120.583 64.1699 120.536 63.3789H122.522C122.563 63.8535 122.716 64.249 122.979 64.5654C123.249 64.876 123.598 65.1074 124.025 65.2598C124.453 65.4121 124.922 65.4883 125.432 65.4883C125.988 65.4883 126.486 65.4004 126.926 65.2246C127.365 65.0488 127.708 64.8027 127.954 64.4863C128.206 64.1641 128.332 63.7891 128.332 63.3613C128.332 62.9746 128.221 62.6582 127.998 62.4121C127.781 62.166 127.485 61.9639 127.11 61.8057C126.735 61.6416 126.313 61.498 125.845 61.375L124.307 60.9531C123.252 60.6719 122.42 60.2529 121.811 59.6963C121.201 59.1338 120.896 58.3984 120.896 57.4902C120.896 56.7344 121.099 56.0752 121.503 55.5127C121.913 54.9502 122.467 54.5137 123.164 54.2031C123.867 53.8867 124.655 53.7285 125.528 53.7285C126.419 53.7285 127.201 53.8867 127.875 54.2031C128.555 54.5137 129.091 54.9414 129.483 55.4863C129.882 56.0254 130.09 56.6436 130.107 57.3408H128.191C128.121 56.7373 127.84 56.2686 127.348 55.9346C126.861 55.6006 126.24 55.4336 125.484 55.4336C124.957 55.4336 124.494 55.5186 124.096 55.6885C123.703 55.8525 123.398 56.0811 123.182 56.374C122.971 56.667 122.865 57.0039 122.865 57.3848C122.865 57.7949 122.991 58.1289 123.243 58.3867C123.501 58.6445 123.812 58.8496 124.175 59.002C124.544 59.1484 124.898 59.2686 125.238 59.3623L126.513 59.7051C126.929 59.8105 127.356 59.9512 127.796 60.127C128.235 60.3027 128.643 60.5342 129.018 60.8213C129.398 61.1025 129.703 61.4541 129.932 61.876C130.166 62.292 130.283 62.7959 130.283 63.3877C130.283 64.1201 130.093 64.7764 129.712 65.3564C129.331 65.9307 128.78 66.3848 128.06 66.7188C127.339 67.0469 126.466 67.2109 125.44 67.2109ZM135.953 57.1738V58.7119H130.591V57.1738H135.953ZM132.024 54.8359H133.931V64.1172C133.931 64.5684 134.025 64.8994 134.212 65.1104C134.4 65.3154 134.702 65.418 135.118 65.418C135.217 65.418 135.323 65.4121 135.434 65.4004C135.551 65.3887 135.668 65.3711 135.786 65.3477L136.146 66.9297C135.953 66.9941 135.742 67.0439 135.513 67.0791C135.285 67.1143 135.056 67.1318 134.828 67.1318C133.978 67.1318 133.298 66.8945 132.788 66.4199C132.279 65.9395 132.024 65.3008 132.024 64.5039V54.8359ZM139.811 67.2109C139.19 67.2109 138.628 67.0967 138.124 66.8682C137.62 66.6338 137.221 66.2939 136.928 65.8486C136.635 65.4033 136.489 64.8613 136.489 64.2227C136.489 63.666 136.594 63.2119 136.805 62.8604C137.022 62.5029 137.312 62.2188 137.676 62.0078C138.039 61.7969 138.443 61.6387 138.888 61.5332C139.334 61.4277 139.791 61.3457 140.259 61.2871C140.851 61.2227 141.329 61.167 141.692 61.1201C142.055 61.0732 142.319 61 142.483 60.9004C142.653 60.7949 142.738 60.6279 142.738 60.3994V60.3555C142.738 59.7988 142.58 59.3682 142.263 59.0635C141.953 58.7588 141.49 58.6064 140.875 58.6064C140.236 58.6064 139.729 58.7471 139.354 59.0283C138.985 59.3037 138.73 59.6172 138.59 59.9688L136.788 59.5557C137.005 58.958 137.318 58.4775 137.728 58.1143C138.144 57.7451 138.619 57.4756 139.152 57.3057C139.691 57.1357 140.254 57.0508 140.84 57.0508C141.232 57.0508 141.648 57.0977 142.088 57.1914C142.527 57.2793 142.94 57.4463 143.327 57.6924C143.719 57.9326 144.039 58.2783 144.285 58.7295C144.531 59.1807 144.654 59.7637 144.654 60.4785V67H142.782V65.6553H142.712C142.594 65.8955 142.41 66.1357 142.158 66.376C141.912 66.6162 141.595 66.8154 141.209 66.9736C140.822 67.1318 140.356 67.2109 139.811 67.2109ZM140.224 65.6816C140.758 65.6816 141.212 65.5791 141.587 65.374C141.962 65.1631 142.249 64.8877 142.448 64.5479C142.647 64.208 142.747 63.8477 142.747 63.4668V62.1924C142.676 62.2568 142.545 62.3184 142.351 62.377C142.158 62.4355 141.938 62.4854 141.692 62.5264C141.446 62.5674 141.206 62.6055 140.971 62.6406C140.737 62.6699 140.541 62.6934 140.383 62.7109C140.013 62.7637 139.676 62.8457 139.372 62.957C139.067 63.0625 138.821 63.2207 138.634 63.4316C138.452 63.6367 138.361 63.9092 138.361 64.249C138.361 64.7236 138.537 65.0811 138.888 65.3213C139.24 65.5615 139.685 65.6816 140.224 65.6816ZM146.131 67V57.1738H147.968V58.7471H148.073C148.255 58.2197 148.571 57.8037 149.023 57.499C149.48 57.1885 149.995 57.0332 150.569 57.0332C150.687 57.0332 150.824 57.0391 150.983 57.0508C151.147 57.0566 151.278 57.0654 151.378 57.0771V58.9053C151.302 58.8818 151.164 58.8584 150.965 58.835C150.772 58.8115 150.575 58.7998 150.376 58.7998C149.925 58.7998 149.521 58.8965 149.163 59.0898C148.812 59.2773 148.533 59.5381 148.328 59.8721C148.129 60.2002 148.029 60.5811 148.029 61.0146V67H146.131ZM157.074 57.1738V58.7119H151.712V57.1738H157.074ZM153.145 54.8359H155.052V64.1172C155.052 64.5684 155.146 64.8994 155.333 65.1104C155.521 65.3154 155.823 65.418 156.239 65.418C156.338 65.418 156.444 65.4121 156.555 65.4004C156.672 65.3887 156.789 65.3711 156.907 65.3477L157.267 66.9297C157.074 66.9941 156.863 67.0439 156.634 67.0791C156.406 67.1143 156.177 67.1318 155.949 67.1318C155.099 67.1318 154.419 66.8945 153.91 66.4199C153.4 65.9395 153.145 65.3008 153.145 64.5039V54.8359Z" fill="white"/>
<g filter="url(#filter1_f_1809_1370)">
<rect x="83.5" y="40.5" width="87" height="39" rx="19.5" stroke="#40C2FF"/>
</g>
<rect x="249" y="40" width="79" height="38" rx="19" stroke="#40C2FF"/>
<path d="M261.404 54.6006V52.9043H271.547V54.6006H267.469V66H265.5V54.6006H261.404ZM271.486 66V56.1738H273.323V57.7471H273.428C273.61 57.2197 273.926 56.8037 274.377 56.499C274.834 56.1885 275.35 56.0332 275.924 56.0332C276.041 56.0332 276.179 56.0391 276.337 56.0508C276.501 56.0566 276.633 56.0654 276.733 56.0771V57.9053C276.657 57.8818 276.519 57.8584 276.32 57.835C276.126 57.8115 275.93 57.7998 275.731 57.7998C275.28 57.7998 274.875 57.8965 274.518 58.0898C274.166 58.2773 273.888 58.5381 273.683 58.8721C273.484 59.2002 273.384 59.5811 273.384 60.0146V66H271.486ZM277.296 66V56.1738H279.194V66H277.296ZM278.254 54.6621C277.92 54.6621 277.635 54.5508 277.401 54.3281C277.167 54.1055 277.05 53.8389 277.05 53.5283C277.05 53.2119 277.167 52.9424 277.401 52.7197C277.635 52.4971 277.92 52.3857 278.254 52.3857C278.582 52.3857 278.863 52.4971 279.097 52.7197C279.338 52.9424 279.458 53.2119 279.458 53.5283C279.458 53.8389 279.338 54.1055 279.097 54.3281C278.863 54.5508 278.582 54.6621 278.254 54.6621ZM284.758 69.8848C283.586 69.8848 282.663 69.665 281.989 69.2256C281.316 68.7861 280.85 68.2646 280.592 67.6611L282.227 66.9844C282.344 67.1719 282.499 67.3711 282.692 67.582C282.892 67.793 283.158 67.9717 283.492 68.1182C283.826 68.2646 284.257 68.3379 284.784 68.3379C285.505 68.3379 286.103 68.1621 286.577 67.8105C287.052 67.4648 287.289 66.9082 287.289 66.1406V64.2158H287.157C287.052 64.4209 286.891 64.6523 286.674 64.9102C286.457 65.1621 286.161 65.3818 285.786 65.5693C285.411 65.7568 284.922 65.8506 284.318 65.8506C283.545 65.8506 282.848 65.6689 282.227 65.3057C281.611 64.9365 281.119 64.3975 280.75 63.6885C280.387 62.9736 280.205 62.0947 280.205 61.0518C280.205 60.0088 280.384 59.1152 280.741 58.3711C281.105 57.6211 281.597 57.0469 282.218 56.6484C282.839 56.25 283.545 56.0508 284.336 56.0508C284.945 56.0508 285.438 56.1533 285.813 56.3584C286.193 56.5576 286.489 56.792 286.7 57.0615C286.911 57.3311 287.075 57.5684 287.192 57.7734H287.333V56.1738H289.188V66.2197C289.188 67.0635 288.991 67.7549 288.599 68.2939C288.212 68.833 287.685 69.2314 287.017 69.4893C286.349 69.7529 285.596 69.8848 284.758 69.8848ZM284.74 64.2598C285.566 64.2598 286.199 63.9756 286.639 63.4072C287.084 62.833 287.307 62.0391 287.307 61.0254C287.307 60.3633 287.21 59.7832 287.017 59.2852C286.823 58.7812 286.536 58.3887 286.155 58.1074C285.774 57.8203 285.303 57.6768 284.74 57.6768C284.166 57.6768 283.686 57.8262 283.299 58.125C282.918 58.418 282.631 58.8193 282.438 59.3291C282.244 59.833 282.148 60.3984 282.148 61.0254C282.148 61.6641 282.244 62.2295 282.438 62.7217C282.631 63.208 282.921 63.5859 283.308 63.8555C283.7 64.125 284.178 64.2598 284.74 64.2598ZM294.751 69.8848C293.58 69.8848 292.657 69.665 291.983 69.2256C291.309 68.7861 290.843 68.2646 290.585 67.6611L292.22 66.9844C292.337 67.1719 292.493 67.3711 292.686 67.582C292.885 67.793 293.152 67.9717 293.486 68.1182C293.82 68.2646 294.25 68.3379 294.778 68.3379C295.498 68.3379 296.096 68.1621 296.571 67.8105C297.045 67.4648 297.283 66.9082 297.283 66.1406V64.2158H297.151C297.045 64.4209 296.884 64.6523 296.667 64.9102C296.451 65.1621 296.155 65.3818 295.78 65.5693C295.405 65.7568 294.915 65.8506 294.312 65.8506C293.539 65.8506 292.841 65.6689 292.22 65.3057C291.605 64.9365 291.113 64.3975 290.744 63.6885C290.38 62.9736 290.199 62.0947 290.199 61.0518C290.199 60.0088 290.377 59.1152 290.735 58.3711C291.098 57.6211 291.59 57.0469 292.211 56.6484C292.832 56.25 293.539 56.0508 294.33 56.0508C294.939 56.0508 295.431 56.1533 295.806 56.3584C296.187 56.5576 296.483 56.792 296.694 57.0615C296.905 57.3311 297.069 57.5684 297.186 57.7734H297.327V56.1738H299.181V66.2197C299.181 67.0635 298.985 67.7549 298.592 68.2939C298.206 68.833 297.678 69.2314 297.01 69.4893C296.342 69.7529 295.589 69.8848 294.751 69.8848ZM294.734 64.2598C295.56 64.2598 296.193 63.9756 296.632 63.4072C297.078 62.833 297.3 62.0391 297.3 61.0254C297.3 60.3633 297.204 59.7832 297.01 59.2852C296.817 58.7812 296.53 58.3887 296.149 58.1074C295.768 57.8203 295.296 57.6768 294.734 57.6768C294.16 57.6768 293.679 57.8262 293.292 58.125C292.912 58.418 292.624 58.8193 292.431 59.3291C292.238 59.833 292.141 60.3984 292.141 61.0254C292.141 61.6641 292.238 62.2295 292.431 62.7217C292.624 63.208 292.914 63.5859 293.301 63.8555C293.694 64.125 294.171 64.2598 294.734 64.2598ZM304.877 66.2021C303.916 66.2021 303.084 65.9941 302.381 65.5781C301.678 65.1621 301.136 64.5762 300.755 63.8203C300.38 63.0586 300.192 62.1709 300.192 61.1572C300.192 60.1494 300.377 59.2617 300.746 58.4941C301.121 57.7266 301.645 57.1289 302.319 56.7012C302.999 56.2676 303.796 56.0508 304.71 56.0508C305.266 56.0508 305.805 56.1416 306.327 56.3232C306.848 56.5049 307.317 56.792 307.733 57.1846C308.149 57.5771 308.477 58.0869 308.718 58.7139C308.964 59.3408 309.087 60.0967 309.087 60.9814V61.667H301.273V60.2344H308.102L307.215 60.709C307.215 60.1055 307.121 59.5723 306.933 59.1094C306.746 58.6465 306.465 58.2861 306.09 58.0283C305.721 57.7646 305.261 57.6328 304.71 57.6328C304.159 57.6328 303.687 57.7646 303.295 58.0283C302.908 58.292 302.612 58.6406 302.407 59.0742C302.202 59.5078 302.099 59.9824 302.099 60.498V61.4736C302.099 62.1475 302.217 62.7188 302.451 63.1875C302.685 63.6562 303.011 64.0137 303.427 64.2598C303.848 64.5059 304.338 64.6289 304.894 64.6289C305.258 64.6289 305.586 64.5762 305.879 64.4707C306.178 64.3652 306.435 64.207 306.652 63.9961C306.869 63.7852 307.033 63.5244 307.144 63.2139L308.955 63.5566C308.808 64.084 308.551 64.5469 308.181 64.9453C307.812 65.3438 307.346 65.6543 306.784 65.877C306.227 66.0938 305.592 66.2021 304.877 66.2021ZM310.063 66V56.1738H311.9V57.7471H312.005C312.187 57.2197 312.503 56.8037 312.954 56.499C313.411 56.1885 313.927 56.0332 314.501 56.0332C314.618 56.0332 314.756 56.0391 314.914 56.0508C315.078 56.0566 315.21 56.0654 315.31 56.0771V57.9053C315.234 57.8818 315.096 57.8584 314.897 57.835C314.703 57.8115 314.507 57.7998 314.308 57.7998C313.857 57.7998 313.452 57.8965 313.095 58.0898C312.743 58.2773 312.465 58.5381 312.26 58.8721C312.061 59.2002 311.961 59.5811 311.961 60.0146V66H310.063Z" fill="white"/>
<g filter="url(#filter2_f_1809_1370)">
<rect x="248.5" y="39.5" width="80" height="39" rx="19.5" stroke="#40C2FF"/>
</g>
<rect x="167" y="135" width="84" height="38" rx="19" stroke="#40C2FF"/>
<path d="M181.171 161H179.07L183.781 147.904H186.066L190.769 161H188.677L184.968 150.286H184.862L181.171 161ZM181.522 155.876H188.316V157.528H181.522V155.876ZM195.348 161.202C194.405 161.202 193.59 160.985 192.905 160.552C192.219 160.118 191.692 159.521 191.323 158.759C190.953 157.997 190.769 157.124 190.769 156.14C190.769 155.138 190.956 154.256 191.331 153.494C191.712 152.727 192.243 152.129 192.922 151.701C193.608 151.268 194.411 151.051 195.33 151.051C196.08 151.051 196.745 151.188 197.326 151.464C197.911 151.733 198.383 152.117 198.741 152.615C199.104 153.113 199.318 153.693 199.382 154.355H197.519C197.454 154.045 197.328 153.761 197.141 153.503C196.959 153.245 196.719 153.04 196.42 152.888C196.121 152.735 195.767 152.659 195.357 152.659C194.824 152.659 194.358 152.8 193.959 153.081C193.567 153.356 193.259 153.752 193.036 154.268C192.814 154.783 192.703 155.393 192.703 156.096C192.703 156.805 192.811 157.423 193.028 157.95C193.244 158.478 193.552 158.885 193.951 159.172C194.355 159.453 194.824 159.594 195.357 159.594C195.908 159.594 196.376 159.441 196.763 159.137C197.156 158.832 197.408 158.416 197.519 157.889H199.382C199.318 158.527 199.113 159.096 198.767 159.594C198.421 160.092 197.958 160.484 197.378 160.771C196.798 161.059 196.121 161.202 195.348 161.202ZM204.946 151.174V152.712H199.585V151.174H204.946ZM201.017 148.836H202.925V158.117C202.925 158.568 203.018 158.899 203.206 159.11C203.393 159.315 203.695 159.418 204.111 159.418C204.211 159.418 204.316 159.412 204.427 159.4C204.545 159.389 204.662 159.371 204.779 159.348L205.139 160.93C204.946 160.994 204.735 161.044 204.507 161.079C204.278 161.114 204.05 161.132 203.821 161.132C202.971 161.132 202.292 160.895 201.782 160.42C201.272 159.939 201.017 159.301 201.017 158.504V148.836ZM205.957 161V151.174H207.856V161H205.957ZM206.915 149.662C206.581 149.662 206.297 149.551 206.063 149.328C205.828 149.105 205.711 148.839 205.711 148.528C205.711 148.212 205.828 147.942 206.063 147.72C206.297 147.497 206.581 147.386 206.915 147.386C207.243 147.386 207.524 147.497 207.759 147.72C207.999 147.942 208.119 148.212 208.119 148.528C208.119 148.839 207.999 149.105 207.759 149.328C207.524 149.551 207.243 149.662 206.915 149.662ZM213.446 161.202C212.526 161.202 211.72 160.991 211.029 160.569C210.343 160.147 209.81 159.556 209.429 158.794C209.054 158.032 208.867 157.147 208.867 156.14C208.867 155.12 209.054 154.229 209.429 153.468C209.81 152.7 210.343 152.105 211.029 151.684C211.72 151.262 212.526 151.051 213.446 151.051C214.372 151.051 215.177 151.262 215.863 151.684C216.548 152.105 217.081 152.7 217.462 153.468C217.843 154.229 218.034 155.12 218.034 156.14C218.034 157.147 217.843 158.032 217.462 158.794C217.081 159.556 216.548 160.147 215.863 160.569C215.177 160.991 214.372 161.202 213.446 161.202ZM213.446 159.594C214.049 159.594 214.547 159.436 214.94 159.119C215.332 158.803 215.622 158.384 215.81 157.862C216.003 157.335 216.1 156.761 216.1 156.14C216.1 155.507 216.003 154.927 215.81 154.399C215.622 153.872 215.332 153.45 214.94 153.134C214.547 152.817 214.049 152.659 213.446 152.659C212.848 152.659 212.353 152.817 211.96 153.134C211.574 153.45 211.284 153.872 211.09 154.399C210.897 154.927 210.8 155.507 210.8 156.14C210.8 156.761 210.897 157.335 211.09 157.862C211.284 158.384 211.574 158.803 211.96 159.119C212.353 159.436 212.848 159.594 213.446 159.594ZM220.952 155.173V161H219.054V151.174H220.899V152.791H221.031C221.254 152.258 221.602 151.836 222.077 151.525C222.552 151.209 223.161 151.051 223.905 151.051C224.573 151.051 225.156 151.191 225.654 151.473C226.158 151.748 226.548 152.161 226.823 152.712C227.104 153.263 227.245 153.945 227.245 154.76V161H225.346V154.988C225.346 154.279 225.159 153.723 224.784 153.318C224.409 152.908 223.899 152.703 223.255 152.703C222.815 152.703 222.42 152.803 222.068 153.002C221.722 153.195 221.45 153.474 221.251 153.837C221.052 154.2 220.952 154.646 220.952 155.173ZM237.054 147.904V161H235.103V149.891H235.015L231.904 151.938V150.04L235.156 147.904H237.054Z" fill="white"/>
<g filter="url(#filter3_f_1809_1370)">
<rect x="166.5" y="134.5" width="85" height="39" rx="19.5" stroke="#40C2FF"/>
</g>
<rect x="166" y="229" width="87" height="38" rx="19" stroke="#40C2FF"/>
<path d="M180.171 255H178.07L182.781 241.904H185.066L189.769 255H187.677L183.968 244.286H183.862L180.171 255ZM180.522 249.876H187.316V251.528H180.522V249.876ZM194.348 255.202C193.405 255.202 192.59 254.985 191.905 254.552C191.219 254.118 190.692 253.521 190.323 252.759C189.953 251.997 189.769 251.124 189.769 250.14C189.769 249.138 189.956 248.256 190.331 247.494C190.712 246.727 191.243 246.129 191.922 245.701C192.608 245.268 193.411 245.051 194.33 245.051C195.08 245.051 195.745 245.188 196.326 245.464C196.911 245.733 197.383 246.117 197.741 246.615C198.104 247.113 198.318 247.693 198.382 248.355H196.519C196.454 248.045 196.328 247.761 196.141 247.503C195.959 247.245 195.719 247.04 195.42 246.888C195.121 246.735 194.767 246.659 194.357 246.659C193.824 246.659 193.358 246.8 192.959 247.081C192.567 247.356 192.259 247.752 192.036 248.268C191.814 248.783 191.703 249.393 191.703 250.096C191.703 250.805 191.811 251.423 192.028 251.95C192.244 252.478 192.552 252.885 192.951 253.172C193.355 253.453 193.824 253.594 194.357 253.594C194.908 253.594 195.376 253.441 195.763 253.137C196.156 252.832 196.408 252.416 196.519 251.889H198.382C198.318 252.527 198.113 253.096 197.767 253.594C197.421 254.092 196.958 254.484 196.378 254.771C195.798 255.059 195.121 255.202 194.348 255.202ZM203.946 245.174V246.712H198.585V245.174H203.946ZM200.017 242.836H201.925V252.117C201.925 252.568 202.018 252.899 202.206 253.11C202.393 253.315 202.695 253.418 203.111 253.418C203.211 253.418 203.316 253.412 203.427 253.4C203.545 253.389 203.662 253.371 203.779 253.348L204.139 254.93C203.946 254.994 203.735 255.044 203.507 255.079C203.278 255.114 203.05 255.132 202.821 255.132C201.971 255.132 201.292 254.895 200.782 254.42C200.272 253.939 200.017 253.301 200.017 252.504V242.836ZM204.957 255V245.174H206.856V255H204.957ZM205.915 243.662C205.581 243.662 205.297 243.551 205.063 243.328C204.828 243.105 204.711 242.839 204.711 242.528C204.711 242.212 204.828 241.942 205.063 241.72C205.297 241.497 205.581 241.386 205.915 241.386C206.243 241.386 206.524 241.497 206.759 241.72C206.999 241.942 207.119 242.212 207.119 242.528C207.119 242.839 206.999 243.105 206.759 243.328C206.524 243.551 206.243 243.662 205.915 243.662ZM212.446 255.202C211.526 255.202 210.72 254.991 210.029 254.569C209.343 254.147 208.81 253.556 208.429 252.794C208.054 252.032 207.867 251.147 207.867 250.14C207.867 249.12 208.054 248.229 208.429 247.468C208.81 246.7 209.343 246.105 210.029 245.684C210.72 245.262 211.526 245.051 212.446 245.051C213.372 245.051 214.177 245.262 214.863 245.684C215.548 246.105 216.081 246.7 216.462 247.468C216.843 248.229 217.034 249.12 217.034 250.14C217.034 251.147 216.843 252.032 216.462 252.794C216.081 253.556 215.548 254.147 214.863 254.569C214.177 254.991 213.372 255.202 212.446 255.202ZM212.446 253.594C213.049 253.594 213.547 253.436 213.94 253.119C214.332 252.803 214.622 252.384 214.81 251.862C215.003 251.335 215.1 250.761 215.1 250.14C215.1 249.507 215.003 248.927 214.81 248.399C214.622 247.872 214.332 247.45 213.94 247.134C213.547 246.817 213.049 246.659 212.446 246.659C211.848 246.659 211.353 246.817 210.96 247.134C210.574 247.45 210.284 247.872 210.09 248.399C209.897 248.927 209.8 249.507 209.8 250.14C209.8 250.761 209.897 251.335 210.09 251.862C210.284 252.384 210.574 252.803 210.96 253.119C211.353 253.436 211.848 253.594 212.446 253.594ZM219.952 249.173V255H218.054V245.174H219.899V246.791H220.031C220.254 246.258 220.602 245.836 221.077 245.525C221.552 245.209 222.161 245.051 222.905 245.051C223.573 245.051 224.156 245.191 224.654 245.473C225.158 245.748 225.548 246.161 225.823 246.712C226.104 247.263 226.245 247.945 226.245 248.76V255H224.346V248.988C224.346 248.279 224.159 247.723 223.784 247.318C223.409 246.908 222.899 246.703 222.255 246.703C221.815 246.703 221.42 246.803 221.068 247.002C220.722 247.195 220.45 247.474 220.251 247.837C220.052 248.2 219.952 248.646 219.952 249.173ZM231.326 255V253.576L235.755 248.971C236.224 248.479 236.611 248.045 236.916 247.67C237.226 247.289 237.458 246.929 237.61 246.589C237.768 246.249 237.847 245.889 237.847 245.508C237.847 245.068 237.745 244.69 237.54 244.374C237.334 244.058 237.056 243.814 236.705 243.645C236.353 243.475 235.955 243.39 235.509 243.39C235.041 243.39 234.633 243.486 234.288 243.68C233.942 243.867 233.672 244.137 233.479 244.488C233.292 244.834 233.198 245.241 233.198 245.71H231.317C231.317 244.913 231.499 244.216 231.862 243.618C232.231 243.021 232.735 242.558 233.374 242.229C234.018 241.896 234.745 241.729 235.553 241.729C236.379 241.729 237.106 241.893 237.733 242.221C238.36 242.549 238.849 242.994 239.201 243.557C239.552 244.113 239.728 244.743 239.728 245.446C239.728 245.933 239.637 246.407 239.456 246.87C239.28 247.333 238.966 247.852 238.515 248.426C238.07 248.994 237.449 249.68 236.652 250.482L234.05 253.207V253.312H239.939V255H231.326Z" fill="white"/>
<g filter="url(#filter4_f_1809_1370)">
<rect x="165.5" y="228.5" width="88" height="39" rx="19.5" stroke="#40C2FF"/>
</g>
<path d="M249 60L244 57.1132V62.8868L249 60ZM170 60.5H244.5V59.5H170V60.5Z" fill="#CCCCCC"/>
<path d="M210.5 134L213.387 129H207.613L210.5 134ZM290 79V97.5H291V79H290ZM278.5 109H222.5V110H278.5V109ZM210 121.5V129.5H211V121.5H210ZM222.5 109C215.596 109 210 114.596 210 121.5H211C211 115.149 216.149 110 222.5 110V109ZM290 97.5C290 103.851 284.851 109 278.5 109V110C285.404 110 291 104.404 291 97.5H290Z" fill="#CCCCCC"/>
<path d="M210.5 228.5L213.387 223.5H207.613L210.5 228.5ZM210 174V224H211V174H210Z" fill="#CCCCCC"/>
</g>
<defs>
<filter id="filter0_f_1809_1370" x="-106" y="-141" width="482" height="482" filterUnits="userSpaceOnUse" color-interpolation-filters="sRGB">
<feFlood flood-opacity="0" result="BackgroundImageFix"/>
<feBlend mode="normal" in="SourceGraphic" in2="BackgroundImageFix" result="shape"/>
<feGaussianBlur stdDeviation="75" result="effect1_foregroundBlur_1809_1370"/>
</filter>
<filter id="filter1_f_1809_1370" x="75" y="32" width="104" height="56" filterUnits="userSpaceOnUse" color-interpolation-filters="sRGB">
<feFlood flood-opacity="0" result="BackgroundImageFix"/>
<feBlend mode="normal" in="SourceGraphic" in2="BackgroundImageFix" result="shape"/>
<feGaussianBlur stdDeviation="4" result="effect1_foregroundBlur_1809_1370"/>
</filter>
<filter id="filter2_f_1809_1370" x="240" y="31" width="97" height="56" filterUnits="userSpaceOnUse" color-interpolation-filters="sRGB">
<feFlood flood-opacity="0" result="BackgroundImageFix"/>
<feBlend mode="normal" in="SourceGraphic" in2="BackgroundImageFix" result="shape"/>
<feGaussianBlur stdDeviation="4" result="effect1_foregroundBlur_1809_1370"/>
</filter>
<filter id="filter3_f_1809_1370" x="158" y="126" width="102" height="56" filterUnits="userSpaceOnUse" color-interpolation-filters="sRGB">
<feFlood flood-opacity="0" result="BackgroundImageFix"/>
<feBlend mode="normal" in="SourceGraphic" in2="BackgroundImageFix" result="shape"/>
<feGaussianBlur stdDeviation="4" result="effect1_foregroundBlur_1809_1370"/>
</filter>
<filter id="filter4_f_1809_1370" x="157" y="220" width="105" height="56" filterUnits="userSpaceOnUse" color-interpolation-filters="sRGB">
<feFlood flood-opacity="0" result="BackgroundImageFix"/>
<feBlend mode="normal" in="SourceGraphic" in2="BackgroundImageFix" result="shape"/>
<feGaussianBlur stdDeviation="4" result="effect1_foregroundBlur_1809_1370"/>
</filter>
<clipPath id="clip0_1809_1370">
<path d="M0 64C0 41.5979 0 30.3968 4.35974 21.8404C8.19467 14.3139 14.3139 8.19467 21.8404 4.35974C30.3968 0 41.5979 0 64 0H354C376.402 0 387.603 0 396.16 4.35974C403.686 8.19467 409.805 14.3139 413.64 21.8404C418 30.3968 418 41.5979 418 64V378C418 400.402 418 411.603 413.64 420.16C409.805 427.686 403.686 433.805 396.16 437.64C387.603 442 376.402 442 354 442H64C41.5979 442 30.3968 442 21.8404 437.64C14.3139 433.805 8.19467 427.686 4.35974 420.16C0 411.603 0 400.402 0 378V64Z" fill="white"/>
</clipPath>
</defs>
</svg>
