<svg width="262" height="245" viewBox="0 0 262 245" fill="none" xmlns="http://www.w3.org/2000/svg">
<rect x="9" y="10" width="86" height="38" rx="19" stroke="#40C2FF"/>
<path d="M28.6101 38.3751C28.5054 38.3751 28.4019 38.3523 28.307 38.3081C28.212 38.264 28.1279 38.1995 28.0605 38.1194C27.9931 38.0392 27.9441 37.9453 27.9169 37.8442C27.8897 37.743 27.885 37.6372 27.9031 37.534V37.5297L29.0011 31.5001H24.7499C24.6319 31.5 24.5163 31.4666 24.4165 31.4037C24.3167 31.3407 24.2368 31.2508 24.186 31.1443C24.1351 31.0378 24.1155 30.9191 24.1293 30.8019C24.1431 30.6847 24.1898 30.5738 24.264 30.4821L32.8253 19.8985C32.9228 19.7748 33.0581 19.6864 33.2105 19.6469C33.3629 19.6073 33.5241 19.6188 33.6694 19.6795C33.8147 19.7403 33.9361 19.8469 34.015 19.9832C34.094 20.1194 34.1261 20.2778 34.1066 20.434C34.1066 20.4458 34.1034 20.4571 34.1015 20.4688L32.9995 26.5001H37.2499C37.3679 26.5001 37.4835 26.5335 37.5833 26.5964C37.6831 26.6594 37.7631 26.7493 37.8139 26.8558C37.8647 26.9623 37.8844 27.081 37.8706 27.1982C37.8568 27.3154 37.8101 27.4263 37.7359 27.518L29.1734 38.1016C29.1061 38.1866 29.0205 38.2554 28.923 38.3027C28.8254 38.35 28.7185 38.3748 28.6101 38.3751Z" fill="#EFEFEF"/>
<path d="M50.4404 36.2109C49.4619 36.2109 48.6123 36.0586 47.8916 35.7539C47.1768 35.4434 46.6172 35.001 46.2129 34.4268C45.8086 33.8525 45.583 33.1699 45.5361 32.3789H47.5225C47.5635 32.8535 47.7158 33.249 47.9795 33.5654C48.249 33.876 48.5977 34.1074 49.0254 34.2598C49.4531 34.4121 49.9219 34.4883 50.4316 34.4883C50.9883 34.4883 51.4863 34.4004 51.9258 34.2246C52.3652 34.0488 52.708 33.8027 52.9541 33.4863C53.2061 33.1641 53.332 32.7891 53.332 32.3613C53.332 31.9746 53.2207 31.6582 52.998 31.4121C52.7812 31.166 52.4854 30.9639 52.1104 30.8057C51.7354 30.6416 51.3135 30.498 50.8447 30.375L49.3066 29.9531C48.252 29.6719 47.4199 29.2529 46.8105 28.6963C46.2012 28.1338 45.8965 27.3984 45.8965 26.4902C45.8965 25.7344 46.0986 25.0752 46.5029 24.5127C46.9131 23.9502 47.4668 23.5137 48.1641 23.2031C48.8672 22.8867 49.6553 22.7285 50.5283 22.7285C51.4189 22.7285 52.2012 22.8867 52.875 23.2031C53.5547 23.5137 54.0908 23.9414 54.4834 24.4863C54.8818 25.0254 55.0898 25.6436 55.1074 26.3408H53.1914C53.1211 25.7373 52.8398 25.2686 52.3477 24.9346C51.8613 24.6006 51.2402 24.4336 50.4844 24.4336C49.957 24.4336 49.4941 24.5186 49.0957 24.6885C48.7031 24.8525 48.3984 25.0811 48.1816 25.374C47.9707 25.667 47.8652 26.0039 47.8652 26.3848C47.8652 26.7949 47.9912 27.1289 48.2432 27.3867C48.501 27.6445 48.8115 27.8496 49.1748 28.002C49.5439 28.1484 49.8984 28.2686 50.2383 28.3623L51.5127 28.7051C51.9287 28.8105 52.3564 28.9512 52.7959 29.127C53.2354 29.3027 53.6426 29.5342 54.0176 29.8213C54.3984 30.1025 54.7031 30.4541 54.9316 30.876C55.166 31.292 55.2832 31.7959 55.2832 32.3877C55.2832 33.1201 55.0928 33.7764 54.7119 34.3564C54.3311 34.9307 53.7803 35.3848 53.0596 35.7188C52.3389 36.0469 51.4658 36.2109 50.4404 36.2109ZM60.9525 26.1738V27.7119H55.5912V26.1738H60.9525ZM57.0238 23.8359H58.931V33.1172C58.931 33.5684 59.0248 33.8994 59.2123 34.1104C59.3998 34.3154 59.7015 34.418 60.1175 34.418C60.2171 34.418 60.3226 34.4121 60.4339 34.4004C60.5511 34.3887 60.6683 34.3711 60.7855 34.3477L61.1459 35.9297C60.9525 35.9941 60.7416 36.0439 60.513 36.0791C60.2845 36.1143 60.056 36.1318 59.8275 36.1318C58.9779 36.1318 58.2982 35.8945 57.7884 35.4199C57.2787 34.9395 57.0238 34.3008 57.0238 33.5039V23.8359ZM64.8113 36.2109C64.1902 36.2109 63.6277 36.0967 63.1238 35.8682C62.6198 35.6338 62.2214 35.2939 61.9284 34.8486C61.6355 34.4033 61.489 33.8613 61.489 33.2227C61.489 32.666 61.5945 32.2119 61.8054 31.8604C62.0222 31.5029 62.3122 31.2188 62.6755 31.0078C63.0388 30.7969 63.4431 30.6387 63.8884 30.5332C64.3337 30.4277 64.7907 30.3457 65.2595 30.2871C65.8513 30.2227 66.3288 30.167 66.6921 30.1201C67.0554 30.0732 67.3191 30 67.4831 29.9004C67.653 29.7949 67.738 29.6279 67.738 29.3994V29.3555C67.738 28.7988 67.5798 28.3682 67.2634 28.0635C66.9529 27.7588 66.49 27.6064 65.8747 27.6064C65.2361 27.6064 64.7292 27.7471 64.3542 28.0283C63.9851 28.3037 63.7302 28.6172 63.5896 28.9688L61.7878 28.5557C62.0046 27.958 62.3181 27.4775 62.7282 27.1143C63.1443 26.7451 63.6189 26.4756 64.1521 26.3057C64.6911 26.1357 65.2536 26.0508 65.8396 26.0508C66.2321 26.0508 66.6482 26.0977 67.0876 26.1914C67.5271 26.2793 67.9402 26.4463 68.3269 26.6924C68.7195 26.9326 69.0388 27.2783 69.2849 27.7295C69.531 28.1807 69.654 28.7637 69.654 29.4785V36H67.782V34.6553H67.7116C67.5945 34.8955 67.4099 35.1357 67.1579 35.376C66.9118 35.6162 66.5954 35.8154 66.2087 35.9736C65.822 36.1318 65.3562 36.2109 64.8113 36.2109ZM65.2243 34.6816C65.7575 34.6816 66.2116 34.5791 66.5866 34.374C66.9616 34.1631 67.2488 33.8877 67.448 33.5479C67.6472 33.208 67.7468 32.8477 67.7468 32.4668V31.1924C67.6765 31.2568 67.5446 31.3184 67.3513 31.377C67.1579 31.4355 66.9382 31.4854 66.6921 31.5264C66.446 31.5674 66.2058 31.6055 65.9714 31.6406C65.737 31.6699 65.5407 31.6934 65.3825 31.7109C65.0134 31.7637 64.6765 31.8457 64.3718 31.957C64.0671 32.0625 63.821 32.2207 63.6335 32.4316C63.4519 32.6367 63.3611 32.9092 63.3611 33.249C63.3611 33.7236 63.5368 34.0811 63.8884 34.3213C64.24 34.5615 64.6853 34.6816 65.2243 34.6816ZM71.1309 36V26.1738H72.9679V27.7471H73.0733C73.255 27.2197 73.5714 26.8037 74.0225 26.499C74.4796 26.1885 74.9952 26.0332 75.5694 26.0332C75.6866 26.0332 75.8243 26.0391 75.9825 26.0508C76.1466 26.0566 76.2784 26.0654 76.378 26.0771V27.9053C76.3018 27.8818 76.1641 27.8584 75.9649 27.835C75.7716 27.8115 75.5753 27.7998 75.3761 27.7998C74.9249 27.7998 74.5206 27.8965 74.1632 28.0898C73.8116 28.2773 73.5333 28.5381 73.3282 28.8721C73.129 29.2002 73.0294 29.5811 73.0294 30.0146V36H71.1309ZM82.0737 26.1738V27.7119H76.7123V26.1738H82.0737ZM78.145 23.8359H80.0522V33.1172C80.0522 33.5684 80.1459 33.8994 80.3334 34.1104C80.5209 34.3154 80.8227 34.418 81.2387 34.418C81.3383 34.418 81.4438 34.4121 81.5551 34.4004C81.6723 34.3887 81.7895 34.3711 81.9067 34.3477L82.267 35.9297C82.0737 35.9941 81.8627 36.0439 81.6342 36.0791C81.4057 36.1143 81.1772 36.1318 80.9487 36.1318C80.0991 36.1318 79.4194 35.8945 78.9096 35.4199C78.3998 34.9395 78.145 34.3008 78.145 33.5039V23.8359Z" fill="white"/>
<g filter="url(#filter0_f_2271_4077)">
<rect x="8.5" y="9.5" width="87" height="39" rx="19.5" stroke="#40C2FF"/>
</g>
<rect x="174" y="9" width="79" height="38" rx="19" stroke="#40C2FF"/>
<path d="M186.404 23.6006V21.9043H196.547V23.6006H192.469V35H190.5V23.6006H186.404ZM196.486 35V25.1738H198.323V26.7471H198.428C198.61 26.2197 198.926 25.8037 199.377 25.499C199.834 25.1885 200.35 25.0332 200.924 25.0332C201.041 25.0332 201.179 25.0391 201.337 25.0508C201.501 25.0566 201.633 25.0654 201.733 25.0771V26.9053C201.657 26.8818 201.519 26.8584 201.32 26.835C201.126 26.8115 200.93 26.7998 200.731 26.7998C200.28 26.7998 199.875 26.8965 199.518 27.0898C199.166 27.2773 198.888 27.5381 198.683 27.8721C198.484 28.2002 198.384 28.5811 198.384 29.0146V35H196.486ZM202.296 35V25.1738H204.194V35H202.296ZM203.254 23.6621C202.92 23.6621 202.635 23.5508 202.401 23.3281C202.167 23.1055 202.05 22.8389 202.05 22.5283C202.05 22.2119 202.167 21.9424 202.401 21.7197C202.635 21.4971 202.92 21.3857 203.254 21.3857C203.582 21.3857 203.863 21.4971 204.097 21.7197C204.338 21.9424 204.458 22.2119 204.458 22.5283C204.458 22.8389 204.338 23.1055 204.097 23.3281C203.863 23.5508 203.582 23.6621 203.254 23.6621ZM209.758 38.8848C208.586 38.8848 207.663 38.665 206.989 38.2256C206.316 37.7861 205.85 37.2646 205.592 36.6611L207.227 35.9844C207.344 36.1719 207.499 36.3711 207.692 36.582C207.892 36.793 208.158 36.9717 208.492 37.1182C208.826 37.2646 209.257 37.3379 209.784 37.3379C210.505 37.3379 211.103 37.1621 211.577 36.8105C212.052 36.4648 212.289 35.9082 212.289 35.1406V33.2158H212.157C212.052 33.4209 211.891 33.6523 211.674 33.9102C211.457 34.1621 211.161 34.3818 210.786 34.5693C210.411 34.7568 209.922 34.8506 209.318 34.8506C208.545 34.8506 207.848 34.6689 207.227 34.3057C206.611 33.9365 206.119 33.3975 205.75 32.6885C205.387 31.9736 205.205 31.0947 205.205 30.0518C205.205 29.0088 205.384 28.1152 205.741 27.3711C206.105 26.6211 206.597 26.0469 207.218 25.6484C207.839 25.25 208.545 25.0508 209.336 25.0508C209.945 25.0508 210.438 25.1533 210.813 25.3584C211.193 25.5576 211.489 25.792 211.7 26.0615C211.911 26.3311 212.075 26.5684 212.192 26.7734H212.333V25.1738H214.188V35.2197C214.188 36.0635 213.991 36.7549 213.599 37.2939C213.212 37.833 212.685 38.2314 212.017 38.4893C211.349 38.7529 210.596 38.8848 209.758 38.8848ZM209.74 33.2598C210.566 33.2598 211.199 32.9756 211.639 32.4072C212.084 31.833 212.307 31.0391 212.307 30.0254C212.307 29.3633 212.21 28.7832 212.017 28.2852C211.823 27.7812 211.536 27.3887 211.155 27.1074C210.774 26.8203 210.303 26.6768 209.74 26.6768C209.166 26.6768 208.686 26.8262 208.299 27.125C207.918 27.418 207.631 27.8193 207.438 28.3291C207.244 28.833 207.148 29.3984 207.148 30.0254C207.148 30.6641 207.244 31.2295 207.438 31.7217C207.631 32.208 207.921 32.5859 208.308 32.8555C208.7 33.125 209.178 33.2598 209.74 33.2598ZM219.751 38.8848C218.58 38.8848 217.657 38.665 216.983 38.2256C216.309 37.7861 215.843 37.2646 215.585 36.6611L217.22 35.9844C217.337 36.1719 217.493 36.3711 217.686 36.582C217.885 36.793 218.152 36.9717 218.486 37.1182C218.82 37.2646 219.25 37.3379 219.778 37.3379C220.498 37.3379 221.096 37.1621 221.571 36.8105C222.045 36.4648 222.283 35.9082 222.283 35.1406V33.2158H222.151C222.045 33.4209 221.884 33.6523 221.667 33.9102C221.451 34.1621 221.155 34.3818 220.78 34.5693C220.405 34.7568 219.915 34.8506 219.312 34.8506C218.539 34.8506 217.841 34.6689 217.22 34.3057C216.605 33.9365 216.113 33.3975 215.744 32.6885C215.38 31.9736 215.199 31.0947 215.199 30.0518C215.199 29.0088 215.377 28.1152 215.735 27.3711C216.098 26.6211 216.59 26.0469 217.211 25.6484C217.832 25.25 218.539 25.0508 219.33 25.0508C219.939 25.0508 220.431 25.1533 220.806 25.3584C221.187 25.5576 221.483 25.792 221.694 26.0615C221.905 26.3311 222.069 26.5684 222.186 26.7734H222.327V25.1738H224.181V35.2197C224.181 36.0635 223.985 36.7549 223.592 37.2939C223.206 37.833 222.678 38.2314 222.01 38.4893C221.342 38.7529 220.589 38.8848 219.751 38.8848ZM219.734 33.2598C220.56 33.2598 221.193 32.9756 221.632 32.4072C222.078 31.833 222.3 31.0391 222.3 30.0254C222.3 29.3633 222.204 28.7832 222.01 28.2852C221.817 27.7812 221.53 27.3887 221.149 27.1074C220.768 26.8203 220.296 26.6768 219.734 26.6768C219.16 26.6768 218.679 26.8262 218.292 27.125C217.912 27.418 217.624 27.8193 217.431 28.3291C217.238 28.833 217.141 29.3984 217.141 30.0254C217.141 30.6641 217.238 31.2295 217.431 31.7217C217.624 32.208 217.914 32.5859 218.301 32.8555C218.694 33.125 219.171 33.2598 219.734 33.2598ZM229.877 35.2021C228.916 35.2021 228.084 34.9941 227.381 34.5781C226.678 34.1621 226.136 33.5762 225.755 32.8203C225.38 32.0586 225.192 31.1709 225.192 30.1572C225.192 29.1494 225.377 28.2617 225.746 27.4941C226.121 26.7266 226.645 26.1289 227.319 25.7012C227.999 25.2676 228.796 25.0508 229.71 25.0508C230.266 25.0508 230.805 25.1416 231.327 25.3232C231.848 25.5049 232.317 25.792 232.733 26.1846C233.149 26.5771 233.477 27.0869 233.718 27.7139C233.964 28.3408 234.087 29.0967 234.087 29.9814V30.667H226.273V29.2344H233.102L232.215 29.709C232.215 29.1055 232.121 28.5723 231.933 28.1094C231.746 27.6465 231.465 27.2861 231.09 27.0283C230.721 26.7646 230.261 26.6328 229.71 26.6328C229.159 26.6328 228.687 26.7646 228.295 27.0283C227.908 27.292 227.612 27.6406 227.407 28.0742C227.202 28.5078 227.099 28.9824 227.099 29.498V30.4736C227.099 31.1475 227.217 31.7188 227.451 32.1875C227.685 32.6562 228.011 33.0137 228.427 33.2598C228.848 33.5059 229.338 33.6289 229.894 33.6289C230.258 33.6289 230.586 33.5762 230.879 33.4707C231.178 33.3652 231.435 33.207 231.652 32.9961C231.869 32.7852 232.033 32.5244 232.144 32.2139L233.955 32.5566C233.808 33.084 233.551 33.5469 233.181 33.9453C232.812 34.3438 232.346 34.6543 231.784 34.877C231.227 35.0938 230.592 35.2021 229.877 35.2021ZM235.063 35V25.1738H236.9V26.7471H237.005C237.187 26.2197 237.503 25.8037 237.954 25.499C238.411 25.1885 238.927 25.0332 239.501 25.0332C239.618 25.0332 239.756 25.0391 239.914 25.0508C240.078 25.0566 240.21 25.0654 240.31 25.0771V26.9053C240.234 26.8818 240.096 26.8584 239.897 26.835C239.703 26.8115 239.507 26.7998 239.308 26.7998C238.857 26.7998 238.452 26.8965 238.095 27.0898C237.743 27.2773 237.465 27.5381 237.26 27.8721C237.061 28.2002 236.961 28.5811 236.961 29.0146V35H235.063Z" fill="white"/>
<g filter="url(#filter1_f_2271_4077)">
<rect x="173.5" y="8.5" width="80" height="39" rx="19.5" stroke="#40C2FF"/>
</g>
<rect x="92" y="104" width="84" height="38" rx="19" stroke="#40C2FF"/>
<path d="M106.171 130H104.07L108.781 116.904H111.066L115.769 130H113.677L109.968 119.286H109.862L106.171 130ZM106.522 124.876H113.316V126.528H106.522V124.876ZM120.348 130.202C119.405 130.202 118.59 129.985 117.905 129.552C117.219 129.118 116.692 128.521 116.323 127.759C115.953 126.997 115.769 126.124 115.769 125.14C115.769 124.138 115.956 123.256 116.331 122.494C116.712 121.727 117.243 121.129 117.922 120.701C118.608 120.268 119.411 120.051 120.33 120.051C121.08 120.051 121.745 120.188 122.326 120.464C122.911 120.733 123.383 121.117 123.741 121.615C124.104 122.113 124.318 122.693 124.382 123.355H122.519C122.454 123.045 122.328 122.761 122.141 122.503C121.959 122.245 121.719 122.04 121.42 121.888C121.121 121.735 120.767 121.659 120.357 121.659C119.824 121.659 119.358 121.8 118.959 122.081C118.567 122.356 118.259 122.752 118.036 123.268C117.814 123.783 117.703 124.393 117.703 125.096C117.703 125.805 117.811 126.423 118.028 126.95C118.244 127.478 118.552 127.885 118.951 128.172C119.355 128.453 119.824 128.594 120.357 128.594C120.908 128.594 121.376 128.441 121.763 128.137C122.156 127.832 122.408 127.416 122.519 126.889H124.382C124.318 127.527 124.113 128.096 123.767 128.594C123.421 129.092 122.958 129.484 122.378 129.771C121.798 130.059 121.121 130.202 120.348 130.202ZM129.946 120.174V121.712H124.585V120.174H129.946ZM126.017 117.836H127.925V127.117C127.925 127.568 128.018 127.899 128.206 128.11C128.393 128.315 128.695 128.418 129.111 128.418C129.211 128.418 129.316 128.412 129.427 128.4C129.545 128.389 129.662 128.371 129.779 128.348L130.139 129.93C129.946 129.994 129.735 130.044 129.507 130.079C129.278 130.114 129.05 130.132 128.821 130.132C127.971 130.132 127.292 129.895 126.782 129.42C126.272 128.939 126.017 128.301 126.017 127.504V117.836ZM130.957 130V120.174H132.856V130H130.957ZM131.915 118.662C131.581 118.662 131.297 118.551 131.063 118.328C130.828 118.105 130.711 117.839 130.711 117.528C130.711 117.212 130.828 116.942 131.063 116.72C131.297 116.497 131.581 116.386 131.915 116.386C132.243 116.386 132.524 116.497 132.759 116.72C132.999 116.942 133.119 117.212 133.119 117.528C133.119 117.839 132.999 118.105 132.759 118.328C132.524 118.551 132.243 118.662 131.915 118.662ZM138.446 130.202C137.526 130.202 136.72 129.991 136.029 129.569C135.343 129.147 134.81 128.556 134.429 127.794C134.054 127.032 133.867 126.147 133.867 125.14C133.867 124.12 134.054 123.229 134.429 122.468C134.81 121.7 135.343 121.105 136.029 120.684C136.72 120.262 137.526 120.051 138.446 120.051C139.372 120.051 140.177 120.262 140.863 120.684C141.548 121.105 142.081 121.7 142.462 122.468C142.843 123.229 143.034 124.12 143.034 125.14C143.034 126.147 142.843 127.032 142.462 127.794C142.081 128.556 141.548 129.147 140.863 129.569C140.177 129.991 139.372 130.202 138.446 130.202ZM138.446 128.594C139.049 128.594 139.547 128.436 139.94 128.119C140.332 127.803 140.622 127.384 140.81 126.862C141.003 126.335 141.1 125.761 141.1 125.14C141.1 124.507 141.003 123.927 140.81 123.399C140.622 122.872 140.332 122.45 139.94 122.134C139.547 121.817 139.049 121.659 138.446 121.659C137.848 121.659 137.353 121.817 136.96 122.134C136.574 122.45 136.284 122.872 136.09 123.399C135.897 123.927 135.8 124.507 135.8 125.14C135.8 125.761 135.897 126.335 136.09 126.862C136.284 127.384 136.574 127.803 136.96 128.119C137.353 128.436 137.848 128.594 138.446 128.594ZM145.952 124.173V130H144.054V120.174H145.899V121.791H146.031C146.254 121.258 146.602 120.836 147.077 120.525C147.552 120.209 148.161 120.051 148.905 120.051C149.573 120.051 150.156 120.191 150.654 120.473C151.158 120.748 151.548 121.161 151.823 121.712C152.104 122.263 152.245 122.945 152.245 123.76V130H150.346V123.988C150.346 123.279 150.159 122.723 149.784 122.318C149.409 121.908 148.899 121.703 148.255 121.703C147.815 121.703 147.42 121.803 147.068 122.002C146.722 122.195 146.45 122.474 146.251 122.837C146.052 123.2 145.952 123.646 145.952 124.173ZM162.054 116.904V130H160.103V118.891H160.015L156.904 120.938V119.04L160.156 116.904H162.054Z" fill="white"/>
<g filter="url(#filter2_f_2271_4077)">
<rect x="91.5" y="103.5" width="85" height="39" rx="19.5" stroke="#40C2FF"/>
</g>
<rect x="91" y="198" width="87" height="38" rx="19" stroke="#40C2FF"/>
<path d="M105.171 224H103.07L107.781 210.904H110.066L114.769 224H112.677L108.968 213.286H108.862L105.171 224ZM105.522 218.876H112.316V220.528H105.522V218.876ZM119.348 224.202C118.405 224.202 117.59 223.985 116.905 223.552C116.219 223.118 115.692 222.521 115.323 221.759C114.953 220.997 114.769 220.124 114.769 219.14C114.769 218.138 114.956 217.256 115.331 216.494C115.712 215.727 116.243 215.129 116.922 214.701C117.608 214.268 118.411 214.051 119.33 214.051C120.08 214.051 120.745 214.188 121.326 214.464C121.911 214.733 122.383 215.117 122.741 215.615C123.104 216.113 123.318 216.693 123.382 217.355H121.519C121.454 217.045 121.328 216.761 121.141 216.503C120.959 216.245 120.719 216.04 120.42 215.888C120.121 215.735 119.767 215.659 119.357 215.659C118.824 215.659 118.358 215.8 117.959 216.081C117.567 216.356 117.259 216.752 117.036 217.268C116.814 217.783 116.703 218.393 116.703 219.096C116.703 219.805 116.811 220.423 117.028 220.95C117.244 221.478 117.552 221.885 117.951 222.172C118.355 222.453 118.824 222.594 119.357 222.594C119.908 222.594 120.376 222.441 120.763 222.137C121.156 221.832 121.408 221.416 121.519 220.889H123.382C123.318 221.527 123.113 222.096 122.767 222.594C122.421 223.092 121.958 223.484 121.378 223.771C120.798 224.059 120.121 224.202 119.348 224.202ZM128.946 214.174V215.712H123.585V214.174H128.946ZM125.017 211.836H126.925V221.117C126.925 221.568 127.018 221.899 127.206 222.11C127.393 222.315 127.695 222.418 128.111 222.418C128.211 222.418 128.316 222.412 128.427 222.4C128.545 222.389 128.662 222.371 128.779 222.348L129.139 223.93C128.946 223.994 128.735 224.044 128.507 224.079C128.278 224.114 128.05 224.132 127.821 224.132C126.971 224.132 126.292 223.895 125.782 223.42C125.272 222.939 125.017 222.301 125.017 221.504V211.836ZM129.957 224V214.174H131.856V224H129.957ZM130.915 212.662C130.581 212.662 130.297 212.551 130.063 212.328C129.828 212.105 129.711 211.839 129.711 211.528C129.711 211.212 129.828 210.942 130.063 210.72C130.297 210.497 130.581 210.386 130.915 210.386C131.243 210.386 131.524 210.497 131.759 210.72C131.999 210.942 132.119 211.212 132.119 211.528C132.119 211.839 131.999 212.105 131.759 212.328C131.524 212.551 131.243 212.662 130.915 212.662ZM137.446 224.202C136.526 224.202 135.72 223.991 135.029 223.569C134.343 223.147 133.81 222.556 133.429 221.794C133.054 221.032 132.867 220.147 132.867 219.14C132.867 218.12 133.054 217.229 133.429 216.468C133.81 215.7 134.343 215.105 135.029 214.684C135.72 214.262 136.526 214.051 137.446 214.051C138.372 214.051 139.177 214.262 139.863 214.684C140.548 215.105 141.081 215.7 141.462 216.468C141.843 217.229 142.034 218.12 142.034 219.14C142.034 220.147 141.843 221.032 141.462 221.794C141.081 222.556 140.548 223.147 139.863 223.569C139.177 223.991 138.372 224.202 137.446 224.202ZM137.446 222.594C138.049 222.594 138.547 222.436 138.94 222.119C139.332 221.803 139.622 221.384 139.81 220.862C140.003 220.335 140.1 219.761 140.1 219.14C140.1 218.507 140.003 217.927 139.81 217.399C139.622 216.872 139.332 216.45 138.94 216.134C138.547 215.817 138.049 215.659 137.446 215.659C136.848 215.659 136.353 215.817 135.96 216.134C135.574 216.45 135.284 216.872 135.09 217.399C134.897 217.927 134.8 218.507 134.8 219.14C134.8 219.761 134.897 220.335 135.09 220.862C135.284 221.384 135.574 221.803 135.96 222.119C136.353 222.436 136.848 222.594 137.446 222.594ZM144.952 218.173V224H143.054V214.174H144.899V215.791H145.031C145.254 215.258 145.602 214.836 146.077 214.525C146.552 214.209 147.161 214.051 147.905 214.051C148.573 214.051 149.156 214.191 149.654 214.473C150.158 214.748 150.548 215.161 150.823 215.712C151.104 216.263 151.245 216.945 151.245 217.76V224H149.346V217.988C149.346 217.279 149.159 216.723 148.784 216.318C148.409 215.908 147.899 215.703 147.255 215.703C146.815 215.703 146.42 215.803 146.068 216.002C145.722 216.195 145.45 216.474 145.251 216.837C145.052 217.2 144.952 217.646 144.952 218.173ZM156.326 224V222.576L160.755 217.971C161.224 217.479 161.611 217.045 161.916 216.67C162.226 216.289 162.458 215.929 162.61 215.589C162.768 215.249 162.847 214.889 162.847 214.508C162.847 214.068 162.745 213.69 162.54 213.374C162.334 213.058 162.056 212.814 161.705 212.645C161.353 212.475 160.955 212.39 160.509 212.39C160.041 212.39 159.633 212.486 159.288 212.68C158.942 212.867 158.672 213.137 158.479 213.488C158.292 213.834 158.198 214.241 158.198 214.71H156.317C156.317 213.913 156.499 213.216 156.862 212.618C157.231 212.021 157.735 211.558 158.374 211.229C159.018 210.896 159.745 210.729 160.553 210.729C161.379 210.729 162.106 210.893 162.733 211.221C163.36 211.549 163.849 211.994 164.201 212.557C164.552 213.113 164.728 213.743 164.728 214.446C164.728 214.933 164.637 215.407 164.456 215.87C164.28 216.333 163.966 216.852 163.515 217.426C163.07 217.994 162.449 218.68 161.652 219.482L159.05 222.207V222.312H164.939V224H156.326Z" fill="white"/>
<g filter="url(#filter3_f_2271_4077)">
<rect x="90.5" y="197.5" width="88" height="39" rx="19.5" stroke="#40C2FF"/>
</g>
<path d="M174 29L169 26.1132V31.8868L174 29ZM95 29.5H169.5V28.5H95V29.5Z" fill="#CCCCCC"/>
<path d="M135.5 103L138.387 98H132.613L135.5 103ZM215 48V66.5H216V48H215ZM203.5 78H147.5V79H203.5V78ZM135 90.5V98.5H136V90.5H135ZM147.5 78C140.596 78 135 83.5964 135 90.5H136C136 84.1487 141.149 79 147.5 79V78ZM215 66.5C215 72.8513 209.851 78 203.5 78V79C210.404 79 216 73.4036 216 66.5H215Z" fill="#CCCCCC"/>
<path d="M135.5 197.5L138.387 192.5H132.613L135.5 197.5ZM135 143V193H136V143H135Z" fill="#CCCCCC"/>
<defs>
<filter id="filter0_f_2271_4077" x="0" y="1" width="104" height="56" filterUnits="userSpaceOnUse" color-interpolation-filters="sRGB">
<feFlood flood-opacity="0" result="BackgroundImageFix"/>
<feBlend mode="normal" in="SourceGraphic" in2="BackgroundImageFix" result="shape"/>
<feGaussianBlur stdDeviation="4" result="effect1_foregroundBlur_2271_4077"/>
</filter>
<filter id="filter1_f_2271_4077" x="165" y="0" width="97" height="56" filterUnits="userSpaceOnUse" color-interpolation-filters="sRGB">
<feFlood flood-opacity="0" result="BackgroundImageFix"/>
<feBlend mode="normal" in="SourceGraphic" in2="BackgroundImageFix" result="shape"/>
<feGaussianBlur stdDeviation="4" result="effect1_foregroundBlur_2271_4077"/>
</filter>
<filter id="filter2_f_2271_4077" x="83" y="95" width="102" height="56" filterUnits="userSpaceOnUse" color-interpolation-filters="sRGB">
<feFlood flood-opacity="0" result="BackgroundImageFix"/>
<feBlend mode="normal" in="SourceGraphic" in2="BackgroundImageFix" result="shape"/>
<feGaussianBlur stdDeviation="4" result="effect1_foregroundBlur_2271_4077"/>
</filter>
<filter id="filter3_f_2271_4077" x="82" y="189" width="105" height="56" filterUnits="userSpaceOnUse" color-interpolation-filters="sRGB">
<feFlood flood-opacity="0" result="BackgroundImageFix"/>
<feBlend mode="normal" in="SourceGraphic" in2="BackgroundImageFix" result="shape"/>
<feGaussianBlur stdDeviation="4" result="effect1_foregroundBlur_2271_4077"/>
</filter>
</defs>
</svg>
